ISO-10303-21;
HEADER;
FILE_DESCRIPTION(('FreeCAD Model'),'2;1');
FILE_NAME('Open CASCADE Shape Model','2026-09-18T15:29:33',('FreeCAD'),(
    'FreeCAD'),'Open CASCADE STEP processor 7.8','FreeCAD','Unknown');
FILE_SCHEMA(('AUTOMOTIVE_DESIGN { 1 0 10303 214 1 1 1 1 }'));
ENDSEC;
DATA;
#1 = APPLICATION_PROTOCOL_DEFINITION('international standard',
  'automotive_design',2000,#2);
#2 = APPLICATION_CONTEXT(
  'core data for automotive mechanical design processes');
#3 = SHAPE_DEFINITION_REPRESENTATION(#4,#10);
#4 = PRODUCT_DEFINITION_SHAPE('','',#5);
#5 = PRODUCT_DEFINITION('design','',#6,#9);
#6 = PRODUCT_DEFINITION_FORMATION('','',#7);
#7 = PRODUCT('Open CASCADE STEP translator 7.8 1',
  'Open CASCADE STEP translator 7.8 1','',(#8));
#8 = PRODUCT_CONTEXT('',#2,'mechanical');
#9 = PRODUCT_DEFINITION_CONTEXT('part definition',#2,'design');
#10 = ADVANCED_BREP_SHAPE_REPRESENTATION('',(#11,#15),#1123);
#11 = AXIS2_PLACEMENT_3D('',#12,#13,#14);
#12 = CARTESIAN_POINT('',(0.,0.,0.));
#13 = DIRECTION('',(0.,0.,1.));
#14 = DIRECTION('',(1.,0.,-0.));
#15 = MANIFOLD_SOLID_BREP('',#16);
#16 = CLOSED_SHELL('',(#17,#59,#212,#237,#409,#426,#443,#460,#477,#494,
    #511,#529,#546,#564,#581,#599,#616,#633,#645,#670,#695,#754,#813,
    #844,#868,#892,#916,#940,#957,#988,#1012,#1036,#1060,#1084,#1101));
#17 = ADVANCED_FACE('',(#18),#54,.T.);
#18 = FACE_BOUND('',#19,.T.);
#19 = EDGE_LOOP('',(#20,#31,#39,#48));
#20 = ORIENTED_EDGE('',*,*,#21,.F.);
#21 = EDGE_CURVE('',#22,#24,#26,.T.);
#22 = VERTEX_POINT('',#23);
#23 = CARTESIAN_POINT('',(14.687654320988,3.045128986952,6.2));
#24 = VERTEX_POINT('',#25);
#25 = CARTESIAN_POINT('',(12.538971326355,8.232508613833,6.2));
#26 = CIRCLE('',#27,15.);
#27 = AXIS2_PLACEMENT_3D('',#28,#29,#30);
#28 = CARTESIAN_POINT('',(0.,0.,6.2));
#29 = DIRECTION('',(0.,0.,1.));
#30 = DIRECTION('',(1.,0.,-0.));
#31 = ORIENTED_EDGE('',*,*,#32,.F.);
#32 = EDGE_CURVE('',#33,#22,#35,.T.);
#33 = VERTEX_POINT('',#34);
#34 = CARTESIAN_POINT('',(14.687654320988,3.045128986952,0.));
#35 = LINE('',#36,#37);
#36 = CARTESIAN_POINT('',(14.687654320988,3.045128986952,0.));
#37 = VECTOR('',#38,1.);
#38 = DIRECTION('',(0.,0.,1.));
#39 = ORIENTED_EDGE('',*,*,#40,.T.);
#40 = EDGE_CURVE('',#33,#41,#43,.T.);
#41 = VERTEX_POINT('',#42);
#42 = CARTESIAN_POINT('',(12.538971326355,8.232508613833,0.));
#43 = CIRCLE('',#44,15.);
#44 = AXIS2_PLACEMENT_3D('',#45,#46,#47);
#45 = CARTESIAN_POINT('',(0.,0.,0.));
#46 = DIRECTION('',(0.,0.,1.));
#47 = DIRECTION('',(1.,0.,-0.));
#48 = ORIENTED_EDGE('',*,*,#49,.T.);
#49 = EDGE_CURVE('',#41,#24,#50,.T.);
#50 = LINE('',#51,#52);
#51 = CARTESIAN_POINT('',(12.538971326355,8.232508613833,0.));
#52 = VECTOR('',#53,1.);
#53 = DIRECTION('',(0.,0.,1.));
#54 = CYLINDRICAL_SURFACE('',#55,15.);
#55 = AXIS2_PLACEMENT_3D('',#56,#57,#58);
#56 = CARTESIAN_POINT('',(0.,0.,0.));
#57 = DIRECTION('',(0.,0.,1.));
#58 = DIRECTION('',(1.,0.,-0.));
#59 = ADVANCED_FACE('',(#60,#196),#207,.T.);
#60 = FACE_BOUND('',#61,.T.);
#61 = EDGE_LOOP('',(#62,#71,#72,#81,#90,#99,#108,#117,#126,#135,#144,
    #153,#162,#171,#180,#189));
#62 = ORIENTED_EDGE('',*,*,#63,.F.);
#63 = EDGE_CURVE('',#22,#64,#66,.T.);
#64 = VERTEX_POINT('',#65);
#65 = CARTESIAN_POINT('',(14.687654320988,-3.045128986952,6.2));
#66 = CIRCLE('',#67,3.4);
#67 = AXIS2_PLACEMENT_3D('',#68,#69,#70);
#68 = CARTESIAN_POINT('',(16.2,0.,6.2));
#69 = DIRECTION('',(0.,0.,1.));
#70 = DIRECTION('',(1.,0.,-0.));
#71 = ORIENTED_EDGE('',*,*,#21,.T.);
#72 = ORIENTED_EDGE('',*,*,#73,.F.);
#73 = EDGE_CURVE('',#74,#24,#76,.T.);
#74 = VERTEX_POINT('',#75);
#75 = CARTESIAN_POINT('',(8.232508613833,12.538971326355,6.2));
#76 = CIRCLE('',#77,3.4);
#77 = AXIS2_PLACEMENT_3D('',#78,#79,#80);
#78 = CARTESIAN_POINT('',(11.455129855222,11.455129855222,6.2));
#79 = DIRECTION('',(0.,0.,1.));
#80 = DIRECTION('',(1.,0.,-0.));
#81 = ORIENTED_EDGE('',*,*,#82,.T.);
#82 = EDGE_CURVE('',#74,#83,#85,.T.);
#83 = VERTEX_POINT('',#84);
#84 = CARTESIAN_POINT('',(3.045128986952,14.687654320988,6.2));
#85 = CIRCLE('',#86,15.);
#86 = AXIS2_PLACEMENT_3D('',#87,#88,#89);
#87 = CARTESIAN_POINT('',(0.,0.,6.2));
#88 = DIRECTION('',(0.,0.,1.));
#89 = DIRECTION('',(1.,0.,-0.));
#90 = ORIENTED_EDGE('',*,*,#91,.F.);
#91 = EDGE_CURVE('',#92,#83,#94,.T.);
#92 = VERTEX_POINT('',#93);
#93 = CARTESIAN_POINT('',(-3.045128986952,14.687654320988,6.2));
#94 = CIRCLE('',#95,3.4);
#95 = AXIS2_PLACEMENT_3D('',#96,#97,#98);
#96 = CARTESIAN_POINT('',(9.919639073094E-16,16.2,6.2));
#97 = DIRECTION('',(0.,0.,1.));
#98 = DIRECTION('',(1.,0.,-0.));
#99 = ORIENTED_EDGE('',*,*,#100,.T.);
#100 = EDGE_CURVE('',#92,#101,#103,.T.);
#101 = VERTEX_POINT('',#102);
#102 = CARTESIAN_POINT('',(-8.232508613833,12.538971326355,6.2));
#103 = CIRCLE('',#104,15.);
#104 = AXIS2_PLACEMENT_3D('',#105,#106,#107);
#105 = CARTESIAN_POINT('',(0.,0.,6.2));
#106 = DIRECTION('',(0.,0.,1.));
#107 = DIRECTION('',(1.,0.,-0.));
#108 = ORIENTED_EDGE('',*,*,#109,.F.);
#109 = EDGE_CURVE('',#110,#101,#112,.T.);
#110 = VERTEX_POINT('',#111);
#111 = CARTESIAN_POINT('',(-12.53897132635,8.232508613833,6.2));
#112 = CIRCLE('',#113,3.4);
#113 = AXIS2_PLACEMENT_3D('',#114,#115,#116);
#114 = CARTESIAN_POINT('',(-11.45512985522,11.455129855222,6.2));
#115 = DIRECTION('',(0.,0.,1.));
#116 = DIRECTION('',(1.,0.,-0.));
#117 = ORIENTED_EDGE('',*,*,#118,.T.);
#118 = EDGE_CURVE('',#110,#119,#121,.T.);
#119 = VERTEX_POINT('',#120);
#120 = CARTESIAN_POINT('',(-14.68765432098,3.045128986952,6.2));
#121 = CIRCLE('',#122,15.);
#122 = AXIS2_PLACEMENT_3D('',#123,#124,#125);
#123 = CARTESIAN_POINT('',(0.,0.,6.2));
#124 = DIRECTION('',(0.,0.,1.));
#125 = DIRECTION('',(1.,0.,-0.));
#126 = ORIENTED_EDGE('',*,*,#127,.F.);
#127 = EDGE_CURVE('',#128,#119,#130,.T.);
#128 = VERTEX_POINT('',#129);
#129 = CARTESIAN_POINT('',(-14.68765432098,-3.045128986952,6.2));
#130 = CIRCLE('',#131,3.4);
#131 = AXIS2_PLACEMENT_3D('',#132,#133,#134);
#132 = CARTESIAN_POINT('',(-16.2,1.983927814619E-15,6.2));
#133 = DIRECTION('',(0.,0.,1.));
#134 = DIRECTION('',(1.,0.,-0.));
#135 = ORIENTED_EDGE('',*,*,#136,.T.);
#136 = EDGE_CURVE('',#128,#137,#139,.T.);
#137 = VERTEX_POINT('',#138);
#138 = CARTESIAN_POINT('',(-12.53897132635,-8.232508613833,6.2));
#139 = CIRCLE('',#140,15.);
#140 = AXIS2_PLACEMENT_3D('',#141,#142,#143);
#141 = CARTESIAN_POINT('',(0.,0.,6.2));
#142 = DIRECTION('',(0.,0.,1.));
#143 = DIRECTION('',(1.,0.,-0.));
#144 = ORIENTED_EDGE('',*,*,#145,.F.);
#145 = EDGE_CURVE('',#146,#137,#148,.T.);
#146 = VERTEX_POINT('',#147);
#147 = CARTESIAN_POINT('',(-8.232508613833,-12.53897132635,6.2));
#148 = CIRCLE('',#149,3.4);
#149 = AXIS2_PLACEMENT_3D('',#150,#151,#152);
#150 = CARTESIAN_POINT('',(-11.45512985522,-11.45512985522,6.2));
#151 = DIRECTION('',(0.,0.,1.));
#152 = DIRECTION('',(1.,0.,-0.));
#153 = ORIENTED_EDGE('',*,*,#154,.T.);
#154 = EDGE_CURVE('',#146,#155,#157,.T.);
#155 = VERTEX_POINT('',#156);
#156 = CARTESIAN_POINT('',(-3.045128986952,-14.68765432098,6.2));
#157 = CIRCLE('',#158,15.);
#158 = AXIS2_PLACEMENT_3D('',#159,#160,#161);
#159 = CARTESIAN_POINT('',(0.,0.,6.2));
#160 = DIRECTION('',(0.,0.,1.));
#161 = DIRECTION('',(1.,0.,-0.));
#162 = ORIENTED_EDGE('',*,*,#163,.F.);
#163 = EDGE_CURVE('',#164,#155,#166,.T.);
#164 = VERTEX_POINT('',#165);
#165 = CARTESIAN_POINT('',(3.045128986952,-14.68765432098,6.2));
#166 = CIRCLE('',#167,3.4);
#167 = AXIS2_PLACEMENT_3D('',#168,#169,#170);
#168 = CARTESIAN_POINT('',(-2.975891721928E-15,-16.2,6.2));
#169 = DIRECTION('',(0.,0.,1.));
#170 = DIRECTION('',(1.,0.,-0.));
#171 = ORIENTED_EDGE('',*,*,#172,.T.);
#172 = EDGE_CURVE('',#164,#173,#175,.T.);
#173 = VERTEX_POINT('',#174);
#174 = CARTESIAN_POINT('',(8.232508613833,-12.53897132635,6.2));
#175 = CIRCLE('',#176,15.);
#176 = AXIS2_PLACEMENT_3D('',#177,#178,#179);
#177 = CARTESIAN_POINT('',(0.,0.,6.2));
#178 = DIRECTION('',(0.,0.,1.));
#179 = DIRECTION('',(1.,0.,-0.));
#180 = ORIENTED_EDGE('',*,*,#181,.F.);
#181 = EDGE_CURVE('',#182,#173,#184,.T.);
#182 = VERTEX_POINT('',#183);
#183 = CARTESIAN_POINT('',(12.538971326355,-8.232508613833,6.2));
#184 = CIRCLE('',#185,3.4);
#185 = AXIS2_PLACEMENT_3D('',#186,#187,#188);
#186 = CARTESIAN_POINT('',(11.455129855222,-11.45512985522,6.2));
#187 = DIRECTION('',(0.,0.,1.));
#188 = DIRECTION('',(1.,0.,-0.));
#189 = ORIENTED_EDGE('',*,*,#190,.T.);
#190 = EDGE_CURVE('',#182,#64,#191,.T.);
#191 = CIRCLE('',#192,15.);
#192 = AXIS2_PLACEMENT_3D('',#193,#194,#195);
#193 = CARTESIAN_POINT('',(0.,0.,6.2));
#194 = DIRECTION('',(0.,0.,1.));
#195 = DIRECTION('',(1.,0.,-0.));
#196 = FACE_BOUND('',#197,.T.);
#197 = EDGE_LOOP('',(#198));
#198 = ORIENTED_EDGE('',*,*,#199,.F.);
#199 = EDGE_CURVE('',#200,#200,#202,.T.);
#200 = VERTEX_POINT('',#201);
#201 = CARTESIAN_POINT('',(5.,-1.224646799147E-15,6.2));
#202 = CIRCLE('',#203,5.);
#203 = AXIS2_PLACEMENT_3D('',#204,#205,#206);
#204 = CARTESIAN_POINT('',(0.,0.,6.2));
#205 = DIRECTION('',(0.,0.,1.));
#206 = DIRECTION('',(1.,0.,-0.));
#207 = PLANE('',#208);
#208 = AXIS2_PLACEMENT_3D('',#209,#210,#211);
#209 = CARTESIAN_POINT('',(0.,0.,6.2));
#210 = DIRECTION('',(0.,0.,1.));
#211 = DIRECTION('',(1.,0.,-0.));
#212 = ADVANCED_FACE('',(#213),#232,.F.);
#213 = FACE_BOUND('',#214,.F.);
#214 = EDGE_LOOP('',(#215,#223,#230,#231));
#215 = ORIENTED_EDGE('',*,*,#216,.F.);
#216 = EDGE_CURVE('',#217,#74,#219,.T.);
#217 = VERTEX_POINT('',#218);
#218 = CARTESIAN_POINT('',(8.232508613833,12.538971326355,0.));
#219 = LINE('',#220,#221);
#220 = CARTESIAN_POINT('',(8.232508613833,12.538971326355,0.));
#221 = VECTOR('',#222,1.);
#222 = DIRECTION('',(0.,0.,1.));
#223 = ORIENTED_EDGE('',*,*,#224,.T.);
#224 = EDGE_CURVE('',#217,#41,#225,.T.);
#225 = CIRCLE('',#226,3.4);
#226 = AXIS2_PLACEMENT_3D('',#227,#228,#229);
#227 = CARTESIAN_POINT('',(11.455129855222,11.455129855222,0.));
#228 = DIRECTION('',(0.,0.,1.));
#229 = DIRECTION('',(1.,0.,-0.));
#230 = ORIENTED_EDGE('',*,*,#49,.T.);
#231 = ORIENTED_EDGE('',*,*,#73,.F.);
#232 = CYLINDRICAL_SURFACE('',#233,3.4);
#233 = AXIS2_PLACEMENT_3D('',#234,#235,#236);
#234 = CARTESIAN_POINT('',(11.455129855222,11.455129855222,-0.2));
#235 = DIRECTION('',(0.,0.,1.));
#236 = DIRECTION('',(1.,0.,-0.));
#237 = ADVANCED_FACE('',(#238,#393),#404,.F.);
#238 = FACE_BOUND('',#239,.F.);
#239 = EDGE_LOOP('',(#240,#249,#250,#251,#260,#269,#278,#287,#296,#305,
    #314,#323,#332,#341,#350,#359,#368,#377,#386));
#240 = ORIENTED_EDGE('',*,*,#241,.F.);
#241 = EDGE_CURVE('',#33,#242,#244,.T.);
#242 = VERTEX_POINT('',#243);
#243 = CARTESIAN_POINT('',(14.687654320988,-3.045128986952,0.));
#244 = CIRCLE('',#245,3.4);
#245 = AXIS2_PLACEMENT_3D('',#246,#247,#248);
#246 = CARTESIAN_POINT('',(16.2,0.,0.));
#247 = DIRECTION('',(0.,0.,1.));
#248 = DIRECTION('',(1.,0.,-0.));
#249 = ORIENTED_EDGE('',*,*,#40,.T.);
#250 = ORIENTED_EDGE('',*,*,#224,.F.);
#251 = ORIENTED_EDGE('',*,*,#252,.T.);
#252 = EDGE_CURVE('',#217,#253,#255,.T.);
#253 = VERTEX_POINT('',#254);
#254 = CARTESIAN_POINT('',(3.045128986952,14.687654320988,0.));
#255 = CIRCLE('',#256,15.);
#256 = AXIS2_PLACEMENT_3D('',#257,#258,#259);
#257 = CARTESIAN_POINT('',(0.,0.,0.));
#258 = DIRECTION('',(0.,0.,1.));
#259 = DIRECTION('',(1.,0.,-0.));
#260 = ORIENTED_EDGE('',*,*,#261,.F.);
#261 = EDGE_CURVE('',#262,#253,#264,.T.);
#262 = VERTEX_POINT('',#263);
#263 = CARTESIAN_POINT('',(-3.045128986952,14.687654320988,0.));
#264 = CIRCLE('',#265,3.4);
#265 = AXIS2_PLACEMENT_3D('',#266,#267,#268);
#266 = CARTESIAN_POINT('',(9.919639073094E-16,16.2,0.));
#267 = DIRECTION('',(0.,0.,1.));
#268 = DIRECTION('',(1.,0.,-0.));
#269 = ORIENTED_EDGE('',*,*,#270,.T.);
#270 = EDGE_CURVE('',#262,#271,#273,.T.);
#271 = VERTEX_POINT('',#272);
#272 = CARTESIAN_POINT('',(-8.232508613833,12.538971326355,0.));
#273 = CIRCLE('',#274,15.);
#274 = AXIS2_PLACEMENT_3D('',#275,#276,#277);
#275 = CARTESIAN_POINT('',(0.,0.,0.));
#276 = DIRECTION('',(0.,0.,1.));
#277 = DIRECTION('',(1.,0.,-0.));
#278 = ORIENTED_EDGE('',*,*,#279,.F.);
#279 = EDGE_CURVE('',#280,#271,#282,.T.);
#280 = VERTEX_POINT('',#281);
#281 = CARTESIAN_POINT('',(-8.055129855222,11.455129855222,0.));
#282 = CIRCLE('',#283,3.4);
#283 = AXIS2_PLACEMENT_3D('',#284,#285,#286);
#284 = CARTESIAN_POINT('',(-11.45512985522,11.455129855222,0.));
#285 = DIRECTION('',(0.,0.,1.));
#286 = DIRECTION('',(1.,0.,-0.));
#287 = ORIENTED_EDGE('',*,*,#288,.F.);
#288 = EDGE_CURVE('',#289,#280,#291,.T.);
#289 = VERTEX_POINT('',#290);
#290 = CARTESIAN_POINT('',(-12.53897132635,8.232508613833,0.));
#291 = CIRCLE('',#292,3.4);
#292 = AXIS2_PLACEMENT_3D('',#293,#294,#295);
#293 = CARTESIAN_POINT('',(-11.45512985522,11.455129855222,0.));
#294 = DIRECTION('',(0.,0.,1.));
#295 = DIRECTION('',(1.,0.,-0.));
#296 = ORIENTED_EDGE('',*,*,#297,.T.);
#297 = EDGE_CURVE('',#289,#298,#300,.T.);
#298 = VERTEX_POINT('',#299);
#299 = CARTESIAN_POINT('',(-14.68765432098,3.045128986952,0.));
#300 = CIRCLE('',#301,15.);
#301 = AXIS2_PLACEMENT_3D('',#302,#303,#304);
#302 = CARTESIAN_POINT('',(0.,0.,0.));
#303 = DIRECTION('',(0.,0.,1.));
#304 = DIRECTION('',(1.,0.,-0.));
#305 = ORIENTED_EDGE('',*,*,#306,.F.);
#306 = EDGE_CURVE('',#307,#298,#309,.T.);
#307 = VERTEX_POINT('',#308);
#308 = CARTESIAN_POINT('',(-12.8,1.151167991199E-15,0.));
#309 = CIRCLE('',#310,3.4);
#310 = AXIS2_PLACEMENT_3D('',#311,#312,#313);
#311 = CARTESIAN_POINT('',(-16.2,1.983927814619E-15,0.));
#312 = DIRECTION('',(0.,0.,1.));
#313 = DIRECTION('',(1.,0.,-0.));
#314 = ORIENTED_EDGE('',*,*,#315,.F.);
#315 = EDGE_CURVE('',#316,#307,#318,.T.);
#316 = VERTEX_POINT('',#317);
#317 = CARTESIAN_POINT('',(-14.68765432098,-3.045128986952,0.));
#318 = CIRCLE('',#319,3.4);
#319 = AXIS2_PLACEMENT_3D('',#320,#321,#322);
#320 = CARTESIAN_POINT('',(-16.2,1.983927814619E-15,0.));
#321 = DIRECTION('',(0.,0.,1.));
#322 = DIRECTION('',(1.,0.,-0.));
#323 = ORIENTED_EDGE('',*,*,#324,.T.);
#324 = EDGE_CURVE('',#316,#325,#327,.T.);
#325 = VERTEX_POINT('',#326);
#326 = CARTESIAN_POINT('',(-12.53897132635,-8.232508613833,0.));
#327 = CIRCLE('',#328,15.);
#328 = AXIS2_PLACEMENT_3D('',#329,#330,#331);
#329 = CARTESIAN_POINT('',(0.,0.,0.));
#330 = DIRECTION('',(0.,0.,1.));
#331 = DIRECTION('',(1.,0.,-0.));
#332 = ORIENTED_EDGE('',*,*,#333,.F.);
#333 = EDGE_CURVE('',#334,#325,#336,.T.);
#334 = VERTEX_POINT('',#335);
#335 = CARTESIAN_POINT('',(-8.055129855222,-11.45512985522,0.));
#336 = CIRCLE('',#337,3.4);
#337 = AXIS2_PLACEMENT_3D('',#338,#339,#340);
#338 = CARTESIAN_POINT('',(-11.45512985522,-11.45512985522,0.));
#339 = DIRECTION('',(0.,0.,1.));
#340 = DIRECTION('',(1.,0.,-0.));
#341 = ORIENTED_EDGE('',*,*,#342,.F.);
#342 = EDGE_CURVE('',#343,#334,#345,.T.);
#343 = VERTEX_POINT('',#344);
#344 = CARTESIAN_POINT('',(-8.232508613833,-12.53897132635,0.));
#345 = CIRCLE('',#346,3.4);
#346 = AXIS2_PLACEMENT_3D('',#347,#348,#349);
#347 = CARTESIAN_POINT('',(-11.45512985522,-11.45512985522,0.));
#348 = DIRECTION('',(0.,0.,1.));
#349 = DIRECTION('',(1.,0.,-0.));
#350 = ORIENTED_EDGE('',*,*,#351,.T.);
#351 = EDGE_CURVE('',#343,#352,#354,.T.);
#352 = VERTEX_POINT('',#353);
#353 = CARTESIAN_POINT('',(-3.045128986952,-14.68765432098,0.));
#354 = CIRCLE('',#355,15.);
#355 = AXIS2_PLACEMENT_3D('',#356,#357,#358);
#356 = CARTESIAN_POINT('',(0.,0.,0.));
#357 = DIRECTION('',(0.,0.,1.));
#358 = DIRECTION('',(1.,0.,-0.));
#359 = ORIENTED_EDGE('',*,*,#360,.F.);
#360 = EDGE_CURVE('',#361,#352,#363,.T.);
#361 = VERTEX_POINT('',#362);
#362 = CARTESIAN_POINT('',(3.045128986952,-14.68765432098,0.));
#363 = CIRCLE('',#364,3.4);
#364 = AXIS2_PLACEMENT_3D('',#365,#366,#367);
#365 = CARTESIAN_POINT('',(-2.975891721928E-15,-16.2,0.));
#366 = DIRECTION('',(0.,0.,1.));
#367 = DIRECTION('',(1.,0.,-0.));
#368 = ORIENTED_EDGE('',*,*,#369,.T.);
#369 = EDGE_CURVE('',#361,#370,#372,.T.);
#370 = VERTEX_POINT('',#371);
#371 = CARTESIAN_POINT('',(8.232508613833,-12.53897132635,0.));
#372 = CIRCLE('',#373,15.);
#373 = AXIS2_PLACEMENT_3D('',#374,#375,#376);
#374 = CARTESIAN_POINT('',(0.,0.,0.));
#375 = DIRECTION('',(0.,0.,1.));
#376 = DIRECTION('',(1.,0.,-0.));
#377 = ORIENTED_EDGE('',*,*,#378,.F.);
#378 = EDGE_CURVE('',#379,#370,#381,.T.);
#379 = VERTEX_POINT('',#380);
#380 = CARTESIAN_POINT('',(12.538971326355,-8.232508613833,0.));
#381 = CIRCLE('',#382,3.4);
#382 = AXIS2_PLACEMENT_3D('',#383,#384,#385);
#383 = CARTESIAN_POINT('',(11.455129855222,-11.45512985522,0.));
#384 = DIRECTION('',(0.,0.,1.));
#385 = DIRECTION('',(1.,0.,-0.));
#386 = ORIENTED_EDGE('',*,*,#387,.T.);
#387 = EDGE_CURVE('',#379,#242,#388,.T.);
#388 = CIRCLE('',#389,15.);
#389 = AXIS2_PLACEMENT_3D('',#390,#391,#392);
#390 = CARTESIAN_POINT('',(0.,0.,0.));
#391 = DIRECTION('',(0.,0.,1.));
#392 = DIRECTION('',(1.,0.,-0.));
#393 = FACE_BOUND('',#394,.F.);
#394 = EDGE_LOOP('',(#395));
#395 = ORIENTED_EDGE('',*,*,#396,.F.);
#396 = EDGE_CURVE('',#397,#397,#399,.T.);
#397 = VERTEX_POINT('',#398);
#398 = CARTESIAN_POINT('',(2.3,-5.633375276078E-16,0.));
#399 = CIRCLE('',#400,2.3);
#400 = AXIS2_PLACEMENT_3D('',#401,#402,#403);
#401 = CARTESIAN_POINT('',(0.,0.,0.));
#402 = DIRECTION('',(0.,0.,1.));
#403 = DIRECTION('',(1.,0.,-0.));
#404 = PLANE('',#405);
#405 = AXIS2_PLACEMENT_3D('',#406,#407,#408);
#406 = CARTESIAN_POINT('',(0.,0.,0.));
#407 = DIRECTION('',(0.,0.,1.));
#408 = DIRECTION('',(1.,0.,-0.));
#409 = ADVANCED_FACE('',(#410),#421,.F.);
#410 = FACE_BOUND('',#411,.F.);
#411 = EDGE_LOOP('',(#412,#413,#414,#420));
#412 = ORIENTED_EDGE('',*,*,#32,.F.);
#413 = ORIENTED_EDGE('',*,*,#241,.T.);
#414 = ORIENTED_EDGE('',*,*,#415,.T.);
#415 = EDGE_CURVE('',#242,#64,#416,.T.);
#416 = LINE('',#417,#418);
#417 = CARTESIAN_POINT('',(14.687654320988,-3.045128986952,0.));
#418 = VECTOR('',#419,1.);
#419 = DIRECTION('',(0.,0.,1.));
#420 = ORIENTED_EDGE('',*,*,#63,.F.);
#421 = CYLINDRICAL_SURFACE('',#422,3.4);
#422 = AXIS2_PLACEMENT_3D('',#423,#424,#425);
#423 = CARTESIAN_POINT('',(16.2,0.,-0.2));
#424 = DIRECTION('',(0.,0.,1.));
#425 = DIRECTION('',(1.,0.,-0.));
#426 = ADVANCED_FACE('',(#427),#438,.T.);
#427 = FACE_BOUND('',#428,.T.);
#428 = EDGE_LOOP('',(#429,#430,#436,#437));
#429 = ORIENTED_EDGE('',*,*,#190,.F.);
#430 = ORIENTED_EDGE('',*,*,#431,.F.);
#431 = EDGE_CURVE('',#379,#182,#432,.T.);
#432 = LINE('',#433,#434);
#433 = CARTESIAN_POINT('',(12.538971326355,-8.232508613833,0.));
#434 = VECTOR('',#435,1.);
#435 = DIRECTION('',(0.,0.,1.));
#436 = ORIENTED_EDGE('',*,*,#387,.T.);
#437 = ORIENTED_EDGE('',*,*,#415,.T.);
#438 = CYLINDRICAL_SURFACE('',#439,15.);
#439 = AXIS2_PLACEMENT_3D('',#440,#441,#442);
#440 = CARTESIAN_POINT('',(0.,0.,0.));
#441 = DIRECTION('',(0.,0.,1.));
#442 = DIRECTION('',(1.,0.,-0.));
#443 = ADVANCED_FACE('',(#444),#455,.F.);
#444 = FACE_BOUND('',#445,.F.);
#445 = EDGE_LOOP('',(#446,#447,#448,#449));
#446 = ORIENTED_EDGE('',*,*,#181,.F.);
#447 = ORIENTED_EDGE('',*,*,#431,.F.);
#448 = ORIENTED_EDGE('',*,*,#378,.T.);
#449 = ORIENTED_EDGE('',*,*,#450,.T.);
#450 = EDGE_CURVE('',#370,#173,#451,.T.);
#451 = LINE('',#452,#453);
#452 = CARTESIAN_POINT('',(8.232508613833,-12.53897132635,0.));
#453 = VECTOR('',#454,1.);
#454 = DIRECTION('',(0.,0.,1.));
#455 = CYLINDRICAL_SURFACE('',#456,3.4);
#456 = AXIS2_PLACEMENT_3D('',#457,#458,#459);
#457 = CARTESIAN_POINT('',(11.455129855222,-11.45512985522,-0.2));
#458 = DIRECTION('',(0.,0.,1.));
#459 = DIRECTION('',(1.,0.,-0.));
#460 = ADVANCED_FACE('',(#461),#472,.T.);
#461 = FACE_BOUND('',#462,.T.);
#462 = EDGE_LOOP('',(#463,#464,#470,#471));
#463 = ORIENTED_EDGE('',*,*,#172,.F.);
#464 = ORIENTED_EDGE('',*,*,#465,.F.);
#465 = EDGE_CURVE('',#361,#164,#466,.T.);
#466 = LINE('',#467,#468);
#467 = CARTESIAN_POINT('',(3.045128986952,-14.68765432098,0.));
#468 = VECTOR('',#469,1.);
#469 = DIRECTION('',(0.,0.,1.));
#470 = ORIENTED_EDGE('',*,*,#369,.T.);
#471 = ORIENTED_EDGE('',*,*,#450,.T.);
#472 = CYLINDRICAL_SURFACE('',#473,15.);
#473 = AXIS2_PLACEMENT_3D('',#474,#475,#476);
#474 = CARTESIAN_POINT('',(0.,0.,0.));
#475 = DIRECTION('',(0.,0.,1.));
#476 = DIRECTION('',(1.,0.,-0.));
#477 = ADVANCED_FACE('',(#478),#489,.F.);
#478 = FACE_BOUND('',#479,.F.);
#479 = EDGE_LOOP('',(#480,#481,#482,#483));
#480 = ORIENTED_EDGE('',*,*,#163,.F.);
#481 = ORIENTED_EDGE('',*,*,#465,.F.);
#482 = ORIENTED_EDGE('',*,*,#360,.T.);
#483 = ORIENTED_EDGE('',*,*,#484,.T.);
#484 = EDGE_CURVE('',#352,#155,#485,.T.);
#485 = LINE('',#486,#487);
#486 = CARTESIAN_POINT('',(-3.045128986952,-14.68765432098,0.));
#487 = VECTOR('',#488,1.);
#488 = DIRECTION('',(0.,0.,1.));
#489 = CYLINDRICAL_SURFACE('',#490,3.4);
#490 = AXIS2_PLACEMENT_3D('',#491,#492,#493);
#491 = CARTESIAN_POINT('',(-2.975891721928E-15,-16.2,-0.2));
#492 = DIRECTION('',(0.,0.,1.));
#493 = DIRECTION('',(1.,0.,-0.));
#494 = ADVANCED_FACE('',(#495),#506,.T.);
#495 = FACE_BOUND('',#496,.T.);
#496 = EDGE_LOOP('',(#497,#498,#504,#505));
#497 = ORIENTED_EDGE('',*,*,#154,.F.);
#498 = ORIENTED_EDGE('',*,*,#499,.F.);
#499 = EDGE_CURVE('',#343,#146,#500,.T.);
#500 = LINE('',#501,#502);
#501 = CARTESIAN_POINT('',(-8.232508613833,-12.53897132635,0.));
#502 = VECTOR('',#503,1.);
#503 = DIRECTION('',(0.,0.,1.));
#504 = ORIENTED_EDGE('',*,*,#351,.T.);
#505 = ORIENTED_EDGE('',*,*,#484,.T.);
#506 = CYLINDRICAL_SURFACE('',#507,15.);
#507 = AXIS2_PLACEMENT_3D('',#508,#509,#510);
#508 = CARTESIAN_POINT('',(0.,0.,0.));
#509 = DIRECTION('',(0.,0.,1.));
#510 = DIRECTION('',(1.,0.,-0.));
#511 = ADVANCED_FACE('',(#512),#524,.F.);
#512 = FACE_BOUND('',#513,.F.);
#513 = EDGE_LOOP('',(#514,#515,#521,#522,#523));
#514 = ORIENTED_EDGE('',*,*,#333,.T.);
#515 = ORIENTED_EDGE('',*,*,#516,.T.);
#516 = EDGE_CURVE('',#325,#137,#517,.T.);
#517 = LINE('',#518,#519);
#518 = CARTESIAN_POINT('',(-12.53897132635,-8.232508613833,0.));
#519 = VECTOR('',#520,1.);
#520 = DIRECTION('',(0.,0.,1.));
#521 = ORIENTED_EDGE('',*,*,#145,.F.);
#522 = ORIENTED_EDGE('',*,*,#499,.F.);
#523 = ORIENTED_EDGE('',*,*,#342,.T.);
#524 = CYLINDRICAL_SURFACE('',#525,3.4);
#525 = AXIS2_PLACEMENT_3D('',#526,#527,#528);
#526 = CARTESIAN_POINT('',(-11.45512985522,-11.45512985522,-0.2));
#527 = DIRECTION('',(0.,0.,1.));
#528 = DIRECTION('',(1.,0.,-0.));
#529 = ADVANCED_FACE('',(#530),#541,.T.);
#530 = FACE_BOUND('',#531,.T.);
#531 = EDGE_LOOP('',(#532,#533,#539,#540));
#532 = ORIENTED_EDGE('',*,*,#136,.F.);
#533 = ORIENTED_EDGE('',*,*,#534,.F.);
#534 = EDGE_CURVE('',#316,#128,#535,.T.);
#535 = LINE('',#536,#537);
#536 = CARTESIAN_POINT('',(-14.68765432098,-3.045128986952,0.));
#537 = VECTOR('',#538,1.);
#538 = DIRECTION('',(0.,0.,1.));
#539 = ORIENTED_EDGE('',*,*,#324,.T.);
#540 = ORIENTED_EDGE('',*,*,#516,.T.);
#541 = CYLINDRICAL_SURFACE('',#542,15.);
#542 = AXIS2_PLACEMENT_3D('',#543,#544,#545);
#543 = CARTESIAN_POINT('',(0.,0.,0.));
#544 = DIRECTION('',(0.,0.,1.));
#545 = DIRECTION('',(1.,0.,-0.));
#546 = ADVANCED_FACE('',(#547),#559,.F.);
#547 = FACE_BOUND('',#548,.F.);
#548 = EDGE_LOOP('',(#549,#550,#556,#557,#558));
#549 = ORIENTED_EDGE('',*,*,#306,.T.);
#550 = ORIENTED_EDGE('',*,*,#551,.T.);
#551 = EDGE_CURVE('',#298,#119,#552,.T.);
#552 = LINE('',#553,#554);
#553 = CARTESIAN_POINT('',(-14.68765432098,3.045128986952,0.));
#554 = VECTOR('',#555,1.);
#555 = DIRECTION('',(0.,0.,1.));
#556 = ORIENTED_EDGE('',*,*,#127,.F.);
#557 = ORIENTED_EDGE('',*,*,#534,.F.);
#558 = ORIENTED_EDGE('',*,*,#315,.T.);
#559 = CYLINDRICAL_SURFACE('',#560,3.4);
#560 = AXIS2_PLACEMENT_3D('',#561,#562,#563);
#561 = CARTESIAN_POINT('',(-16.2,1.983927814619E-15,-0.2));
#562 = DIRECTION('',(0.,0.,1.));
#563 = DIRECTION('',(1.,0.,-0.));
#564 = ADVANCED_FACE('',(#565),#576,.T.);
#565 = FACE_BOUND('',#566,.T.);
#566 = EDGE_LOOP('',(#567,#568,#574,#575));
#567 = ORIENTED_EDGE('',*,*,#118,.F.);
#568 = ORIENTED_EDGE('',*,*,#569,.F.);
#569 = EDGE_CURVE('',#289,#110,#570,.T.);
#570 = LINE('',#571,#572);
#571 = CARTESIAN_POINT('',(-12.53897132635,8.232508613833,0.));
#572 = VECTOR('',#573,1.);
#573 = DIRECTION('',(0.,0.,1.));
#574 = ORIENTED_EDGE('',*,*,#297,.T.);
#575 = ORIENTED_EDGE('',*,*,#551,.T.);
#576 = CYLINDRICAL_SURFACE('',#577,15.);
#577 = AXIS2_PLACEMENT_3D('',#578,#579,#580);
#578 = CARTESIAN_POINT('',(0.,0.,0.));
#579 = DIRECTION('',(0.,0.,1.));
#580 = DIRECTION('',(1.,0.,-0.));
#581 = ADVANCED_FACE('',(#582),#594,.F.);
#582 = FACE_BOUND('',#583,.F.);
#583 = EDGE_LOOP('',(#584,#585,#591,#592,#593));
#584 = ORIENTED_EDGE('',*,*,#279,.T.);
#585 = ORIENTED_EDGE('',*,*,#586,.T.);
#586 = EDGE_CURVE('',#271,#101,#587,.T.);
#587 = LINE('',#588,#589);
#588 = CARTESIAN_POINT('',(-8.232508613833,12.538971326355,0.));
#589 = VECTOR('',#590,1.);
#590 = DIRECTION('',(0.,0.,1.));
#591 = ORIENTED_EDGE('',*,*,#109,.F.);
#592 = ORIENTED_EDGE('',*,*,#569,.F.);
#593 = ORIENTED_EDGE('',*,*,#288,.T.);
#594 = CYLINDRICAL_SURFACE('',#595,3.4);
#595 = AXIS2_PLACEMENT_3D('',#596,#597,#598);
#596 = CARTESIAN_POINT('',(-11.45512985522,11.455129855222,-0.2));
#597 = DIRECTION('',(0.,0.,1.));
#598 = DIRECTION('',(1.,0.,-0.));
#599 = ADVANCED_FACE('',(#600),#611,.T.);
#600 = FACE_BOUND('',#601,.T.);
#601 = EDGE_LOOP('',(#602,#603,#609,#610));
#602 = ORIENTED_EDGE('',*,*,#100,.F.);
#603 = ORIENTED_EDGE('',*,*,#604,.F.);
#604 = EDGE_CURVE('',#262,#92,#605,.T.);
#605 = LINE('',#606,#607);
#606 = CARTESIAN_POINT('',(-3.045128986952,14.687654320988,0.));
#607 = VECTOR('',#608,1.);
#608 = DIRECTION('',(0.,0.,1.));
#609 = ORIENTED_EDGE('',*,*,#270,.T.);
#610 = ORIENTED_EDGE('',*,*,#586,.T.);
#611 = CYLINDRICAL_SURFACE('',#612,15.);
#612 = AXIS2_PLACEMENT_3D('',#613,#614,#615);
#613 = CARTESIAN_POINT('',(0.,0.,0.));
#614 = DIRECTION('',(0.,0.,1.));
#615 = DIRECTION('',(1.,0.,-0.));
#616 = ADVANCED_FACE('',(#617),#628,.F.);
#617 = FACE_BOUND('',#618,.F.);
#618 = EDGE_LOOP('',(#619,#620,#621,#622));
#619 = ORIENTED_EDGE('',*,*,#91,.F.);
#620 = ORIENTED_EDGE('',*,*,#604,.F.);
#621 = ORIENTED_EDGE('',*,*,#261,.T.);
#622 = ORIENTED_EDGE('',*,*,#623,.T.);
#623 = EDGE_CURVE('',#253,#83,#624,.T.);
#624 = LINE('',#625,#626);
#625 = CARTESIAN_POINT('',(3.045128986952,14.687654320988,0.));
#626 = VECTOR('',#627,1.);
#627 = DIRECTION('',(0.,0.,1.));
#628 = CYLINDRICAL_SURFACE('',#629,3.4);
#629 = AXIS2_PLACEMENT_3D('',#630,#631,#632);
#630 = CARTESIAN_POINT('',(9.919639073094E-16,16.2,-0.2));
#631 = DIRECTION('',(0.,0.,1.));
#632 = DIRECTION('',(1.,0.,-0.));
#633 = ADVANCED_FACE('',(#634),#640,.T.);
#634 = FACE_BOUND('',#635,.T.);
#635 = EDGE_LOOP('',(#636,#637,#638,#639));
#636 = ORIENTED_EDGE('',*,*,#82,.F.);
#637 = ORIENTED_EDGE('',*,*,#216,.F.);
#638 = ORIENTED_EDGE('',*,*,#252,.T.);
#639 = ORIENTED_EDGE('',*,*,#623,.T.);
#640 = CYLINDRICAL_SURFACE('',#641,15.);
#641 = AXIS2_PLACEMENT_3D('',#642,#643,#644);
#642 = CARTESIAN_POINT('',(0.,0.,0.));
#643 = DIRECTION('',(0.,0.,1.));
#644 = DIRECTION('',(1.,0.,-0.));
#645 = ADVANCED_FACE('',(#646),#665,.T.);
#646 = FACE_BOUND('',#647,.T.);
#647 = EDGE_LOOP('',(#648,#657,#663,#664));
#648 = ORIENTED_EDGE('',*,*,#649,.F.);
#649 = EDGE_CURVE('',#650,#650,#652,.T.);
#650 = VERTEX_POINT('',#651);
#651 = CARTESIAN_POINT('',(5.,-1.224646799147E-15,7.));
#652 = CIRCLE('',#653,5.);
#653 = AXIS2_PLACEMENT_3D('',#654,#655,#656);
#654 = CARTESIAN_POINT('',(0.,0.,7.));
#655 = DIRECTION('',(0.,0.,1.));
#656 = DIRECTION('',(1.,0.,-0.));
#657 = ORIENTED_EDGE('',*,*,#658,.F.);
#658 = EDGE_CURVE('',#200,#650,#659,.T.);
#659 = LINE('',#660,#661);
#660 = CARTESIAN_POINT('',(5.,-1.224646799147E-15,6.1));
#661 = VECTOR('',#662,1.);
#662 = DIRECTION('',(0.,0.,1.));
#663 = ORIENTED_EDGE('',*,*,#199,.T.);
#664 = ORIENTED_EDGE('',*,*,#658,.T.);
#665 = CYLINDRICAL_SURFACE('',#666,5.);
#666 = AXIS2_PLACEMENT_3D('',#667,#668,#669);
#667 = CARTESIAN_POINT('',(0.,0.,6.1));
#668 = DIRECTION('',(0.,0.,1.));
#669 = DIRECTION('',(1.,0.,-0.));
#670 = ADVANCED_FACE('',(#671),#690,.F.);
#671 = FACE_BOUND('',#672,.F.);
#672 = EDGE_LOOP('',(#673,#674,#682,#689));
#673 = ORIENTED_EDGE('',*,*,#396,.T.);
#674 = ORIENTED_EDGE('',*,*,#675,.T.);
#675 = EDGE_CURVE('',#397,#676,#678,.T.);
#676 = VERTEX_POINT('',#677);
#677 = CARTESIAN_POINT('',(2.3,-5.633375276078E-16,3.2));
#678 = LINE('',#679,#680);
#679 = CARTESIAN_POINT('',(2.3,-5.633375276078E-16,-0.1));
#680 = VECTOR('',#681,1.);
#681 = DIRECTION('',(0.,0.,1.));
#682 = ORIENTED_EDGE('',*,*,#683,.F.);
#683 = EDGE_CURVE('',#676,#676,#684,.T.);
#684 = CIRCLE('',#685,2.3);
#685 = AXIS2_PLACEMENT_3D('',#686,#687,#688);
#686 = CARTESIAN_POINT('',(0.,0.,3.2));
#687 = DIRECTION('',(0.,0.,1.));
#688 = DIRECTION('',(1.,0.,-0.));
#689 = ORIENTED_EDGE('',*,*,#675,.F.);
#690 = CYLINDRICAL_SURFACE('',#691,2.3);
#691 = AXIS2_PLACEMENT_3D('',#692,#693,#694);
#692 = CARTESIAN_POINT('',(0.,0.,-0.1));
#693 = DIRECTION('',(0.,0.,1.));
#694 = DIRECTION('',(1.,0.,-0.));
#695 = ADVANCED_FACE('',(#696,#699),#749,.T.);
#696 = FACE_BOUND('',#697,.T.);
#697 = EDGE_LOOP('',(#698));
#698 = ORIENTED_EDGE('',*,*,#649,.T.);
#699 = FACE_BOUND('',#700,.T.);
#700 = EDGE_LOOP('',(#701,#711,#719,#727,#735,#743));
#701 = ORIENTED_EDGE('',*,*,#702,.T.);
#702 = EDGE_CURVE('',#703,#705,#707,.T.);
#703 = VERTEX_POINT('',#704);
#704 = CARTESIAN_POINT('',(-3.7,2.136195996002,7.));
#705 = VERTEX_POINT('',#706);
#706 = CARTESIAN_POINT('',(2.616085588855E-16,4.272391992003,7.));
#707 = LINE('',#708,#709);
#708 = CARTESIAN_POINT('',(-0.925,3.738342993003,7.));
#709 = VECTOR('',#710,1.);
#710 = DIRECTION('',(0.866025403784,0.5,-0.));
#711 = ORIENTED_EDGE('',*,*,#712,.T.);
#712 = EDGE_CURVE('',#705,#713,#715,.T.);
#713 = VERTEX_POINT('',#714);
#714 = CARTESIAN_POINT('',(3.7,2.136195996002,7.));
#715 = LINE('',#716,#717);
#716 = CARTESIAN_POINT('',(2.775,2.670244995002,7.));
#717 = VECTOR('',#718,1.);
#718 = DIRECTION('',(0.866025403784,-0.5,0.));
#719 = ORIENTED_EDGE('',*,*,#720,.T.);
#720 = EDGE_CURVE('',#713,#721,#723,.T.);
#721 = VERTEX_POINT('',#722);
#722 = CARTESIAN_POINT('',(3.7,-2.136195996002,7.));
#723 = LINE('',#724,#725);
#724 = CARTESIAN_POINT('',(3.7,-1.068097998001,7.));
#725 = VECTOR('',#726,1.);
#726 = DIRECTION('',(-4.157757159748E-16,-1.,0.));
#727 = ORIENTED_EDGE('',*,*,#728,.T.);
#728 = EDGE_CURVE('',#721,#729,#731,.T.);
#729 = VERTEX_POINT('',#730);
#730 = CARTESIAN_POINT('',(-7.848256766564E-16,-4.272391992003,7.));
#731 = LINE('',#732,#733);
#732 = CARTESIAN_POINT('',(0.925,-3.738342993003,7.));
#733 = VECTOR('',#734,1.);
#734 = DIRECTION('',(-0.866025403784,-0.5,0.));
#735 = ORIENTED_EDGE('',*,*,#736,.T.);
#736 = EDGE_CURVE('',#729,#737,#739,.T.);
#737 = VERTEX_POINT('',#738);
#738 = CARTESIAN_POINT('',(-3.7,-2.136195996002,7.));
#739 = LINE('',#740,#741);
#740 = CARTESIAN_POINT('',(-2.775,-2.670244995002,7.));
#741 = VECTOR('',#742,1.);
#742 = DIRECTION('',(-0.866025403784,0.5,0.));
#743 = ORIENTED_EDGE('',*,*,#744,.T.);
#744 = EDGE_CURVE('',#737,#703,#745,.T.);
#745 = LINE('',#746,#747);
#746 = CARTESIAN_POINT('',(-3.7,1.068097998001,7.));
#747 = VECTOR('',#748,1.);
#748 = DIRECTION('',(-1.039439289937E-16,1.,0.));
#749 = PLANE('',#750);
#750 = AXIS2_PLACEMENT_3D('',#751,#752,#753);
#751 = CARTESIAN_POINT('',(0.,0.,7.));
#752 = DIRECTION('',(0.,0.,1.));
#753 = DIRECTION('',(1.,0.,-0.));
#754 = ADVANCED_FACE('',(#755,#805),#808,.T.);
#755 = FACE_BOUND('',#756,.T.);
#756 = EDGE_LOOP('',(#757,#767,#775,#783,#791,#799));
#757 = ORIENTED_EDGE('',*,*,#758,.T.);
#758 = EDGE_CURVE('',#759,#761,#763,.T.);
#759 = VERTEX_POINT('',#760);
#760 = CARTESIAN_POINT('',(3.55,2.049593455623,3.2));
#761 = VERTEX_POINT('',#762);
#762 = CARTESIAN_POINT('',(2.510028064982E-16,4.099186911246,3.2));
#763 = LINE('',#764,#765);
#764 = CARTESIAN_POINT('',(3.55,2.049593455623,3.2));
#765 = VECTOR('',#766,1.);
#766 = DIRECTION('',(-0.866025403784,0.5,0.));
#767 = ORIENTED_EDGE('',*,*,#768,.T.);
#768 = EDGE_CURVE('',#761,#769,#771,.T.);
#769 = VERTEX_POINT('',#770);
#770 = CARTESIAN_POINT('',(-3.55,2.049593455623,3.2));
#771 = LINE('',#772,#773);
#772 = CARTESIAN_POINT('',(2.510028064982E-16,4.099186911246,3.2));
#773 = VECTOR('',#774,1.);
#774 = DIRECTION('',(-0.866025403784,-0.5,0.));
#775 = ORIENTED_EDGE('',*,*,#776,.T.);
#776 = EDGE_CURVE('',#769,#777,#779,.T.);
#777 = VERTEX_POINT('',#778);
#778 = CARTESIAN_POINT('',(-3.55,-2.049593455623,3.2));
#779 = LINE('',#780,#781);
#780 = CARTESIAN_POINT('',(-3.55,2.049593455623,3.2));
#781 = VECTOR('',#782,1.);
#782 = DIRECTION('',(1.083359259934E-16,-1.,0.));
#783 = ORIENTED_EDGE('',*,*,#784,.T.);
#784 = EDGE_CURVE('',#777,#785,#787,.T.);
#785 = VERTEX_POINT('',#786);
#786 = CARTESIAN_POINT('',(-7.530084194947E-16,-4.099186911246,3.2));
#787 = LINE('',#788,#789);
#788 = CARTESIAN_POINT('',(-3.55,-2.049593455623,3.2));
#789 = VECTOR('',#790,1.);
#790 = DIRECTION('',(0.866025403784,-0.5,0.));
#791 = ORIENTED_EDGE('',*,*,#792,.T.);
#792 = EDGE_CURVE('',#785,#793,#795,.T.);
#793 = VERTEX_POINT('',#794);
#794 = CARTESIAN_POINT('',(3.55,-2.049593455623,3.2));
#795 = LINE('',#796,#797);
#796 = CARTESIAN_POINT('',(-7.530084194947E-16,-4.099186911246,3.2));
#797 = VECTOR('',#798,1.);
#798 = DIRECTION('',(0.866025403784,0.5,0.));
#799 = ORIENTED_EDGE('',*,*,#800,.T.);
#800 = EDGE_CURVE('',#793,#759,#801,.T.);
#801 = LINE('',#802,#803);
#802 = CARTESIAN_POINT('',(3.55,-2.049593455623,3.2));
#803 = VECTOR('',#804,1.);
#804 = DIRECTION('',(3.250077779803E-16,1.,0.));
#805 = FACE_BOUND('',#806,.T.);
#806 = EDGE_LOOP('',(#807));
#807 = ORIENTED_EDGE('',*,*,#683,.F.);
#808 = PLANE('',#809);
#809 = AXIS2_PLACEMENT_3D('',#810,#811,#812);
#810 = CARTESIAN_POINT('',(-1.805598766557E-16,-3.972317286426E-16,3.2)
  );
#811 = DIRECTION('',(0.,0.,1.));
#812 = DIRECTION('',(1.,0.,-0.));
#813 = ADVANCED_FACE('',(#814),#839,.T.);
#814 = FACE_BOUND('',#815,.T.);
#815 = EDGE_LOOP('',(#816,#826,#832,#833));
#816 = ORIENTED_EDGE('',*,*,#817,.F.);
#817 = EDGE_CURVE('',#818,#820,#822,.T.);
#818 = VERTEX_POINT('',#819);
#819 = CARTESIAN_POINT('',(2.616085588855E-16,4.272391992003,6.4));
#820 = VERTEX_POINT('',#821);
#821 = CARTESIAN_POINT('',(-3.7,2.136195996002,6.4));
#822 = LINE('',#823,#824);
#823 = CARTESIAN_POINT('',(2.616085588855E-16,4.272391992003,6.4));
#824 = VECTOR('',#825,1.);
#825 = DIRECTION('',(-0.866025403784,-0.5,0.));
#826 = ORIENTED_EDGE('',*,*,#827,.T.);
#827 = EDGE_CURVE('',#818,#705,#828,.T.);
#828 = LINE('',#829,#830);
#829 = CARTESIAN_POINT('',(2.616085588855E-16,4.272391992003,6.4));
#830 = VECTOR('',#831,1.);
#831 = DIRECTION('',(0.,0.,1.));
#832 = ORIENTED_EDGE('',*,*,#702,.F.);
#833 = ORIENTED_EDGE('',*,*,#834,.F.);
#834 = EDGE_CURVE('',#820,#703,#835,.T.);
#835 = LINE('',#836,#837);
#836 = CARTESIAN_POINT('',(-3.7,2.136195996002,6.4));
#837 = VECTOR('',#838,1.);
#838 = DIRECTION('',(0.,0.,1.));
#839 = PLANE('',#840);
#840 = AXIS2_PLACEMENT_3D('',#841,#842,#843);
#841 = CARTESIAN_POINT('',(2.616085588855E-16,4.272391992003,6.4));
#842 = DIRECTION('',(0.5,-0.866025403784,0.));
#843 = DIRECTION('',(-0.866025403784,-0.5,0.));
#844 = ADVANCED_FACE('',(#845),#863,.T.);
#845 = FACE_BOUND('',#846,.T.);
#846 = EDGE_LOOP('',(#847,#855,#856,#857));
#847 = ORIENTED_EDGE('',*,*,#848,.F.);
#848 = EDGE_CURVE('',#820,#849,#851,.T.);
#849 = VERTEX_POINT('',#850);
#850 = CARTESIAN_POINT('',(-3.7,-2.136195996002,6.4));
#851 = LINE('',#852,#853);
#852 = CARTESIAN_POINT('',(-3.7,2.136195996002,6.4));
#853 = VECTOR('',#854,1.);
#854 = DIRECTION('',(1.039439289937E-16,-1.,0.));
#855 = ORIENTED_EDGE('',*,*,#834,.T.);
#856 = ORIENTED_EDGE('',*,*,#744,.F.);
#857 = ORIENTED_EDGE('',*,*,#858,.F.);
#858 = EDGE_CURVE('',#849,#737,#859,.T.);
#859 = LINE('',#860,#861);
#860 = CARTESIAN_POINT('',(-3.7,-2.136195996002,6.4));
#861 = VECTOR('',#862,1.);
#862 = DIRECTION('',(0.,0.,1.));
#863 = PLANE('',#864);
#864 = AXIS2_PLACEMENT_3D('',#865,#866,#867);
#865 = CARTESIAN_POINT('',(-3.7,2.136195996002,6.4));
#866 = DIRECTION('',(1.,1.039439289937E-16,-0.));
#867 = DIRECTION('',(1.039439289937E-16,-1.,0.));
#868 = ADVANCED_FACE('',(#869),#887,.T.);
#869 = FACE_BOUND('',#870,.T.);
#870 = EDGE_LOOP('',(#871,#879,#880,#881));
#871 = ORIENTED_EDGE('',*,*,#872,.F.);
#872 = EDGE_CURVE('',#849,#873,#875,.T.);
#873 = VERTEX_POINT('',#874);
#874 = CARTESIAN_POINT('',(-7.848256766564E-16,-4.272391992003,6.4));
#875 = LINE('',#876,#877);
#876 = CARTESIAN_POINT('',(-3.7,-2.136195996002,6.4));
#877 = VECTOR('',#878,1.);
#878 = DIRECTION('',(0.866025403784,-0.5,0.));
#879 = ORIENTED_EDGE('',*,*,#858,.T.);
#880 = ORIENTED_EDGE('',*,*,#736,.F.);
#881 = ORIENTED_EDGE('',*,*,#882,.F.);
#882 = EDGE_CURVE('',#873,#729,#883,.T.);
#883 = LINE('',#884,#885);
#884 = CARTESIAN_POINT('',(-7.848256766564E-16,-4.272391992003,6.4));
#885 = VECTOR('',#886,1.);
#886 = DIRECTION('',(0.,0.,1.));
#887 = PLANE('',#888);
#888 = AXIS2_PLACEMENT_3D('',#889,#890,#891);
#889 = CARTESIAN_POINT('',(-3.7,-2.136195996002,6.4));
#890 = DIRECTION('',(0.5,0.866025403784,-0.));
#891 = DIRECTION('',(0.866025403784,-0.5,0.));
#892 = ADVANCED_FACE('',(#893),#911,.T.);
#893 = FACE_BOUND('',#894,.T.);
#894 = EDGE_LOOP('',(#895,#903,#904,#905));
#895 = ORIENTED_EDGE('',*,*,#896,.F.);
#896 = EDGE_CURVE('',#873,#897,#899,.T.);
#897 = VERTEX_POINT('',#898);
#898 = CARTESIAN_POINT('',(3.7,-2.136195996002,6.4));
#899 = LINE('',#900,#901);
#900 = CARTESIAN_POINT('',(-7.848256766564E-16,-4.272391992003,6.4));
#901 = VECTOR('',#902,1.);
#902 = DIRECTION('',(0.866025403784,0.5,0.));
#903 = ORIENTED_EDGE('',*,*,#882,.T.);
#904 = ORIENTED_EDGE('',*,*,#728,.F.);
#905 = ORIENTED_EDGE('',*,*,#906,.F.);
#906 = EDGE_CURVE('',#897,#721,#907,.T.);
#907 = LINE('',#908,#909);
#908 = CARTESIAN_POINT('',(3.7,-2.136195996002,6.4));
#909 = VECTOR('',#910,1.);
#910 = DIRECTION('',(0.,0.,1.));
#911 = PLANE('',#912);
#912 = AXIS2_PLACEMENT_3D('',#913,#914,#915);
#913 = CARTESIAN_POINT('',(-7.848256766564E-16,-4.272391992003,6.4));
#914 = DIRECTION('',(-0.5,0.866025403784,0.));
#915 = DIRECTION('',(0.866025403784,0.5,0.));
#916 = ADVANCED_FACE('',(#917),#935,.T.);
#917 = FACE_BOUND('',#918,.T.);
#918 = EDGE_LOOP('',(#919,#927,#928,#929));
#919 = ORIENTED_EDGE('',*,*,#920,.F.);
#920 = EDGE_CURVE('',#897,#921,#923,.T.);
#921 = VERTEX_POINT('',#922);
#922 = CARTESIAN_POINT('',(3.7,2.136195996002,6.4));
#923 = LINE('',#924,#925);
#924 = CARTESIAN_POINT('',(3.7,-2.136195996002,6.4));
#925 = VECTOR('',#926,1.);
#926 = DIRECTION('',(4.157757159748E-16,1.,0.));
#927 = ORIENTED_EDGE('',*,*,#906,.T.);
#928 = ORIENTED_EDGE('',*,*,#720,.F.);
#929 = ORIENTED_EDGE('',*,*,#930,.F.);
#930 = EDGE_CURVE('',#921,#713,#931,.T.);
#931 = LINE('',#932,#933);
#932 = CARTESIAN_POINT('',(3.7,2.136195996002,6.4));
#933 = VECTOR('',#934,1.);
#934 = DIRECTION('',(0.,0.,1.));
#935 = PLANE('',#936);
#936 = AXIS2_PLACEMENT_3D('',#937,#938,#939);
#937 = CARTESIAN_POINT('',(3.7,-2.136195996002,6.4));
#938 = DIRECTION('',(-1.,4.157757159748E-16,0.));
#939 = DIRECTION('',(4.157757159748E-16,1.,0.));
#940 = ADVANCED_FACE('',(#941),#952,.T.);
#941 = FACE_BOUND('',#942,.T.);
#942 = EDGE_LOOP('',(#943,#949,#950,#951));
#943 = ORIENTED_EDGE('',*,*,#944,.F.);
#944 = EDGE_CURVE('',#921,#818,#945,.T.);
#945 = LINE('',#946,#947);
#946 = CARTESIAN_POINT('',(3.7,2.136195996002,6.4));
#947 = VECTOR('',#948,1.);
#948 = DIRECTION('',(-0.866025403784,0.5,0.));
#949 = ORIENTED_EDGE('',*,*,#930,.T.);
#950 = ORIENTED_EDGE('',*,*,#712,.F.);
#951 = ORIENTED_EDGE('',*,*,#827,.F.);
#952 = PLANE('',#953);
#953 = AXIS2_PLACEMENT_3D('',#954,#955,#956);
#954 = CARTESIAN_POINT('',(3.7,2.136195996002,6.4));
#955 = DIRECTION('',(-0.5,-0.866025403784,0.));
#956 = DIRECTION('',(-0.866025403784,0.5,0.));
#957 = ADVANCED_FACE('',(#958),#983,.T.);
#958 = FACE_BOUND('',#959,.T.);
#959 = EDGE_LOOP('',(#960,#961,#969,#977));
#960 = ORIENTED_EDGE('',*,*,#758,.F.);
#961 = ORIENTED_EDGE('',*,*,#962,.T.);
#962 = EDGE_CURVE('',#759,#963,#965,.T.);
#963 = VERTEX_POINT('',#964);
#964 = CARTESIAN_POINT('',(3.55,2.049593455623,6.4));
#965 = LINE('',#966,#967);
#966 = CARTESIAN_POINT('',(3.55,2.049593455623,3.2));
#967 = VECTOR('',#968,1.);
#968 = DIRECTION('',(0.,0.,1.));
#969 = ORIENTED_EDGE('',*,*,#970,.T.);
#970 = EDGE_CURVE('',#963,#971,#973,.T.);
#971 = VERTEX_POINT('',#972);
#972 = CARTESIAN_POINT('',(2.510028064982E-16,4.099186911246,6.4));
#973 = LINE('',#974,#975);
#974 = CARTESIAN_POINT('',(2.6625,2.561991819529,6.4));
#975 = VECTOR('',#976,1.);
#976 = DIRECTION('',(-0.866025403784,0.5,0.));
#977 = ORIENTED_EDGE('',*,*,#978,.F.);
#978 = EDGE_CURVE('',#761,#971,#979,.T.);
#979 = LINE('',#980,#981);
#980 = CARTESIAN_POINT('',(2.510028064982E-16,4.099186911246,3.2));
#981 = VECTOR('',#982,1.);
#982 = DIRECTION('',(0.,0.,1.));
#983 = PLANE('',#984);
#984 = AXIS2_PLACEMENT_3D('',#985,#986,#987);
#985 = CARTESIAN_POINT('',(3.55,2.049593455623,3.2));
#986 = DIRECTION('',(-0.5,-0.866025403784,0.));
#987 = DIRECTION('',(-0.866025403784,0.5,0.));
#988 = ADVANCED_FACE('',(#989),#1007,.T.);
#989 = FACE_BOUND('',#990,.T.);
#990 = EDGE_LOOP('',(#991,#992,#1000,#1006));
#991 = ORIENTED_EDGE('',*,*,#800,.F.);
#992 = ORIENTED_EDGE('',*,*,#993,.T.);
#993 = EDGE_CURVE('',#793,#994,#996,.T.);
#994 = VERTEX_POINT('',#995);
#995 = CARTESIAN_POINT('',(3.55,-2.049593455623,6.4));
#996 = LINE('',#997,#998);
#997 = CARTESIAN_POINT('',(3.55,-2.049593455623,3.2));
#998 = VECTOR('',#999,1.);
#999 = DIRECTION('',(0.,0.,1.));
#1000 = ORIENTED_EDGE('',*,*,#1001,.T.);
#1001 = EDGE_CURVE('',#994,#963,#1002,.T.);
#1002 = LINE('',#1003,#1004);
#1003 = CARTESIAN_POINT('',(3.55,-1.024796727812,6.4));
#1004 = VECTOR('',#1005,1.);
#1005 = DIRECTION('',(3.250077779803E-16,1.,-0.));
#1006 = ORIENTED_EDGE('',*,*,#962,.F.);
#1007 = PLANE('',#1008);
#1008 = AXIS2_PLACEMENT_3D('',#1009,#1010,#1011);
#1009 = CARTESIAN_POINT('',(3.55,-2.049593455623,3.2));
#1010 = DIRECTION('',(-1.,3.250077779803E-16,0.));
#1011 = DIRECTION('',(3.250077779803E-16,1.,0.));
#1012 = ADVANCED_FACE('',(#1013),#1031,.T.);
#1013 = FACE_BOUND('',#1014,.T.);
#1014 = EDGE_LOOP('',(#1015,#1016,#1017,#1025));
#1015 = ORIENTED_EDGE('',*,*,#768,.F.);
#1016 = ORIENTED_EDGE('',*,*,#978,.T.);
#1017 = ORIENTED_EDGE('',*,*,#1018,.T.);
#1018 = EDGE_CURVE('',#971,#1019,#1021,.T.);
#1019 = VERTEX_POINT('',#1020);
#1020 = CARTESIAN_POINT('',(-3.55,2.049593455623,6.4));
#1021 = LINE('',#1022,#1023);
#1022 = CARTESIAN_POINT('',(-0.8875,3.586788547341,6.4));
#1023 = VECTOR('',#1024,1.);
#1024 = DIRECTION('',(-0.866025403784,-0.5,0.));
#1025 = ORIENTED_EDGE('',*,*,#1026,.F.);
#1026 = EDGE_CURVE('',#769,#1019,#1027,.T.);
#1027 = LINE('',#1028,#1029);
#1028 = CARTESIAN_POINT('',(-3.55,2.049593455623,3.2));
#1029 = VECTOR('',#1030,1.);
#1030 = DIRECTION('',(0.,0.,1.));
#1031 = PLANE('',#1032);
#1032 = AXIS2_PLACEMENT_3D('',#1033,#1034,#1035);
#1033 = CARTESIAN_POINT('',(2.510028064982E-16,4.099186911246,3.2));
#1034 = DIRECTION('',(0.5,-0.866025403784,0.));
#1035 = DIRECTION('',(-0.866025403784,-0.5,0.));
#1036 = ADVANCED_FACE('',(#1037),#1055,.T.);
#1037 = FACE_BOUND('',#1038,.T.);
#1038 = EDGE_LOOP('',(#1039,#1040,#1048,#1054));
#1039 = ORIENTED_EDGE('',*,*,#792,.F.);
#1040 = ORIENTED_EDGE('',*,*,#1041,.T.);
#1041 = EDGE_CURVE('',#785,#1042,#1044,.T.);
#1042 = VERTEX_POINT('',#1043);
#1043 = CARTESIAN_POINT('',(-7.530084194947E-16,-4.099186911246,6.4));
#1044 = LINE('',#1045,#1046);
#1045 = CARTESIAN_POINT('',(-7.530084194947E-16,-4.099186911246,3.2));
#1046 = VECTOR('',#1047,1.);
#1047 = DIRECTION('',(0.,0.,1.));
#1048 = ORIENTED_EDGE('',*,*,#1049,.T.);
#1049 = EDGE_CURVE('',#1042,#994,#1050,.T.);
#1050 = LINE('',#1051,#1052);
#1051 = CARTESIAN_POINT('',(0.8875,-3.586788547341,6.4));
#1052 = VECTOR('',#1053,1.);
#1053 = DIRECTION('',(0.866025403784,0.5,-0.));
#1054 = ORIENTED_EDGE('',*,*,#993,.F.);
#1055 = PLANE('',#1056);
#1056 = AXIS2_PLACEMENT_3D('',#1057,#1058,#1059);
#1057 = CARTESIAN_POINT('',(-7.530084194947E-16,-4.099186911246,3.2));
#1058 = DIRECTION('',(-0.5,0.866025403784,0.));
#1059 = DIRECTION('',(0.866025403784,0.5,0.));
#1060 = ADVANCED_FACE('',(#1061),#1079,.T.);
#1061 = FACE_BOUND('',#1062,.T.);
#1062 = EDGE_LOOP('',(#1063,#1064,#1065,#1073));
#1063 = ORIENTED_EDGE('',*,*,#776,.F.);
#1064 = ORIENTED_EDGE('',*,*,#1026,.T.);
#1065 = ORIENTED_EDGE('',*,*,#1066,.T.);
#1066 = EDGE_CURVE('',#1019,#1067,#1069,.T.);
#1067 = VERTEX_POINT('',#1068);
#1068 = CARTESIAN_POINT('',(-3.55,-2.049593455623,6.4));
#1069 = LINE('',#1070,#1071);
#1070 = CARTESIAN_POINT('',(-3.55,1.024796727812,6.4));
#1071 = VECTOR('',#1072,1.);
#1072 = DIRECTION('',(1.083359259934E-16,-1.,0.));
#1073 = ORIENTED_EDGE('',*,*,#1074,.F.);
#1074 = EDGE_CURVE('',#777,#1067,#1075,.T.);
#1075 = LINE('',#1076,#1077);
#1076 = CARTESIAN_POINT('',(-3.55,-2.049593455623,3.2));
#1077 = VECTOR('',#1078,1.);
#1078 = DIRECTION('',(0.,0.,1.));
#1079 = PLANE('',#1080);
#1080 = AXIS2_PLACEMENT_3D('',#1081,#1082,#1083);
#1081 = CARTESIAN_POINT('',(-3.55,2.049593455623,3.2));
#1082 = DIRECTION('',(1.,1.083359259934E-16,-0.));
#1083 = DIRECTION('',(1.083359259934E-16,-1.,0.));
#1084 = ADVANCED_FACE('',(#1085),#1096,.T.);
#1085 = FACE_BOUND('',#1086,.T.);
#1086 = EDGE_LOOP('',(#1087,#1088,#1089,#1095));
#1087 = ORIENTED_EDGE('',*,*,#784,.F.);
#1088 = ORIENTED_EDGE('',*,*,#1074,.T.);
#1089 = ORIENTED_EDGE('',*,*,#1090,.T.);
#1090 = EDGE_CURVE('',#1067,#1042,#1091,.T.);
#1091 = LINE('',#1092,#1093);
#1092 = CARTESIAN_POINT('',(-2.6625,-2.561991819529,6.4));
#1093 = VECTOR('',#1094,1.);
#1094 = DIRECTION('',(0.866025403784,-0.5,0.));
#1095 = ORIENTED_EDGE('',*,*,#1041,.F.);
#1096 = PLANE('',#1097);
#1097 = AXIS2_PLACEMENT_3D('',#1098,#1099,#1100);
#1098 = CARTESIAN_POINT('',(-3.55,-2.049593455623,3.2));
#1099 = DIRECTION('',(0.5,0.866025403784,-0.));
#1100 = DIRECTION('',(0.866025403784,-0.5,0.));
#1101 = ADVANCED_FACE('',(#1102,#1110),#1118,.T.);
#1102 = FACE_BOUND('',#1103,.T.);
#1103 = EDGE_LOOP('',(#1104,#1105,#1106,#1107,#1108,#1109));
#1104 = ORIENTED_EDGE('',*,*,#944,.T.);
#1105 = ORIENTED_EDGE('',*,*,#817,.T.);
#1106 = ORIENTED_EDGE('',*,*,#848,.T.);
#1107 = ORIENTED_EDGE('',*,*,#872,.T.);
#1108 = ORIENTED_EDGE('',*,*,#896,.T.);
#1109 = ORIENTED_EDGE('',*,*,#920,.T.);
#1110 = FACE_BOUND('',#1111,.T.);
#1111 = EDGE_LOOP('',(#1112,#1113,#1114,#1115,#1116,#1117));
#1112 = ORIENTED_EDGE('',*,*,#1018,.F.);
#1113 = ORIENTED_EDGE('',*,*,#970,.F.);
#1114 = ORIENTED_EDGE('',*,*,#1001,.F.);
#1115 = ORIENTED_EDGE('',*,*,#1049,.F.);
#1116 = ORIENTED_EDGE('',*,*,#1090,.F.);
#1117 = ORIENTED_EDGE('',*,*,#1066,.F.);
#1118 = PLANE('',#1119);
#1119 = AXIS2_PLACEMENT_3D('',#1120,#1121,#1122);
#1120 = CARTESIAN_POINT('',(-2.425358343186E-16,-1.385919053249E-16,6.4)
  );
#1121 = DIRECTION('',(0.,0.,1.));
#1122 = DIRECTION('',(1.,0.,-0.));
#1123 = ( GEOMETRIC_REPRESENTATION_CONTEXT(3) 
GLOBAL_UNCERTAINTY_ASSIGNED_CONTEXT((#1127)) 
GLOBAL_UNIT_ASSIGNED_CONTEXT((#1124,#1125,#1126)) REPRESENTATION_CONTEXT
('Context #1','3D Context with UNIT and UNCERTAINTY') );
#1124 = ( LENGTH_UNIT() NAMED_UNIT(*) SI_UNIT(.MILLI.,.METRE.) );
#1125 = ( NAMED_UNIT(*) PLANE_ANGLE_UNIT() SI_UNIT($,.RADIAN.) );
#1126 = ( NAMED_UNIT(*) SI_UNIT($,.STERADIAN.) SOLID_ANGLE_UNIT() );
#1127 = UNCERTAINTY_MEASURE_WITH_UNIT(LENGTH_MEASURE(1.E-07),#1124,
  'distance_accuracy_value','confusion accuracy');
#1128 = PRODUCT_RELATED_PRODUCT_CATEGORY('part',$,(#7));
ENDSEC;
END-ISO-10303-21;
