ISO-10303-21;
HEADER;
FILE_DESCRIPTION(('FreeCAD Model'),'2;1');
FILE_NAME('Open CASCADE Shape Model','2026-09-04T11:13:30',('FreeCAD'),(
    'FreeCAD'),'Open CASCADE STEP processor 7.8','FreeCAD','Unknown');
FILE_SCHEMA(('AUTOMOTIVE_DESIGN { 1 0 10303 214 1 1 1 1 }'));
ENDSEC;
DATA;
#1 = APPLICATION_PROTOCOL_DEFINITION('international standard',
  'automotive_design',2000,#2);
#2 = APPLICATION_CONTEXT(
  'core data for automotive mechanical design processes');
#3 = SHAPE_DEFINITION_REPRESENTATION(#4,#10);
#4 = PRODUCT_DEFINITION_SHAPE('','',#5);
#5 = PRODUCT_DEFINITION('design','',#6,#9);
#6 = PRODUCT_DEFINITION_FORMATION('','',#7);
#7 = PRODUCT('Open CASCADE STEP translator 7.8 2',
  'Open CASCADE STEP translator 7.8 2','',(#8));
#8 = PRODUCT_CONTEXT('',#2,'mechanical');
#9 = PRODUCT_DEFINITION_CONTEXT('part definition',#2,'design');
#10 = ADVANCED_BREP_SHAPE_REPRESENTATION('',(#11,#15),#239);
#11 = AXIS2_PLACEMENT_3D('',#12,#13,#14);
#12 = CARTESIAN_POINT('',(0.,0.,0.));
#13 = DIRECTION('',(0.,0.,1.));
#14 = DIRECTION('',(1.,0.,-0.));
#15 = MANIFOLD_SOLID_BREP('',#16);
#16 = CLOSED_SHELL('',(#17,#77,#108,#132,#157,#181,#198,#223));
#17 = ADVANCED_FACE('',(#18,#61),#72,.F.);
#18 = FACE_BOUND('',#19,.F.);
#19 = EDGE_LOOP('',(#20,#30,#38,#46,#54));
#20 = ORIENTED_EDGE('',*,*,#21,.F.);
#21 = EDGE_CURVE('',#22,#24,#26,.T.);
#22 = VERTEX_POINT('',#23);
#23 = CARTESIAN_POINT('',(-12.6,-5.8,-14.));
#24 = VERTEX_POINT('',#25);
#25 = CARTESIAN_POINT('',(-12.6,-5.8,-2.045116133622));
#26 = LINE('',#27,#28);
#27 = CARTESIAN_POINT('',(-12.6,-5.8,-14.));
#28 = VECTOR('',#29,1.);
#29 = DIRECTION('',(0.,0.,1.));
#30 = ORIENTED_EDGE('',*,*,#31,.T.);
#31 = EDGE_CURVE('',#22,#32,#34,.T.);
#32 = VERTEX_POINT('',#33);
#33 = CARTESIAN_POINT('',(-12.6,12.,-14.));
#34 = LINE('',#35,#36);
#35 = CARTESIAN_POINT('',(-12.6,-5.8,-14.));
#36 = VECTOR('',#37,1.);
#37 = DIRECTION('',(-0.,1.,0.));
#38 = ORIENTED_EDGE('',*,*,#39,.T.);
#39 = EDGE_CURVE('',#32,#40,#42,.T.);
#40 = VERTEX_POINT('',#41);
#41 = CARTESIAN_POINT('',(-12.6,12.,0.));
#42 = LINE('',#43,#44);
#43 = CARTESIAN_POINT('',(-12.6,12.,-14.));
#44 = VECTOR('',#45,1.);
#45 = DIRECTION('',(0.,0.,1.));
#46 = ORIENTED_EDGE('',*,*,#47,.F.);
#47 = EDGE_CURVE('',#48,#40,#50,.T.);
#48 = VERTEX_POINT('',#49);
#49 = CARTESIAN_POINT('',(-12.6,6.15,0.));
#50 = LINE('',#51,#52);
#51 = CARTESIAN_POINT('',(-12.6,-5.8,0.));
#52 = VECTOR('',#53,1.);
#53 = DIRECTION('',(-0.,1.,0.));
#54 = ORIENTED_EDGE('',*,*,#55,.F.);
#55 = EDGE_CURVE('',#24,#48,#56,.T.);
#56 = CIRCLE('',#57,6.15);
#57 = AXIS2_PLACEMENT_3D('',#58,#59,#60);
#58 = CARTESIAN_POINT('',(-12.6,0.,0.));
#59 = DIRECTION('',(1.,0.,0.));
#60 = DIRECTION('',(-0.,0.,1.));
#61 = FACE_BOUND('',#62,.F.);
#62 = EDGE_LOOP('',(#63));
#63 = ORIENTED_EDGE('',*,*,#64,.F.);
#64 = EDGE_CURVE('',#65,#65,#67,.T.);
#65 = VERTEX_POINT('',#66);
#66 = CARTESIAN_POINT('',(-12.6,3.,-8.2));
#67 = CIRCLE('',#68,2.3);
#68 = AXIS2_PLACEMENT_3D('',#69,#70,#71);
#69 = CARTESIAN_POINT('',(-12.6,3.,-10.5));
#70 = DIRECTION('',(1.,0.,0.));
#71 = DIRECTION('',(-0.,0.,1.));
#72 = PLANE('',#73);
#73 = AXIS2_PLACEMENT_3D('',#74,#75,#76);
#74 = CARTESIAN_POINT('',(-12.6,-5.8,-14.));
#75 = DIRECTION('',(1.,0.,-0.));
#76 = DIRECTION('',(0.,0.,1.));
#77 = ADVANCED_FACE('',(#78),#103,.F.);
#78 = FACE_BOUND('',#79,.F.);
#79 = EDGE_LOOP('',(#80,#90,#96,#97));
#80 = ORIENTED_EDGE('',*,*,#81,.F.);
#81 = EDGE_CURVE('',#82,#84,#86,.T.);
#82 = VERTEX_POINT('',#83);
#83 = CARTESIAN_POINT('',(12.6,-5.8,-14.));
#84 = VERTEX_POINT('',#85);
#85 = CARTESIAN_POINT('',(12.6,-5.8,-2.045116133622));
#86 = LINE('',#87,#88);
#87 = CARTESIAN_POINT('',(12.6,-5.8,-14.));
#88 = VECTOR('',#89,1.);
#89 = DIRECTION('',(0.,0.,1.));
#90 = ORIENTED_EDGE('',*,*,#91,.F.);
#91 = EDGE_CURVE('',#22,#82,#92,.T.);
#92 = LINE('',#93,#94);
#93 = CARTESIAN_POINT('',(-12.6,-5.8,-14.));
#94 = VECTOR('',#95,1.);
#95 = DIRECTION('',(1.,0.,-0.));
#96 = ORIENTED_EDGE('',*,*,#21,.T.);
#97 = ORIENTED_EDGE('',*,*,#98,.T.);
#98 = EDGE_CURVE('',#24,#84,#99,.T.);
#99 = LINE('',#100,#101);
#100 = CARTESIAN_POINT('',(-13.6,-5.8,-2.045116133622));
#101 = VECTOR('',#102,1.);
#102 = DIRECTION('',(1.,0.,0.));
#103 = PLANE('',#104);
#104 = AXIS2_PLACEMENT_3D('',#105,#106,#107);
#105 = CARTESIAN_POINT('',(-12.6,-5.8,-14.));
#106 = DIRECTION('',(-0.,1.,0.));
#107 = DIRECTION('',(0.,0.,1.));
#108 = ADVANCED_FACE('',(#109),#127,.F.);
#109 = FACE_BOUND('',#110,.F.);
#110 = EDGE_LOOP('',(#111,#112,#113,#121));
#111 = ORIENTED_EDGE('',*,*,#31,.F.);
#112 = ORIENTED_EDGE('',*,*,#91,.T.);
#113 = ORIENTED_EDGE('',*,*,#114,.T.);
#114 = EDGE_CURVE('',#82,#115,#117,.T.);
#115 = VERTEX_POINT('',#116);
#116 = CARTESIAN_POINT('',(12.6,12.,-14.));
#117 = LINE('',#118,#119);
#118 = CARTESIAN_POINT('',(12.6,-5.8,-14.));
#119 = VECTOR('',#120,1.);
#120 = DIRECTION('',(-0.,1.,0.));
#121 = ORIENTED_EDGE('',*,*,#122,.F.);
#122 = EDGE_CURVE('',#32,#115,#123,.T.);
#123 = LINE('',#124,#125);
#124 = CARTESIAN_POINT('',(-12.6,12.,-14.));
#125 = VECTOR('',#126,1.);
#126 = DIRECTION('',(1.,0.,-0.));
#127 = PLANE('',#128);
#128 = AXIS2_PLACEMENT_3D('',#129,#130,#131);
#129 = CARTESIAN_POINT('',(-12.6,-5.8,-14.));
#130 = DIRECTION('',(0.,0.,1.));
#131 = DIRECTION('',(1.,0.,-0.));
#132 = ADVANCED_FACE('',(#133),#152,.F.);
#133 = FACE_BOUND('',#134,.F.);
#134 = EDGE_LOOP('',(#135,#136,#137,#145));
#135 = ORIENTED_EDGE('',*,*,#98,.F.);
#136 = ORIENTED_EDGE('',*,*,#55,.T.);
#137 = ORIENTED_EDGE('',*,*,#138,.T.);
#138 = EDGE_CURVE('',#48,#139,#141,.T.);
#139 = VERTEX_POINT('',#140);
#140 = CARTESIAN_POINT('',(12.6,6.15,0.));
#141 = LINE('',#142,#143);
#142 = CARTESIAN_POINT('',(-13.6,6.15,0.));
#143 = VECTOR('',#144,1.);
#144 = DIRECTION('',(1.,0.,0.));
#145 = ORIENTED_EDGE('',*,*,#146,.F.);
#146 = EDGE_CURVE('',#84,#139,#147,.T.);
#147 = CIRCLE('',#148,6.15);
#148 = AXIS2_PLACEMENT_3D('',#149,#150,#151);
#149 = CARTESIAN_POINT('',(12.6,0.,0.));
#150 = DIRECTION('',(1.,0.,0.));
#151 = DIRECTION('',(-0.,0.,1.));
#152 = CYLINDRICAL_SURFACE('',#153,6.15);
#153 = AXIS2_PLACEMENT_3D('',#154,#155,#156);
#154 = CARTESIAN_POINT('',(-13.6,0.,0.));
#155 = DIRECTION('',(1.,0.,0.));
#156 = DIRECTION('',(-0.,0.,1.));
#157 = ADVANCED_FACE('',(#158),#176,.T.);
#158 = FACE_BOUND('',#159,.T.);
#159 = EDGE_LOOP('',(#160,#161,#162,#170));
#160 = ORIENTED_EDGE('',*,*,#122,.F.);
#161 = ORIENTED_EDGE('',*,*,#39,.T.);
#162 = ORIENTED_EDGE('',*,*,#163,.T.);
#163 = EDGE_CURVE('',#40,#164,#166,.T.);
#164 = VERTEX_POINT('',#165);
#165 = CARTESIAN_POINT('',(12.6,12.,0.));
#166 = LINE('',#167,#168);
#167 = CARTESIAN_POINT('',(-12.6,12.,0.));
#168 = VECTOR('',#169,1.);
#169 = DIRECTION('',(1.,0.,-0.));
#170 = ORIENTED_EDGE('',*,*,#171,.F.);
#171 = EDGE_CURVE('',#115,#164,#172,.T.);
#172 = LINE('',#173,#174);
#173 = CARTESIAN_POINT('',(12.6,12.,-14.));
#174 = VECTOR('',#175,1.);
#175 = DIRECTION('',(0.,0.,1.));
#176 = PLANE('',#177);
#177 = AXIS2_PLACEMENT_3D('',#178,#179,#180);
#178 = CARTESIAN_POINT('',(-12.6,12.,-14.));
#179 = DIRECTION('',(-0.,1.,0.));
#180 = DIRECTION('',(0.,0.,1.));
#181 = ADVANCED_FACE('',(#182),#193,.T.);
#182 = FACE_BOUND('',#183,.T.);
#183 = EDGE_LOOP('',(#184,#185,#186,#192));
#184 = ORIENTED_EDGE('',*,*,#47,.F.);
#185 = ORIENTED_EDGE('',*,*,#138,.T.);
#186 = ORIENTED_EDGE('',*,*,#187,.T.);
#187 = EDGE_CURVE('',#139,#164,#188,.T.);
#188 = LINE('',#189,#190);
#189 = CARTESIAN_POINT('',(12.6,-5.8,0.));
#190 = VECTOR('',#191,1.);
#191 = DIRECTION('',(-0.,1.,0.));
#192 = ORIENTED_EDGE('',*,*,#163,.F.);
#193 = PLANE('',#194);
#194 = AXIS2_PLACEMENT_3D('',#195,#196,#197);
#195 = CARTESIAN_POINT('',(-12.6,-5.8,0.));
#196 = DIRECTION('',(0.,0.,1.));
#197 = DIRECTION('',(1.,0.,-0.));
#198 = ADVANCED_FACE('',(#199),#218,.F.);
#199 = FACE_BOUND('',#200,.F.);
#200 = EDGE_LOOP('',(#201,#210,#216,#217));
#201 = ORIENTED_EDGE('',*,*,#202,.F.);
#202 = EDGE_CURVE('',#203,#203,#205,.T.);
#203 = VERTEX_POINT('',#204);
#204 = CARTESIAN_POINT('',(12.6,3.,-8.2));
#205 = CIRCLE('',#206,2.3);
#206 = AXIS2_PLACEMENT_3D('',#207,#208,#209);
#207 = CARTESIAN_POINT('',(12.6,3.,-10.5));
#208 = DIRECTION('',(1.,0.,0.));
#209 = DIRECTION('',(-0.,0.,1.));
#210 = ORIENTED_EDGE('',*,*,#211,.F.);
#211 = EDGE_CURVE('',#65,#203,#212,.T.);
#212 = LINE('',#213,#214);
#213 = CARTESIAN_POINT('',(-13.6,3.,-8.2));
#214 = VECTOR('',#215,1.);
#215 = DIRECTION('',(1.,0.,0.));
#216 = ORIENTED_EDGE('',*,*,#64,.T.);
#217 = ORIENTED_EDGE('',*,*,#211,.T.);
#218 = CYLINDRICAL_SURFACE('',#219,2.3);
#219 = AXIS2_PLACEMENT_3D('',#220,#221,#222);
#220 = CARTESIAN_POINT('',(-13.6,3.,-10.5));
#221 = DIRECTION('',(1.,0.,0.));
#222 = DIRECTION('',(-0.,0.,1.));
#223 = ADVANCED_FACE('',(#224,#231),#234,.T.);
#224 = FACE_BOUND('',#225,.T.);
#225 = EDGE_LOOP('',(#226,#227,#228,#229,#230));
#226 = ORIENTED_EDGE('',*,*,#81,.F.);
#227 = ORIENTED_EDGE('',*,*,#114,.T.);
#228 = ORIENTED_EDGE('',*,*,#171,.T.);
#229 = ORIENTED_EDGE('',*,*,#187,.F.);
#230 = ORIENTED_EDGE('',*,*,#146,.F.);
#231 = FACE_BOUND('',#232,.T.);
#232 = EDGE_LOOP('',(#233));
#233 = ORIENTED_EDGE('',*,*,#202,.F.);
#234 = PLANE('',#235);
#235 = AXIS2_PLACEMENT_3D('',#236,#237,#238);
#236 = CARTESIAN_POINT('',(12.6,-5.8,-14.));
#237 = DIRECTION('',(1.,0.,-0.));
#238 = DIRECTION('',(0.,0.,1.));
#239 = ( GEOMETRIC_REPRESENTATION_CONTEXT(3) 
GLOBAL_UNCERTAINTY_ASSIGNED_CONTEXT((#243)) GLOBAL_UNIT_ASSIGNED_CONTEXT
((#240,#241,#242)) REPRESENTATION_CONTEXT('Context #1',
  '3D Context with UNIT and UNCERTAINTY') );
#240 = ( LENGTH_UNIT() NAMED_UNIT(*) SI_UNIT(.MILLI.,.METRE.) );
#241 = ( NAMED_UNIT(*) PLANE_ANGLE_UNIT() SI_UNIT($,.RADIAN.) );
#242 = ( NAMED_UNIT(*) SI_UNIT($,.STERADIAN.) SOLID_ANGLE_UNIT() );
#243 = UNCERTAINTY_MEASURE_WITH_UNIT(LENGTH_MEASURE(1.E-07),#240,
  'distance_accuracy_value','confusion accuracy');
#244 = PRODUCT_RELATED_PRODUCT_CATEGORY('part',$,(#7));
ENDSEC;
END-ISO-10303-21;
