ISO-10303-21;
HEADER;
FILE_DESCRIPTION(('FreeCAD Model'),'2;1');
FILE_NAME('Open CASCADE Shape Model','2026-09-18T14:34:06',('FreeCAD'),(
    'FreeCAD'),'Open CASCADE STEP processor 7.8','FreeCAD','Unknown');
FILE_SCHEMA(('AUTOMOTIVE_DESIGN { 1 0 10303 214 1 1 1 1 }'));
ENDSEC;
DATA;
#1 = APPLICATION_PROTOCOL_DEFINITION('international standard',
  'automotive_design',2000,#2);
#2 = APPLICATION_CONTEXT(
  'core data for automotive mechanical design processes');
#3 = SHAPE_DEFINITION_REPRESENTATION(#4,#10);
#4 = PRODUCT_DEFINITION_SHAPE('','',#5);
#5 = PRODUCT_DEFINITION('design','',#6,#9);
#6 = PRODUCT_DEFINITION_FORMATION('','',#7);
#7 = PRODUCT('Open CASCADE STEP translator 7.8 1',
  'Open CASCADE STEP translator 7.8 1','',(#8));
#8 = PRODUCT_CONTEXT('',#2,'mechanical');
#9 = PRODUCT_DEFINITION_CONTEXT('part definition',#2,'design');
#10 = ADVANCED_BREP_SHAPE_REPRESENTATION('',(#11,#15),#968);
#11 = AXIS2_PLACEMENT_3D('',#12,#13,#14);
#12 = CARTESIAN_POINT('',(0.,0.,0.));
#13 = DIRECTION('',(0.,0.,1.));
#14 = DIRECTION('',(1.,0.,-0.));
#15 = MANIFOLD_SOLID_BREP('',#16);
#16 = CLOSED_SHELL('',(#17,#59,#242,#277,#405,#424,#441,#460,#477,#494,
    #511,#528,#545,#562,#574,#605,#629,#653,#677,#701,#718,#743,#807,
    #866,#888,#905,#922,#939,#956));
#17 = ADVANCED_FACE('',(#18),#54,.T.);
#18 = FACE_BOUND('',#19,.T.);
#19 = EDGE_LOOP('',(#20,#31,#39,#48));
#20 = ORIENTED_EDGE('',*,*,#21,.F.);
#21 = EDGE_CURVE('',#22,#24,#26,.T.);
#22 = VERTEX_POINT('',#23);
#23 = CARTESIAN_POINT('',(8.567627457812,-5.157107691734,7.));
#24 = VERTEX_POINT('',#25);
#25 = CARTESIAN_POINT('',(8.75,-4.841229182759,7.));
#26 = CIRCLE('',#27,10.);
#27 = AXIS2_PLACEMENT_3D('',#28,#29,#30);
#28 = CARTESIAN_POINT('',(0.,0.,7.));
#29 = DIRECTION('',(0.,0.,1.));
#30 = DIRECTION('',(1.,0.,-0.));
#31 = ORIENTED_EDGE('',*,*,#32,.F.);
#32 = EDGE_CURVE('',#33,#22,#35,.T.);
#33 = VERTEX_POINT('',#34);
#34 = CARTESIAN_POINT('',(8.567627457812,-5.157107691734,0.));
#35 = LINE('',#36,#37);
#36 = CARTESIAN_POINT('',(8.567627457812,-5.157107691734,0.));
#37 = VECTOR('',#38,1.);
#38 = DIRECTION('',(0.,0.,1.));
#39 = ORIENTED_EDGE('',*,*,#40,.T.);
#40 = EDGE_CURVE('',#33,#41,#43,.T.);
#41 = VERTEX_POINT('',#42);
#42 = CARTESIAN_POINT('',(8.75,-4.841229182759,0.));
#43 = CIRCLE('',#44,10.);
#44 = AXIS2_PLACEMENT_3D('',#45,#46,#47);
#45 = CARTESIAN_POINT('',(0.,0.,0.));
#46 = DIRECTION('',(0.,0.,1.));
#47 = DIRECTION('',(1.,0.,-0.));
#48 = ORIENTED_EDGE('',*,*,#49,.T.);
#49 = EDGE_CURVE('',#41,#24,#50,.T.);
#50 = LINE('',#51,#52);
#51 = CARTESIAN_POINT('',(8.75,-4.841229182759,0.));
#52 = VECTOR('',#53,1.);
#53 = DIRECTION('',(0.,0.,1.));
#54 = CYLINDRICAL_SURFACE('',#55,10.);
#55 = AXIS2_PLACEMENT_3D('',#56,#57,#58);
#56 = CARTESIAN_POINT('',(0.,0.,0.));
#57 = DIRECTION('',(0.,0.,1.));
#58 = DIRECTION('',(1.,0.,-0.));
#59 = ADVANCED_FACE('',(#60,#187),#237,.T.);
#60 = FACE_BOUND('',#61,.T.);
#61 = EDGE_LOOP('',(#62,#71,#80,#89,#98,#107,#116,#125,#134,#143,#152,
    #161,#170,#179,#186));
#62 = ORIENTED_EDGE('',*,*,#63,.T.);
#63 = EDGE_CURVE('',#24,#64,#66,.T.);
#64 = VERTEX_POINT('',#65);
#65 = CARTESIAN_POINT('',(15.,-1.224646799147E-15,7.));
#66 = CIRCLE('',#67,5.);
#67 = AXIS2_PLACEMENT_3D('',#68,#69,#70);
#68 = CARTESIAN_POINT('',(10.,0.,7.));
#69 = DIRECTION('',(0.,0.,1.));
#70 = DIRECTION('',(1.,0.,-0.));
#71 = ORIENTED_EDGE('',*,*,#72,.T.);
#72 = EDGE_CURVE('',#64,#73,#75,.T.);
#73 = VERTEX_POINT('',#74);
#74 = CARTESIAN_POINT('',(8.75,4.841229182759,7.));
#75 = CIRCLE('',#76,5.);
#76 = AXIS2_PLACEMENT_3D('',#77,#78,#79);
#77 = CARTESIAN_POINT('',(10.,0.,7.));
#78 = DIRECTION('',(0.,0.,1.));
#79 = DIRECTION('',(1.,0.,-0.));
#80 = ORIENTED_EDGE('',*,*,#81,.T.);
#81 = EDGE_CURVE('',#73,#82,#84,.T.);
#82 = VERTEX_POINT('',#83);
#83 = CARTESIAN_POINT('',(8.567627457812,5.157107691734,7.));
#84 = CIRCLE('',#85,10.);
#85 = AXIS2_PLACEMENT_3D('',#86,#87,#88);
#86 = CARTESIAN_POINT('',(0.,0.,7.));
#87 = DIRECTION('',(0.,0.,1.));
#88 = DIRECTION('',(1.,0.,-0.));
#89 = ORIENTED_EDGE('',*,*,#90,.T.);
#90 = EDGE_CURVE('',#82,#91,#93,.T.);
#91 = VERTEX_POINT('',#92);
#92 = CARTESIAN_POINT('',(10.,8.660254037844,7.));
#93 = CIRCLE('',#94,5.);
#94 = AXIS2_PLACEMENT_3D('',#95,#96,#97);
#95 = CARTESIAN_POINT('',(5.,8.660254037844,7.));
#96 = DIRECTION('',(0.,0.,1.));
#97 = DIRECTION('',(1.,0.,-0.));
#98 = ORIENTED_EDGE('',*,*,#99,.T.);
#99 = EDGE_CURVE('',#91,#100,#102,.T.);
#100 = VERTEX_POINT('',#101);
#101 = CARTESIAN_POINT('',(0.182372542188,9.998336874493,7.));
#102 = CIRCLE('',#103,5.);
#103 = AXIS2_PLACEMENT_3D('',#104,#105,#106);
#104 = CARTESIAN_POINT('',(5.,8.660254037844,7.));
#105 = DIRECTION('',(0.,0.,1.));
#106 = DIRECTION('',(1.,0.,-0.));
#107 = ORIENTED_EDGE('',*,*,#108,.T.);
#108 = EDGE_CURVE('',#100,#109,#111,.T.);
#109 = VERTEX_POINT('',#110);
#110 = CARTESIAN_POINT('',(-0.182372542188,9.998336874493,7.));
#111 = CIRCLE('',#112,10.);
#112 = AXIS2_PLACEMENT_3D('',#113,#114,#115);
#113 = CARTESIAN_POINT('',(0.,0.,7.));
#114 = DIRECTION('',(0.,0.,1.));
#115 = DIRECTION('',(1.,0.,-0.));
#116 = ORIENTED_EDGE('',*,*,#117,.T.);
#117 = EDGE_CURVE('',#109,#118,#120,.T.);
#118 = VERTEX_POINT('',#119);
#119 = CARTESIAN_POINT('',(-8.567627457812,5.157107691734,7.));
#120 = CIRCLE('',#121,5.);
#121 = AXIS2_PLACEMENT_3D('',#122,#123,#124);
#122 = CARTESIAN_POINT('',(-5.,8.660254037844,7.));
#123 = DIRECTION('',(0.,0.,1.));
#124 = DIRECTION('',(1.,0.,-0.));
#125 = ORIENTED_EDGE('',*,*,#126,.T.);
#126 = EDGE_CURVE('',#118,#127,#129,.T.);
#127 = VERTEX_POINT('',#128);
#128 = CARTESIAN_POINT('',(-8.75,4.841229182759,7.));
#129 = CIRCLE('',#130,10.);
#130 = AXIS2_PLACEMENT_3D('',#131,#132,#133);
#131 = CARTESIAN_POINT('',(0.,0.,7.));
#132 = DIRECTION('',(0.,0.,1.));
#133 = DIRECTION('',(1.,0.,-0.));
#134 = ORIENTED_EDGE('',*,*,#135,.T.);
#135 = EDGE_CURVE('',#127,#136,#138,.T.);
#136 = VERTEX_POINT('',#137);
#137 = CARTESIAN_POINT('',(-8.75,-4.841229182759,7.));
#138 = CIRCLE('',#139,5.);
#139 = AXIS2_PLACEMENT_3D('',#140,#141,#142);
#140 = CARTESIAN_POINT('',(-10.,1.224646799147E-15,7.));
#141 = DIRECTION('',(0.,0.,1.));
#142 = DIRECTION('',(1.,0.,-0.));
#143 = ORIENTED_EDGE('',*,*,#144,.T.);
#144 = EDGE_CURVE('',#136,#145,#147,.T.);
#145 = VERTEX_POINT('',#146);
#146 = CARTESIAN_POINT('',(-8.567627457812,-5.157107691734,7.));
#147 = CIRCLE('',#148,10.);
#148 = AXIS2_PLACEMENT_3D('',#149,#150,#151);
#149 = CARTESIAN_POINT('',(0.,0.,7.));
#150 = DIRECTION('',(0.,0.,1.));
#151 = DIRECTION('',(1.,0.,-0.));
#152 = ORIENTED_EDGE('',*,*,#153,.T.);
#153 = EDGE_CURVE('',#145,#154,#156,.T.);
#154 = VERTEX_POINT('',#155);
#155 = CARTESIAN_POINT('',(-0.182372542188,-9.998336874493,7.));
#156 = CIRCLE('',#157,5.);
#157 = AXIS2_PLACEMENT_3D('',#158,#159,#160);
#158 = CARTESIAN_POINT('',(-5.,-8.660254037844,7.));
#159 = DIRECTION('',(0.,0.,1.));
#160 = DIRECTION('',(1.,0.,-0.));
#161 = ORIENTED_EDGE('',*,*,#162,.T.);
#162 = EDGE_CURVE('',#154,#163,#165,.T.);
#163 = VERTEX_POINT('',#164);
#164 = CARTESIAN_POINT('',(0.182372542188,-9.998336874493,7.));
#165 = CIRCLE('',#166,10.);
#166 = AXIS2_PLACEMENT_3D('',#167,#168,#169);
#167 = CARTESIAN_POINT('',(0.,0.,7.));
#168 = DIRECTION('',(0.,0.,1.));
#169 = DIRECTION('',(1.,0.,-0.));
#170 = ORIENTED_EDGE('',*,*,#171,.T.);
#171 = EDGE_CURVE('',#163,#172,#174,.T.);
#172 = VERTEX_POINT('',#173);
#173 = CARTESIAN_POINT('',(10.,-8.660254037844,7.));
#174 = CIRCLE('',#175,5.);
#175 = AXIS2_PLACEMENT_3D('',#176,#177,#178);
#176 = CARTESIAN_POINT('',(5.,-8.660254037844,7.));
#177 = DIRECTION('',(0.,0.,1.));
#178 = DIRECTION('',(1.,0.,-0.));
#179 = ORIENTED_EDGE('',*,*,#180,.T.);
#180 = EDGE_CURVE('',#172,#22,#181,.T.);
#181 = CIRCLE('',#182,5.);
#182 = AXIS2_PLACEMENT_3D('',#183,#184,#185);
#183 = CARTESIAN_POINT('',(5.,-8.660254037844,7.));
#184 = DIRECTION('',(0.,0.,1.));
#185 = DIRECTION('',(1.,0.,-0.));
#186 = ORIENTED_EDGE('',*,*,#21,.T.);
#187 = FACE_BOUND('',#188,.T.);
#188 = EDGE_LOOP('',(#189,#199,#207,#215,#223,#231));
#189 = ORIENTED_EDGE('',*,*,#190,.T.);
#190 = EDGE_CURVE('',#191,#193,#195,.T.);
#191 = VERTEX_POINT('',#192);
#192 = CARTESIAN_POINT('',(-3.7,2.136195996002,7.));
#193 = VERTEX_POINT('',#194);
#194 = CARTESIAN_POINT('',(2.616085588855E-16,4.272391992003,7.));
#195 = LINE('',#196,#197);
#196 = CARTESIAN_POINT('',(-0.830090516518,3.79313900884,7.));
#197 = VECTOR('',#198,1.);
#198 = DIRECTION('',(0.866025403784,0.5,-0.));
#199 = ORIENTED_EDGE('',*,*,#200,.T.);
#200 = EDGE_CURVE('',#193,#201,#203,.T.);
#201 = VERTEX_POINT('',#202);
#202 = CARTESIAN_POINT('',(3.7,2.136195996002,7.));
#203 = LINE('',#204,#205);
#204 = CARTESIAN_POINT('',(2.869909483482,2.615448979165,7.));
#205 = VECTOR('',#206,1.);
#206 = DIRECTION('',(0.866025403784,-0.5,0.));
#207 = ORIENTED_EDGE('',*,*,#208,.T.);
#208 = EDGE_CURVE('',#201,#209,#211,.T.);
#209 = VERTEX_POINT('',#210);
#210 = CARTESIAN_POINT('',(3.7,-2.136195996002,7.));
#211 = LINE('',#212,#213);
#212 = CARTESIAN_POINT('',(3.7,-1.068097998001,7.));
#213 = VECTOR('',#214,1.);
#214 = DIRECTION('',(-4.157757159748E-16,-1.,0.));
#215 = ORIENTED_EDGE('',*,*,#216,.T.);
#216 = EDGE_CURVE('',#209,#217,#219,.T.);
#217 = VERTEX_POINT('',#218);
#218 = CARTESIAN_POINT('',(-7.848256766564E-16,-4.272391992003,7.));
#219 = LINE('',#220,#221);
#220 = CARTESIAN_POINT('',(1.019909483482,-3.683546977166,7.));
#221 = VECTOR('',#222,1.);
#222 = DIRECTION('',(-0.866025403784,-0.5,0.));
#223 = ORIENTED_EDGE('',*,*,#224,.T.);
#224 = EDGE_CURVE('',#217,#225,#227,.T.);
#225 = VERTEX_POINT('',#226);
#226 = CARTESIAN_POINT('',(-3.7,-2.136195996002,7.));
#227 = LINE('',#228,#229);
#228 = CARTESIAN_POINT('',(-2.680090516518,-2.725041010839,7.));
#229 = VECTOR('',#230,1.);
#230 = DIRECTION('',(-0.866025403784,0.5,0.));
#231 = ORIENTED_EDGE('',*,*,#232,.T.);
#232 = EDGE_CURVE('',#225,#191,#233,.T.);
#233 = LINE('',#234,#235);
#234 = CARTESIAN_POINT('',(-3.7,1.068097998001,7.));
#235 = VECTOR('',#236,1.);
#236 = DIRECTION('',(-1.039439289937E-16,1.,0.));
#237 = PLANE('',#238);
#238 = AXIS2_PLACEMENT_3D('',#239,#240,#241);
#239 = CARTESIAN_POINT('',(0.253091955952,3.87930877066E-15,7.));
#240 = DIRECTION('',(0.,0.,1.));
#241 = DIRECTION('',(1.,0.,-0.));
#242 = ADVANCED_FACE('',(#243),#272,.T.);
#243 = FACE_BOUND('',#244,.T.);
#244 = EDGE_LOOP('',(#245,#256,#262,#263,#264,#265));
#245 = ORIENTED_EDGE('',*,*,#246,.T.);
#246 = EDGE_CURVE('',#247,#249,#251,.T.);
#247 = VERTEX_POINT('',#248);
#248 = CARTESIAN_POINT('',(15.,-1.224646799147E-15,0.));
#249 = VERTEX_POINT('',#250);
#250 = CARTESIAN_POINT('',(8.75,4.841229182759,0.));
#251 = CIRCLE('',#252,5.);
#252 = AXIS2_PLACEMENT_3D('',#253,#254,#255);
#253 = CARTESIAN_POINT('',(10.,0.,0.));
#254 = DIRECTION('',(0.,0.,1.));
#255 = DIRECTION('',(1.,0.,-0.));
#256 = ORIENTED_EDGE('',*,*,#257,.T.);
#257 = EDGE_CURVE('',#249,#73,#258,.T.);
#258 = LINE('',#259,#260);
#259 = CARTESIAN_POINT('',(8.75,4.841229182759,0.));
#260 = VECTOR('',#261,1.);
#261 = DIRECTION('',(0.,0.,1.));
#262 = ORIENTED_EDGE('',*,*,#72,.F.);
#263 = ORIENTED_EDGE('',*,*,#63,.F.);
#264 = ORIENTED_EDGE('',*,*,#49,.F.);
#265 = ORIENTED_EDGE('',*,*,#266,.T.);
#266 = EDGE_CURVE('',#41,#247,#267,.T.);
#267 = CIRCLE('',#268,5.);
#268 = AXIS2_PLACEMENT_3D('',#269,#270,#271);
#269 = CARTESIAN_POINT('',(10.,0.,0.));
#270 = DIRECTION('',(0.,0.,1.));
#271 = DIRECTION('',(1.,0.,-0.));
#272 = CYLINDRICAL_SURFACE('',#273,5.);
#273 = AXIS2_PLACEMENT_3D('',#274,#275,#276);
#274 = CARTESIAN_POINT('',(10.,0.,0.));
#275 = DIRECTION('',(0.,0.,1.));
#276 = DIRECTION('',(1.,0.,-0.));
#277 = ADVANCED_FACE('',(#278,#389),#400,.T.);
#278 = FACE_BOUND('',#279,.T.);
#279 = EDGE_LOOP('',(#280,#281,#282,#291,#300,#309,#318,#327,#336,#345,
    #354,#363,#372,#381,#388));
#280 = ORIENTED_EDGE('',*,*,#266,.F.);
#281 = ORIENTED_EDGE('',*,*,#40,.F.);
#282 = ORIENTED_EDGE('',*,*,#283,.F.);
#283 = EDGE_CURVE('',#284,#33,#286,.T.);
#284 = VERTEX_POINT('',#285);
#285 = CARTESIAN_POINT('',(10.,-8.660254037844,0.));
#286 = CIRCLE('',#287,5.);
#287 = AXIS2_PLACEMENT_3D('',#288,#289,#290);
#288 = CARTESIAN_POINT('',(5.,-8.660254037844,0.));
#289 = DIRECTION('',(0.,0.,1.));
#290 = DIRECTION('',(1.,0.,-0.));
#291 = ORIENTED_EDGE('',*,*,#292,.F.);
#292 = EDGE_CURVE('',#293,#284,#295,.T.);
#293 = VERTEX_POINT('',#294);
#294 = CARTESIAN_POINT('',(0.182372542188,-9.998336874493,0.));
#295 = CIRCLE('',#296,5.);
#296 = AXIS2_PLACEMENT_3D('',#297,#298,#299);
#297 = CARTESIAN_POINT('',(5.,-8.660254037844,0.));
#298 = DIRECTION('',(0.,0.,1.));
#299 = DIRECTION('',(1.,0.,-0.));
#300 = ORIENTED_EDGE('',*,*,#301,.F.);
#301 = EDGE_CURVE('',#302,#293,#304,.T.);
#302 = VERTEX_POINT('',#303);
#303 = CARTESIAN_POINT('',(-0.182372542188,-9.998336874493,0.));
#304 = CIRCLE('',#305,10.);
#305 = AXIS2_PLACEMENT_3D('',#306,#307,#308);
#306 = CARTESIAN_POINT('',(0.,0.,0.));
#307 = DIRECTION('',(0.,0.,1.));
#308 = DIRECTION('',(1.,0.,-0.));
#309 = ORIENTED_EDGE('',*,*,#310,.F.);
#310 = EDGE_CURVE('',#311,#302,#313,.T.);
#311 = VERTEX_POINT('',#312);
#312 = CARTESIAN_POINT('',(-8.567627457812,-5.157107691734,0.));
#313 = CIRCLE('',#314,5.);
#314 = AXIS2_PLACEMENT_3D('',#315,#316,#317);
#315 = CARTESIAN_POINT('',(-5.,-8.660254037844,0.));
#316 = DIRECTION('',(0.,0.,1.));
#317 = DIRECTION('',(1.,0.,-0.));
#318 = ORIENTED_EDGE('',*,*,#319,.F.);
#319 = EDGE_CURVE('',#320,#311,#322,.T.);
#320 = VERTEX_POINT('',#321);
#321 = CARTESIAN_POINT('',(-8.75,-4.841229182759,0.));
#322 = CIRCLE('',#323,10.);
#323 = AXIS2_PLACEMENT_3D('',#324,#325,#326);
#324 = CARTESIAN_POINT('',(0.,0.,0.));
#325 = DIRECTION('',(0.,0.,1.));
#326 = DIRECTION('',(1.,0.,-0.));
#327 = ORIENTED_EDGE('',*,*,#328,.F.);
#328 = EDGE_CURVE('',#329,#320,#331,.T.);
#329 = VERTEX_POINT('',#330);
#330 = CARTESIAN_POINT('',(-8.75,4.841229182759,0.));
#331 = CIRCLE('',#332,5.);
#332 = AXIS2_PLACEMENT_3D('',#333,#334,#335);
#333 = CARTESIAN_POINT('',(-10.,1.224646799147E-15,0.));
#334 = DIRECTION('',(0.,0.,1.));
#335 = DIRECTION('',(1.,0.,-0.));
#336 = ORIENTED_EDGE('',*,*,#337,.F.);
#337 = EDGE_CURVE('',#338,#329,#340,.T.);
#338 = VERTEX_POINT('',#339);
#339 = CARTESIAN_POINT('',(-8.567627457812,5.157107691734,0.));
#340 = CIRCLE('',#341,10.);
#341 = AXIS2_PLACEMENT_3D('',#342,#343,#344);
#342 = CARTESIAN_POINT('',(0.,0.,0.));
#343 = DIRECTION('',(0.,0.,1.));
#344 = DIRECTION('',(1.,0.,-0.));
#345 = ORIENTED_EDGE('',*,*,#346,.F.);
#346 = EDGE_CURVE('',#347,#338,#349,.T.);
#347 = VERTEX_POINT('',#348);
#348 = CARTESIAN_POINT('',(-0.182372542188,9.998336874493,0.));
#349 = CIRCLE('',#350,5.);
#350 = AXIS2_PLACEMENT_3D('',#351,#352,#353);
#351 = CARTESIAN_POINT('',(-5.,8.660254037844,0.));
#352 = DIRECTION('',(0.,0.,1.));
#353 = DIRECTION('',(1.,0.,-0.));
#354 = ORIENTED_EDGE('',*,*,#355,.F.);
#355 = EDGE_CURVE('',#356,#347,#358,.T.);
#356 = VERTEX_POINT('',#357);
#357 = CARTESIAN_POINT('',(0.182372542188,9.998336874493,0.));
#358 = CIRCLE('',#359,10.);
#359 = AXIS2_PLACEMENT_3D('',#360,#361,#362);
#360 = CARTESIAN_POINT('',(0.,0.,0.));
#361 = DIRECTION('',(0.,0.,1.));
#362 = DIRECTION('',(1.,0.,-0.));
#363 = ORIENTED_EDGE('',*,*,#364,.F.);
#364 = EDGE_CURVE('',#365,#356,#367,.T.);
#365 = VERTEX_POINT('',#366);
#366 = CARTESIAN_POINT('',(10.,8.660254037844,0.));
#367 = CIRCLE('',#368,5.);
#368 = AXIS2_PLACEMENT_3D('',#369,#370,#371);
#369 = CARTESIAN_POINT('',(5.,8.660254037844,0.));
#370 = DIRECTION('',(0.,0.,1.));
#371 = DIRECTION('',(1.,0.,-0.));
#372 = ORIENTED_EDGE('',*,*,#373,.F.);
#373 = EDGE_CURVE('',#374,#365,#376,.T.);
#374 = VERTEX_POINT('',#375);
#375 = CARTESIAN_POINT('',(8.567627457812,5.157107691734,0.));
#376 = CIRCLE('',#377,5.);
#377 = AXIS2_PLACEMENT_3D('',#378,#379,#380);
#378 = CARTESIAN_POINT('',(5.,8.660254037844,0.));
#379 = DIRECTION('',(0.,0.,1.));
#380 = DIRECTION('',(1.,0.,-0.));
#381 = ORIENTED_EDGE('',*,*,#382,.F.);
#382 = EDGE_CURVE('',#249,#374,#383,.T.);
#383 = CIRCLE('',#384,10.);
#384 = AXIS2_PLACEMENT_3D('',#385,#386,#387);
#385 = CARTESIAN_POINT('',(0.,0.,0.));
#386 = DIRECTION('',(0.,0.,1.));
#387 = DIRECTION('',(1.,0.,-0.));
#388 = ORIENTED_EDGE('',*,*,#246,.F.);
#389 = FACE_BOUND('',#390,.T.);
#390 = EDGE_LOOP('',(#391));
#391 = ORIENTED_EDGE('',*,*,#392,.T.);
#392 = EDGE_CURVE('',#393,#393,#395,.T.);
#393 = VERTEX_POINT('',#394);
#394 = CARTESIAN_POINT('',(2.3,-5.633375276078E-16,0.));
#395 = CIRCLE('',#396,2.3);
#396 = AXIS2_PLACEMENT_3D('',#397,#398,#399);
#397 = CARTESIAN_POINT('',(0.,0.,0.));
#398 = DIRECTION('',(0.,0.,1.));
#399 = DIRECTION('',(1.,0.,-0.));
#400 = PLANE('',#401);
#401 = AXIS2_PLACEMENT_3D('',#402,#403,#404);
#402 = CARTESIAN_POINT('',(0.253091955952,4.818630088573E-15,0.));
#403 = DIRECTION('',(-0.,-0.,-1.));
#404 = DIRECTION('',(-1.,0.,0.));
#405 = ADVANCED_FACE('',(#406),#419,.T.);
#406 = FACE_BOUND('',#407,.T.);
#407 = EDGE_LOOP('',(#408,#409,#415,#416,#417,#418));
#408 = ORIENTED_EDGE('',*,*,#171,.F.);
#409 = ORIENTED_EDGE('',*,*,#410,.F.);
#410 = EDGE_CURVE('',#293,#163,#411,.T.);
#411 = LINE('',#412,#413);
#412 = CARTESIAN_POINT('',(0.182372542188,-9.998336874493,0.));
#413 = VECTOR('',#414,1.);
#414 = DIRECTION('',(0.,0.,1.));
#415 = ORIENTED_EDGE('',*,*,#292,.T.);
#416 = ORIENTED_EDGE('',*,*,#283,.T.);
#417 = ORIENTED_EDGE('',*,*,#32,.T.);
#418 = ORIENTED_EDGE('',*,*,#180,.F.);
#419 = CYLINDRICAL_SURFACE('',#420,5.);
#420 = AXIS2_PLACEMENT_3D('',#421,#422,#423);
#421 = CARTESIAN_POINT('',(5.,-8.660254037844,0.));
#422 = DIRECTION('',(0.,0.,1.));
#423 = DIRECTION('',(1.,0.,-0.));
#424 = ADVANCED_FACE('',(#425),#436,.T.);
#425 = FACE_BOUND('',#426,.T.);
#426 = EDGE_LOOP('',(#427,#428,#429,#430));
#427 = ORIENTED_EDGE('',*,*,#81,.F.);
#428 = ORIENTED_EDGE('',*,*,#257,.F.);
#429 = ORIENTED_EDGE('',*,*,#382,.T.);
#430 = ORIENTED_EDGE('',*,*,#431,.T.);
#431 = EDGE_CURVE('',#374,#82,#432,.T.);
#432 = LINE('',#433,#434);
#433 = CARTESIAN_POINT('',(8.567627457812,5.157107691734,0.));
#434 = VECTOR('',#435,1.);
#435 = DIRECTION('',(0.,0.,1.));
#436 = CYLINDRICAL_SURFACE('',#437,10.);
#437 = AXIS2_PLACEMENT_3D('',#438,#439,#440);
#438 = CARTESIAN_POINT('',(0.,0.,0.));
#439 = DIRECTION('',(0.,0.,1.));
#440 = DIRECTION('',(1.,0.,-0.));
#441 = ADVANCED_FACE('',(#442),#455,.T.);
#442 = FACE_BOUND('',#443,.T.);
#443 = EDGE_LOOP('',(#444,#445,#451,#452,#453,#454));
#444 = ORIENTED_EDGE('',*,*,#364,.T.);
#445 = ORIENTED_EDGE('',*,*,#446,.T.);
#446 = EDGE_CURVE('',#356,#100,#447,.T.);
#447 = LINE('',#448,#449);
#448 = CARTESIAN_POINT('',(0.182372542188,9.998336874493,0.));
#449 = VECTOR('',#450,1.);
#450 = DIRECTION('',(0.,0.,1.));
#451 = ORIENTED_EDGE('',*,*,#99,.F.);
#452 = ORIENTED_EDGE('',*,*,#90,.F.);
#453 = ORIENTED_EDGE('',*,*,#431,.F.);
#454 = ORIENTED_EDGE('',*,*,#373,.T.);
#455 = CYLINDRICAL_SURFACE('',#456,5.);
#456 = AXIS2_PLACEMENT_3D('',#457,#458,#459);
#457 = CARTESIAN_POINT('',(5.,8.660254037844,0.));
#458 = DIRECTION('',(0.,0.,1.));
#459 = DIRECTION('',(1.,0.,-0.));
#460 = ADVANCED_FACE('',(#461),#472,.T.);
#461 = FACE_BOUND('',#462,.T.);
#462 = EDGE_LOOP('',(#463,#464,#470,#471));
#463 = ORIENTED_EDGE('',*,*,#162,.F.);
#464 = ORIENTED_EDGE('',*,*,#465,.F.);
#465 = EDGE_CURVE('',#302,#154,#466,.T.);
#466 = LINE('',#467,#468);
#467 = CARTESIAN_POINT('',(-0.182372542188,-9.998336874493,0.));
#468 = VECTOR('',#469,1.);
#469 = DIRECTION('',(0.,0.,1.));
#470 = ORIENTED_EDGE('',*,*,#301,.T.);
#471 = ORIENTED_EDGE('',*,*,#410,.T.);
#472 = CYLINDRICAL_SURFACE('',#473,10.);
#473 = AXIS2_PLACEMENT_3D('',#474,#475,#476);
#474 = CARTESIAN_POINT('',(0.,0.,0.));
#475 = DIRECTION('',(0.,0.,1.));
#476 = DIRECTION('',(1.,0.,-0.));
#477 = ADVANCED_FACE('',(#478),#489,.T.);
#478 = FACE_BOUND('',#479,.T.);
#479 = EDGE_LOOP('',(#480,#481,#482,#488));
#480 = ORIENTED_EDGE('',*,*,#465,.T.);
#481 = ORIENTED_EDGE('',*,*,#153,.F.);
#482 = ORIENTED_EDGE('',*,*,#483,.F.);
#483 = EDGE_CURVE('',#311,#145,#484,.T.);
#484 = LINE('',#485,#486);
#485 = CARTESIAN_POINT('',(-8.567627457812,-5.157107691734,0.));
#486 = VECTOR('',#487,1.);
#487 = DIRECTION('',(0.,0.,1.));
#488 = ORIENTED_EDGE('',*,*,#310,.T.);
#489 = CYLINDRICAL_SURFACE('',#490,5.);
#490 = AXIS2_PLACEMENT_3D('',#491,#492,#493);
#491 = CARTESIAN_POINT('',(-5.,-8.660254037844,0.));
#492 = DIRECTION('',(0.,0.,1.));
#493 = DIRECTION('',(1.,0.,-0.));
#494 = ADVANCED_FACE('',(#495),#506,.T.);
#495 = FACE_BOUND('',#496,.T.);
#496 = EDGE_LOOP('',(#497,#498,#499,#500));
#497 = ORIENTED_EDGE('',*,*,#108,.F.);
#498 = ORIENTED_EDGE('',*,*,#446,.F.);
#499 = ORIENTED_EDGE('',*,*,#355,.T.);
#500 = ORIENTED_EDGE('',*,*,#501,.T.);
#501 = EDGE_CURVE('',#347,#109,#502,.T.);
#502 = LINE('',#503,#504);
#503 = CARTESIAN_POINT('',(-0.182372542188,9.998336874493,0.));
#504 = VECTOR('',#505,1.);
#505 = DIRECTION('',(0.,0.,1.));
#506 = CYLINDRICAL_SURFACE('',#507,10.);
#507 = AXIS2_PLACEMENT_3D('',#508,#509,#510);
#508 = CARTESIAN_POINT('',(0.,0.,0.));
#509 = DIRECTION('',(0.,0.,1.));
#510 = DIRECTION('',(1.,0.,-0.));
#511 = ADVANCED_FACE('',(#512),#523,.T.);
#512 = FACE_BOUND('',#513,.T.);
#513 = EDGE_LOOP('',(#514,#515,#521,#522));
#514 = ORIENTED_EDGE('',*,*,#144,.F.);
#515 = ORIENTED_EDGE('',*,*,#516,.F.);
#516 = EDGE_CURVE('',#320,#136,#517,.T.);
#517 = LINE('',#518,#519);
#518 = CARTESIAN_POINT('',(-8.75,-4.841229182759,0.));
#519 = VECTOR('',#520,1.);
#520 = DIRECTION('',(0.,0.,1.));
#521 = ORIENTED_EDGE('',*,*,#319,.T.);
#522 = ORIENTED_EDGE('',*,*,#483,.T.);
#523 = CYLINDRICAL_SURFACE('',#524,10.);
#524 = AXIS2_PLACEMENT_3D('',#525,#526,#527);
#525 = CARTESIAN_POINT('',(0.,0.,0.));
#526 = DIRECTION('',(0.,0.,1.));
#527 = DIRECTION('',(1.,0.,-0.));
#528 = ADVANCED_FACE('',(#529),#540,.T.);
#529 = FACE_BOUND('',#530,.T.);
#530 = EDGE_LOOP('',(#531,#532,#533,#534));
#531 = ORIENTED_EDGE('',*,*,#117,.F.);
#532 = ORIENTED_EDGE('',*,*,#501,.F.);
#533 = ORIENTED_EDGE('',*,*,#346,.T.);
#534 = ORIENTED_EDGE('',*,*,#535,.T.);
#535 = EDGE_CURVE('',#338,#118,#536,.T.);
#536 = LINE('',#537,#538);
#537 = CARTESIAN_POINT('',(-8.567627457812,5.157107691734,0.));
#538 = VECTOR('',#539,1.);
#539 = DIRECTION('',(0.,0.,1.));
#540 = CYLINDRICAL_SURFACE('',#541,5.);
#541 = AXIS2_PLACEMENT_3D('',#542,#543,#544);
#542 = CARTESIAN_POINT('',(-5.,8.660254037844,0.));
#543 = DIRECTION('',(0.,0.,1.));
#544 = DIRECTION('',(1.,0.,-0.));
#545 = ADVANCED_FACE('',(#546),#557,.T.);
#546 = FACE_BOUND('',#547,.T.);
#547 = EDGE_LOOP('',(#548,#549,#550,#556));
#548 = ORIENTED_EDGE('',*,*,#516,.T.);
#549 = ORIENTED_EDGE('',*,*,#135,.F.);
#550 = ORIENTED_EDGE('',*,*,#551,.F.);
#551 = EDGE_CURVE('',#329,#127,#552,.T.);
#552 = LINE('',#553,#554);
#553 = CARTESIAN_POINT('',(-8.75,4.841229182759,0.));
#554 = VECTOR('',#555,1.);
#555 = DIRECTION('',(0.,0.,1.));
#556 = ORIENTED_EDGE('',*,*,#328,.T.);
#557 = CYLINDRICAL_SURFACE('',#558,5.);
#558 = AXIS2_PLACEMENT_3D('',#559,#560,#561);
#559 = CARTESIAN_POINT('',(-10.,1.224646799147E-15,0.));
#560 = DIRECTION('',(0.,0.,1.));
#561 = DIRECTION('',(1.,0.,-0.));
#562 = ADVANCED_FACE('',(#563),#569,.T.);
#563 = FACE_BOUND('',#564,.T.);
#564 = EDGE_LOOP('',(#565,#566,#567,#568));
#565 = ORIENTED_EDGE('',*,*,#126,.F.);
#566 = ORIENTED_EDGE('',*,*,#535,.F.);
#567 = ORIENTED_EDGE('',*,*,#337,.T.);
#568 = ORIENTED_EDGE('',*,*,#551,.T.);
#569 = CYLINDRICAL_SURFACE('',#570,10.);
#570 = AXIS2_PLACEMENT_3D('',#571,#572,#573);
#571 = CARTESIAN_POINT('',(0.,0.,0.));
#572 = DIRECTION('',(0.,0.,1.));
#573 = DIRECTION('',(1.,0.,-0.));
#574 = ADVANCED_FACE('',(#575),#600,.T.);
#575 = FACE_BOUND('',#576,.T.);
#576 = EDGE_LOOP('',(#577,#587,#593,#594));
#577 = ORIENTED_EDGE('',*,*,#578,.F.);
#578 = EDGE_CURVE('',#579,#581,#583,.T.);
#579 = VERTEX_POINT('',#580);
#580 = CARTESIAN_POINT('',(2.616085588855E-16,4.272391992003,6.4));
#581 = VERTEX_POINT('',#582);
#582 = CARTESIAN_POINT('',(-3.7,2.136195996002,6.4));
#583 = LINE('',#584,#585);
#584 = CARTESIAN_POINT('',(2.616085588855E-16,4.272391992003,6.4));
#585 = VECTOR('',#586,1.);
#586 = DIRECTION('',(-0.866025403784,-0.5,0.));
#587 = ORIENTED_EDGE('',*,*,#588,.T.);
#588 = EDGE_CURVE('',#579,#193,#589,.T.);
#589 = LINE('',#590,#591);
#590 = CARTESIAN_POINT('',(2.616085588855E-16,4.272391992003,6.4));
#591 = VECTOR('',#592,1.);
#592 = DIRECTION('',(0.,0.,1.));
#593 = ORIENTED_EDGE('',*,*,#190,.F.);
#594 = ORIENTED_EDGE('',*,*,#595,.F.);
#595 = EDGE_CURVE('',#581,#191,#596,.T.);
#596 = LINE('',#597,#598);
#597 = CARTESIAN_POINT('',(-3.7,2.136195996002,6.4));
#598 = VECTOR('',#599,1.);
#599 = DIRECTION('',(0.,0.,1.));
#600 = PLANE('',#601);
#601 = AXIS2_PLACEMENT_3D('',#602,#603,#604);
#602 = CARTESIAN_POINT('',(2.616085588855E-16,4.272391992003,6.4));
#603 = DIRECTION('',(0.5,-0.866025403784,0.));
#604 = DIRECTION('',(-0.866025403784,-0.5,0.));
#605 = ADVANCED_FACE('',(#606),#624,.T.);
#606 = FACE_BOUND('',#607,.T.);
#607 = EDGE_LOOP('',(#608,#616,#617,#618));
#608 = ORIENTED_EDGE('',*,*,#609,.F.);
#609 = EDGE_CURVE('',#581,#610,#612,.T.);
#610 = VERTEX_POINT('',#611);
#611 = CARTESIAN_POINT('',(-3.7,-2.136195996002,6.4));
#612 = LINE('',#613,#614);
#613 = CARTESIAN_POINT('',(-3.7,2.136195996002,6.4));
#614 = VECTOR('',#615,1.);
#615 = DIRECTION('',(1.039439289937E-16,-1.,0.));
#616 = ORIENTED_EDGE('',*,*,#595,.T.);
#617 = ORIENTED_EDGE('',*,*,#232,.F.);
#618 = ORIENTED_EDGE('',*,*,#619,.F.);
#619 = EDGE_CURVE('',#610,#225,#620,.T.);
#620 = LINE('',#621,#622);
#621 = CARTESIAN_POINT('',(-3.7,-2.136195996002,6.4));
#622 = VECTOR('',#623,1.);
#623 = DIRECTION('',(0.,0.,1.));
#624 = PLANE('',#625);
#625 = AXIS2_PLACEMENT_3D('',#626,#627,#628);
#626 = CARTESIAN_POINT('',(-3.7,2.136195996002,6.4));
#627 = DIRECTION('',(1.,1.039439289937E-16,-0.));
#628 = DIRECTION('',(1.039439289937E-16,-1.,0.));
#629 = ADVANCED_FACE('',(#630),#648,.T.);
#630 = FACE_BOUND('',#631,.T.);
#631 = EDGE_LOOP('',(#632,#640,#641,#642));
#632 = ORIENTED_EDGE('',*,*,#633,.F.);
#633 = EDGE_CURVE('',#610,#634,#636,.T.);
#634 = VERTEX_POINT('',#635);
#635 = CARTESIAN_POINT('',(-7.848256766564E-16,-4.272391992003,6.4));
#636 = LINE('',#637,#638);
#637 = CARTESIAN_POINT('',(-3.7,-2.136195996002,6.4));
#638 = VECTOR('',#639,1.);
#639 = DIRECTION('',(0.866025403784,-0.5,0.));
#640 = ORIENTED_EDGE('',*,*,#619,.T.);
#641 = ORIENTED_EDGE('',*,*,#224,.F.);
#642 = ORIENTED_EDGE('',*,*,#643,.F.);
#643 = EDGE_CURVE('',#634,#217,#644,.T.);
#644 = LINE('',#645,#646);
#645 = CARTESIAN_POINT('',(-7.848256766564E-16,-4.272391992003,6.4));
#646 = VECTOR('',#647,1.);
#647 = DIRECTION('',(0.,0.,1.));
#648 = PLANE('',#649);
#649 = AXIS2_PLACEMENT_3D('',#650,#651,#652);
#650 = CARTESIAN_POINT('',(-3.7,-2.136195996002,6.4));
#651 = DIRECTION('',(0.5,0.866025403784,-0.));
#652 = DIRECTION('',(0.866025403784,-0.5,0.));
#653 = ADVANCED_FACE('',(#654),#672,.T.);
#654 = FACE_BOUND('',#655,.T.);
#655 = EDGE_LOOP('',(#656,#664,#665,#666));
#656 = ORIENTED_EDGE('',*,*,#657,.F.);
#657 = EDGE_CURVE('',#634,#658,#660,.T.);
#658 = VERTEX_POINT('',#659);
#659 = CARTESIAN_POINT('',(3.7,-2.136195996002,6.4));
#660 = LINE('',#661,#662);
#661 = CARTESIAN_POINT('',(-7.848256766564E-16,-4.272391992003,6.4));
#662 = VECTOR('',#663,1.);
#663 = DIRECTION('',(0.866025403784,0.5,0.));
#664 = ORIENTED_EDGE('',*,*,#643,.T.);
#665 = ORIENTED_EDGE('',*,*,#216,.F.);
#666 = ORIENTED_EDGE('',*,*,#667,.F.);
#667 = EDGE_CURVE('',#658,#209,#668,.T.);
#668 = LINE('',#669,#670);
#669 = CARTESIAN_POINT('',(3.7,-2.136195996002,6.4));
#670 = VECTOR('',#671,1.);
#671 = DIRECTION('',(0.,0.,1.));
#672 = PLANE('',#673);
#673 = AXIS2_PLACEMENT_3D('',#674,#675,#676);
#674 = CARTESIAN_POINT('',(-7.848256766564E-16,-4.272391992003,6.4));
#675 = DIRECTION('',(-0.5,0.866025403784,0.));
#676 = DIRECTION('',(0.866025403784,0.5,0.));
#677 = ADVANCED_FACE('',(#678),#696,.T.);
#678 = FACE_BOUND('',#679,.T.);
#679 = EDGE_LOOP('',(#680,#688,#689,#690));
#680 = ORIENTED_EDGE('',*,*,#681,.F.);
#681 = EDGE_CURVE('',#658,#682,#684,.T.);
#682 = VERTEX_POINT('',#683);
#683 = CARTESIAN_POINT('',(3.7,2.136195996002,6.4));
#684 = LINE('',#685,#686);
#685 = CARTESIAN_POINT('',(3.7,-2.136195996002,6.4));
#686 = VECTOR('',#687,1.);
#687 = DIRECTION('',(4.157757159748E-16,1.,0.));
#688 = ORIENTED_EDGE('',*,*,#667,.T.);
#689 = ORIENTED_EDGE('',*,*,#208,.F.);
#690 = ORIENTED_EDGE('',*,*,#691,.F.);
#691 = EDGE_CURVE('',#682,#201,#692,.T.);
#692 = LINE('',#693,#694);
#693 = CARTESIAN_POINT('',(3.7,2.136195996002,6.4));
#694 = VECTOR('',#695,1.);
#695 = DIRECTION('',(0.,0.,1.));
#696 = PLANE('',#697);
#697 = AXIS2_PLACEMENT_3D('',#698,#699,#700);
#698 = CARTESIAN_POINT('',(3.7,-2.136195996002,6.4));
#699 = DIRECTION('',(-1.,4.157757159748E-16,0.));
#700 = DIRECTION('',(4.157757159748E-16,1.,0.));
#701 = ADVANCED_FACE('',(#702),#713,.T.);
#702 = FACE_BOUND('',#703,.T.);
#703 = EDGE_LOOP('',(#704,#710,#711,#712));
#704 = ORIENTED_EDGE('',*,*,#705,.F.);
#705 = EDGE_CURVE('',#682,#579,#706,.T.);
#706 = LINE('',#707,#708);
#707 = CARTESIAN_POINT('',(3.7,2.136195996002,6.4));
#708 = VECTOR('',#709,1.);
#709 = DIRECTION('',(-0.866025403784,0.5,0.));
#710 = ORIENTED_EDGE('',*,*,#691,.T.);
#711 = ORIENTED_EDGE('',*,*,#200,.F.);
#712 = ORIENTED_EDGE('',*,*,#588,.F.);
#713 = PLANE('',#714);
#714 = AXIS2_PLACEMENT_3D('',#715,#716,#717);
#715 = CARTESIAN_POINT('',(3.7,2.136195996002,6.4));
#716 = DIRECTION('',(-0.5,-0.866025403784,0.));
#717 = DIRECTION('',(-0.866025403784,0.5,0.));
#718 = ADVANCED_FACE('',(#719),#738,.F.);
#719 = FACE_BOUND('',#720,.F.);
#720 = EDGE_LOOP('',(#721,#722,#730,#737));
#721 = ORIENTED_EDGE('',*,*,#392,.T.);
#722 = ORIENTED_EDGE('',*,*,#723,.T.);
#723 = EDGE_CURVE('',#393,#724,#726,.T.);
#724 = VERTEX_POINT('',#725);
#725 = CARTESIAN_POINT('',(2.3,-5.633375276078E-16,3.2));
#726 = LINE('',#727,#728);
#727 = CARTESIAN_POINT('',(2.3,-5.633375276078E-16,-0.1));
#728 = VECTOR('',#729,1.);
#729 = DIRECTION('',(0.,0.,1.));
#730 = ORIENTED_EDGE('',*,*,#731,.F.);
#731 = EDGE_CURVE('',#724,#724,#732,.T.);
#732 = CIRCLE('',#733,2.3);
#733 = AXIS2_PLACEMENT_3D('',#734,#735,#736);
#734 = CARTESIAN_POINT('',(0.,0.,3.2));
#735 = DIRECTION('',(0.,0.,1.));
#736 = DIRECTION('',(1.,0.,-0.));
#737 = ORIENTED_EDGE('',*,*,#723,.F.);
#738 = CYLINDRICAL_SURFACE('',#739,2.3);
#739 = AXIS2_PLACEMENT_3D('',#740,#741,#742);
#740 = CARTESIAN_POINT('',(0.,0.,-0.1));
#741 = DIRECTION('',(0.,0.,1.));
#742 = DIRECTION('',(1.,0.,-0.));
#743 = ADVANCED_FACE('',(#744,#752),#802,.T.);
#744 = FACE_BOUND('',#745,.T.);
#745 = EDGE_LOOP('',(#746,#747,#748,#749,#750,#751));
#746 = ORIENTED_EDGE('',*,*,#705,.T.);
#747 = ORIENTED_EDGE('',*,*,#578,.T.);
#748 = ORIENTED_EDGE('',*,*,#609,.T.);
#749 = ORIENTED_EDGE('',*,*,#633,.T.);
#750 = ORIENTED_EDGE('',*,*,#657,.T.);
#751 = ORIENTED_EDGE('',*,*,#681,.T.);
#752 = FACE_BOUND('',#753,.T.);
#753 = EDGE_LOOP('',(#754,#764,#772,#780,#788,#796));
#754 = ORIENTED_EDGE('',*,*,#755,.F.);
#755 = EDGE_CURVE('',#756,#758,#760,.T.);
#756 = VERTEX_POINT('',#757);
#757 = CARTESIAN_POINT('',(2.510028064982E-16,4.099186911246,6.4));
#758 = VERTEX_POINT('',#759);
#759 = CARTESIAN_POINT('',(-3.55,2.049593455623,6.4));
#760 = LINE('',#761,#762);
#761 = CARTESIAN_POINT('',(-0.8875,3.586788547341,6.4));
#762 = VECTOR('',#763,1.);
#763 = DIRECTION('',(-0.866025403784,-0.5,0.));
#764 = ORIENTED_EDGE('',*,*,#765,.F.);
#765 = EDGE_CURVE('',#766,#756,#768,.T.);
#766 = VERTEX_POINT('',#767);
#767 = CARTESIAN_POINT('',(3.55,2.049593455623,6.4));
#768 = LINE('',#769,#770);
#769 = CARTESIAN_POINT('',(2.6625,2.561991819529,6.4));
#770 = VECTOR('',#771,1.);
#771 = DIRECTION('',(-0.866025403784,0.5,0.));
#772 = ORIENTED_EDGE('',*,*,#773,.F.);
#773 = EDGE_CURVE('',#774,#766,#776,.T.);
#774 = VERTEX_POINT('',#775);
#775 = CARTESIAN_POINT('',(3.55,-2.049593455623,6.4));
#776 = LINE('',#777,#778);
#777 = CARTESIAN_POINT('',(3.55,-1.024796727812,6.4));
#778 = VECTOR('',#779,1.);
#779 = DIRECTION('',(3.250077779803E-16,1.,-0.));
#780 = ORIENTED_EDGE('',*,*,#781,.F.);
#781 = EDGE_CURVE('',#782,#774,#784,.T.);
#782 = VERTEX_POINT('',#783);
#783 = CARTESIAN_POINT('',(-7.530084194947E-16,-4.099186911246,6.4));
#784 = LINE('',#785,#786);
#785 = CARTESIAN_POINT('',(0.8875,-3.586788547341,6.4));
#786 = VECTOR('',#787,1.);
#787 = DIRECTION('',(0.866025403784,0.5,-0.));
#788 = ORIENTED_EDGE('',*,*,#789,.F.);
#789 = EDGE_CURVE('',#790,#782,#792,.T.);
#790 = VERTEX_POINT('',#791);
#791 = CARTESIAN_POINT('',(-3.55,-2.049593455623,6.4));
#792 = LINE('',#793,#794);
#793 = CARTESIAN_POINT('',(-2.6625,-2.561991819529,6.4));
#794 = VECTOR('',#795,1.);
#795 = DIRECTION('',(0.866025403784,-0.5,0.));
#796 = ORIENTED_EDGE('',*,*,#797,.F.);
#797 = EDGE_CURVE('',#758,#790,#798,.T.);
#798 = LINE('',#799,#800);
#799 = CARTESIAN_POINT('',(-3.55,1.024796727812,6.4));
#800 = VECTOR('',#801,1.);
#801 = DIRECTION('',(1.083359259934E-16,-1.,0.));
#802 = PLANE('',#803);
#803 = AXIS2_PLACEMENT_3D('',#804,#805,#806);
#804 = CARTESIAN_POINT('',(-2.425358343186E-16,-1.385919053249E-16,6.4)
  );
#805 = DIRECTION('',(0.,0.,1.));
#806 = DIRECTION('',(1.,0.,-0.));
#807 = ADVANCED_FACE('',(#808,#858),#861,.T.);
#808 = FACE_BOUND('',#809,.T.);
#809 = EDGE_LOOP('',(#810,#820,#828,#836,#844,#852));
#810 = ORIENTED_EDGE('',*,*,#811,.T.);
#811 = EDGE_CURVE('',#812,#814,#816,.T.);
#812 = VERTEX_POINT('',#813);
#813 = CARTESIAN_POINT('',(3.55,2.049593455623,3.2));
#814 = VERTEX_POINT('',#815);
#815 = CARTESIAN_POINT('',(2.510028064982E-16,4.099186911246,3.2));
#816 = LINE('',#817,#818);
#817 = CARTESIAN_POINT('',(3.55,2.049593455623,3.2));
#818 = VECTOR('',#819,1.);
#819 = DIRECTION('',(-0.866025403784,0.5,0.));
#820 = ORIENTED_EDGE('',*,*,#821,.T.);
#821 = EDGE_CURVE('',#814,#822,#824,.T.);
#822 = VERTEX_POINT('',#823);
#823 = CARTESIAN_POINT('',(-3.55,2.049593455623,3.2));
#824 = LINE('',#825,#826);
#825 = CARTESIAN_POINT('',(2.510028064982E-16,4.099186911246,3.2));
#826 = VECTOR('',#827,1.);
#827 = DIRECTION('',(-0.866025403784,-0.5,0.));
#828 = ORIENTED_EDGE('',*,*,#829,.T.);
#829 = EDGE_CURVE('',#822,#830,#832,.T.);
#830 = VERTEX_POINT('',#831);
#831 = CARTESIAN_POINT('',(-3.55,-2.049593455623,3.2));
#832 = LINE('',#833,#834);
#833 = CARTESIAN_POINT('',(-3.55,2.049593455623,3.2));
#834 = VECTOR('',#835,1.);
#835 = DIRECTION('',(1.083359259934E-16,-1.,0.));
#836 = ORIENTED_EDGE('',*,*,#837,.T.);
#837 = EDGE_CURVE('',#830,#838,#840,.T.);
#838 = VERTEX_POINT('',#839);
#839 = CARTESIAN_POINT('',(-7.530084194947E-16,-4.099186911246,3.2));
#840 = LINE('',#841,#842);
#841 = CARTESIAN_POINT('',(-3.55,-2.049593455623,3.2));
#842 = VECTOR('',#843,1.);
#843 = DIRECTION('',(0.866025403784,-0.5,0.));
#844 = ORIENTED_EDGE('',*,*,#845,.T.);
#845 = EDGE_CURVE('',#838,#846,#848,.T.);
#846 = VERTEX_POINT('',#847);
#847 = CARTESIAN_POINT('',(3.55,-2.049593455623,3.2));
#848 = LINE('',#849,#850);
#849 = CARTESIAN_POINT('',(-7.530084194947E-16,-4.099186911246,3.2));
#850 = VECTOR('',#851,1.);
#851 = DIRECTION('',(0.866025403784,0.5,0.));
#852 = ORIENTED_EDGE('',*,*,#853,.T.);
#853 = EDGE_CURVE('',#846,#812,#854,.T.);
#854 = LINE('',#855,#856);
#855 = CARTESIAN_POINT('',(3.55,-2.049593455623,3.2));
#856 = VECTOR('',#857,1.);
#857 = DIRECTION('',(3.250077779803E-16,1.,0.));
#858 = FACE_BOUND('',#859,.T.);
#859 = EDGE_LOOP('',(#860));
#860 = ORIENTED_EDGE('',*,*,#731,.F.);
#861 = PLANE('',#862);
#862 = AXIS2_PLACEMENT_3D('',#863,#864,#865);
#863 = CARTESIAN_POINT('',(-1.805598766557E-16,-3.972317286426E-16,3.2)
  );
#864 = DIRECTION('',(0.,0.,1.));
#865 = DIRECTION('',(1.,0.,-0.));
#866 = ADVANCED_FACE('',(#867),#883,.T.);
#867 = FACE_BOUND('',#868,.T.);
#868 = EDGE_LOOP('',(#869,#870,#876,#877));
#869 = ORIENTED_EDGE('',*,*,#821,.F.);
#870 = ORIENTED_EDGE('',*,*,#871,.T.);
#871 = EDGE_CURVE('',#814,#756,#872,.T.);
#872 = LINE('',#873,#874);
#873 = CARTESIAN_POINT('',(2.510028064982E-16,4.099186911246,3.2));
#874 = VECTOR('',#875,1.);
#875 = DIRECTION('',(0.,0.,1.));
#876 = ORIENTED_EDGE('',*,*,#755,.T.);
#877 = ORIENTED_EDGE('',*,*,#878,.F.);
#878 = EDGE_CURVE('',#822,#758,#879,.T.);
#879 = LINE('',#880,#881);
#880 = CARTESIAN_POINT('',(-3.55,2.049593455623,3.2));
#881 = VECTOR('',#882,1.);
#882 = DIRECTION('',(0.,0.,1.));
#883 = PLANE('',#884);
#884 = AXIS2_PLACEMENT_3D('',#885,#886,#887);
#885 = CARTESIAN_POINT('',(2.510028064982E-16,4.099186911246,3.2));
#886 = DIRECTION('',(0.5,-0.866025403784,0.));
#887 = DIRECTION('',(-0.866025403784,-0.5,0.));
#888 = ADVANCED_FACE('',(#889),#900,.T.);
#889 = FACE_BOUND('',#890,.T.);
#890 = EDGE_LOOP('',(#891,#892,#893,#894));
#891 = ORIENTED_EDGE('',*,*,#829,.F.);
#892 = ORIENTED_EDGE('',*,*,#878,.T.);
#893 = ORIENTED_EDGE('',*,*,#797,.T.);
#894 = ORIENTED_EDGE('',*,*,#895,.F.);
#895 = EDGE_CURVE('',#830,#790,#896,.T.);
#896 = LINE('',#897,#898);
#897 = CARTESIAN_POINT('',(-3.55,-2.049593455623,3.2));
#898 = VECTOR('',#899,1.);
#899 = DIRECTION('',(0.,0.,1.));
#900 = PLANE('',#901);
#901 = AXIS2_PLACEMENT_3D('',#902,#903,#904);
#902 = CARTESIAN_POINT('',(-3.55,2.049593455623,3.2));
#903 = DIRECTION('',(1.,1.083359259934E-16,-0.));
#904 = DIRECTION('',(1.083359259934E-16,-1.,0.));
#905 = ADVANCED_FACE('',(#906),#917,.T.);
#906 = FACE_BOUND('',#907,.T.);
#907 = EDGE_LOOP('',(#908,#909,#910,#911));
#908 = ORIENTED_EDGE('',*,*,#837,.F.);
#909 = ORIENTED_EDGE('',*,*,#895,.T.);
#910 = ORIENTED_EDGE('',*,*,#789,.T.);
#911 = ORIENTED_EDGE('',*,*,#912,.F.);
#912 = EDGE_CURVE('',#838,#782,#913,.T.);
#913 = LINE('',#914,#915);
#914 = CARTESIAN_POINT('',(-7.530084194947E-16,-4.099186911246,3.2));
#915 = VECTOR('',#916,1.);
#916 = DIRECTION('',(0.,0.,1.));
#917 = PLANE('',#918);
#918 = AXIS2_PLACEMENT_3D('',#919,#920,#921);
#919 = CARTESIAN_POINT('',(-3.55,-2.049593455623,3.2));
#920 = DIRECTION('',(0.5,0.866025403784,-0.));
#921 = DIRECTION('',(0.866025403784,-0.5,0.));
#922 = ADVANCED_FACE('',(#923),#934,.T.);
#923 = FACE_BOUND('',#924,.T.);
#924 = EDGE_LOOP('',(#925,#926,#927,#928));
#925 = ORIENTED_EDGE('',*,*,#845,.F.);
#926 = ORIENTED_EDGE('',*,*,#912,.T.);
#927 = ORIENTED_EDGE('',*,*,#781,.T.);
#928 = ORIENTED_EDGE('',*,*,#929,.F.);
#929 = EDGE_CURVE('',#846,#774,#930,.T.);
#930 = LINE('',#931,#932);
#931 = CARTESIAN_POINT('',(3.55,-2.049593455623,3.2));
#932 = VECTOR('',#933,1.);
#933 = DIRECTION('',(0.,0.,1.));
#934 = PLANE('',#935);
#935 = AXIS2_PLACEMENT_3D('',#936,#937,#938);
#936 = CARTESIAN_POINT('',(-7.530084194947E-16,-4.099186911246,3.2));
#937 = DIRECTION('',(-0.5,0.866025403784,0.));
#938 = DIRECTION('',(0.866025403784,0.5,0.));
#939 = ADVANCED_FACE('',(#940),#951,.T.);
#940 = FACE_BOUND('',#941,.T.);
#941 = EDGE_LOOP('',(#942,#943,#944,#945));
#942 = ORIENTED_EDGE('',*,*,#853,.F.);
#943 = ORIENTED_EDGE('',*,*,#929,.T.);
#944 = ORIENTED_EDGE('',*,*,#773,.T.);
#945 = ORIENTED_EDGE('',*,*,#946,.F.);
#946 = EDGE_CURVE('',#812,#766,#947,.T.);
#947 = LINE('',#948,#949);
#948 = CARTESIAN_POINT('',(3.55,2.049593455623,3.2));
#949 = VECTOR('',#950,1.);
#950 = DIRECTION('',(0.,0.,1.));
#951 = PLANE('',#952);
#952 = AXIS2_PLACEMENT_3D('',#953,#954,#955);
#953 = CARTESIAN_POINT('',(3.55,-2.049593455623,3.2));
#954 = DIRECTION('',(-1.,3.250077779803E-16,0.));
#955 = DIRECTION('',(3.250077779803E-16,1.,0.));
#956 = ADVANCED_FACE('',(#957),#963,.T.);
#957 = FACE_BOUND('',#958,.T.);
#958 = EDGE_LOOP('',(#959,#960,#961,#962));
#959 = ORIENTED_EDGE('',*,*,#811,.F.);
#960 = ORIENTED_EDGE('',*,*,#946,.T.);
#961 = ORIENTED_EDGE('',*,*,#765,.T.);
#962 = ORIENTED_EDGE('',*,*,#871,.F.);
#963 = PLANE('',#964);
#964 = AXIS2_PLACEMENT_3D('',#965,#966,#967);
#965 = CARTESIAN_POINT('',(3.55,2.049593455623,3.2));
#966 = DIRECTION('',(-0.5,-0.866025403784,0.));
#967 = DIRECTION('',(-0.866025403784,0.5,0.));
#968 = ( GEOMETRIC_REPRESENTATION_CONTEXT(3) 
GLOBAL_UNCERTAINTY_ASSIGNED_CONTEXT((#972)) GLOBAL_UNIT_ASSIGNED_CONTEXT
((#969,#970,#971)) REPRESENTATION_CONTEXT('Context #1',
  '3D Context with UNIT and UNCERTAINTY') );
#969 = ( LENGTH_UNIT() NAMED_UNIT(*) SI_UNIT(.MILLI.,.METRE.) );
#970 = ( NAMED_UNIT(*) PLANE_ANGLE_UNIT() SI_UNIT($,.RADIAN.) );
#971 = ( NAMED_UNIT(*) SI_UNIT($,.STERADIAN.) SOLID_ANGLE_UNIT() );
#972 = UNCERTAINTY_MEASURE_WITH_UNIT(LENGTH_MEASURE(1.E-07),#969,
  'distance_accuracy_value','confusion accuracy');
#973 = PRODUCT_RELATED_PRODUCT_CATEGORY('part',$,(#7));
ENDSEC;
END-ISO-10303-21;
