ISO-10303-21;
HEADER;
FILE_DESCRIPTION(('FreeCAD Model'),'2;1');
FILE_NAME('Open CASCADE Shape Model','2026-09-20T06:51:29',('FreeCAD'),(
    'FreeCAD'),'Open CASCADE STEP processor 7.8','FreeCAD','Unknown');
FILE_SCHEMA(('AUTOMOTIVE_DESIGN { 1 0 10303 214 1 1 1 1 }'));
ENDSEC;
DATA;
#1 = APPLICATION_PROTOCOL_DEFINITION('international standard',
  'automotive_design',2000,#2);
#2 = APPLICATION_CONTEXT(
  'core data for automotive mechanical design processes');
#3 = SHAPE_DEFINITION_REPRESENTATION(#4,#10);
#4 = PRODUCT_DEFINITION_SHAPE('','',#5);
#5 = PRODUCT_DEFINITION('design','',#6,#9);
#6 = PRODUCT_DEFINITION_FORMATION('','',#7);
#7 = PRODUCT('Open CASCADE STEP translator 7.8 16',
  'Open CASCADE STEP translator 7.8 16','',(#8));
#8 = PRODUCT_CONTEXT('',#2,'mechanical');
#9 = PRODUCT_DEFINITION_CONTEXT('part definition',#2,'design');
#10 = ADVANCED_BREP_SHAPE_REPRESENTATION('',(#11,#15),#1487);
#11 = AXIS2_PLACEMENT_3D('',#12,#13,#14);
#12 = CARTESIAN_POINT('',(0.,0.,0.));
#13 = DIRECTION('',(0.,0.,1.));
#14 = DIRECTION('',(1.,0.,-0.));
#15 = MANIFOLD_SOLID_BREP('',#16);
#16 = CLOSED_SHELL('',(#17,#57,#172,#196,#320,#337,#359,#376,#425,#442,
    #614,#631,#675,#687,#709,#726,#738,#762,#786,#803,#903,#927,#1022,
    #1051,#1086,#1108,#1131,#1175,#1198,#1233,#1249,#1265,#1282,#1299,
    #1316,#1333,#1350,#1367,#1379,#1401,#1418,#1430,#1446,#1463,#1475));
#17 = ADVANCED_FACE('',(#18),#52,.F.);
#18 = FACE_BOUND('',#19,.F.);
#19 = EDGE_LOOP('',(#20,#30,#38,#46));
#20 = ORIENTED_EDGE('',*,*,#21,.F.);
#21 = EDGE_CURVE('',#22,#24,#26,.T.);
#22 = VERTEX_POINT('',#23);
#23 = CARTESIAN_POINT('',(-14.,-6.,-1.5));
#24 = VERTEX_POINT('',#25);
#25 = CARTESIAN_POINT('',(-14.,-9.585786437627,-1.5));
#26 = LINE('',#27,#28);
#27 = CARTESIAN_POINT('',(-14.,-4.,-1.5));
#28 = VECTOR('',#29,1.);
#29 = DIRECTION('',(0.,-1.,0.));
#30 = ORIENTED_EDGE('',*,*,#31,.F.);
#31 = EDGE_CURVE('',#32,#22,#34,.T.);
#32 = VERTEX_POINT('',#33);
#33 = CARTESIAN_POINT('',(-9.4,-6.,-1.5));
#34 = LINE('',#35,#36);
#35 = CARTESIAN_POINT('',(-14.,-6.,-1.5));
#36 = VECTOR('',#37,1.);
#37 = DIRECTION('',(-1.,0.,-0.));
#38 = ORIENTED_EDGE('',*,*,#39,.T.);
#39 = EDGE_CURVE('',#32,#40,#42,.T.);
#40 = VERTEX_POINT('',#41);
#41 = CARTESIAN_POINT('',(-9.4,-9.585786437627,-1.5));
#42 = LINE('',#43,#44);
#43 = CARTESIAN_POINT('',(-9.4,-4.,-1.5));
#44 = VECTOR('',#45,1.);
#45 = DIRECTION('',(0.,-1.,0.));
#46 = ORIENTED_EDGE('',*,*,#47,.F.);
#47 = EDGE_CURVE('',#24,#40,#48,.T.);
#48 = LINE('',#49,#50);
#49 = CARTESIAN_POINT('',(-14.,-9.585786437627,-1.5));
#50 = VECTOR('',#51,1.);
#51 = DIRECTION('',(1.,0.,0.));
#52 = PLANE('',#53);
#53 = AXIS2_PLACEMENT_3D('',#54,#55,#56);
#54 = CARTESIAN_POINT('',(-14.,-4.,-1.5));
#55 = DIRECTION('',(0.,0.,-1.));
#56 = DIRECTION('',(0.,-1.,0.));
#57 = ADVANCED_FACE('',(#58,#140),#167,.T.);
#58 = FACE_BOUND('',#59,.T.);
#59 = EDGE_LOOP('',(#60,#70,#78,#86,#94,#102,#108,#109,#117,#126,#134));
#60 = ORIENTED_EDGE('',*,*,#61,.F.);
#61 = EDGE_CURVE('',#62,#64,#66,.T.);
#62 = VERTEX_POINT('',#63);
#63 = CARTESIAN_POINT('',(-14.,-12.,-10.5));
#64 = VERTEX_POINT('',#65);
#65 = CARTESIAN_POINT('',(-14.,-8.,-14.5));
#66 = LINE('',#67,#68);
#67 = CARTESIAN_POINT('',(-14.,-12.,-10.5));
#68 = VECTOR('',#69,1.);
#69 = DIRECTION('',(0.,0.707106781187,-0.707106781187));
#70 = ORIENTED_EDGE('',*,*,#71,.F.);
#71 = EDGE_CURVE('',#72,#62,#74,.T.);
#72 = VERTEX_POINT('',#73);
#73 = CARTESIAN_POINT('',(-14.,-12.,-10.));
#74 = LINE('',#75,#76);
#75 = CARTESIAN_POINT('',(-14.,-12.,-1.5));
#76 = VECTOR('',#77,1.);
#77 = DIRECTION('',(0.,0.,-1.));
#78 = ORIENTED_EDGE('',*,*,#79,.F.);
#79 = EDGE_CURVE('',#80,#72,#82,.T.);
#80 = VERTEX_POINT('',#81);
#81 = CARTESIAN_POINT('',(-14.,-16.3,-5.5));
#82 = LINE('',#83,#84);
#83 = CARTESIAN_POINT('',(-14.,-16.3,-5.5));
#84 = VECTOR('',#85,1.);
#85 = DIRECTION('',(0.,0.690857771546,-0.722990691153));
#86 = ORIENTED_EDGE('',*,*,#87,.F.);
#87 = EDGE_CURVE('',#88,#80,#90,.T.);
#88 = VERTEX_POINT('',#89);
#89 = CARTESIAN_POINT('',(-14.,-15.53553390593,-1.964466094067));
#90 = LINE('',#91,#92);
#91 = CARTESIAN_POINT('',(-14.,-15.53553390593,-1.964466094067));
#92 = VECTOR('',#93,1.);
#93 = DIRECTION('',(0.,-0.211339746629,-0.977412661825));
#94 = ORIENTED_EDGE('',*,*,#95,.F.);
#95 = EDGE_CURVE('',#96,#88,#98,.T.);
#96 = VERTEX_POINT('',#97);
#97 = CARTESIAN_POINT('',(-14.,-12.,-0.5));
#98 = LINE('',#99,#100);
#99 = CARTESIAN_POINT('',(-14.,-12.,-0.5));
#100 = VECTOR('',#101,1.);
#101 = DIRECTION('',(0.,-0.923879532511,-0.382683432365));
#102 = ORIENTED_EDGE('',*,*,#103,.F.);
#103 = EDGE_CURVE('',#24,#96,#104,.T.);
#104 = LINE('',#105,#106);
#105 = CARTESIAN_POINT('',(-14.,-8.464466094067,-1.964466094067));
#106 = VECTOR('',#107,1.);
#107 = DIRECTION('',(0.,-0.923879532511,0.382683432365));
#108 = ORIENTED_EDGE('',*,*,#21,.F.);
#109 = ORIENTED_EDGE('',*,*,#110,.T.);
#110 = EDGE_CURVE('',#22,#111,#113,.T.);
#111 = VERTEX_POINT('',#112);
#112 = CARTESIAN_POINT('',(-14.,-6.,-1.35));
#113 = LINE('',#114,#115);
#114 = CARTESIAN_POINT('',(-14.,-6.,-14.5));
#115 = VECTOR('',#116,1.);
#116 = DIRECTION('',(0.,0.,1.));
#117 = ORIENTED_EDGE('',*,*,#118,.T.);
#118 = EDGE_CURVE('',#111,#119,#121,.T.);
#119 = VERTEX_POINT('',#120);
#120 = CARTESIAN_POINT('',(-14.,6.,-1.35));
#121 = CIRCLE('',#122,6.15);
#122 = AXIS2_PLACEMENT_3D('',#123,#124,#125);
#123 = CARTESIAN_POINT('',(-14.,0.,0.));
#124 = DIRECTION('',(1.,0.,0.));
#125 = DIRECTION('',(-0.,0.,1.));
#126 = ORIENTED_EDGE('',*,*,#127,.F.);
#127 = EDGE_CURVE('',#128,#119,#130,.T.);
#128 = VERTEX_POINT('',#129);
#129 = CARTESIAN_POINT('',(-14.,6.,-14.5));
#130 = LINE('',#131,#132);
#131 = CARTESIAN_POINT('',(-14.,6.,-14.5));
#132 = VECTOR('',#133,1.);
#133 = DIRECTION('',(0.,0.,1.));
#134 = ORIENTED_EDGE('',*,*,#135,.F.);
#135 = EDGE_CURVE('',#64,#128,#136,.T.);
#136 = LINE('',#137,#138);
#137 = CARTESIAN_POINT('',(-14.,-6.,-14.5));
#138 = VECTOR('',#139,1.);
#139 = DIRECTION('',(-0.,1.,0.));
#140 = FACE_BOUND('',#141,.T.);
#141 = EDGE_LOOP('',(#142,#152,#160));
#142 = ORIENTED_EDGE('',*,*,#143,.T.);
#143 = EDGE_CURVE('',#144,#146,#148,.T.);
#144 = VERTEX_POINT('',#145);
#145 = CARTESIAN_POINT('',(-14.,-10.37365440327,-3.873654403271));
#146 = VERTEX_POINT('',#147);
#147 = CARTESIAN_POINT('',(-14.,-12.,-2.247308806542));
#148 = LINE('',#149,#150);
#149 = CARTESIAN_POINT('',(-14.,-7.989811109688,-6.257497696854));
#150 = VECTOR('',#151,1.);
#151 = DIRECTION('',(0.,-0.707106781187,0.707106781187));
#152 = ORIENTED_EDGE('',*,*,#153,.T.);
#153 = EDGE_CURVE('',#146,#154,#156,.T.);
#154 = VERTEX_POINT('',#155);
#155 = CARTESIAN_POINT('',(-14.,-13.62634559672,-3.873654403271));
#156 = LINE('',#157,#158);
#157 = CARTESIAN_POINT('',(-14.,-11.05703917609,-1.304347982633));
#158 = VECTOR('',#159,1.);
#159 = DIRECTION('',(0.,-0.707106781187,-0.707106781187));
#160 = ORIENTED_EDGE('',*,*,#161,.T.);
#161 = EDGE_CURVE('',#154,#144,#162,.T.);
#162 = CIRCLE('',#163,2.3);
#163 = AXIS2_PLACEMENT_3D('',#164,#165,#166);
#164 = CARTESIAN_POINT('',(-14.,-12.,-5.5));
#165 = DIRECTION('',(1.,0.,0.));
#166 = DIRECTION('',(-0.,0.,1.));
#167 = PLANE('',#168);
#168 = AXIS2_PLACEMENT_3D('',#169,#170,#171);
#169 = CARTESIAN_POINT('',(-14.,-3.720046168286,-6.755419342619));
#170 = DIRECTION('',(-1.,-0.,-0.));
#171 = DIRECTION('',(0.,0.,-1.));
#172 = ADVANCED_FACE('',(#173),#191,.F.);
#173 = FACE_BOUND('',#174,.F.);
#174 = EDGE_LOOP('',(#175,#176,#177,#185));
#175 = ORIENTED_EDGE('',*,*,#103,.F.);
#176 = ORIENTED_EDGE('',*,*,#47,.T.);
#177 = ORIENTED_EDGE('',*,*,#178,.T.);
#178 = EDGE_CURVE('',#40,#179,#181,.T.);
#179 = VERTEX_POINT('',#180);
#180 = CARTESIAN_POINT('',(-9.4,-12.,-0.5));
#181 = LINE('',#182,#183);
#182 = CARTESIAN_POINT('',(-9.4,-8.464466094067,-1.964466094067));
#183 = VECTOR('',#184,1.);
#184 = DIRECTION('',(0.,-0.923879532511,0.382683432365));
#185 = ORIENTED_EDGE('',*,*,#186,.F.);
#186 = EDGE_CURVE('',#96,#179,#187,.T.);
#187 = LINE('',#188,#189);
#188 = CARTESIAN_POINT('',(-14.,-12.,-0.5));
#189 = VECTOR('',#190,1.);
#190 = DIRECTION('',(1.,0.,0.));
#191 = PLANE('',#192);
#192 = AXIS2_PLACEMENT_3D('',#193,#194,#195);
#193 = CARTESIAN_POINT('',(-14.,-8.464466094067,-1.964466094067));
#194 = DIRECTION('',(0.,-0.382683432365,-0.923879532511));
#195 = DIRECTION('',(0.,-0.923879532511,0.382683432365));
#196 = ADVANCED_FACE('',(#197,#288),#315,.T.);
#197 = FACE_BOUND('',#198,.T.);
#198 = EDGE_LOOP('',(#199,#209,#217,#225,#233,#241,#249,#257,#266,#272,
    #273,#274,#282));
#199 = ORIENTED_EDGE('',*,*,#200,.T.);
#200 = EDGE_CURVE('',#201,#203,#205,.T.);
#201 = VERTEX_POINT('',#202);
#202 = CARTESIAN_POINT('',(-9.4,-16.3,-5.5));
#203 = VERTEX_POINT('',#204);
#204 = CARTESIAN_POINT('',(-9.4,-12.,-10.));
#205 = LINE('',#206,#207);
#206 = CARTESIAN_POINT('',(-9.4,-16.3,-5.5));
#207 = VECTOR('',#208,1.);
#208 = DIRECTION('',(0.,0.690857771546,-0.722990691153));
#209 = ORIENTED_EDGE('',*,*,#210,.T.);
#210 = EDGE_CURVE('',#203,#211,#213,.T.);
#211 = VERTEX_POINT('',#212);
#212 = CARTESIAN_POINT('',(-9.4,-12.,-10.5));
#213 = LINE('',#214,#215);
#214 = CARTESIAN_POINT('',(-9.4,-12.,-1.5));
#215 = VECTOR('',#216,1.);
#216 = DIRECTION('',(0.,0.,-1.));
#217 = ORIENTED_EDGE('',*,*,#218,.T.);
#218 = EDGE_CURVE('',#211,#219,#221,.T.);
#219 = VERTEX_POINT('',#220);
#220 = CARTESIAN_POINT('',(-9.4,-8.,-14.5));
#221 = LINE('',#222,#223);
#222 = CARTESIAN_POINT('',(-9.4,-12.,-10.5));
#223 = VECTOR('',#224,1.);
#224 = DIRECTION('',(0.,0.707106781187,-0.707106781187));
#225 = ORIENTED_EDGE('',*,*,#226,.T.);
#226 = EDGE_CURVE('',#219,#227,#229,.T.);
#227 = VERTEX_POINT('',#228);
#228 = CARTESIAN_POINT('',(-9.4,-6.,-14.5));
#229 = LINE('',#230,#231);
#230 = CARTESIAN_POINT('',(-9.4,-8.,-14.5));
#231 = VECTOR('',#232,1.);
#232 = DIRECTION('',(0.,1.,0.));
#233 = ORIENTED_EDGE('',*,*,#234,.F.);
#234 = EDGE_CURVE('',#235,#227,#237,.T.);
#235 = VERTEX_POINT('',#236);
#236 = CARTESIAN_POINT('',(-9.4,-6.,-13.));
#237 = LINE('',#238,#239);
#238 = CARTESIAN_POINT('',(-9.4,-6.,-11.01619229855));
#239 = VECTOR('',#240,1.);
#240 = DIRECTION('',(0.,0.,-1.));
#241 = ORIENTED_EDGE('',*,*,#242,.T.);
#242 = EDGE_CURVE('',#235,#243,#245,.T.);
#243 = VERTEX_POINT('',#244);
#244 = CARTESIAN_POINT('',(-9.4,-4.5,-13.));
#245 = LINE('',#246,#247);
#246 = CARTESIAN_POINT('',(-9.4,-20.,-13.));
#247 = VECTOR('',#248,1.);
#248 = DIRECTION('',(-0.,1.,0.));
#249 = ORIENTED_EDGE('',*,*,#250,.T.);
#250 = EDGE_CURVE('',#243,#251,#253,.T.);
#251 = VERTEX_POINT('',#252);
#252 = CARTESIAN_POINT('',(-9.4,-4.5,-4.191956583745));
#253 = LINE('',#254,#255);
#254 = CARTESIAN_POINT('',(-9.4,-4.5,-13.));
#255 = VECTOR('',#256,1.);
#256 = DIRECTION('',(0.,0.,1.));
#257 = ORIENTED_EDGE('',*,*,#258,.F.);
#258 = EDGE_CURVE('',#259,#251,#261,.T.);
#259 = VERTEX_POINT('',#260);
#260 = CARTESIAN_POINT('',(-9.4,-6.,-1.35));
#261 = CIRCLE('',#262,6.15);
#262 = AXIS2_PLACEMENT_3D('',#263,#264,#265);
#263 = CARTESIAN_POINT('',(-9.4,0.,0.));
#264 = DIRECTION('',(1.,0.,0.));
#265 = DIRECTION('',(-0.,0.,1.));
#266 = ORIENTED_EDGE('',*,*,#267,.T.);
#267 = EDGE_CURVE('',#259,#32,#268,.T.);
#268 = LINE('',#269,#270);
#269 = CARTESIAN_POINT('',(-9.4,-6.,-13.75));
#270 = VECTOR('',#271,1.);
#271 = DIRECTION('',(-0.,0.,-1.));
#272 = ORIENTED_EDGE('',*,*,#39,.T.);
#273 = ORIENTED_EDGE('',*,*,#178,.T.);
#274 = ORIENTED_EDGE('',*,*,#275,.T.);
#275 = EDGE_CURVE('',#179,#276,#278,.T.);
#276 = VERTEX_POINT('',#277);
#277 = CARTESIAN_POINT('',(-9.4,-15.53553390593,-1.964466094067));
#278 = LINE('',#279,#280);
#279 = CARTESIAN_POINT('',(-9.4,-12.,-0.5));
#280 = VECTOR('',#281,1.);
#281 = DIRECTION('',(0.,-0.923879532511,-0.382683432365));
#282 = ORIENTED_EDGE('',*,*,#283,.T.);
#283 = EDGE_CURVE('',#276,#201,#284,.T.);
#284 = LINE('',#285,#286);
#285 = CARTESIAN_POINT('',(-9.4,-15.53553390593,-1.964466094067));
#286 = VECTOR('',#287,1.);
#287 = DIRECTION('',(0.,-0.211339746629,-0.977412661825));
#288 = FACE_BOUND('',#289,.T.);
#289 = EDGE_LOOP('',(#290,#301,#309));
#290 = ORIENTED_EDGE('',*,*,#291,.F.);
#291 = EDGE_CURVE('',#292,#294,#296,.T.);
#292 = VERTEX_POINT('',#293);
#293 = CARTESIAN_POINT('',(-9.4,-13.62634559672,-3.873654403271));
#294 = VERTEX_POINT('',#295);
#295 = CARTESIAN_POINT('',(-9.4,-10.37365440327,-3.873654403271));
#296 = CIRCLE('',#297,2.3);
#297 = AXIS2_PLACEMENT_3D('',#298,#299,#300);
#298 = CARTESIAN_POINT('',(-9.4,-12.,-5.5));
#299 = DIRECTION('',(1.,0.,0.));
#300 = DIRECTION('',(-0.,0.,1.));
#301 = ORIENTED_EDGE('',*,*,#302,.T.);
#302 = EDGE_CURVE('',#292,#303,#305,.T.);
#303 = VERTEX_POINT('',#304);
#304 = CARTESIAN_POINT('',(-9.4,-12.,-2.247308806542));
#305 = LINE('',#306,#307);
#306 = CARTESIAN_POINT('',(-9.4,-12.31030798669,-2.557616793232));
#307 = VECTOR('',#308,1.);
#308 = DIRECTION('',(-0.,0.707106781187,0.707106781187));
#309 = ORIENTED_EDGE('',*,*,#310,.T.);
#310 = EDGE_CURVE('',#303,#294,#311,.T.);
#311 = LINE('',#312,#313);
#312 = CARTESIAN_POINT('',(-9.4,-9.377438947558,-4.869869858984));
#313 = VECTOR('',#314,1.);
#314 = DIRECTION('',(0.,0.707106781187,-0.707106781187));
#315 = PLANE('',#316);
#316 = AXIS2_PLACEMENT_3D('',#317,#318,#319);
#317 = CARTESIAN_POINT('',(-9.4,-9.001839465225,-6.486701288077));
#318 = DIRECTION('',(1.,0.,0.));
#319 = DIRECTION('',(-0.,0.,1.));
#320 = ADVANCED_FACE('',(#321),#332,.F.);
#321 = FACE_BOUND('',#322,.F.);
#322 = EDGE_LOOP('',(#323,#329,#330,#331));
#323 = ORIENTED_EDGE('',*,*,#324,.T.);
#324 = EDGE_CURVE('',#111,#259,#325,.T.);
#325 = LINE('',#326,#327);
#326 = CARTESIAN_POINT('',(-15.,-6.,-1.35));
#327 = VECTOR('',#328,1.);
#328 = DIRECTION('',(1.,0.,0.));
#329 = ORIENTED_EDGE('',*,*,#267,.T.);
#330 = ORIENTED_EDGE('',*,*,#31,.T.);
#331 = ORIENTED_EDGE('',*,*,#110,.T.);
#332 = PLANE('',#333);
#333 = AXIS2_PLACEMENT_3D('',#334,#335,#336);
#334 = CARTESIAN_POINT('',(-14.,-6.,-14.5));
#335 = DIRECTION('',(-0.,1.,0.));
#336 = DIRECTION('',(0.,0.,1.));
#337 = ADVANCED_FACE('',(#338),#354,.F.);
#338 = FACE_BOUND('',#339,.F.);
#339 = EDGE_LOOP('',(#340,#346,#347,#353));
#340 = ORIENTED_EDGE('',*,*,#341,.T.);
#341 = EDGE_CURVE('',#62,#211,#342,.T.);
#342 = LINE('',#343,#344);
#343 = CARTESIAN_POINT('',(-14.,-12.,-10.5));
#344 = VECTOR('',#345,1.);
#345 = DIRECTION('',(1.,0.,0.));
#346 = ORIENTED_EDGE('',*,*,#218,.T.);
#347 = ORIENTED_EDGE('',*,*,#348,.F.);
#348 = EDGE_CURVE('',#64,#219,#349,.T.);
#349 = LINE('',#350,#351);
#350 = CARTESIAN_POINT('',(-14.,-8.,-14.5));
#351 = VECTOR('',#352,1.);
#352 = DIRECTION('',(1.,0.,0.));
#353 = ORIENTED_EDGE('',*,*,#61,.F.);
#354 = PLANE('',#355);
#355 = AXIS2_PLACEMENT_3D('',#356,#357,#358);
#356 = CARTESIAN_POINT('',(-14.,-12.,-10.5));
#357 = DIRECTION('',(-0.,0.707106781187,0.707106781187));
#358 = DIRECTION('',(0.,0.707106781187,-0.707106781187));
#359 = ADVANCED_FACE('',(#360),#371,.F.);
#360 = FACE_BOUND('',#361,.F.);
#361 = EDGE_LOOP('',(#362,#363,#369,#370));
#362 = ORIENTED_EDGE('',*,*,#71,.F.);
#363 = ORIENTED_EDGE('',*,*,#364,.T.);
#364 = EDGE_CURVE('',#72,#203,#365,.T.);
#365 = LINE('',#366,#367);
#366 = CARTESIAN_POINT('',(-14.,-12.,-10.));
#367 = VECTOR('',#368,1.);
#368 = DIRECTION('',(1.,0.,0.));
#369 = ORIENTED_EDGE('',*,*,#210,.T.);
#370 = ORIENTED_EDGE('',*,*,#341,.F.);
#371 = PLANE('',#372);
#372 = AXIS2_PLACEMENT_3D('',#373,#374,#375);
#373 = CARTESIAN_POINT('',(-14.,-12.,-1.5));
#374 = DIRECTION('',(-0.,1.,0.));
#375 = DIRECTION('',(0.,0.,-1.));
#376 = ADVANCED_FACE('',(#377),#420,.T.);
#377 = FACE_BOUND('',#378,.T.);
#378 = EDGE_LOOP('',(#379,#380,#381,#389,#397,#405,#413,#419));
#379 = ORIENTED_EDGE('',*,*,#348,.F.);
#380 = ORIENTED_EDGE('',*,*,#135,.T.);
#381 = ORIENTED_EDGE('',*,*,#382,.T.);
#382 = EDGE_CURVE('',#128,#383,#385,.T.);
#383 = VERTEX_POINT('',#384);
#384 = CARTESIAN_POINT('',(14.,6.,-14.5));
#385 = LINE('',#386,#387);
#386 = CARTESIAN_POINT('',(-14.,6.,-14.5));
#387 = VECTOR('',#388,1.);
#388 = DIRECTION('',(1.,0.,-0.));
#389 = ORIENTED_EDGE('',*,*,#390,.F.);
#390 = EDGE_CURVE('',#391,#383,#393,.T.);
#391 = VERTEX_POINT('',#392);
#392 = CARTESIAN_POINT('',(14.,-8.,-14.5));
#393 = LINE('',#394,#395);
#394 = CARTESIAN_POINT('',(14.,-6.,-14.5));
#395 = VECTOR('',#396,1.);
#396 = DIRECTION('',(-0.,1.,0.));
#397 = ORIENTED_EDGE('',*,*,#398,.F.);
#398 = EDGE_CURVE('',#399,#391,#401,.T.);
#399 = VERTEX_POINT('',#400);
#400 = CARTESIAN_POINT('',(9.4,-8.,-14.5));
#401 = LINE('',#402,#403);
#402 = CARTESIAN_POINT('',(9.4,-8.,-14.5));
#403 = VECTOR('',#404,1.);
#404 = DIRECTION('',(1.,0.,0.));
#405 = ORIENTED_EDGE('',*,*,#406,.T.);
#406 = EDGE_CURVE('',#399,#407,#409,.T.);
#407 = VERTEX_POINT('',#408);
#408 = CARTESIAN_POINT('',(9.4,-6.,-14.5));
#409 = LINE('',#410,#411);
#410 = CARTESIAN_POINT('',(9.4,-8.,-14.5));
#411 = VECTOR('',#412,1.);
#412 = DIRECTION('',(0.,1.,0.));
#413 = ORIENTED_EDGE('',*,*,#414,.F.);
#414 = EDGE_CURVE('',#227,#407,#415,.T.);
#415 = LINE('',#416,#417);
#416 = CARTESIAN_POINT('',(-14.,-6.,-14.5));
#417 = VECTOR('',#418,1.);
#418 = DIRECTION('',(1.,0.,-0.));
#419 = ORIENTED_EDGE('',*,*,#226,.F.);
#420 = PLANE('',#421);
#421 = AXIS2_PLACEMENT_3D('',#422,#423,#424);
#422 = CARTESIAN_POINT('',(-2.0185873175E-16,-0.845454545455,-14.5));
#423 = DIRECTION('',(-0.,-0.,-1.));
#424 = DIRECTION('',(-1.,0.,0.));
#425 = ADVANCED_FACE('',(#426),#437,.F.);
#426 = FACE_BOUND('',#427,.F.);
#427 = EDGE_LOOP('',(#428,#434,#435,#436));
#428 = ORIENTED_EDGE('',*,*,#429,.T.);
#429 = EDGE_CURVE('',#80,#201,#430,.T.);
#430 = LINE('',#431,#432);
#431 = CARTESIAN_POINT('',(-14.,-16.3,-5.5));
#432 = VECTOR('',#433,1.);
#433 = DIRECTION('',(1.,0.,0.));
#434 = ORIENTED_EDGE('',*,*,#200,.T.);
#435 = ORIENTED_EDGE('',*,*,#364,.F.);
#436 = ORIENTED_EDGE('',*,*,#79,.F.);
#437 = PLANE('',#438);
#438 = AXIS2_PLACEMENT_3D('',#439,#440,#441);
#439 = CARTESIAN_POINT('',(-14.,-16.3,-5.5));
#440 = DIRECTION('',(-0.,0.722990691153,0.690857771546));
#441 = DIRECTION('',(0.,0.690857771546,-0.722990691153));
#442 = ADVANCED_FACE('',(#443,#461),#609,.T.);
#443 = FACE_BOUND('',#444,.T.);
#444 = EDGE_LOOP('',(#445,#453,#454,#455));
#445 = ORIENTED_EDGE('',*,*,#446,.F.);
#446 = EDGE_CURVE('',#383,#447,#449,.T.);
#447 = VERTEX_POINT('',#448);
#448 = CARTESIAN_POINT('',(14.,6.,-1.35));
#449 = LINE('',#450,#451);
#450 = CARTESIAN_POINT('',(14.,6.,-14.5));
#451 = VECTOR('',#452,1.);
#452 = DIRECTION('',(0.,0.,1.));
#453 = ORIENTED_EDGE('',*,*,#382,.F.);
#454 = ORIENTED_EDGE('',*,*,#127,.T.);
#455 = ORIENTED_EDGE('',*,*,#456,.T.);
#456 = EDGE_CURVE('',#119,#447,#457,.T.);
#457 = LINE('',#458,#459);
#458 = CARTESIAN_POINT('',(-15.,6.,-1.35));
#459 = VECTOR('',#460,1.);
#460 = DIRECTION('',(1.,0.,0.));
#461 = FACE_BOUND('',#462,.T.);
#462 = EDGE_LOOP('',(#463,#484,#503,#511,#530,#538,#557,#565,#584,#603)
  );
#463 = ORIENTED_EDGE('',*,*,#464,.T.);
#464 = EDGE_CURVE('',#465,#467,#469,.T.);
#465 = VERTEX_POINT('',#466);
#466 = CARTESIAN_POINT('',(7.,6.,-8.5));
#467 = VERTEX_POINT('',#468);
#468 = CARTESIAN_POINT('',(7.6,6.,-7.1));
#469 = B_SPLINE_CURVE_WITH_KNOTS('',4,(#470,#471,#472,#473,#474,#475,
    #476,#477,#478,#479,#480,#481,#482,#483),.UNSPECIFIED.,.F.,.F.,(5,3,
    3,3,5),(0.,0.251063224043,0.501081669714,0.751063612273,1.),
  .UNSPECIFIED.);
#470 = CARTESIAN_POINT('',(7.,6.,-8.5));
#471 = CARTESIAN_POINT('',(7.188234945726,6.,-8.060785126639));
#472 = CARTESIAN_POINT('',(7.376483310536,6.,-7.621538942082));
#473 = CARTESIAN_POINT('',(7.564743705894,6.,-7.182264686247));
#474 = CARTESIAN_POINT('',(7.940502910872,6.,-6.305493207965));
#475 = CARTESIAN_POINT('',(8.128001626257,6.,-5.867996205401));
#476 = CARTESIAN_POINT('',(8.315510117568,6.,-5.430476392341));
#477 = CARTESIAN_POINT('',(8.69051757583,6.,-4.555458989731));
#478 = CARTESIAN_POINT('',(8.878016537753,6.,-4.117961411911));
#479 = CARTESIAN_POINT('',(9.065523571013,6.,-3.680445000969));
#480 = CARTESIAN_POINT('',(9.439768141219,6.,-2.80720767049));
#481 = CARTESIAN_POINT('',(9.626505614678,6.,-2.371486899086));
#482 = CARTESIAN_POINT('',(9.813249747436,6.,-1.935750589316));
#483 = CARTESIAN_POINT('',(10.,6.,-1.5));
#484 = ORIENTED_EDGE('',*,*,#485,.T.);
#485 = EDGE_CURVE('',#467,#486,#488,.T.);
#486 = VERTEX_POINT('',#487);
#487 = CARTESIAN_POINT('',(10.,6.,-3.5));
#488 = B_SPLINE_CURVE_WITH_KNOTS('',4,(#489,#490,#491,#492,#493,#494,
    #495,#496,#497,#498,#499,#500,#501,#502),.UNSPECIFIED.,.F.,.F.,(5,3,
    3,3,5),(0.,0.251118335737,0.500150332323,0.75011213424,1.),
  .UNSPECIFIED.);
#489 = CARTESIAN_POINT('',(7.,6.,-8.));
#490 = CARTESIAN_POINT('',(7.188217149648,6.,-7.717674275528));
#491 = CARTESIAN_POINT('',(7.376460403735,6.,-7.435309394397));
#492 = CARTESIAN_POINT('',(7.564727071603,6.,-7.152909392596));
#493 = CARTESIAN_POINT('',(7.939738687926,6.,-6.590391968111));
#494 = CARTESIAN_POINT('',(8.126483277517,6.,-6.310275083724));
#495 = CARTESIAN_POINT('',(8.313246755228,6.,-6.030129867158));
#496 = CARTESIAN_POINT('',(8.687505603892,6.,-5.468741594162));
#497 = CARTESIAN_POINT('',(8.875001099335,6.,-5.187498350998));
#498 = CARTESIAN_POINT('',(9.062512324007,6.,-4.90623151399));
#499 = CARTESIAN_POINT('',(9.437508126505,6.,-4.343737810243));
#500 = CARTESIAN_POINT('',(9.624992692357,6.,-4.062510961464));
#501 = CARTESIAN_POINT('',(9.812490337357,6.,-3.781264493964));
#502 = CARTESIAN_POINT('',(10.,6.,-3.5));
#503 = ORIENTED_EDGE('',*,*,#504,.T.);
#504 = EDGE_CURVE('',#486,#505,#507,.T.);
#505 = VERTEX_POINT('',#506);
#506 = CARTESIAN_POINT('',(9.142857142857,6.,-3.5));
#507 = LINE('',#508,#509);
#508 = CARTESIAN_POINT('',(-12.,6.,-3.5));
#509 = VECTOR('',#510,1.);
#510 = DIRECTION('',(-1.,0.,-0.));
#511 = ORIENTED_EDGE('',*,*,#512,.T.);
#512 = EDGE_CURVE('',#505,#513,#515,.T.);
#513 = VERTEX_POINT('',#514);
#514 = CARTESIAN_POINT('',(10.,6.,-1.5));
#515 = B_SPLINE_CURVE_WITH_KNOTS('',4,(#516,#517,#518,#519,#520,#521,
    #522,#523,#524,#525,#526,#527,#528,#529),.UNSPECIFIED.,.F.,.F.,(5,3,
    3,3,5),(0.,0.251063224043,0.501081669714,0.751063612273,1.),
  .UNSPECIFIED.);
#516 = CARTESIAN_POINT('',(7.,6.,-8.5));
#517 = CARTESIAN_POINT('',(7.188234945726,6.,-8.060785126639));
#518 = CARTESIAN_POINT('',(7.376483310536,6.,-7.621538942082));
#519 = CARTESIAN_POINT('',(7.564743705894,6.,-7.182264686247));
#520 = CARTESIAN_POINT('',(7.940502910872,6.,-6.305493207965));
#521 = CARTESIAN_POINT('',(8.128001626257,6.,-5.867996205401));
#522 = CARTESIAN_POINT('',(8.315510117568,6.,-5.430476392341));
#523 = CARTESIAN_POINT('',(8.69051757583,6.,-4.555458989731));
#524 = CARTESIAN_POINT('',(8.878016537753,6.,-4.117961411911));
#525 = CARTESIAN_POINT('',(9.065523571013,6.,-3.680445000969));
#526 = CARTESIAN_POINT('',(9.439768141219,6.,-2.80720767049));
#527 = CARTESIAN_POINT('',(9.626505614678,6.,-2.371486899086));
#528 = CARTESIAN_POINT('',(9.813249747436,6.,-1.935750589316));
#529 = CARTESIAN_POINT('',(10.,6.,-1.5));
#530 = ORIENTED_EDGE('',*,*,#531,.T.);
#531 = EDGE_CURVE('',#513,#532,#534,.T.);
#532 = VERTEX_POINT('',#533);
#533 = CARTESIAN_POINT('',(-10.,6.,-1.5));
#534 = LINE('',#535,#536);
#535 = CARTESIAN_POINT('',(-12.,6.,-1.5));
#536 = VECTOR('',#537,1.);
#537 = DIRECTION('',(-1.,0.,-0.));
#538 = ORIENTED_EDGE('',*,*,#539,.F.);
#539 = EDGE_CURVE('',#540,#532,#542,.T.);
#540 = VERTEX_POINT('',#541);
#541 = CARTESIAN_POINT('',(-9.142857142857,6.,-3.5));
#542 = B_SPLINE_CURVE_WITH_KNOTS('',4,(#543,#544,#545,#546,#547,#548,
    #549,#550,#551,#552,#553,#554,#555,#556),.UNSPECIFIED.,.F.,.F.,(5,3,
    3,3,5),(0.,0.251063224043,0.501081669714,0.751063612273,1.),
  .UNSPECIFIED.);
#543 = CARTESIAN_POINT('',(-7.,6.,-8.5));
#544 = CARTESIAN_POINT('',(-7.188234945726,6.,-8.060785126639));
#545 = CARTESIAN_POINT('',(-7.376483310536,6.,-7.621538942082));
#546 = CARTESIAN_POINT('',(-7.564743705894,6.,-7.182264686247));
#547 = CARTESIAN_POINT('',(-7.940502910872,6.,-6.305493207965));
#548 = CARTESIAN_POINT('',(-8.128001626257,6.,-5.867996205401));
#549 = CARTESIAN_POINT('',(-8.315510117568,6.,-5.430476392341));
#550 = CARTESIAN_POINT('',(-8.69051757583,6.,-4.555458989731));
#551 = CARTESIAN_POINT('',(-8.878016537753,6.,-4.117961411911));
#552 = CARTESIAN_POINT('',(-9.065523571013,6.,-3.680445000969));
#553 = CARTESIAN_POINT('',(-9.439768141219,6.,-2.80720767049));
#554 = CARTESIAN_POINT('',(-9.626505614677,6.,-2.371486899086));
#555 = CARTESIAN_POINT('',(-9.813249747436,6.,-1.935750589316));
#556 = CARTESIAN_POINT('',(-10.,6.,-1.5));
#557 = ORIENTED_EDGE('',*,*,#558,.T.);
#558 = EDGE_CURVE('',#540,#559,#561,.T.);
#559 = VERTEX_POINT('',#560);
#560 = CARTESIAN_POINT('',(-10.,6.,-3.5));
#561 = LINE('',#562,#563);
#562 = CARTESIAN_POINT('',(-12.,6.,-3.5));
#563 = VECTOR('',#564,1.);
#564 = DIRECTION('',(-1.,0.,-0.));
#565 = ORIENTED_EDGE('',*,*,#566,.F.);
#566 = EDGE_CURVE('',#567,#559,#569,.T.);
#567 = VERTEX_POINT('',#568);
#568 = CARTESIAN_POINT('',(-7.6,6.,-7.1));
#569 = B_SPLINE_CURVE_WITH_KNOTS('',4,(#570,#571,#572,#573,#574,#575,
    #576,#577,#578,#579,#580,#581,#582,#583),.UNSPECIFIED.,.F.,.F.,(5,3,
    3,3,5),(0.,0.251118335737,0.500150332323,0.750112134241,1.),
  .UNSPECIFIED.);
#570 = CARTESIAN_POINT('',(-7.,6.,-8.));
#571 = CARTESIAN_POINT('',(-7.188217149648,6.,-7.717674275528));
#572 = CARTESIAN_POINT('',(-7.376460403735,6.,-7.435309394397));
#573 = CARTESIAN_POINT('',(-7.564727071603,6.,-7.152909392596));
#574 = CARTESIAN_POINT('',(-7.939738687926,6.,-6.590391968111));
#575 = CARTESIAN_POINT('',(-8.126483277517,6.,-6.310275083724));
#576 = CARTESIAN_POINT('',(-8.313246755228,6.,-6.030129867158));
#577 = CARTESIAN_POINT('',(-8.687505603892,6.,-5.468741594162));
#578 = CARTESIAN_POINT('',(-8.875001099335,6.,-5.187498350998));
#579 = CARTESIAN_POINT('',(-9.062512324007,6.,-4.90623151399));
#580 = CARTESIAN_POINT('',(-9.437508126505,6.,-4.343737810243));
#581 = CARTESIAN_POINT('',(-9.624992692357,6.,-4.062510961464));
#582 = CARTESIAN_POINT('',(-9.812490337357,6.,-3.781264493964));
#583 = CARTESIAN_POINT('',(-10.,6.,-3.5));
#584 = ORIENTED_EDGE('',*,*,#585,.F.);
#585 = EDGE_CURVE('',#586,#567,#588,.T.);
#586 = VERTEX_POINT('',#587);
#587 = CARTESIAN_POINT('',(-7.,6.,-8.5));
#588 = B_SPLINE_CURVE_WITH_KNOTS('',4,(#589,#590,#591,#592,#593,#594,
    #595,#596,#597,#598,#599,#600,#601,#602),.UNSPECIFIED.,.F.,.F.,(5,3,
    3,3,5),(0.,0.251063224043,0.501081669714,0.751063612273,1.),
  .UNSPECIFIED.);
#589 = CARTESIAN_POINT('',(-7.,6.,-8.5));
#590 = CARTESIAN_POINT('',(-7.188234945726,6.,-8.060785126639));
#591 = CARTESIAN_POINT('',(-7.376483310536,6.,-7.621538942082));
#592 = CARTESIAN_POINT('',(-7.564743705894,6.,-7.182264686247));
#593 = CARTESIAN_POINT('',(-7.940502910872,6.,-6.305493207965));
#594 = CARTESIAN_POINT('',(-8.128001626257,6.,-5.867996205401));
#595 = CARTESIAN_POINT('',(-8.315510117568,6.,-5.430476392341));
#596 = CARTESIAN_POINT('',(-8.69051757583,6.,-4.555458989731));
#597 = CARTESIAN_POINT('',(-8.878016537753,6.,-4.117961411911));
#598 = CARTESIAN_POINT('',(-9.065523571013,6.,-3.680445000969));
#599 = CARTESIAN_POINT('',(-9.439768141219,6.,-2.80720767049));
#600 = CARTESIAN_POINT('',(-9.626505614677,6.,-2.371486899086));
#601 = CARTESIAN_POINT('',(-9.813249747436,6.,-1.935750589316));
#602 = CARTESIAN_POINT('',(-10.,6.,-1.5));
#603 = ORIENTED_EDGE('',*,*,#604,.F.);
#604 = EDGE_CURVE('',#465,#586,#605,.T.);
#605 = LINE('',#606,#607);
#606 = CARTESIAN_POINT('',(-10.5,6.,-8.5));
#607 = VECTOR('',#608,1.);
#608 = DIRECTION('',(-1.,0.,-0.));
#609 = PLANE('',#610);
#610 = AXIS2_PLACEMENT_3D('',#611,#612,#613);
#611 = CARTESIAN_POINT('',(-14.,6.,-14.5));
#612 = DIRECTION('',(-0.,1.,0.));
#613 = DIRECTION('',(0.,0.,1.));
#614 = ADVANCED_FACE('',(#615),#626,.F.);
#615 = FACE_BOUND('',#616,.F.);
#616 = EDGE_LOOP('',(#617,#623,#624,#625));
#617 = ORIENTED_EDGE('',*,*,#618,.T.);
#618 = EDGE_CURVE('',#88,#276,#619,.T.);
#619 = LINE('',#620,#621);
#620 = CARTESIAN_POINT('',(-14.,-15.53553390593,-1.964466094067));
#621 = VECTOR('',#622,1.);
#622 = DIRECTION('',(1.,0.,0.));
#623 = ORIENTED_EDGE('',*,*,#283,.T.);
#624 = ORIENTED_EDGE('',*,*,#429,.F.);
#625 = ORIENTED_EDGE('',*,*,#87,.F.);
#626 = PLANE('',#627);
#627 = AXIS2_PLACEMENT_3D('',#628,#629,#630);
#628 = CARTESIAN_POINT('',(-14.,-15.53553390593,-1.964466094067));
#629 = DIRECTION('',(0.,0.977412661825,-0.211339746629));
#630 = DIRECTION('',(0.,-0.211339746629,-0.977412661825));
#631 = ADVANCED_FACE('',(#632),#670,.F.);
#632 = FACE_BOUND('',#633,.T.);
#633 = EDGE_LOOP('',(#634,#644,#651,#652,#653,#654,#655,#663));
#634 = ORIENTED_EDGE('',*,*,#635,.T.);
#635 = EDGE_CURVE('',#636,#638,#640,.T.);
#636 = VERTEX_POINT('',#637);
#637 = CARTESIAN_POINT('',(9.4,-6.,-1.35));
#638 = VERTEX_POINT('',#639);
#639 = CARTESIAN_POINT('',(14.,-6.,-1.35));
#640 = LINE('',#641,#642);
#641 = CARTESIAN_POINT('',(-15.,-6.,-1.35));
#642 = VECTOR('',#643,1.);
#643 = DIRECTION('',(1.,0.,0.));
#644 = ORIENTED_EDGE('',*,*,#645,.T.);
#645 = EDGE_CURVE('',#638,#447,#646,.T.);
#646 = CIRCLE('',#647,6.15);
#647 = AXIS2_PLACEMENT_3D('',#648,#649,#650);
#648 = CARTESIAN_POINT('',(14.,0.,0.));
#649 = DIRECTION('',(1.,0.,0.));
#650 = DIRECTION('',(-0.,0.,1.));
#651 = ORIENTED_EDGE('',*,*,#456,.F.);
#652 = ORIENTED_EDGE('',*,*,#118,.F.);
#653 = ORIENTED_EDGE('',*,*,#324,.T.);
#654 = ORIENTED_EDGE('',*,*,#258,.T.);
#655 = ORIENTED_EDGE('',*,*,#656,.T.);
#656 = EDGE_CURVE('',#251,#657,#659,.T.);
#657 = VERTEX_POINT('',#658);
#658 = CARTESIAN_POINT('',(9.4,-4.5,-4.191956583745));
#659 = LINE('',#660,#661);
#660 = CARTESIAN_POINT('',(-15.,-4.5,-4.191956583745));
#661 = VECTOR('',#662,1.);
#662 = DIRECTION('',(1.,0.,0.));
#663 = ORIENTED_EDGE('',*,*,#664,.F.);
#664 = EDGE_CURVE('',#636,#657,#665,.T.);
#665 = CIRCLE('',#666,6.15);
#666 = AXIS2_PLACEMENT_3D('',#667,#668,#669);
#667 = CARTESIAN_POINT('',(9.4,0.,0.));
#668 = DIRECTION('',(1.,0.,0.));
#669 = DIRECTION('',(-0.,0.,1.));
#670 = CYLINDRICAL_SURFACE('',#671,6.15);
#671 = AXIS2_PLACEMENT_3D('',#672,#673,#674);
#672 = CARTESIAN_POINT('',(-15.,0.,0.));
#673 = DIRECTION('',(1.,0.,0.));
#674 = DIRECTION('',(-0.,0.,1.));
#675 = ADVANCED_FACE('',(#676),#682,.F.);
#676 = FACE_BOUND('',#677,.F.);
#677 = EDGE_LOOP('',(#678,#679,#680,#681));
#678 = ORIENTED_EDGE('',*,*,#186,.T.);
#679 = ORIENTED_EDGE('',*,*,#275,.T.);
#680 = ORIENTED_EDGE('',*,*,#618,.F.);
#681 = ORIENTED_EDGE('',*,*,#95,.F.);
#682 = PLANE('',#683);
#683 = AXIS2_PLACEMENT_3D('',#684,#685,#686);
#684 = CARTESIAN_POINT('',(-14.,-12.,-0.5));
#685 = DIRECTION('',(0.,0.382683432365,-0.923879532511));
#686 = DIRECTION('',(0.,-0.923879532511,-0.382683432365));
#687 = ADVANCED_FACE('',(#688),#704,.T.);
#688 = FACE_BOUND('',#689,.T.);
#689 = EDGE_LOOP('',(#690,#691,#697,#698));
#690 = ORIENTED_EDGE('',*,*,#143,.F.);
#691 = ORIENTED_EDGE('',*,*,#692,.T.);
#692 = EDGE_CURVE('',#144,#294,#693,.T.);
#693 = LINE('',#694,#695);
#694 = CARTESIAN_POINT('',(-15.,-10.37365440327,-3.873654403271));
#695 = VECTOR('',#696,1.);
#696 = DIRECTION('',(1.,0.,0.));
#697 = ORIENTED_EDGE('',*,*,#310,.F.);
#698 = ORIENTED_EDGE('',*,*,#699,.F.);
#699 = EDGE_CURVE('',#146,#303,#700,.T.);
#700 = LINE('',#701,#702);
#701 = CARTESIAN_POINT('',(-15.,-12.,-2.247308806542));
#702 = VECTOR('',#703,1.);
#703 = DIRECTION('',(1.,0.,0.));
#704 = PLANE('',#705);
#705 = AXIS2_PLACEMENT_3D('',#706,#707,#708);
#706 = CARTESIAN_POINT('',(-15.,-10.37365440327,-3.873654403271));
#707 = DIRECTION('',(0.,-0.707106781187,-0.707106781187));
#708 = DIRECTION('',(0.,-0.707106781187,0.707106781187));
#709 = ADVANCED_FACE('',(#710),#721,.F.);
#710 = FACE_BOUND('',#711,.F.);
#711 = EDGE_LOOP('',(#712,#713,#719,#720));
#712 = ORIENTED_EDGE('',*,*,#291,.F.);
#713 = ORIENTED_EDGE('',*,*,#714,.F.);
#714 = EDGE_CURVE('',#154,#292,#715,.T.);
#715 = LINE('',#716,#717);
#716 = CARTESIAN_POINT('',(-15.,-13.62634559672,-3.873654403271));
#717 = VECTOR('',#718,1.);
#718 = DIRECTION('',(1.,0.,0.));
#719 = ORIENTED_EDGE('',*,*,#161,.T.);
#720 = ORIENTED_EDGE('',*,*,#692,.T.);
#721 = CYLINDRICAL_SURFACE('',#722,2.3);
#722 = AXIS2_PLACEMENT_3D('',#723,#724,#725);
#723 = CARTESIAN_POINT('',(-15.,-12.,-5.5));
#724 = DIRECTION('',(1.,0.,0.));
#725 = DIRECTION('',(-0.,0.,1.));
#726 = ADVANCED_FACE('',(#727),#733,.T.);
#727 = FACE_BOUND('',#728,.T.);
#728 = EDGE_LOOP('',(#729,#730,#731,#732));
#729 = ORIENTED_EDGE('',*,*,#153,.F.);
#730 = ORIENTED_EDGE('',*,*,#699,.T.);
#731 = ORIENTED_EDGE('',*,*,#302,.F.);
#732 = ORIENTED_EDGE('',*,*,#714,.F.);
#733 = PLANE('',#734);
#734 = AXIS2_PLACEMENT_3D('',#735,#736,#737);
#735 = CARTESIAN_POINT('',(-15.,-12.,-2.247308806542));
#736 = DIRECTION('',(0.,0.707106781187,-0.707106781187));
#737 = DIRECTION('',(0.,-0.707106781187,-0.707106781187));
#738 = ADVANCED_FACE('',(#739),#757,.F.);
#739 = FACE_BOUND('',#740,.F.);
#740 = EDGE_LOOP('',(#741,#742,#743,#751));
#741 = ORIENTED_EDGE('',*,*,#414,.F.);
#742 = ORIENTED_EDGE('',*,*,#234,.F.);
#743 = ORIENTED_EDGE('',*,*,#744,.T.);
#744 = EDGE_CURVE('',#235,#745,#747,.T.);
#745 = VERTEX_POINT('',#746);
#746 = CARTESIAN_POINT('',(9.4,-6.,-13.));
#747 = LINE('',#748,#749);
#748 = CARTESIAN_POINT('',(-11.7,-6.,-13.));
#749 = VECTOR('',#750,1.);
#750 = DIRECTION('',(1.,0.,-0.));
#751 = ORIENTED_EDGE('',*,*,#752,.T.);
#752 = EDGE_CURVE('',#745,#407,#753,.T.);
#753 = LINE('',#754,#755);
#754 = CARTESIAN_POINT('',(9.4,-6.,-11.01619229855));
#755 = VECTOR('',#756,1.);
#756 = DIRECTION('',(0.,0.,-1.));
#757 = PLANE('',#758);
#758 = AXIS2_PLACEMENT_3D('',#759,#760,#761);
#759 = CARTESIAN_POINT('',(-14.,-6.,-14.5));
#760 = DIRECTION('',(-0.,1.,0.));
#761 = DIRECTION('',(0.,0.,1.));
#762 = ADVANCED_FACE('',(#763),#781,.T.);
#763 = FACE_BOUND('',#764,.T.);
#764 = EDGE_LOOP('',(#765,#766,#767,#775));
#765 = ORIENTED_EDGE('',*,*,#242,.F.);
#766 = ORIENTED_EDGE('',*,*,#744,.T.);
#767 = ORIENTED_EDGE('',*,*,#768,.T.);
#768 = EDGE_CURVE('',#745,#769,#771,.T.);
#769 = VERTEX_POINT('',#770);
#770 = CARTESIAN_POINT('',(9.4,-4.5,-13.));
#771 = LINE('',#772,#773);
#772 = CARTESIAN_POINT('',(9.4,-20.,-13.));
#773 = VECTOR('',#774,1.);
#774 = DIRECTION('',(-0.,1.,0.));
#775 = ORIENTED_EDGE('',*,*,#776,.F.);
#776 = EDGE_CURVE('',#243,#769,#777,.T.);
#777 = LINE('',#778,#779);
#778 = CARTESIAN_POINT('',(-9.4,-4.5,-13.));
#779 = VECTOR('',#780,1.);
#780 = DIRECTION('',(1.,0.,-0.));
#781 = PLANE('',#782);
#782 = AXIS2_PLACEMENT_3D('',#783,#784,#785);
#783 = CARTESIAN_POINT('',(-9.4,-20.,-13.));
#784 = DIRECTION('',(0.,0.,1.));
#785 = DIRECTION('',(1.,0.,-0.));
#786 = ADVANCED_FACE('',(#787),#798,.F.);
#787 = FACE_BOUND('',#788,.F.);
#788 = EDGE_LOOP('',(#789,#795,#796,#797));
#789 = ORIENTED_EDGE('',*,*,#790,.F.);
#790 = EDGE_CURVE('',#769,#657,#791,.T.);
#791 = LINE('',#792,#793);
#792 = CARTESIAN_POINT('',(9.4,-4.5,-13.));
#793 = VECTOR('',#794,1.);
#794 = DIRECTION('',(0.,0.,1.));
#795 = ORIENTED_EDGE('',*,*,#776,.F.);
#796 = ORIENTED_EDGE('',*,*,#250,.T.);
#797 = ORIENTED_EDGE('',*,*,#656,.T.);
#798 = PLANE('',#799);
#799 = AXIS2_PLACEMENT_3D('',#800,#801,#802);
#800 = CARTESIAN_POINT('',(-9.4,-4.5,-13.));
#801 = DIRECTION('',(-0.,1.,0.));
#802 = DIRECTION('',(0.,0.,1.));
#803 = ADVANCED_FACE('',(#804,#871),#898,.T.);
#804 = FACE_BOUND('',#805,.T.);
#805 = EDGE_LOOP('',(#806,#814,#822,#830,#838,#846,#854,#862,#868,#869,
    #870));
#806 = ORIENTED_EDGE('',*,*,#807,.F.);
#807 = EDGE_CURVE('',#808,#638,#810,.T.);
#808 = VERTEX_POINT('',#809);
#809 = CARTESIAN_POINT('',(14.,-6.,-1.5));
#810 = LINE('',#811,#812);
#811 = CARTESIAN_POINT('',(14.,-6.,-14.5));
#812 = VECTOR('',#813,1.);
#813 = DIRECTION('',(0.,0.,1.));
#814 = ORIENTED_EDGE('',*,*,#815,.T.);
#815 = EDGE_CURVE('',#808,#816,#818,.T.);
#816 = VERTEX_POINT('',#817);
#817 = CARTESIAN_POINT('',(14.,-9.585786437627,-1.5));
#818 = LINE('',#819,#820);
#819 = CARTESIAN_POINT('',(14.,-4.,-1.5));
#820 = VECTOR('',#821,1.);
#821 = DIRECTION('',(0.,-1.,0.));
#822 = ORIENTED_EDGE('',*,*,#823,.T.);
#823 = EDGE_CURVE('',#816,#824,#826,.T.);
#824 = VERTEX_POINT('',#825);
#825 = CARTESIAN_POINT('',(14.,-12.,-0.5));
#826 = LINE('',#827,#828);
#827 = CARTESIAN_POINT('',(14.,-8.464466094067,-1.964466094067));
#828 = VECTOR('',#829,1.);
#829 = DIRECTION('',(0.,-0.923879532511,0.382683432365));
#830 = ORIENTED_EDGE('',*,*,#831,.T.);
#831 = EDGE_CURVE('',#824,#832,#834,.T.);
#832 = VERTEX_POINT('',#833);
#833 = CARTESIAN_POINT('',(14.,-15.53553390593,-1.964466094067));
#834 = LINE('',#835,#836);
#835 = CARTESIAN_POINT('',(14.,-12.,-0.5));
#836 = VECTOR('',#837,1.);
#837 = DIRECTION('',(0.,-0.923879532511,-0.382683432365));
#838 = ORIENTED_EDGE('',*,*,#839,.T.);
#839 = EDGE_CURVE('',#832,#840,#842,.T.);
#840 = VERTEX_POINT('',#841);
#841 = CARTESIAN_POINT('',(14.,-16.3,-5.5));
#842 = LINE('',#843,#844);
#843 = CARTESIAN_POINT('',(14.,-15.53553390593,-1.964466094067));
#844 = VECTOR('',#845,1.);
#845 = DIRECTION('',(0.,-0.211339746629,-0.977412661825));
#846 = ORIENTED_EDGE('',*,*,#847,.T.);
#847 = EDGE_CURVE('',#840,#848,#850,.T.);
#848 = VERTEX_POINT('',#849);
#849 = CARTESIAN_POINT('',(14.,-12.,-10.));
#850 = LINE('',#851,#852);
#851 = CARTESIAN_POINT('',(14.,-16.3,-5.5));
#852 = VECTOR('',#853,1.);
#853 = DIRECTION('',(0.,0.690857771546,-0.722990691153));
#854 = ORIENTED_EDGE('',*,*,#855,.T.);
#855 = EDGE_CURVE('',#848,#856,#858,.T.);
#856 = VERTEX_POINT('',#857);
#857 = CARTESIAN_POINT('',(14.,-12.,-10.5));
#858 = LINE('',#859,#860);
#859 = CARTESIAN_POINT('',(14.,-12.,-1.5));
#860 = VECTOR('',#861,1.);
#861 = DIRECTION('',(0.,0.,-1.));
#862 = ORIENTED_EDGE('',*,*,#863,.T.);
#863 = EDGE_CURVE('',#856,#391,#864,.T.);
#864 = LINE('',#865,#866);
#865 = CARTESIAN_POINT('',(14.,-12.,-10.5));
#866 = VECTOR('',#867,1.);
#867 = DIRECTION('',(0.,0.707106781187,-0.707106781187));
#868 = ORIENTED_EDGE('',*,*,#390,.T.);
#869 = ORIENTED_EDGE('',*,*,#446,.T.);
#870 = ORIENTED_EDGE('',*,*,#645,.F.);
#871 = FACE_BOUND('',#872,.T.);
#872 = EDGE_LOOP('',(#873,#884,#892));
#873 = ORIENTED_EDGE('',*,*,#874,.F.);
#874 = EDGE_CURVE('',#875,#877,#879,.T.);
#875 = VERTEX_POINT('',#876);
#876 = CARTESIAN_POINT('',(14.,-13.62634559672,-3.873654403271));
#877 = VERTEX_POINT('',#878);
#878 = CARTESIAN_POINT('',(14.,-10.37365440327,-3.873654403271));
#879 = CIRCLE('',#880,2.3);
#880 = AXIS2_PLACEMENT_3D('',#881,#882,#883);
#881 = CARTESIAN_POINT('',(14.,-12.,-5.5));
#882 = DIRECTION('',(1.,0.,0.));
#883 = DIRECTION('',(-0.,0.,1.));
#884 = ORIENTED_EDGE('',*,*,#885,.T.);
#885 = EDGE_CURVE('',#875,#886,#888,.T.);
#886 = VERTEX_POINT('',#887);
#887 = CARTESIAN_POINT('',(14.,-12.,-2.247308806542));
#888 = LINE('',#889,#890);
#889 = CARTESIAN_POINT('',(14.,-11.05703917609,-1.304347982633));
#890 = VECTOR('',#891,1.);
#891 = DIRECTION('',(-0.,0.707106781187,0.707106781187));
#892 = ORIENTED_EDGE('',*,*,#893,.T.);
#893 = EDGE_CURVE('',#886,#877,#894,.T.);
#894 = LINE('',#895,#896);
#895 = CARTESIAN_POINT('',(14.,-7.989811109688,-6.257497696854));
#896 = VECTOR('',#897,1.);
#897 = DIRECTION('',(0.,0.707106781187,-0.707106781187));
#898 = PLANE('',#899);
#899 = AXIS2_PLACEMENT_3D('',#900,#901,#902);
#900 = CARTESIAN_POINT('',(14.,-3.720046168286,-6.755419342619));
#901 = DIRECTION('',(1.,0.,0.));
#902 = DIRECTION('',(-0.,0.,1.));
#903 = ADVANCED_FACE('',(#904),#922,.F.);
#904 = FACE_BOUND('',#905,.F.);
#905 = EDGE_LOOP('',(#906,#914,#915,#916));
#906 = ORIENTED_EDGE('',*,*,#907,.T.);
#907 = EDGE_CURVE('',#908,#856,#910,.T.);
#908 = VERTEX_POINT('',#909);
#909 = CARTESIAN_POINT('',(9.4,-12.,-10.5));
#910 = LINE('',#911,#912);
#911 = CARTESIAN_POINT('',(9.4,-12.,-10.5));
#912 = VECTOR('',#913,1.);
#913 = DIRECTION('',(1.,0.,0.));
#914 = ORIENTED_EDGE('',*,*,#863,.T.);
#915 = ORIENTED_EDGE('',*,*,#398,.F.);
#916 = ORIENTED_EDGE('',*,*,#917,.F.);
#917 = EDGE_CURVE('',#908,#399,#918,.T.);
#918 = LINE('',#919,#920);
#919 = CARTESIAN_POINT('',(9.4,-12.,-10.5));
#920 = VECTOR('',#921,1.);
#921 = DIRECTION('',(0.,0.707106781187,-0.707106781187));
#922 = PLANE('',#923);
#923 = AXIS2_PLACEMENT_3D('',#924,#925,#926);
#924 = CARTESIAN_POINT('',(9.4,-12.,-10.5));
#925 = DIRECTION('',(-0.,0.707106781187,0.707106781187));
#926 = DIRECTION('',(0.,0.707106781187,-0.707106781187));
#927 = ADVANCED_FACE('',(#928,#990),#1017,.T.);
#928 = FACE_BOUND('',#929,.T.);
#929 = EDGE_LOOP('',(#930,#931,#932,#933,#934,#935,#943,#951,#959,#967,
    #975,#983,#989));
#930 = ORIENTED_EDGE('',*,*,#790,.F.);
#931 = ORIENTED_EDGE('',*,*,#768,.F.);
#932 = ORIENTED_EDGE('',*,*,#752,.T.);
#933 = ORIENTED_EDGE('',*,*,#406,.F.);
#934 = ORIENTED_EDGE('',*,*,#917,.F.);
#935 = ORIENTED_EDGE('',*,*,#936,.F.);
#936 = EDGE_CURVE('',#937,#908,#939,.T.);
#937 = VERTEX_POINT('',#938);
#938 = CARTESIAN_POINT('',(9.4,-12.,-10.));
#939 = LINE('',#940,#941);
#940 = CARTESIAN_POINT('',(9.4,-12.,-1.5));
#941 = VECTOR('',#942,1.);
#942 = DIRECTION('',(0.,0.,-1.));
#943 = ORIENTED_EDGE('',*,*,#944,.F.);
#944 = EDGE_CURVE('',#945,#937,#947,.T.);
#945 = VERTEX_POINT('',#946);
#946 = CARTESIAN_POINT('',(9.4,-16.3,-5.5));
#947 = LINE('',#948,#949);
#948 = CARTESIAN_POINT('',(9.4,-16.3,-5.5));
#949 = VECTOR('',#950,1.);
#950 = DIRECTION('',(0.,0.690857771546,-0.722990691153));
#951 = ORIENTED_EDGE('',*,*,#952,.F.);
#952 = EDGE_CURVE('',#953,#945,#955,.T.);
#953 = VERTEX_POINT('',#954);
#954 = CARTESIAN_POINT('',(9.4,-15.53553390593,-1.964466094067));
#955 = LINE('',#956,#957);
#956 = CARTESIAN_POINT('',(9.4,-15.53553390593,-1.964466094067));
#957 = VECTOR('',#958,1.);
#958 = DIRECTION('',(0.,-0.211339746629,-0.977412661825));
#959 = ORIENTED_EDGE('',*,*,#960,.F.);
#960 = EDGE_CURVE('',#961,#953,#963,.T.);
#961 = VERTEX_POINT('',#962);
#962 = CARTESIAN_POINT('',(9.4,-12.,-0.5));
#963 = LINE('',#964,#965);
#964 = CARTESIAN_POINT('',(9.4,-12.,-0.5));
#965 = VECTOR('',#966,1.);
#966 = DIRECTION('',(0.,-0.923879532511,-0.382683432365));
#967 = ORIENTED_EDGE('',*,*,#968,.F.);
#968 = EDGE_CURVE('',#969,#961,#971,.T.);
#969 = VERTEX_POINT('',#970);
#970 = CARTESIAN_POINT('',(9.4,-9.585786437627,-1.5));
#971 = LINE('',#972,#973);
#972 = CARTESIAN_POINT('',(9.4,-8.464466094067,-1.964466094067));
#973 = VECTOR('',#974,1.);
#974 = DIRECTION('',(0.,-0.923879532511,0.382683432365));
#975 = ORIENTED_EDGE('',*,*,#976,.F.);
#976 = EDGE_CURVE('',#977,#969,#979,.T.);
#977 = VERTEX_POINT('',#978);
#978 = CARTESIAN_POINT('',(9.4,-6.,-1.5));
#979 = LINE('',#980,#981);
#980 = CARTESIAN_POINT('',(9.4,-4.,-1.5));
#981 = VECTOR('',#982,1.);
#982 = DIRECTION('',(0.,-1.,0.));
#983 = ORIENTED_EDGE('',*,*,#984,.F.);
#984 = EDGE_CURVE('',#636,#977,#985,.T.);
#985 = LINE('',#986,#987);
#986 = CARTESIAN_POINT('',(9.4,-6.,-13.75));
#987 = VECTOR('',#988,1.);
#988 = DIRECTION('',(-0.,0.,-1.));
#989 = ORIENTED_EDGE('',*,*,#664,.T.);
#990 = FACE_BOUND('',#991,.T.);
#991 = EDGE_LOOP('',(#992,#1002,#1010));
#992 = ORIENTED_EDGE('',*,*,#993,.T.);
#993 = EDGE_CURVE('',#994,#996,#998,.T.);
#994 = VERTEX_POINT('',#995);
#995 = CARTESIAN_POINT('',(9.4,-10.37365440327,-3.873654403271));
#996 = VERTEX_POINT('',#997);
#997 = CARTESIAN_POINT('',(9.4,-12.,-2.247308806542));
#998 = LINE('',#999,#1000);
#999 = CARTESIAN_POINT('',(9.4,-9.377438947558,-4.869869858984));
#1000 = VECTOR('',#1001,1.);
#1001 = DIRECTION('',(0.,-0.707106781187,0.707106781187));
#1002 = ORIENTED_EDGE('',*,*,#1003,.T.);
#1003 = EDGE_CURVE('',#996,#1004,#1006,.T.);
#1004 = VERTEX_POINT('',#1005);
#1005 = CARTESIAN_POINT('',(9.4,-13.62634559672,-3.873654403271));
#1006 = LINE('',#1007,#1008);
#1007 = CARTESIAN_POINT('',(9.4,-12.31030798669,-2.557616793232));
#1008 = VECTOR('',#1009,1.);
#1009 = DIRECTION('',(0.,-0.707106781187,-0.707106781187));
#1010 = ORIENTED_EDGE('',*,*,#1011,.T.);
#1011 = EDGE_CURVE('',#1004,#994,#1012,.T.);
#1012 = CIRCLE('',#1013,2.3);
#1013 = AXIS2_PLACEMENT_3D('',#1014,#1015,#1016);
#1014 = CARTESIAN_POINT('',(9.4,-12.,-5.5));
#1015 = DIRECTION('',(1.,0.,0.));
#1016 = DIRECTION('',(-0.,0.,1.));
#1017 = PLANE('',#1018);
#1018 = AXIS2_PLACEMENT_3D('',#1019,#1020,#1021);
#1019 = CARTESIAN_POINT('',(9.4,-9.001839465225,-6.486701288077));
#1020 = DIRECTION('',(-1.,-0.,-0.));
#1021 = DIRECTION('',(0.,0.,-1.));
#1022 = ADVANCED_FACE('',(#1023),#1046,.T.);
#1023 = FACE_BOUND('',#1024,.T.);
#1024 = EDGE_LOOP('',(#1025,#1026,#1034,#1041));
#1025 = ORIENTED_EDGE('',*,*,#464,.F.);
#1026 = ORIENTED_EDGE('',*,*,#1027,.T.);
#1027 = EDGE_CURVE('',#465,#1028,#1030,.T.);
#1028 = VERTEX_POINT('',#1029);
#1029 = CARTESIAN_POINT('',(7.,16.,-8.5));
#1030 = LINE('',#1031,#1032);
#1031 = CARTESIAN_POINT('',(7.,4.,-8.5));
#1032 = VECTOR('',#1033,1.);
#1033 = DIRECTION('',(0.,1.,0.));
#1034 = ORIENTED_EDGE('',*,*,#1035,.T.);
#1035 = EDGE_CURVE('',#1028,#1036,#1038,.T.);
#1036 = VERTEX_POINT('',#1037);
#1037 = CARTESIAN_POINT('',(7.6,16.4,-7.1));
#1038 = B_SPLINE_CURVE_WITH_KNOTS('',1,(#1039,#1040),.UNSPECIFIED.,.F.,
  .F.,(2,2),(0.,1.),.PIECEWISE_BEZIER_KNOTS.);
#1039 = CARTESIAN_POINT('',(7.,16.,-8.5));
#1040 = CARTESIAN_POINT('',(10.,18.,-1.5));
#1041 = ORIENTED_EDGE('',*,*,#1042,.F.);
#1042 = EDGE_CURVE('',#467,#1036,#1043,.T.);
#1043 = B_SPLINE_CURVE_WITH_KNOTS('',1,(#1044,#1045),.UNSPECIFIED.,.F.,
  .F.,(2,2),(0.,1.),.PIECEWISE_BEZIER_KNOTS.);
#1044 = CARTESIAN_POINT('',(7.6,5.77142804,-7.1));
#1045 = CARTESIAN_POINT('',(7.6,16.4,-7.1));
#1046 = B_SPLINE_SURFACE_WITH_KNOTS('',1,1,(
    (#1047,#1048)
    ,(#1049,#1050
    )),.UNSPECIFIED.,.F.,.F.,.F.,(2,2),(2,2),(0.,14.),(0.,1.),
  .PIECEWISE_BEZIER_KNOTS.);
#1047 = CARTESIAN_POINT('',(7.,4.,-8.5));
#1048 = CARTESIAN_POINT('',(10.,4.,-1.5));
#1049 = CARTESIAN_POINT('',(7.,16.,-8.5));
#1050 = CARTESIAN_POINT('',(10.,18.,-1.5));
#1051 = ADVANCED_FACE('',(#1052,#1070),#1081,.T.);
#1052 = FACE_BOUND('',#1053,.T.);
#1053 = EDGE_LOOP('',(#1054,#1055,#1063,#1069));
#1054 = ORIENTED_EDGE('',*,*,#604,.T.);
#1055 = ORIENTED_EDGE('',*,*,#1056,.F.);
#1056 = EDGE_CURVE('',#1057,#586,#1059,.T.);
#1057 = VERTEX_POINT('',#1058);
#1058 = CARTESIAN_POINT('',(-7.,16.,-8.5));
#1059 = LINE('',#1060,#1061);
#1060 = CARTESIAN_POINT('',(-7.,16.,-8.5));
#1061 = VECTOR('',#1062,1.);
#1062 = DIRECTION('',(0.,-1.,0.));
#1063 = ORIENTED_EDGE('',*,*,#1064,.F.);
#1064 = EDGE_CURVE('',#1028,#1057,#1065,.T.);
#1065 = LINE('',#1066,#1067);
#1066 = CARTESIAN_POINT('',(7.,16.,-8.5));
#1067 = VECTOR('',#1068,1.);
#1068 = DIRECTION('',(-1.,0.,0.));
#1069 = ORIENTED_EDGE('',*,*,#1027,.F.);
#1070 = FACE_BOUND('',#1071,.T.);
#1071 = EDGE_LOOP('',(#1072));
#1072 = ORIENTED_EDGE('',*,*,#1073,.T.);
#1073 = EDGE_CURVE('',#1074,#1074,#1076,.T.);
#1074 = VERTEX_POINT('',#1075);
#1075 = CARTESIAN_POINT('',(2.5,11.,-8.5));
#1076 = CIRCLE('',#1077,2.5);
#1077 = AXIS2_PLACEMENT_3D('',#1078,#1079,#1080);
#1078 = CARTESIAN_POINT('',(0.,11.,-8.5));
#1079 = DIRECTION('',(0.,0.,1.));
#1080 = DIRECTION('',(1.,0.,-0.));
#1081 = PLANE('',#1082);
#1082 = AXIS2_PLACEMENT_3D('',#1083,#1084,#1085);
#1083 = CARTESIAN_POINT('',(-7.,4.,-8.5));
#1084 = DIRECTION('',(0.,0.,-1.));
#1085 = DIRECTION('',(0.759256602365,0.650791373456,0.));
#1086 = ADVANCED_FACE('',(#1087),#1103,.T.);
#1087 = FACE_BOUND('',#1088,.T.);
#1088 = EDGE_LOOP('',(#1089,#1096,#1097,#1098));
#1089 = ORIENTED_EDGE('',*,*,#1090,.F.);
#1090 = EDGE_CURVE('',#1057,#1091,#1093,.T.);
#1091 = VERTEX_POINT('',#1092);
#1092 = CARTESIAN_POINT('',(-7.6,16.4,-7.1));
#1093 = B_SPLINE_CURVE_WITH_KNOTS('',1,(#1094,#1095),.UNSPECIFIED.,.F.,
  .F.,(2,2),(0.,1.),.PIECEWISE_BEZIER_KNOTS.);
#1094 = CARTESIAN_POINT('',(-7.,16.,-8.5));
#1095 = CARTESIAN_POINT('',(-10.,18.,-1.5));
#1096 = ORIENTED_EDGE('',*,*,#1056,.T.);
#1097 = ORIENTED_EDGE('',*,*,#585,.T.);
#1098 = ORIENTED_EDGE('',*,*,#1099,.F.);
#1099 = EDGE_CURVE('',#1091,#567,#1100,.T.);
#1100 = B_SPLINE_CURVE_WITH_KNOTS('',1,(#1101,#1102),.UNSPECIFIED.,.F.,
  .F.,(2,2),(0.,1.),.PIECEWISE_BEZIER_KNOTS.);
#1101 = CARTESIAN_POINT('',(-7.6,16.4,-7.1));
#1102 = CARTESIAN_POINT('',(-7.6,5.77142804,-7.1));
#1103 = B_SPLINE_SURFACE_WITH_KNOTS('',1,1,(
    (#1104,#1105)
    ,(#1106,#1107
    )),.UNSPECIFIED.,.F.,.F.,.F.,(2,2),(2,2),(0.,14.),(0.,1.),
  .PIECEWISE_BEZIER_KNOTS.);
#1104 = CARTESIAN_POINT('',(-7.,16.,-8.5));
#1105 = CARTESIAN_POINT('',(-10.,18.,-1.5));
#1106 = CARTESIAN_POINT('',(-7.,4.,-8.5));
#1107 = CARTESIAN_POINT('',(-10.,4.,-1.5));
#1108 = ADVANCED_FACE('',(#1109),#1126,.T.);
#1109 = FACE_BOUND('',#1110,.T.);
#1110 = EDGE_LOOP('',(#1111,#1118,#1119,#1120));
#1111 = ORIENTED_EDGE('',*,*,#1112,.F.);
#1112 = EDGE_CURVE('',#1091,#1113,#1115,.T.);
#1113 = VERTEX_POINT('',#1114);
#1114 = CARTESIAN_POINT('',(-10.,18.,-3.5));
#1115 = B_SPLINE_CURVE_WITH_KNOTS('',1,(#1116,#1117),.UNSPECIFIED.,.F.,
  .F.,(2,2),(0.,1.),.PIECEWISE_BEZIER_KNOTS.);
#1116 = CARTESIAN_POINT('',(-7.,16.,-8.));
#1117 = CARTESIAN_POINT('',(-10.,18.,-3.5));
#1118 = ORIENTED_EDGE('',*,*,#1099,.T.);
#1119 = ORIENTED_EDGE('',*,*,#566,.T.);
#1120 = ORIENTED_EDGE('',*,*,#1121,.F.);
#1121 = EDGE_CURVE('',#1113,#559,#1122,.T.);
#1122 = LINE('',#1123,#1124);
#1123 = CARTESIAN_POINT('',(-10.,18.,-3.5));
#1124 = VECTOR('',#1125,1.);
#1125 = DIRECTION('',(0.,-1.,0.));
#1126 = B_SPLINE_SURFACE_WITH_KNOTS('',1,1,(
    (#1127,#1128)
    ,(#1129,#1130
    )),.UNSPECIFIED.,.F.,.F.,.F.,(2,2),(2,2),(0.,14.),(0.,1.),
  .PIECEWISE_BEZIER_KNOTS.);
#1127 = CARTESIAN_POINT('',(-7.,16.,-8.));
#1128 = CARTESIAN_POINT('',(-10.,18.,-3.5));
#1129 = CARTESIAN_POINT('',(-7.,4.,-8.));
#1130 = CARTESIAN_POINT('',(-10.,4.,-3.5));
#1131 = ADVANCED_FACE('',(#1132),#1170,.F.);
#1132 = FACE_BOUND('',#1133,.F.);
#1133 = EDGE_LOOP('',(#1134,#1142,#1143,#1150,#1157,#1162,#1163,#1164));
#1134 = ORIENTED_EDGE('',*,*,#1135,.F.);
#1135 = EDGE_CURVE('',#486,#1136,#1138,.T.);
#1136 = VERTEX_POINT('',#1137);
#1137 = CARTESIAN_POINT('',(10.,18.,-3.5));
#1138 = LINE('',#1139,#1140);
#1139 = CARTESIAN_POINT('',(10.,4.,-3.5));
#1140 = VECTOR('',#1141,1.);
#1141 = DIRECTION('',(0.,1.,0.));
#1142 = ORIENTED_EDGE('',*,*,#504,.T.);
#1143 = ORIENTED_EDGE('',*,*,#1144,.F.);
#1144 = EDGE_CURVE('',#1145,#505,#1147,.T.);
#1145 = VERTEX_POINT('',#1146);
#1146 = CARTESIAN_POINT('',(9.142857142857,17.428571428571,-3.5));
#1147 = B_SPLINE_CURVE_WITH_KNOTS('',1,(#1148,#1149),.UNSPECIFIED.,.F.,
  .F.,(2,2),(0.,1.),.PIECEWISE_BEZIER_KNOTS.);
#1148 = CARTESIAN_POINT('',(9.142857142857,17.428571428571,-3.5));
#1149 = CARTESIAN_POINT('',(9.142857142857,5.4,-3.5));
#1150 = ORIENTED_EDGE('',*,*,#1151,.F.);
#1151 = EDGE_CURVE('',#1152,#1145,#1154,.T.);
#1152 = VERTEX_POINT('',#1153);
#1153 = CARTESIAN_POINT('',(-9.142857142857,17.428571428571,-3.5));
#1154 = B_SPLINE_CURVE_WITH_KNOTS('',1,(#1155,#1156),.UNSPECIFIED.,.F.,
  .F.,(2,2),(0.,1.),.PIECEWISE_BEZIER_KNOTS.);
#1155 = CARTESIAN_POINT('',(-9.142857142857,17.428571428571,-3.5));
#1156 = CARTESIAN_POINT('',(9.142857142857,17.428571428571,-3.5));
#1157 = ORIENTED_EDGE('',*,*,#1158,.F.);
#1158 = EDGE_CURVE('',#540,#1152,#1159,.T.);
#1159 = B_SPLINE_CURVE_WITH_KNOTS('',1,(#1160,#1161),.UNSPECIFIED.,.F.,
  .F.,(2,2),(0.,1.),.PIECEWISE_BEZIER_KNOTS.);
#1160 = CARTESIAN_POINT('',(-9.142857142857,4.775510204082,-3.5));
#1161 = CARTESIAN_POINT('',(-9.142857142857,17.428571428571,-3.5));
#1162 = ORIENTED_EDGE('',*,*,#558,.T.);
#1163 = ORIENTED_EDGE('',*,*,#1121,.F.);
#1164 = ORIENTED_EDGE('',*,*,#1165,.F.);
#1165 = EDGE_CURVE('',#1136,#1113,#1166,.T.);
#1166 = LINE('',#1167,#1168);
#1167 = CARTESIAN_POINT('',(10.,18.,-3.5));
#1168 = VECTOR('',#1169,1.);
#1169 = DIRECTION('',(-1.,0.,0.));
#1170 = PLANE('',#1171);
#1171 = AXIS2_PLACEMENT_3D('',#1172,#1173,#1174);
#1172 = CARTESIAN_POINT('',(-10.,4.,-3.5));
#1173 = DIRECTION('',(0.,0.,-1.));
#1174 = DIRECTION('',(0.819231920519,0.573462344363,0.));
#1175 = ADVANCED_FACE('',(#1176),#1193,.T.);
#1176 = FACE_BOUND('',#1177,.T.);
#1177 = EDGE_LOOP('',(#1178,#1185,#1186,#1187));
#1178 = ORIENTED_EDGE('',*,*,#1179,.F.);
#1179 = EDGE_CURVE('',#1152,#1180,#1182,.T.);
#1180 = VERTEX_POINT('',#1181);
#1181 = CARTESIAN_POINT('',(-10.,18.,-1.5));
#1182 = B_SPLINE_CURVE_WITH_KNOTS('',1,(#1183,#1184),.UNSPECIFIED.,.F.,
  .F.,(2,2),(0.,1.),.PIECEWISE_BEZIER_KNOTS.);
#1183 = CARTESIAN_POINT('',(-7.,16.,-8.5));
#1184 = CARTESIAN_POINT('',(-10.,18.,-1.5));
#1185 = ORIENTED_EDGE('',*,*,#1158,.F.);
#1186 = ORIENTED_EDGE('',*,*,#539,.T.);
#1187 = ORIENTED_EDGE('',*,*,#1188,.F.);
#1188 = EDGE_CURVE('',#1180,#532,#1189,.T.);
#1189 = LINE('',#1190,#1191);
#1190 = CARTESIAN_POINT('',(-10.,18.,-1.5));
#1191 = VECTOR('',#1192,1.);
#1192 = DIRECTION('',(0.,-1.,0.));
#1193 = B_SPLINE_SURFACE_WITH_KNOTS('',1,1,(
    (#1194,#1195)
    ,(#1196,#1197
    )),.UNSPECIFIED.,.F.,.F.,.F.,(2,2),(2,2),(0.,14.),(0.,1.),
  .PIECEWISE_BEZIER_KNOTS.);
#1194 = CARTESIAN_POINT('',(-7.,16.,-8.5));
#1195 = CARTESIAN_POINT('',(-10.,18.,-1.5));
#1196 = CARTESIAN_POINT('',(-7.,4.,-8.5));
#1197 = CARTESIAN_POINT('',(-10.,4.,-1.5));
#1198 = ADVANCED_FACE('',(#1199,#1217),#1228,.F.);
#1199 = FACE_BOUND('',#1200,.F.);
#1200 = EDGE_LOOP('',(#1201,#1202,#1203,#1211));
#1201 = ORIENTED_EDGE('',*,*,#531,.T.);
#1202 = ORIENTED_EDGE('',*,*,#1188,.F.);
#1203 = ORIENTED_EDGE('',*,*,#1204,.F.);
#1204 = EDGE_CURVE('',#1205,#1180,#1207,.T.);
#1205 = VERTEX_POINT('',#1206);
#1206 = CARTESIAN_POINT('',(10.,18.,-1.5));
#1207 = LINE('',#1208,#1209);
#1208 = CARTESIAN_POINT('',(10.,18.,-1.5));
#1209 = VECTOR('',#1210,1.);
#1210 = DIRECTION('',(-1.,0.,0.));
#1211 = ORIENTED_EDGE('',*,*,#1212,.F.);
#1212 = EDGE_CURVE('',#513,#1205,#1213,.T.);
#1213 = LINE('',#1214,#1215);
#1214 = CARTESIAN_POINT('',(10.,4.,-1.5));
#1215 = VECTOR('',#1216,1.);
#1216 = DIRECTION('',(0.,1.,0.));
#1217 = FACE_BOUND('',#1218,.F.);
#1218 = EDGE_LOOP('',(#1219));
#1219 = ORIENTED_EDGE('',*,*,#1220,.T.);
#1220 = EDGE_CURVE('',#1221,#1221,#1223,.T.);
#1221 = VERTEX_POINT('',#1222);
#1222 = CARTESIAN_POINT('',(2.5,11.,-1.5));
#1223 = CIRCLE('',#1224,2.5);
#1224 = AXIS2_PLACEMENT_3D('',#1225,#1226,#1227);
#1225 = CARTESIAN_POINT('',(0.,11.,-1.5));
#1226 = DIRECTION('',(0.,0.,1.));
#1227 = DIRECTION('',(1.,0.,-0.));
#1228 = PLANE('',#1229);
#1229 = AXIS2_PLACEMENT_3D('',#1230,#1231,#1232);
#1230 = CARTESIAN_POINT('',(-10.,4.,-1.5));
#1231 = DIRECTION('',(0.,0.,-1.));
#1232 = DIRECTION('',(0.819231920519,0.573462344363,0.));
#1233 = ADVANCED_FACE('',(#1234),#1244,.T.);
#1234 = FACE_BOUND('',#1235,.T.);
#1235 = EDGE_LOOP('',(#1236,#1237,#1238,#1239));
#1236 = ORIENTED_EDGE('',*,*,#1212,.F.);
#1237 = ORIENTED_EDGE('',*,*,#512,.F.);
#1238 = ORIENTED_EDGE('',*,*,#1144,.F.);
#1239 = ORIENTED_EDGE('',*,*,#1240,.T.);
#1240 = EDGE_CURVE('',#1145,#1205,#1241,.T.);
#1241 = B_SPLINE_CURVE_WITH_KNOTS('',1,(#1242,#1243),.UNSPECIFIED.,.F.,
  .F.,(2,2),(0.,1.),.PIECEWISE_BEZIER_KNOTS.);
#1242 = CARTESIAN_POINT('',(7.,16.,-8.5));
#1243 = CARTESIAN_POINT('',(10.,18.,-1.5));
#1244 = B_SPLINE_SURFACE_WITH_KNOTS('',1,1,(
    (#1245,#1246)
    ,(#1247,#1248
    )),.UNSPECIFIED.,.F.,.F.,.F.,(2,2),(2,2),(0.,14.),(0.,1.),
  .PIECEWISE_BEZIER_KNOTS.);
#1245 = CARTESIAN_POINT('',(7.,4.,-8.5));
#1246 = CARTESIAN_POINT('',(10.,4.,-1.5));
#1247 = CARTESIAN_POINT('',(7.,16.,-8.5));
#1248 = CARTESIAN_POINT('',(10.,18.,-1.5));
#1249 = ADVANCED_FACE('',(#1250),#1260,.T.);
#1250 = FACE_BOUND('',#1251,.T.);
#1251 = EDGE_LOOP('',(#1252,#1253,#1254,#1259));
#1252 = ORIENTED_EDGE('',*,*,#485,.F.);
#1253 = ORIENTED_EDGE('',*,*,#1042,.T.);
#1254 = ORIENTED_EDGE('',*,*,#1255,.T.);
#1255 = EDGE_CURVE('',#1036,#1136,#1256,.T.);
#1256 = B_SPLINE_CURVE_WITH_KNOTS('',1,(#1257,#1258),.UNSPECIFIED.,.F.,
  .F.,(2,2),(0.,1.),.PIECEWISE_BEZIER_KNOTS.);
#1257 = CARTESIAN_POINT('',(7.,16.,-8.));
#1258 = CARTESIAN_POINT('',(10.,18.,-3.5));
#1259 = ORIENTED_EDGE('',*,*,#1135,.F.);
#1260 = B_SPLINE_SURFACE_WITH_KNOTS('',1,1,(
    (#1261,#1262)
    ,(#1263,#1264
    )),.UNSPECIFIED.,.F.,.F.,.F.,(2,2),(2,2),(0.,14.),(0.,1.),
  .PIECEWISE_BEZIER_KNOTS.);
#1261 = CARTESIAN_POINT('',(7.,4.,-8.));
#1262 = CARTESIAN_POINT('',(10.,4.,-3.5));
#1263 = CARTESIAN_POINT('',(7.,16.,-8.));
#1264 = CARTESIAN_POINT('',(10.,18.,-3.5));
#1265 = ADVANCED_FACE('',(#1266),#1277,.F.);
#1266 = FACE_BOUND('',#1267,.F.);
#1267 = EDGE_LOOP('',(#1268,#1269,#1275,#1276));
#1268 = ORIENTED_EDGE('',*,*,#807,.F.);
#1269 = ORIENTED_EDGE('',*,*,#1270,.T.);
#1270 = EDGE_CURVE('',#808,#977,#1271,.T.);
#1271 = LINE('',#1272,#1273);
#1272 = CARTESIAN_POINT('',(-2.3,-6.,-1.5));
#1273 = VECTOR('',#1274,1.);
#1274 = DIRECTION('',(-1.,0.,-0.));
#1275 = ORIENTED_EDGE('',*,*,#984,.F.);
#1276 = ORIENTED_EDGE('',*,*,#635,.T.);
#1277 = PLANE('',#1278);
#1278 = AXIS2_PLACEMENT_3D('',#1279,#1280,#1281);
#1279 = CARTESIAN_POINT('',(-14.,-6.,-14.5));
#1280 = DIRECTION('',(-0.,1.,0.));
#1281 = DIRECTION('',(0.,0.,1.));
#1282 = ADVANCED_FACE('',(#1283),#1294,.F.);
#1283 = FACE_BOUND('',#1284,.F.);
#1284 = EDGE_LOOP('',(#1285,#1286,#1287,#1288));
#1285 = ORIENTED_EDGE('',*,*,#976,.F.);
#1286 = ORIENTED_EDGE('',*,*,#1270,.F.);
#1287 = ORIENTED_EDGE('',*,*,#815,.T.);
#1288 = ORIENTED_EDGE('',*,*,#1289,.F.);
#1289 = EDGE_CURVE('',#969,#816,#1290,.T.);
#1290 = LINE('',#1291,#1292);
#1291 = CARTESIAN_POINT('',(9.4,-9.585786437627,-1.5));
#1292 = VECTOR('',#1293,1.);
#1293 = DIRECTION('',(1.,0.,0.));
#1294 = PLANE('',#1295);
#1295 = AXIS2_PLACEMENT_3D('',#1296,#1297,#1298);
#1296 = CARTESIAN_POINT('',(9.4,-4.,-1.5));
#1297 = DIRECTION('',(0.,0.,-1.));
#1298 = DIRECTION('',(0.,-1.,0.));
#1299 = ADVANCED_FACE('',(#1300),#1311,.F.);
#1300 = FACE_BOUND('',#1301,.F.);
#1301 = EDGE_LOOP('',(#1302,#1303,#1304,#1305));
#1302 = ORIENTED_EDGE('',*,*,#968,.F.);
#1303 = ORIENTED_EDGE('',*,*,#1289,.T.);
#1304 = ORIENTED_EDGE('',*,*,#823,.T.);
#1305 = ORIENTED_EDGE('',*,*,#1306,.F.);
#1306 = EDGE_CURVE('',#961,#824,#1307,.T.);
#1307 = LINE('',#1308,#1309);
#1308 = CARTESIAN_POINT('',(9.4,-12.,-0.5));
#1309 = VECTOR('',#1310,1.);
#1310 = DIRECTION('',(1.,0.,0.));
#1311 = PLANE('',#1312);
#1312 = AXIS2_PLACEMENT_3D('',#1313,#1314,#1315);
#1313 = CARTESIAN_POINT('',(9.4,-8.464466094067,-1.964466094067));
#1314 = DIRECTION('',(0.,-0.382683432365,-0.923879532511));
#1315 = DIRECTION('',(0.,-0.923879532511,0.382683432365));
#1316 = ADVANCED_FACE('',(#1317),#1328,.F.);
#1317 = FACE_BOUND('',#1318,.F.);
#1318 = EDGE_LOOP('',(#1319,#1320,#1321,#1327));
#1319 = ORIENTED_EDGE('',*,*,#1306,.T.);
#1320 = ORIENTED_EDGE('',*,*,#831,.T.);
#1321 = ORIENTED_EDGE('',*,*,#1322,.F.);
#1322 = EDGE_CURVE('',#953,#832,#1323,.T.);
#1323 = LINE('',#1324,#1325);
#1324 = CARTESIAN_POINT('',(9.4,-15.53553390593,-1.964466094067));
#1325 = VECTOR('',#1326,1.);
#1326 = DIRECTION('',(1.,0.,0.));
#1327 = ORIENTED_EDGE('',*,*,#960,.F.);
#1328 = PLANE('',#1329);
#1329 = AXIS2_PLACEMENT_3D('',#1330,#1331,#1332);
#1330 = CARTESIAN_POINT('',(9.4,-12.,-0.5));
#1331 = DIRECTION('',(0.,0.382683432365,-0.923879532511));
#1332 = DIRECTION('',(0.,-0.923879532511,-0.382683432365));
#1333 = ADVANCED_FACE('',(#1334),#1345,.F.);
#1334 = FACE_BOUND('',#1335,.F.);
#1335 = EDGE_LOOP('',(#1336,#1337,#1338,#1344));
#1336 = ORIENTED_EDGE('',*,*,#1322,.T.);
#1337 = ORIENTED_EDGE('',*,*,#839,.T.);
#1338 = ORIENTED_EDGE('',*,*,#1339,.F.);
#1339 = EDGE_CURVE('',#945,#840,#1340,.T.);
#1340 = LINE('',#1341,#1342);
#1341 = CARTESIAN_POINT('',(9.4,-16.3,-5.5));
#1342 = VECTOR('',#1343,1.);
#1343 = DIRECTION('',(1.,0.,0.));
#1344 = ORIENTED_EDGE('',*,*,#952,.F.);
#1345 = PLANE('',#1346);
#1346 = AXIS2_PLACEMENT_3D('',#1347,#1348,#1349);
#1347 = CARTESIAN_POINT('',(9.4,-15.53553390593,-1.964466094067));
#1348 = DIRECTION('',(0.,0.977412661825,-0.211339746629));
#1349 = DIRECTION('',(0.,-0.211339746629,-0.977412661825));
#1350 = ADVANCED_FACE('',(#1351),#1362,.F.);
#1351 = FACE_BOUND('',#1352,.F.);
#1352 = EDGE_LOOP('',(#1353,#1354,#1355,#1361));
#1353 = ORIENTED_EDGE('',*,*,#1339,.T.);
#1354 = ORIENTED_EDGE('',*,*,#847,.T.);
#1355 = ORIENTED_EDGE('',*,*,#1356,.F.);
#1356 = EDGE_CURVE('',#937,#848,#1357,.T.);
#1357 = LINE('',#1358,#1359);
#1358 = CARTESIAN_POINT('',(9.4,-12.,-10.));
#1359 = VECTOR('',#1360,1.);
#1360 = DIRECTION('',(1.,0.,0.));
#1361 = ORIENTED_EDGE('',*,*,#944,.F.);
#1362 = PLANE('',#1363);
#1363 = AXIS2_PLACEMENT_3D('',#1364,#1365,#1366);
#1364 = CARTESIAN_POINT('',(9.4,-16.3,-5.5));
#1365 = DIRECTION('',(-0.,0.722990691153,0.690857771546));
#1366 = DIRECTION('',(0.,0.690857771546,-0.722990691153));
#1367 = ADVANCED_FACE('',(#1368),#1374,.F.);
#1368 = FACE_BOUND('',#1369,.F.);
#1369 = EDGE_LOOP('',(#1370,#1371,#1372,#1373));
#1370 = ORIENTED_EDGE('',*,*,#936,.F.);
#1371 = ORIENTED_EDGE('',*,*,#1356,.T.);
#1372 = ORIENTED_EDGE('',*,*,#855,.T.);
#1373 = ORIENTED_EDGE('',*,*,#907,.F.);
#1374 = PLANE('',#1375);
#1375 = AXIS2_PLACEMENT_3D('',#1376,#1377,#1378);
#1376 = CARTESIAN_POINT('',(9.4,-12.,-1.5));
#1377 = DIRECTION('',(-0.,1.,0.));
#1378 = DIRECTION('',(0.,0.,-1.));
#1379 = ADVANCED_FACE('',(#1380),#1396,.F.);
#1380 = FACE_BOUND('',#1381,.F.);
#1381 = EDGE_LOOP('',(#1382,#1383,#1389,#1390));
#1382 = ORIENTED_EDGE('',*,*,#874,.F.);
#1383 = ORIENTED_EDGE('',*,*,#1384,.F.);
#1384 = EDGE_CURVE('',#1004,#875,#1385,.T.);
#1385 = LINE('',#1386,#1387);
#1386 = CARTESIAN_POINT('',(-15.,-13.62634559672,-3.873654403271));
#1387 = VECTOR('',#1388,1.);
#1388 = DIRECTION('',(1.,0.,0.));
#1389 = ORIENTED_EDGE('',*,*,#1011,.T.);
#1390 = ORIENTED_EDGE('',*,*,#1391,.T.);
#1391 = EDGE_CURVE('',#994,#877,#1392,.T.);
#1392 = LINE('',#1393,#1394);
#1393 = CARTESIAN_POINT('',(-15.,-10.37365440327,-3.873654403271));
#1394 = VECTOR('',#1395,1.);
#1395 = DIRECTION('',(1.,0.,0.));
#1396 = CYLINDRICAL_SURFACE('',#1397,2.3);
#1397 = AXIS2_PLACEMENT_3D('',#1398,#1399,#1400);
#1398 = CARTESIAN_POINT('',(-15.,-12.,-5.5));
#1399 = DIRECTION('',(1.,0.,0.));
#1400 = DIRECTION('',(-0.,0.,1.));
#1401 = ADVANCED_FACE('',(#1402),#1413,.T.);
#1402 = FACE_BOUND('',#1403,.T.);
#1403 = EDGE_LOOP('',(#1404,#1405,#1406,#1407));
#1404 = ORIENTED_EDGE('',*,*,#993,.F.);
#1405 = ORIENTED_EDGE('',*,*,#1391,.T.);
#1406 = ORIENTED_EDGE('',*,*,#893,.F.);
#1407 = ORIENTED_EDGE('',*,*,#1408,.F.);
#1408 = EDGE_CURVE('',#996,#886,#1409,.T.);
#1409 = LINE('',#1410,#1411);
#1410 = CARTESIAN_POINT('',(-15.,-12.,-2.247308806542));
#1411 = VECTOR('',#1412,1.);
#1412 = DIRECTION('',(1.,0.,0.));
#1413 = PLANE('',#1414);
#1414 = AXIS2_PLACEMENT_3D('',#1415,#1416,#1417);
#1415 = CARTESIAN_POINT('',(-15.,-10.37365440327,-3.873654403271));
#1416 = DIRECTION('',(0.,-0.707106781187,-0.707106781187));
#1417 = DIRECTION('',(0.,-0.707106781187,0.707106781187));
#1418 = ADVANCED_FACE('',(#1419),#1425,.T.);
#1419 = FACE_BOUND('',#1420,.T.);
#1420 = EDGE_LOOP('',(#1421,#1422,#1423,#1424));
#1421 = ORIENTED_EDGE('',*,*,#1003,.F.);
#1422 = ORIENTED_EDGE('',*,*,#1408,.T.);
#1423 = ORIENTED_EDGE('',*,*,#885,.F.);
#1424 = ORIENTED_EDGE('',*,*,#1384,.F.);
#1425 = PLANE('',#1426);
#1426 = AXIS2_PLACEMENT_3D('',#1427,#1428,#1429);
#1427 = CARTESIAN_POINT('',(-15.,-12.,-2.247308806542));
#1428 = DIRECTION('',(0.,0.707106781187,-0.707106781187));
#1429 = DIRECTION('',(0.,-0.707106781187,-0.707106781187));
#1430 = ADVANCED_FACE('',(#1431),#1441,.T.);
#1431 = FACE_BOUND('',#1432,.T.);
#1432 = EDGE_LOOP('',(#1433,#1434,#1435,#1436));
#1433 = ORIENTED_EDGE('',*,*,#1035,.F.);
#1434 = ORIENTED_EDGE('',*,*,#1064,.T.);
#1435 = ORIENTED_EDGE('',*,*,#1090,.T.);
#1436 = ORIENTED_EDGE('',*,*,#1437,.F.);
#1437 = EDGE_CURVE('',#1036,#1091,#1438,.T.);
#1438 = B_SPLINE_CURVE_WITH_KNOTS('',1,(#1439,#1440),.UNSPECIFIED.,.F.,
  .F.,(2,2),(0.,1.),.PIECEWISE_BEZIER_KNOTS.);
#1439 = CARTESIAN_POINT('',(7.6,16.4,-7.1));
#1440 = CARTESIAN_POINT('',(-7.6,16.4,-7.1));
#1441 = B_SPLINE_SURFACE_WITH_KNOTS('',1,1,(
    (#1442,#1443)
    ,(#1444,#1445
    )),.UNSPECIFIED.,.F.,.F.,.F.,(2,2),(2,2),(0.,20.),(0.,1.),
  .PIECEWISE_BEZIER_KNOTS.);
#1442 = CARTESIAN_POINT('',(7.,16.,-8.5));
#1443 = CARTESIAN_POINT('',(10.,18.,-1.5));
#1444 = CARTESIAN_POINT('',(-7.,16.,-8.5));
#1445 = CARTESIAN_POINT('',(-10.,18.,-1.5));
#1446 = ADVANCED_FACE('',(#1447),#1458,.F.);
#1447 = FACE_BOUND('',#1448,.F.);
#1448 = EDGE_LOOP('',(#1449,#1450,#1456,#1457));
#1449 = ORIENTED_EDGE('',*,*,#1220,.F.);
#1450 = ORIENTED_EDGE('',*,*,#1451,.F.);
#1451 = EDGE_CURVE('',#1074,#1221,#1452,.T.);
#1452 = LINE('',#1453,#1454);
#1453 = CARTESIAN_POINT('',(2.5,11.,-13.5));
#1454 = VECTOR('',#1455,1.);
#1455 = DIRECTION('',(0.,0.,1.));
#1456 = ORIENTED_EDGE('',*,*,#1073,.T.);
#1457 = ORIENTED_EDGE('',*,*,#1451,.T.);
#1458 = CYLINDRICAL_SURFACE('',#1459,2.5);
#1459 = AXIS2_PLACEMENT_3D('',#1460,#1461,#1462);
#1460 = CARTESIAN_POINT('',(0.,11.,-13.5));
#1461 = DIRECTION('',(0.,0.,1.));
#1462 = DIRECTION('',(1.,0.,-0.));
#1463 = ADVANCED_FACE('',(#1464),#1470,.T.);
#1464 = FACE_BOUND('',#1465,.T.);
#1465 = EDGE_LOOP('',(#1466,#1467,#1468,#1469));
#1466 = ORIENTED_EDGE('',*,*,#1255,.F.);
#1467 = ORIENTED_EDGE('',*,*,#1437,.T.);
#1468 = ORIENTED_EDGE('',*,*,#1112,.T.);
#1469 = ORIENTED_EDGE('',*,*,#1165,.F.);
#1470 = B_SPLINE_SURFACE_WITH_KNOTS('',1,1,(
    (#1471,#1472)
    ,(#1473,#1474
    )),.UNSPECIFIED.,.F.,.F.,.F.,(2,2),(2,2),(0.,20.),(0.,1.),
  .PIECEWISE_BEZIER_KNOTS.);
#1471 = CARTESIAN_POINT('',(7.,16.,-8.));
#1472 = CARTESIAN_POINT('',(10.,18.,-3.5));
#1473 = CARTESIAN_POINT('',(-7.,16.,-8.));
#1474 = CARTESIAN_POINT('',(-10.,18.,-3.5));
#1475 = ADVANCED_FACE('',(#1476),#1482,.T.);
#1476 = FACE_BOUND('',#1477,.T.);
#1477 = EDGE_LOOP('',(#1478,#1479,#1480,#1481));
#1478 = ORIENTED_EDGE('',*,*,#1240,.F.);
#1479 = ORIENTED_EDGE('',*,*,#1151,.F.);
#1480 = ORIENTED_EDGE('',*,*,#1179,.T.);
#1481 = ORIENTED_EDGE('',*,*,#1204,.F.);
#1482 = B_SPLINE_SURFACE_WITH_KNOTS('',1,1,(
    (#1483,#1484)
    ,(#1485,#1486
    )),.UNSPECIFIED.,.F.,.F.,.F.,(2,2),(2,2),(0.,20.),(0.,1.),
  .PIECEWISE_BEZIER_KNOTS.);
#1483 = CARTESIAN_POINT('',(7.,16.,-8.5));
#1484 = CARTESIAN_POINT('',(10.,18.,-1.5));
#1485 = CARTESIAN_POINT('',(-7.,16.,-8.5));
#1486 = CARTESIAN_POINT('',(-10.,18.,-1.5));
#1487 = ( GEOMETRIC_REPRESENTATION_CONTEXT(3) 
GLOBAL_UNCERTAINTY_ASSIGNED_CONTEXT((#1491)) 
GLOBAL_UNIT_ASSIGNED_CONTEXT((#1488,#1489,#1490)) REPRESENTATION_CONTEXT
('Context #1','3D Context with UNIT and UNCERTAINTY') );
#1488 = ( LENGTH_UNIT() NAMED_UNIT(*) SI_UNIT(.MILLI.,.METRE.) );
#1489 = ( NAMED_UNIT(*) PLANE_ANGLE_UNIT() SI_UNIT($,.RADIAN.) );
#1490 = ( NAMED_UNIT(*) SI_UNIT($,.STERADIAN.) SOLID_ANGLE_UNIT() );
#1491 = UNCERTAINTY_MEASURE_WITH_UNIT(LENGTH_MEASURE(1.E-06),#1488,
  'distance_accuracy_value','confusion accuracy');
#1492 = PRODUCT_RELATED_PRODUCT_CATEGORY('part',$,(#7));
ENDSEC;
END-ISO-10303-21;
