ISO-10303-21;
HEADER;
FILE_DESCRIPTION(('FreeCAD Model'),'2;1');
FILE_NAME('Open CASCADE Shape Model','2026-09-18T14:55:42',('FreeCAD'),(
    'FreeCAD'),'Open CASCADE STEP processor 7.8','FreeCAD','Unknown');
FILE_SCHEMA(('AUTOMOTIVE_DESIGN { 1 0 10303 214 1 1 1 1 }'));
ENDSEC;
DATA;
#1 = APPLICATION_PROTOCOL_DEFINITION('international standard',
  'automotive_design',2000,#2);
#2 = APPLICATION_CONTEXT(
  'core data for automotive mechanical design processes');
#3 = SHAPE_DEFINITION_REPRESENTATION(#4,#10);
#4 = PRODUCT_DEFINITION_SHAPE('','',#5);
#5 = PRODUCT_DEFINITION('design','',#6,#9);
#6 = PRODUCT_DEFINITION_FORMATION('','',#7);
#7 = PRODUCT('Open CASCADE STEP translator 7.8 11',
  'Open CASCADE STEP translator 7.8 11','',(#8));
#8 = PRODUCT_CONTEXT('',#2,'mechanical');
#9 = PRODUCT_DEFINITION_CONTEXT('part definition',#2,'design');
#10 = ADVANCED_BREP_SHAPE_REPRESENTATION('',(#11,#15),#900);
#11 = AXIS2_PLACEMENT_3D('',#12,#13,#14);
#12 = CARTESIAN_POINT('',(0.,0.,0.));
#13 = DIRECTION('',(0.,0.,1.));
#14 = DIRECTION('',(1.,0.,-0.));
#15 = MANIFOLD_SOLID_BREP('',#16);
#16 = CLOSED_SHELL('',(#17,#59,#239,#264,#475,#492,#509,#526,#543,#560,
    #577,#594,#611,#628,#647,#666,#683,#700,#714,#739,#770,#794,#818,
    #842,#866,#883));
#17 = ADVANCED_FACE('',(#18),#54,.T.);
#18 = FACE_BOUND('',#19,.T.);
#19 = EDGE_LOOP('',(#20,#31,#39,#48));
#20 = ORIENTED_EDGE('',*,*,#21,.F.);
#21 = EDGE_CURVE('',#22,#24,#26,.T.);
#22 = VERTEX_POINT('',#23);
#23 = CARTESIAN_POINT('',(-14.68765432098,-7.,-3.045128986952));
#24 = VERTEX_POINT('',#25);
#25 = CARTESIAN_POINT('',(-12.53897132635,-7.,-8.232508613833));
#26 = CIRCLE('',#27,15.);
#27 = AXIS2_PLACEMENT_3D('',#28,#29,#30);
#28 = CARTESIAN_POINT('',(-8.572527594031E-16,-7.,7.771561172376E-16));
#29 = DIRECTION('',(-1.224646799147E-16,-1.,1.110223024625E-16));
#30 = DIRECTION('',(-1.,1.224646799147E-16,0.));
#31 = ORIENTED_EDGE('',*,*,#32,.F.);
#32 = EDGE_CURVE('',#33,#22,#35,.T.);
#33 = VERTEX_POINT('',#34);
#34 = CARTESIAN_POINT('',(-14.68765432098,1.460641653691E-15,
    -3.045128986952));
#35 = LINE('',#36,#37);
#36 = CARTESIAN_POINT('',(-14.68765432098,1.460641653691E-15,
    -3.045128986952));
#37 = VECTOR('',#38,1.);
#38 = DIRECTION('',(-1.224646799147E-16,-1.,1.110223024625E-16));
#39 = ORIENTED_EDGE('',*,*,#40,.T.);
#40 = EDGE_CURVE('',#33,#41,#43,.T.);
#41 = VERTEX_POINT('',#42);
#42 = CARTESIAN_POINT('',(-12.53897132635,6.215890485919E-16,
    -8.232508613833));
#43 = CIRCLE('',#44,15.);
#44 = AXIS2_PLACEMENT_3D('',#45,#46,#47);
#45 = CARTESIAN_POINT('',(0.,0.,0.));
#46 = DIRECTION('',(-1.224646799147E-16,-1.,1.110223024625E-16));
#47 = DIRECTION('',(-1.,1.224646799147E-16,0.));
#48 = ORIENTED_EDGE('',*,*,#49,.T.);
#49 = EDGE_CURVE('',#41,#24,#50,.T.);
#50 = LINE('',#51,#52);
#51 = CARTESIAN_POINT('',(-12.53897132635,6.215890485919E-16,
    -8.232508613833));
#52 = VECTOR('',#53,1.);
#53 = DIRECTION('',(-1.224646799147E-16,-1.,1.110223024625E-16));
#54 = CYLINDRICAL_SURFACE('',#55,15.);
#55 = AXIS2_PLACEMENT_3D('',#56,#57,#58);
#56 = CARTESIAN_POINT('',(0.,0.,0.));
#57 = DIRECTION('',(-1.224646799147E-16,-1.,1.110223024625E-16));
#58 = DIRECTION('',(-1.,1.224646799147E-16,0.));
#59 = ADVANCED_FACE('',(#60,#223),#234,.T.);
#60 = FACE_BOUND('',#61,.T.);
#61 = EDGE_LOOP('',(#62,#71,#72,#81,#90,#99,#108,#117,#126,#135,#144,
    #153,#162,#171,#180,#189,#198,#207,#216));
#62 = ORIENTED_EDGE('',*,*,#63,.F.);
#63 = EDGE_CURVE('',#22,#64,#66,.T.);
#64 = VERTEX_POINT('',#65);
#65 = CARTESIAN_POINT('',(-14.68765432098,-7.,3.045128986952));
#66 = CIRCLE('',#67,3.4);
#67 = AXIS2_PLACEMENT_3D('',#68,#69,#70);
#68 = CARTESIAN_POINT('',(-16.2,-7.,7.771561172376E-16));
#69 = DIRECTION('',(-1.224646799147E-16,-1.,1.110223024625E-16));
#70 = DIRECTION('',(-1.,1.224646799147E-16,0.));
#71 = ORIENTED_EDGE('',*,*,#21,.T.);
#72 = ORIENTED_EDGE('',*,*,#73,.F.);
#73 = EDGE_CURVE('',#74,#24,#76,.T.);
#74 = VERTEX_POINT('',#75);
#75 = CARTESIAN_POINT('',(-8.232508613833,-7.,-12.53897132635));
#76 = CIRCLE('',#77,3.4);
#77 = AXIS2_PLACEMENT_3D('',#78,#79,#80);
#78 = CARTESIAN_POINT('',(-11.45512985522,-7.,-11.45512985522));
#79 = DIRECTION('',(-1.224646799147E-16,-1.,1.110223024625E-16));
#80 = DIRECTION('',(-1.,1.224646799147E-16,0.));
#81 = ORIENTED_EDGE('',*,*,#82,.T.);
#82 = EDGE_CURVE('',#74,#83,#85,.T.);
#83 = VERTEX_POINT('',#84);
#84 = CARTESIAN_POINT('',(-3.045128986952,-7.,-14.68765432098));
#85 = CIRCLE('',#86,15.);
#86 = AXIS2_PLACEMENT_3D('',#87,#88,#89);
#87 = CARTESIAN_POINT('',(-8.572527594031E-16,-7.,7.771561172376E-16));
#88 = DIRECTION('',(-1.224646799147E-16,-1.,1.110223024625E-16));
#89 = DIRECTION('',(-1.,1.224646799147E-16,0.));
#90 = ORIENTED_EDGE('',*,*,#91,.F.);
#91 = EDGE_CURVE('',#92,#83,#94,.T.);
#92 = VERTEX_POINT('',#93);
#93 = CARTESIAN_POINT('',(3.045128986952,-7.,-14.68765432098));
#94 = CIRCLE('',#95,3.4);
#95 = AXIS2_PLACEMENT_3D('',#96,#97,#98);
#96 = CARTESIAN_POINT('',(-1.849216666713E-15,-7.,-16.2));
#97 = DIRECTION('',(-1.224646799147E-16,-1.,1.110223024625E-16));
#98 = DIRECTION('',(-1.,1.224646799147E-16,0.));
#99 = ORIENTED_EDGE('',*,*,#100,.T.);
#100 = EDGE_CURVE('',#92,#101,#103,.T.);
#101 = VERTEX_POINT('',#102);
#102 = CARTESIAN_POINT('',(8.232508613833,-7.,-12.53897132635));
#103 = CIRCLE('',#104,15.);
#104 = AXIS2_PLACEMENT_3D('',#105,#106,#107);
#105 = CARTESIAN_POINT('',(-8.572527594031E-16,-7.,7.771561172376E-16));
#106 = DIRECTION('',(-1.224646799147E-16,-1.,1.110223024625E-16));
#107 = DIRECTION('',(-1.,1.224646799147E-16,0.));
#108 = ORIENTED_EDGE('',*,*,#109,.F.);
#109 = EDGE_CURVE('',#110,#101,#112,.T.);
#110 = VERTEX_POINT('',#111);
#111 = CARTESIAN_POINT('',(8.055129855222,-7.,-11.45512985522));
#112 = CIRCLE('',#113,3.4);
#113 = AXIS2_PLACEMENT_3D('',#114,#115,#116);
#114 = CARTESIAN_POINT('',(11.455129855222,-7.,-11.45512985522));
#115 = DIRECTION('',(-1.224646799147E-16,-1.,1.110223024625E-16));
#116 = DIRECTION('',(-1.,1.224646799147E-16,0.));
#117 = ORIENTED_EDGE('',*,*,#118,.F.);
#118 = EDGE_CURVE('',#119,#110,#121,.T.);
#119 = VERTEX_POINT('',#120);
#120 = CARTESIAN_POINT('',(12.538971326355,-7.,-8.232508613833));
#121 = CIRCLE('',#122,3.4);
#122 = AXIS2_PLACEMENT_3D('',#123,#124,#125);
#123 = CARTESIAN_POINT('',(11.455129855222,-7.,-11.45512985522));
#124 = DIRECTION('',(-1.224646799147E-16,-1.,1.110223024625E-16));
#125 = DIRECTION('',(-1.,1.224646799147E-16,0.));
#126 = ORIENTED_EDGE('',*,*,#127,.T.);
#127 = EDGE_CURVE('',#119,#128,#130,.T.);
#128 = VERTEX_POINT('',#129);
#129 = CARTESIAN_POINT('',(14.687654320988,-7.,-3.045128986952));
#130 = CIRCLE('',#131,15.);
#131 = AXIS2_PLACEMENT_3D('',#132,#133,#134);
#132 = CARTESIAN_POINT('',(-8.572527594031E-16,-7.,7.771561172376E-16));
#133 = DIRECTION('',(-1.224646799147E-16,-1.,1.110223024625E-16));
#134 = DIRECTION('',(-1.,1.224646799147E-16,0.));
#135 = ORIENTED_EDGE('',*,*,#136,.F.);
#136 = EDGE_CURVE('',#137,#128,#139,.T.);
#137 = VERTEX_POINT('',#138);
#138 = CARTESIAN_POINT('',(12.8,-7.,-3.740118739609E-16));
#139 = CIRCLE('',#140,3.4);
#140 = AXIS2_PLACEMENT_3D('',#141,#142,#143);
#141 = CARTESIAN_POINT('',(16.2,-7.,-1.206771697381E-15));
#142 = DIRECTION('',(-1.224646799147E-16,-1.,1.110223024625E-16));
#143 = DIRECTION('',(-1.,1.224646799147E-16,0.));
#144 = ORIENTED_EDGE('',*,*,#145,.F.);
#145 = EDGE_CURVE('',#146,#137,#148,.T.);
#146 = VERTEX_POINT('',#147);
#147 = CARTESIAN_POINT('',(14.687654320988,-7.,3.045128986952));
#148 = CIRCLE('',#149,3.4);
#149 = AXIS2_PLACEMENT_3D('',#150,#151,#152);
#150 = CARTESIAN_POINT('',(16.2,-7.,-1.206771697381E-15));
#151 = DIRECTION('',(-1.224646799147E-16,-1.,1.110223024625E-16));
#152 = DIRECTION('',(-1.,1.224646799147E-16,0.));
#153 = ORIENTED_EDGE('',*,*,#154,.T.);
#154 = EDGE_CURVE('',#146,#155,#157,.T.);
#155 = VERTEX_POINT('',#156);
#156 = CARTESIAN_POINT('',(12.538971326355,-7.,8.232508613833));
#157 = CIRCLE('',#158,15.);
#158 = AXIS2_PLACEMENT_3D('',#159,#160,#161);
#159 = CARTESIAN_POINT('',(-8.572527594031E-16,-7.,7.771561172376E-16));
#160 = DIRECTION('',(-1.224646799147E-16,-1.,1.110223024625E-16));
#161 = DIRECTION('',(-1.,1.224646799147E-16,0.));
#162 = ORIENTED_EDGE('',*,*,#163,.F.);
#163 = EDGE_CURVE('',#164,#155,#166,.T.);
#164 = VERTEX_POINT('',#165);
#165 = CARTESIAN_POINT('',(8.055129855222,-7.,11.455129855222));
#166 = CIRCLE('',#167,3.4);
#167 = AXIS2_PLACEMENT_3D('',#168,#169,#170);
#168 = CARTESIAN_POINT('',(11.455129855222,-7.,11.455129855222));
#169 = DIRECTION('',(-1.224646799147E-16,-1.,1.110223024625E-16));
#170 = DIRECTION('',(-1.,1.224646799147E-16,0.));
#171 = ORIENTED_EDGE('',*,*,#172,.F.);
#172 = EDGE_CURVE('',#173,#164,#175,.T.);
#173 = VERTEX_POINT('',#174);
#174 = CARTESIAN_POINT('',(8.232508613833,-7.,12.538971326355));
#175 = CIRCLE('',#176,3.4);
#176 = AXIS2_PLACEMENT_3D('',#177,#178,#179);
#177 = CARTESIAN_POINT('',(11.455129855222,-7.,11.455129855222));
#178 = DIRECTION('',(-1.224646799147E-16,-1.,1.110223024625E-16));
#179 = DIRECTION('',(-1.,1.224646799147E-16,0.));
#180 = ORIENTED_EDGE('',*,*,#181,.T.);
#181 = EDGE_CURVE('',#173,#182,#184,.T.);
#182 = VERTEX_POINT('',#183);
#183 = CARTESIAN_POINT('',(3.045128986952,-7.,14.687654320988));
#184 = CIRCLE('',#185,15.);
#185 = AXIS2_PLACEMENT_3D('',#186,#187,#188);
#186 = CARTESIAN_POINT('',(-8.572527594031E-16,-7.,7.771561172376E-16));
#187 = DIRECTION('',(-1.224646799147E-16,-1.,1.110223024625E-16));
#188 = DIRECTION('',(-1.,1.224646799147E-16,0.));
#189 = ORIENTED_EDGE('',*,*,#190,.F.);
#190 = EDGE_CURVE('',#191,#182,#193,.T.);
#191 = VERTEX_POINT('',#192);
#192 = CARTESIAN_POINT('',(-3.045128986952,-7.,14.687654320988));
#193 = CIRCLE('',#194,3.4);
#194 = AXIS2_PLACEMENT_3D('',#195,#196,#197);
#195 = CARTESIAN_POINT('',(2.118638962525E-15,-7.,16.2));
#196 = DIRECTION('',(-1.224646799147E-16,-1.,1.110223024625E-16));
#197 = DIRECTION('',(-1.,1.224646799147E-16,0.));
#198 = ORIENTED_EDGE('',*,*,#199,.T.);
#199 = EDGE_CURVE('',#191,#200,#202,.T.);
#200 = VERTEX_POINT('',#201);
#201 = CARTESIAN_POINT('',(-8.232508613833,-7.,12.538971326355));
#202 = CIRCLE('',#203,15.);
#203 = AXIS2_PLACEMENT_3D('',#204,#205,#206);
#204 = CARTESIAN_POINT('',(-8.572527594031E-16,-7.,7.771561172376E-16));
#205 = DIRECTION('',(-1.224646799147E-16,-1.,1.110223024625E-16));
#206 = DIRECTION('',(-1.,1.224646799147E-16,0.));
#207 = ORIENTED_EDGE('',*,*,#208,.F.);
#208 = EDGE_CURVE('',#209,#200,#211,.T.);
#209 = VERTEX_POINT('',#210);
#210 = CARTESIAN_POINT('',(-12.53897132635,-7.,8.232508613833));
#211 = CIRCLE('',#212,3.4);
#212 = AXIS2_PLACEMENT_3D('',#213,#214,#215);
#213 = CARTESIAN_POINT('',(-11.45512985522,-7.,11.455129855222));
#214 = DIRECTION('',(-1.224646799147E-16,-1.,1.110223024625E-16));
#215 = DIRECTION('',(-1.,1.224646799147E-16,0.));
#216 = ORIENTED_EDGE('',*,*,#217,.T.);
#217 = EDGE_CURVE('',#209,#64,#218,.T.);
#218 = CIRCLE('',#219,15.);
#219 = AXIS2_PLACEMENT_3D('',#220,#221,#222);
#220 = CARTESIAN_POINT('',(-8.572527594031E-16,-7.,7.771561172376E-16));
#221 = DIRECTION('',(-1.224646799147E-16,-1.,1.110223024625E-16));
#222 = DIRECTION('',(-1.,1.224646799147E-16,0.));
#223 = FACE_BOUND('',#224,.T.);
#224 = EDGE_LOOP('',(#225));
#225 = ORIENTED_EDGE('',*,*,#226,.F.);
#226 = EDGE_CURVE('',#227,#227,#229,.T.);
#227 = VERTEX_POINT('',#228);
#228 = CARTESIAN_POINT('',(1.959434878636E-16,-7.,4.3));
#229 = CIRCLE('',#230,4.3);
#230 = AXIS2_PLACEMENT_3D('',#231,#232,#233);
#231 = CARTESIAN_POINT('',(-8.572527594031E-16,-7.,0.));
#232 = DIRECTION('',(-1.224646799147E-16,-1.,0.));
#233 = DIRECTION('',(0.,0.,1.));
#234 = PLANE('',#235);
#235 = AXIS2_PLACEMENT_3D('',#236,#237,#238);
#236 = CARTESIAN_POINT('',(-8.572527594031E-16,-7.,7.771561172376E-16));
#237 = DIRECTION('',(-1.224646799147E-16,-1.,1.110223024625E-16));
#238 = DIRECTION('',(-1.,1.224646799147E-16,0.));
#239 = ADVANCED_FACE('',(#240),#259,.F.);
#240 = FACE_BOUND('',#241,.F.);
#241 = EDGE_LOOP('',(#242,#250,#257,#258));
#242 = ORIENTED_EDGE('',*,*,#243,.F.);
#243 = EDGE_CURVE('',#244,#74,#246,.T.);
#244 = VERTEX_POINT('',#245);
#245 = CARTESIAN_POINT('',(-8.232508613833,-3.839139348751E-16,
    -12.53897132635));
#246 = LINE('',#247,#248);
#247 = CARTESIAN_POINT('',(-8.232508613833,-3.839139348751E-16,
    -12.53897132635));
#248 = VECTOR('',#249,1.);
#249 = DIRECTION('',(-1.224646799147E-16,-1.,1.110223024625E-16));
#250 = ORIENTED_EDGE('',*,*,#251,.T.);
#251 = EDGE_CURVE('',#244,#41,#252,.T.);
#252 = CIRCLE('',#253,3.4);
#253 = AXIS2_PLACEMENT_3D('',#254,#255,#256);
#254 = CARTESIAN_POINT('',(-11.45512985522,1.310739195676E-16,
    -11.45512985522));
#255 = DIRECTION('',(-1.224646799147E-16,-1.,1.110223024625E-16));
#256 = DIRECTION('',(-1.,1.224646799147E-16,0.));
#257 = ORIENTED_EDGE('',*,*,#49,.T.);
#258 = ORIENTED_EDGE('',*,*,#73,.F.);
#259 = CYLINDRICAL_SURFACE('',#260,3.4);
#260 = AXIS2_PLACEMENT_3D('',#261,#262,#263);
#261 = CARTESIAN_POINT('',(-11.45512985522,0.2,-11.45512985522));
#262 = DIRECTION('',(-1.224646799147E-16,-1.,1.110223024625E-16));
#263 = DIRECTION('',(-1.,1.224646799147E-16,0.));
#264 = ADVANCED_FACE('',(#265,#420),#470,.F.);
#265 = FACE_BOUND('',#266,.F.);
#266 = EDGE_LOOP('',(#267,#276,#277,#278,#287,#296,#305,#314,#323,#332,
    #341,#350,#359,#368,#377,#386,#395,#404,#413));
#267 = ORIENTED_EDGE('',*,*,#268,.F.);
#268 = EDGE_CURVE('',#33,#269,#271,.T.);
#269 = VERTEX_POINT('',#270);
#270 = CARTESIAN_POINT('',(-14.68765432098,2.136796116545E-15,
    3.045128986952));
#271 = CIRCLE('',#272,3.4);
#272 = AXIS2_PLACEMENT_3D('',#273,#274,#275);
#273 = CARTESIAN_POINT('',(-16.2,1.983927814619E-15,0.));
#274 = DIRECTION('',(-1.224646799147E-16,-1.,1.110223024625E-16));
#275 = DIRECTION('',(-1.,1.224646799147E-16,0.));
#276 = ORIENTED_EDGE('',*,*,#40,.T.);
#277 = ORIENTED_EDGE('',*,*,#251,.F.);
#278 = ORIENTED_EDGE('',*,*,#279,.T.);
#279 = EDGE_CURVE('',#244,#280,#282,.T.);
#280 = VERTEX_POINT('',#281);
#281 = CARTESIAN_POINT('',(-3.045128986952,-1.257736453803E-15,
    -14.68765432098));
#282 = CIRCLE('',#283,15.);
#283 = AXIS2_PLACEMENT_3D('',#284,#285,#286);
#284 = CARTESIAN_POINT('',(0.,0.,0.));
#285 = DIRECTION('',(-1.224646799147E-16,-1.,1.110223024625E-16));
#286 = DIRECTION('',(-1.,1.224646799147E-16,0.));
#287 = ORIENTED_EDGE('',*,*,#288,.F.);
#288 = EDGE_CURVE('',#289,#280,#291,.T.);
#289 = VERTEX_POINT('',#290);
#290 = CARTESIAN_POINT('',(3.045128986952,-2.003577947176E-15,
    -14.68765432098));
#291 = CIRCLE('',#292,3.4);
#292 = AXIS2_PLACEMENT_3D('',#293,#294,#295);
#293 = CARTESIAN_POINT('',(-9.919639073094E-16,-1.798561299893E-15,-16.2
    ));
#294 = DIRECTION('',(-1.224646799147E-16,-1.,1.110223024625E-16));
#295 = DIRECTION('',(-1.,1.224646799147E-16,0.));
#296 = ORIENTED_EDGE('',*,*,#297,.T.);
#297 = EDGE_CURVE('',#289,#298,#300,.T.);
#298 = VERTEX_POINT('',#299);
#299 = CARTESIAN_POINT('',(8.232508613833,-2.400296999452E-15,
    -12.53897132635));
#300 = CIRCLE('',#301,15.);
#301 = AXIS2_PLACEMENT_3D('',#302,#303,#304);
#302 = CARTESIAN_POINT('',(0.,0.,0.));
#303 = DIRECTION('',(-1.224646799147E-16,-1.,1.110223024625E-16));
#304 = DIRECTION('',(-1.,1.224646799147E-16,0.));
#305 = ORIENTED_EDGE('',*,*,#306,.F.);
#306 = EDGE_CURVE('',#307,#298,#309,.T.);
#307 = VERTEX_POINT('',#308);
#308 = CARTESIAN_POINT('',(8.055129855222,-2.258243790925E-15,
    -11.45512985522));
#309 = CIRCLE('',#310,3.4);
#310 = AXIS2_PLACEMENT_3D('',#311,#312,#313);
#311 = CARTESIAN_POINT('',(11.455129855222,-2.674623702635E-15,
    -11.45512985522));
#312 = DIRECTION('',(-1.224646799147E-16,-1.,1.110223024625E-16));
#313 = DIRECTION('',(-1.,1.224646799147E-16,0.));
#314 = ORIENTED_EDGE('',*,*,#315,.F.);
#315 = EDGE_CURVE('',#316,#307,#318,.T.);
#316 = VERTEX_POINT('',#317);
#317 = CARTESIAN_POINT('',(12.538971326355,-2.449573171292E-15,
    -8.232508613833));
#318 = CIRCLE('',#319,3.4);
#319 = AXIS2_PLACEMENT_3D('',#320,#321,#322);
#320 = CARTESIAN_POINT('',(11.455129855222,-2.674623702635E-15,
    -11.45512985522));
#321 = DIRECTION('',(-1.224646799147E-16,-1.,1.110223024625E-16));
#322 = DIRECTION('',(-1.,1.224646799147E-16,0.));
#323 = ORIENTED_EDGE('',*,*,#324,.T.);
#324 = EDGE_CURVE('',#316,#325,#327,.T.);
#325 = VERTEX_POINT('',#326);
#326 = CARTESIAN_POINT('',(14.687654320988,-2.136796116545E-15,
    -3.045128986952));
#327 = CIRCLE('',#328,15.);
#328 = AXIS2_PLACEMENT_3D('',#329,#330,#331);
#329 = CARTESIAN_POINT('',(0.,0.,0.));
#330 = DIRECTION('',(-1.224646799147E-16,-1.,1.110223024625E-16));
#331 = DIRECTION('',(-1.,1.224646799147E-16,0.));
#332 = ORIENTED_EDGE('',*,*,#333,.F.);
#333 = EDGE_CURVE('',#334,#325,#336,.T.);
#334 = VERTEX_POINT('',#335);
#335 = CARTESIAN_POINT('',(12.8,-1.567547902909E-15,-1.151167991199E-15)
  );
#336 = CIRCLE('',#337,3.4);
#337 = AXIS2_PLACEMENT_3D('',#338,#339,#340);
#338 = CARTESIAN_POINT('',(16.2,-1.983927814619E-15,-1.983927814619E-15)
  );
#339 = DIRECTION('',(-1.224646799147E-16,-1.,1.110223024625E-16));
#340 = DIRECTION('',(-1.,1.224646799147E-16,0.));
#341 = ORIENTED_EDGE('',*,*,#342,.F.);
#342 = EDGE_CURVE('',#343,#334,#345,.T.);
#343 = VERTEX_POINT('',#344);
#344 = CARTESIAN_POINT('',(14.687654320988,-1.460641653691E-15,
    3.045128986952));
#345 = CIRCLE('',#346,3.4);
#346 = AXIS2_PLACEMENT_3D('',#347,#348,#349);
#347 = CARTESIAN_POINT('',(16.2,-1.983927814619E-15,-1.983927814619E-15)
  );
#348 = DIRECTION('',(-1.224646799147E-16,-1.,1.110223024625E-16));
#349 = DIRECTION('',(-1.,1.224646799147E-16,0.));
#350 = ORIENTED_EDGE('',*,*,#351,.T.);
#351 = EDGE_CURVE('',#343,#352,#354,.T.);
#352 = VERTEX_POINT('',#353);
#353 = CARTESIAN_POINT('',(12.538971326355,-6.215890485919E-16,
    8.232508613833));
#354 = CIRCLE('',#355,15.);
#355 = AXIS2_PLACEMENT_3D('',#356,#357,#358);
#356 = CARTESIAN_POINT('',(0.,0.,0.));
#357 = DIRECTION('',(-1.224646799147E-16,-1.,1.110223024625E-16));
#358 = DIRECTION('',(-1.,1.224646799147E-16,0.));
#359 = ORIENTED_EDGE('',*,*,#360,.F.);
#360 = EDGE_CURVE('',#361,#352,#363,.T.);
#361 = VERTEX_POINT('',#362);
#362 = CARTESIAN_POINT('',(8.055129855222,2.853059921425E-16,
    11.455129855222));
#363 = CIRCLE('',#364,3.4);
#364 = AXIS2_PLACEMENT_3D('',#365,#366,#367);
#365 = CARTESIAN_POINT('',(11.455129855222,-1.310739195676E-16,
    11.455129855222));
#366 = DIRECTION('',(-1.224646799147E-16,-1.,1.110223024625E-16));
#367 = DIRECTION('',(-1.,1.224646799147E-16,0.));
#368 = ORIENTED_EDGE('',*,*,#369,.F.);
#369 = EDGE_CURVE('',#370,#361,#372,.T.);
#370 = VERTEX_POINT('',#371);
#371 = CARTESIAN_POINT('',(8.232508613833,3.839139348751E-16,
    12.538971326355));
#372 = CIRCLE('',#373,3.4);
#373 = AXIS2_PLACEMENT_3D('',#374,#375,#376);
#374 = CARTESIAN_POINT('',(11.455129855222,-1.310739195676E-16,
    11.455129855222));
#375 = DIRECTION('',(-1.224646799147E-16,-1.,1.110223024625E-16));
#376 = DIRECTION('',(-1.,1.224646799147E-16,0.));
#377 = ORIENTED_EDGE('',*,*,#378,.T.);
#378 = EDGE_CURVE('',#370,#379,#381,.T.);
#379 = VERTEX_POINT('',#380);
#380 = CARTESIAN_POINT('',(3.045128986952,1.257736453803E-15,
    14.687654320988));
#381 = CIRCLE('',#382,15.);
#382 = AXIS2_PLACEMENT_3D('',#383,#384,#385);
#383 = CARTESIAN_POINT('',(0.,0.,0.));
#384 = DIRECTION('',(-1.224646799147E-16,-1.,1.110223024625E-16));
#385 = DIRECTION('',(-1.,1.224646799147E-16,0.));
#386 = ORIENTED_EDGE('',*,*,#387,.F.);
#387 = EDGE_CURVE('',#388,#379,#390,.T.);
#388 = VERTEX_POINT('',#389);
#389 = CARTESIAN_POINT('',(-3.045128986952,2.003577947176E-15,
    14.687654320988));
#390 = CIRCLE('',#391,3.4);
#391 = AXIS2_PLACEMENT_3D('',#392,#393,#394);
#392 = CARTESIAN_POINT('',(2.975891721928E-15,1.798561299893E-15,16.2));
#393 = DIRECTION('',(-1.224646799147E-16,-1.,1.110223024625E-16));
#394 = DIRECTION('',(-1.,1.224646799147E-16,0.));
#395 = ORIENTED_EDGE('',*,*,#396,.T.);
#396 = EDGE_CURVE('',#388,#397,#399,.T.);
#397 = VERTEX_POINT('',#398);
#398 = CARTESIAN_POINT('',(-8.232508613833,2.400296999452E-15,
    12.538971326355));
#399 = CIRCLE('',#400,15.);
#400 = AXIS2_PLACEMENT_3D('',#401,#402,#403);
#401 = CARTESIAN_POINT('',(0.,0.,0.));
#402 = DIRECTION('',(-1.224646799147E-16,-1.,1.110223024625E-16));
#403 = DIRECTION('',(-1.,1.224646799147E-16,0.));
#404 = ORIENTED_EDGE('',*,*,#405,.F.);
#405 = EDGE_CURVE('',#406,#397,#408,.T.);
#406 = VERTEX_POINT('',#407);
#407 = CARTESIAN_POINT('',(-12.53897132635,2.449573171292E-15,
    8.232508613833));
#408 = CIRCLE('',#409,3.4);
#409 = AXIS2_PLACEMENT_3D('',#410,#411,#412);
#410 = CARTESIAN_POINT('',(-11.45512985522,2.674623702635E-15,
    11.455129855222));
#411 = DIRECTION('',(-1.224646799147E-16,-1.,1.110223024625E-16));
#412 = DIRECTION('',(-1.,1.224646799147E-16,0.));
#413 = ORIENTED_EDGE('',*,*,#414,.T.);
#414 = EDGE_CURVE('',#406,#269,#415,.T.);
#415 = CIRCLE('',#416,15.);
#416 = AXIS2_PLACEMENT_3D('',#417,#418,#419);
#417 = CARTESIAN_POINT('',(0.,0.,0.));
#418 = DIRECTION('',(-1.224646799147E-16,-1.,1.110223024625E-16));
#419 = DIRECTION('',(-1.,1.224646799147E-16,0.));
#420 = FACE_BOUND('',#421,.F.);
#421 = EDGE_LOOP('',(#422,#432,#440,#448,#456,#464));
#422 = ORIENTED_EDGE('',*,*,#423,.F.);
#423 = EDGE_CURVE('',#424,#426,#428,.T.);
#424 = VERTEX_POINT('',#425);
#425 = CARTESIAN_POINT('',(-5.175,3.020436551576E-16,-2.987787643056));
#426 = VERTEX_POINT('',#427);
#427 = CARTESIAN_POINT('',(-3.658984573601E-16,-6.634221268023E-16,
    -5.975575286113));
#428 = LINE('',#429,#430);
#429 = CARTESIAN_POINT('',(-5.175,3.020436551576E-16,-2.987787643056));
#430 = VECTOR('',#431,1.);
#431 = DIRECTION('',(0.866025403784,-1.615686751037E-16,-0.5));
#432 = ORIENTED_EDGE('',*,*,#433,.F.);
#433 = EDGE_CURVE('',#434,#424,#436,.T.);
#434 = VERTEX_POINT('',#435);
#435 = CARTESIAN_POINT('',(-5.175,9.654657819599E-16,2.987787643056));
#436 = LINE('',#437,#438);
#437 = CARTESIAN_POINT('',(-5.175,9.654657819599E-16,2.987787643056));
#438 = VECTOR('',#439,1.);
#439 = DIRECTION('',(-2.972695940303E-16,-1.110223024625E-16,-1.));
#440 = ORIENTED_EDGE('',*,*,#441,.F.);
#441 = EDGE_CURVE('',#442,#434,#444,.T.);
#442 = VERTEX_POINT('',#443);
#443 = CARTESIAN_POINT('',(1.09769537208E-15,6.634221268023E-16,
    5.975575286113));
#444 = LINE('',#445,#446);
#445 = CARTESIAN_POINT('',(1.09769537208E-15,6.634221268023E-16,
    5.975575286113));
#446 = VECTOR('',#447,1.);
#447 = DIRECTION('',(-0.866025403784,5.054637264123E-17,-0.5));
#448 = ORIENTED_EDGE('',*,*,#449,.F.);
#449 = EDGE_CURVE('',#450,#442,#452,.T.);
#450 = VERTEX_POINT('',#451);
#451 = CARTESIAN_POINT('',(5.175,-3.020436551576E-16,2.987787643056));
#452 = LINE('',#453,#454);
#453 = CARTESIAN_POINT('',(5.175,-3.020436551576E-16,2.987787643056));
#454 = VECTOR('',#455,1.);
#455 = DIRECTION('',(-0.866025403784,1.615686751037E-16,0.5));
#456 = ORIENTED_EDGE('',*,*,#457,.F.);
#457 = EDGE_CURVE('',#458,#450,#460,.T.);
#458 = VERTEX_POINT('',#459);
#459 = CARTESIAN_POINT('',(5.175,-9.654657819599E-16,-2.987787643056));
#460 = LINE('',#461,#462);
#461 = CARTESIAN_POINT('',(5.175,-9.654657819599E-16,-2.987787643056));
#462 = VECTOR('',#463,1.);
#463 = DIRECTION('',(-1.486347970152E-16,1.110223024625E-16,1.));
#464 = ORIENTED_EDGE('',*,*,#465,.F.);
#465 = EDGE_CURVE('',#426,#458,#466,.T.);
#466 = LINE('',#467,#468);
#467 = CARTESIAN_POINT('',(-3.658984573601E-16,-6.634221268023E-16,
    -5.975575286113));
#468 = VECTOR('',#469,1.);
#469 = DIRECTION('',(0.866025403784,-5.054637264123E-17,0.5));
#470 = PLANE('',#471);
#471 = AXIS2_PLACEMENT_3D('',#472,#473,#474);
#472 = CARTESIAN_POINT('',(0.,0.,0.));
#473 = DIRECTION('',(-1.224646799147E-16,-1.,1.110223024625E-16));
#474 = DIRECTION('',(-1.,1.224646799147E-16,0.));
#475 = ADVANCED_FACE('',(#476),#487,.F.);
#476 = FACE_BOUND('',#477,.F.);
#477 = EDGE_LOOP('',(#478,#479,#480,#486));
#478 = ORIENTED_EDGE('',*,*,#32,.F.);
#479 = ORIENTED_EDGE('',*,*,#268,.T.);
#480 = ORIENTED_EDGE('',*,*,#481,.T.);
#481 = EDGE_CURVE('',#269,#64,#482,.T.);
#482 = LINE('',#483,#484);
#483 = CARTESIAN_POINT('',(-14.68765432098,2.136796116545E-15,
    3.045128986952));
#484 = VECTOR('',#485,1.);
#485 = DIRECTION('',(-1.224646799147E-16,-1.,1.110223024625E-16));
#486 = ORIENTED_EDGE('',*,*,#63,.F.);
#487 = CYLINDRICAL_SURFACE('',#488,3.4);
#488 = AXIS2_PLACEMENT_3D('',#489,#490,#491);
#489 = CARTESIAN_POINT('',(-16.2,0.2,-2.22044604925E-17));
#490 = DIRECTION('',(-1.224646799147E-16,-1.,1.110223024625E-16));
#491 = DIRECTION('',(-1.,1.224646799147E-16,0.));
#492 = ADVANCED_FACE('',(#493),#504,.T.);
#493 = FACE_BOUND('',#494,.T.);
#494 = EDGE_LOOP('',(#495,#496,#502,#503));
#495 = ORIENTED_EDGE('',*,*,#217,.F.);
#496 = ORIENTED_EDGE('',*,*,#497,.F.);
#497 = EDGE_CURVE('',#406,#209,#498,.T.);
#498 = LINE('',#499,#500);
#499 = CARTESIAN_POINT('',(-12.53897132635,2.449573171292E-15,
    8.232508613833));
#500 = VECTOR('',#501,1.);
#501 = DIRECTION('',(-1.224646799147E-16,-1.,1.110223024625E-16));
#502 = ORIENTED_EDGE('',*,*,#414,.T.);
#503 = ORIENTED_EDGE('',*,*,#481,.T.);
#504 = CYLINDRICAL_SURFACE('',#505,15.);
#505 = AXIS2_PLACEMENT_3D('',#506,#507,#508);
#506 = CARTESIAN_POINT('',(0.,0.,0.));
#507 = DIRECTION('',(-1.224646799147E-16,-1.,1.110223024625E-16));
#508 = DIRECTION('',(-1.,1.224646799147E-16,0.));
#509 = ADVANCED_FACE('',(#510),#521,.F.);
#510 = FACE_BOUND('',#511,.F.);
#511 = EDGE_LOOP('',(#512,#513,#514,#515));
#512 = ORIENTED_EDGE('',*,*,#208,.F.);
#513 = ORIENTED_EDGE('',*,*,#497,.F.);
#514 = ORIENTED_EDGE('',*,*,#405,.T.);
#515 = ORIENTED_EDGE('',*,*,#516,.T.);
#516 = EDGE_CURVE('',#397,#200,#517,.T.);
#517 = LINE('',#518,#519);
#518 = CARTESIAN_POINT('',(-8.232508613833,2.400296999452E-15,
    12.538971326355));
#519 = VECTOR('',#520,1.);
#520 = DIRECTION('',(-1.224646799147E-16,-1.,1.110223024625E-16));
#521 = CYLINDRICAL_SURFACE('',#522,3.4);
#522 = AXIS2_PLACEMENT_3D('',#523,#524,#525);
#523 = CARTESIAN_POINT('',(-11.45512985522,0.2,11.455129855222));
#524 = DIRECTION('',(-1.224646799147E-16,-1.,1.110223024625E-16));
#525 = DIRECTION('',(-1.,1.224646799147E-16,0.));
#526 = ADVANCED_FACE('',(#527),#538,.T.);
#527 = FACE_BOUND('',#528,.T.);
#528 = EDGE_LOOP('',(#529,#530,#531,#532));
#529 = ORIENTED_EDGE('',*,*,#82,.F.);
#530 = ORIENTED_EDGE('',*,*,#243,.F.);
#531 = ORIENTED_EDGE('',*,*,#279,.T.);
#532 = ORIENTED_EDGE('',*,*,#533,.T.);
#533 = EDGE_CURVE('',#280,#83,#534,.T.);
#534 = LINE('',#535,#536);
#535 = CARTESIAN_POINT('',(-3.045128986952,-1.257736453803E-15,
    -14.68765432098));
#536 = VECTOR('',#537,1.);
#537 = DIRECTION('',(-1.224646799147E-16,-1.,1.110223024625E-16));
#538 = CYLINDRICAL_SURFACE('',#539,15.);
#539 = AXIS2_PLACEMENT_3D('',#540,#541,#542);
#540 = CARTESIAN_POINT('',(0.,0.,0.));
#541 = DIRECTION('',(-1.224646799147E-16,-1.,1.110223024625E-16));
#542 = DIRECTION('',(-1.,1.224646799147E-16,0.));
#543 = ADVANCED_FACE('',(#544),#555,.T.);
#544 = FACE_BOUND('',#545,.T.);
#545 = EDGE_LOOP('',(#546,#547,#553,#554));
#546 = ORIENTED_EDGE('',*,*,#199,.F.);
#547 = ORIENTED_EDGE('',*,*,#548,.F.);
#548 = EDGE_CURVE('',#388,#191,#549,.T.);
#549 = LINE('',#550,#551);
#550 = CARTESIAN_POINT('',(-3.045128986952,2.003577947176E-15,
    14.687654320988));
#551 = VECTOR('',#552,1.);
#552 = DIRECTION('',(-1.224646799147E-16,-1.,1.110223024625E-16));
#553 = ORIENTED_EDGE('',*,*,#396,.T.);
#554 = ORIENTED_EDGE('',*,*,#516,.T.);
#555 = CYLINDRICAL_SURFACE('',#556,15.);
#556 = AXIS2_PLACEMENT_3D('',#557,#558,#559);
#557 = CARTESIAN_POINT('',(0.,0.,0.));
#558 = DIRECTION('',(-1.224646799147E-16,-1.,1.110223024625E-16));
#559 = DIRECTION('',(-1.,1.224646799147E-16,0.));
#560 = ADVANCED_FACE('',(#561),#572,.F.);
#561 = FACE_BOUND('',#562,.F.);
#562 = EDGE_LOOP('',(#563,#564,#570,#571));
#563 = ORIENTED_EDGE('',*,*,#91,.F.);
#564 = ORIENTED_EDGE('',*,*,#565,.F.);
#565 = EDGE_CURVE('',#289,#92,#566,.T.);
#566 = LINE('',#567,#568);
#567 = CARTESIAN_POINT('',(3.045128986952,-2.003577947176E-15,
    -14.68765432098));
#568 = VECTOR('',#569,1.);
#569 = DIRECTION('',(-1.224646799147E-16,-1.,1.110223024625E-16));
#570 = ORIENTED_EDGE('',*,*,#288,.T.);
#571 = ORIENTED_EDGE('',*,*,#533,.T.);
#572 = CYLINDRICAL_SURFACE('',#573,3.4);
#573 = AXIS2_PLACEMENT_3D('',#574,#575,#576);
#574 = CARTESIAN_POINT('',(-9.674709713264E-16,0.2,-16.2));
#575 = DIRECTION('',(-1.224646799147E-16,-1.,1.110223024625E-16));
#576 = DIRECTION('',(-1.,1.224646799147E-16,0.));
#577 = ADVANCED_FACE('',(#578),#589,.F.);
#578 = FACE_BOUND('',#579,.F.);
#579 = EDGE_LOOP('',(#580,#581,#582,#583));
#580 = ORIENTED_EDGE('',*,*,#190,.F.);
#581 = ORIENTED_EDGE('',*,*,#548,.F.);
#582 = ORIENTED_EDGE('',*,*,#387,.T.);
#583 = ORIENTED_EDGE('',*,*,#584,.T.);
#584 = EDGE_CURVE('',#379,#182,#585,.T.);
#585 = LINE('',#586,#587);
#586 = CARTESIAN_POINT('',(3.045128986952,1.257736453803E-15,
    14.687654320988));
#587 = VECTOR('',#588,1.);
#588 = DIRECTION('',(-1.224646799147E-16,-1.,1.110223024625E-16));
#589 = CYLINDRICAL_SURFACE('',#590,3.4);
#590 = AXIS2_PLACEMENT_3D('',#591,#592,#593);
#591 = CARTESIAN_POINT('',(3.000384657911E-15,0.2,16.2));
#592 = DIRECTION('',(-1.224646799147E-16,-1.,1.110223024625E-16));
#593 = DIRECTION('',(-1.,1.224646799147E-16,0.));
#594 = ADVANCED_FACE('',(#595),#606,.T.);
#595 = FACE_BOUND('',#596,.T.);
#596 = EDGE_LOOP('',(#597,#598,#599,#600));
#597 = ORIENTED_EDGE('',*,*,#100,.F.);
#598 = ORIENTED_EDGE('',*,*,#565,.F.);
#599 = ORIENTED_EDGE('',*,*,#297,.T.);
#600 = ORIENTED_EDGE('',*,*,#601,.T.);
#601 = EDGE_CURVE('',#298,#101,#602,.T.);
#602 = LINE('',#603,#604);
#603 = CARTESIAN_POINT('',(8.232508613833,-2.400296999452E-15,
    -12.53897132635));
#604 = VECTOR('',#605,1.);
#605 = DIRECTION('',(-1.224646799147E-16,-1.,1.110223024625E-16));
#606 = CYLINDRICAL_SURFACE('',#607,15.);
#607 = AXIS2_PLACEMENT_3D('',#608,#609,#610);
#608 = CARTESIAN_POINT('',(0.,0.,0.));
#609 = DIRECTION('',(-1.224646799147E-16,-1.,1.110223024625E-16));
#610 = DIRECTION('',(-1.,1.224646799147E-16,0.));
#611 = ADVANCED_FACE('',(#612),#623,.T.);
#612 = FACE_BOUND('',#613,.T.);
#613 = EDGE_LOOP('',(#614,#615,#621,#622));
#614 = ORIENTED_EDGE('',*,*,#181,.F.);
#615 = ORIENTED_EDGE('',*,*,#616,.F.);
#616 = EDGE_CURVE('',#370,#173,#617,.T.);
#617 = LINE('',#618,#619);
#618 = CARTESIAN_POINT('',(8.232508613833,3.839139348751E-16,
    12.538971326355));
#619 = VECTOR('',#620,1.);
#620 = DIRECTION('',(-1.224646799147E-16,-1.,1.110223024625E-16));
#621 = ORIENTED_EDGE('',*,*,#378,.T.);
#622 = ORIENTED_EDGE('',*,*,#584,.T.);
#623 = CYLINDRICAL_SURFACE('',#624,15.);
#624 = AXIS2_PLACEMENT_3D('',#625,#626,#627);
#625 = CARTESIAN_POINT('',(0.,0.,0.));
#626 = DIRECTION('',(-1.224646799147E-16,-1.,1.110223024625E-16));
#627 = DIRECTION('',(-1.,1.224646799147E-16,0.));
#628 = ADVANCED_FACE('',(#629),#642,.F.);
#629 = FACE_BOUND('',#630,.F.);
#630 = EDGE_LOOP('',(#631,#632,#633,#634,#640,#641));
#631 = ORIENTED_EDGE('',*,*,#601,.T.);
#632 = ORIENTED_EDGE('',*,*,#109,.F.);
#633 = ORIENTED_EDGE('',*,*,#118,.F.);
#634 = ORIENTED_EDGE('',*,*,#635,.F.);
#635 = EDGE_CURVE('',#316,#119,#636,.T.);
#636 = LINE('',#637,#638);
#637 = CARTESIAN_POINT('',(12.538971326355,-2.449573171292E-15,
    -8.232508613833));
#638 = VECTOR('',#639,1.);
#639 = DIRECTION('',(-1.224646799147E-16,-1.,1.110223024625E-16));
#640 = ORIENTED_EDGE('',*,*,#315,.T.);
#641 = ORIENTED_EDGE('',*,*,#306,.T.);
#642 = CYLINDRICAL_SURFACE('',#643,3.4);
#643 = AXIS2_PLACEMENT_3D('',#644,#645,#646);
#644 = CARTESIAN_POINT('',(11.455129855222,0.2,-11.45512985522));
#645 = DIRECTION('',(-1.224646799147E-16,-1.,1.110223024625E-16));
#646 = DIRECTION('',(-1.,1.224646799147E-16,0.));
#647 = ADVANCED_FACE('',(#648),#661,.F.);
#648 = FACE_BOUND('',#649,.F.);
#649 = EDGE_LOOP('',(#650,#656,#657,#658,#659,#660));
#650 = ORIENTED_EDGE('',*,*,#651,.T.);
#651 = EDGE_CURVE('',#352,#155,#652,.T.);
#652 = LINE('',#653,#654);
#653 = CARTESIAN_POINT('',(12.538971326355,-6.215890485919E-16,
    8.232508613833));
#654 = VECTOR('',#655,1.);
#655 = DIRECTION('',(-1.224646799147E-16,-1.,1.110223024625E-16));
#656 = ORIENTED_EDGE('',*,*,#163,.F.);
#657 = ORIENTED_EDGE('',*,*,#172,.F.);
#658 = ORIENTED_EDGE('',*,*,#616,.F.);
#659 = ORIENTED_EDGE('',*,*,#369,.T.);
#660 = ORIENTED_EDGE('',*,*,#360,.T.);
#661 = CYLINDRICAL_SURFACE('',#662,3.4);
#662 = AXIS2_PLACEMENT_3D('',#663,#664,#665);
#663 = CARTESIAN_POINT('',(11.455129855222,0.2,11.455129855222));
#664 = DIRECTION('',(-1.224646799147E-16,-1.,1.110223024625E-16));
#665 = DIRECTION('',(-1.,1.224646799147E-16,0.));
#666 = ADVANCED_FACE('',(#667),#678,.T.);
#667 = FACE_BOUND('',#668,.T.);
#668 = EDGE_LOOP('',(#669,#670,#671,#672));
#669 = ORIENTED_EDGE('',*,*,#127,.F.);
#670 = ORIENTED_EDGE('',*,*,#635,.F.);
#671 = ORIENTED_EDGE('',*,*,#324,.T.);
#672 = ORIENTED_EDGE('',*,*,#673,.T.);
#673 = EDGE_CURVE('',#325,#128,#674,.T.);
#674 = LINE('',#675,#676);
#675 = CARTESIAN_POINT('',(14.687654320988,-2.136796116545E-15,
    -3.045128986952));
#676 = VECTOR('',#677,1.);
#677 = DIRECTION('',(-1.224646799147E-16,-1.,1.110223024625E-16));
#678 = CYLINDRICAL_SURFACE('',#679,15.);
#679 = AXIS2_PLACEMENT_3D('',#680,#681,#682);
#680 = CARTESIAN_POINT('',(0.,0.,0.));
#681 = DIRECTION('',(-1.224646799147E-16,-1.,1.110223024625E-16));
#682 = DIRECTION('',(-1.,1.224646799147E-16,0.));
#683 = ADVANCED_FACE('',(#684),#695,.T.);
#684 = FACE_BOUND('',#685,.T.);
#685 = EDGE_LOOP('',(#686,#687,#693,#694));
#686 = ORIENTED_EDGE('',*,*,#154,.F.);
#687 = ORIENTED_EDGE('',*,*,#688,.F.);
#688 = EDGE_CURVE('',#343,#146,#689,.T.);
#689 = LINE('',#690,#691);
#690 = CARTESIAN_POINT('',(14.687654320988,-1.460641653691E-15,
    3.045128986952));
#691 = VECTOR('',#692,1.);
#692 = DIRECTION('',(-1.224646799147E-16,-1.,1.110223024625E-16));
#693 = ORIENTED_EDGE('',*,*,#351,.T.);
#694 = ORIENTED_EDGE('',*,*,#651,.T.);
#695 = CYLINDRICAL_SURFACE('',#696,15.);
#696 = AXIS2_PLACEMENT_3D('',#697,#698,#699);
#697 = CARTESIAN_POINT('',(0.,0.,0.));
#698 = DIRECTION('',(-1.224646799147E-16,-1.,1.110223024625E-16));
#699 = DIRECTION('',(-1.,1.224646799147E-16,0.));
#700 = ADVANCED_FACE('',(#701),#709,.F.);
#701 = FACE_BOUND('',#702,.F.);
#702 = EDGE_LOOP('',(#703,#704,#705,#706,#707,#708));
#703 = ORIENTED_EDGE('',*,*,#673,.T.);
#704 = ORIENTED_EDGE('',*,*,#136,.F.);
#705 = ORIENTED_EDGE('',*,*,#145,.F.);
#706 = ORIENTED_EDGE('',*,*,#688,.F.);
#707 = ORIENTED_EDGE('',*,*,#342,.T.);
#708 = ORIENTED_EDGE('',*,*,#333,.T.);
#709 = CYLINDRICAL_SURFACE('',#710,3.4);
#710 = AXIS2_PLACEMENT_3D('',#711,#712,#713);
#711 = CARTESIAN_POINT('',(16.2,0.2,-2.006132275111E-15));
#712 = DIRECTION('',(-1.224646799147E-16,-1.,1.110223024625E-16));
#713 = DIRECTION('',(-1.,1.224646799147E-16,0.));
#714 = ADVANCED_FACE('',(#715),#734,.F.);
#715 = FACE_BOUND('',#716,.F.);
#716 = EDGE_LOOP('',(#717,#725,#726,#727));
#717 = ORIENTED_EDGE('',*,*,#718,.T.);
#718 = EDGE_CURVE('',#719,#227,#721,.T.);
#719 = VERTEX_POINT('',#720);
#720 = CARTESIAN_POINT('',(4.163799117101E-16,-5.2,4.3));
#721 = LINE('',#722,#723);
#722 = CARTESIAN_POINT('',(1.07768918325E-15,0.2,4.3));
#723 = VECTOR('',#724,1.);
#724 = DIRECTION('',(-1.224646799147E-16,-1.,0.));
#725 = ORIENTED_EDGE('',*,*,#226,.F.);
#726 = ORIENTED_EDGE('',*,*,#718,.F.);
#727 = ORIENTED_EDGE('',*,*,#728,.T.);
#728 = EDGE_CURVE('',#719,#719,#729,.T.);
#729 = CIRCLE('',#730,4.3);
#730 = AXIS2_PLACEMENT_3D('',#731,#732,#733);
#731 = CARTESIAN_POINT('',(-6.368163355566E-16,-5.2,0.));
#732 = DIRECTION('',(-1.224646799147E-16,-1.,0.));
#733 = DIRECTION('',(0.,0.,1.));
#734 = CYLINDRICAL_SURFACE('',#735,4.3);
#735 = AXIS2_PLACEMENT_3D('',#736,#737,#738);
#736 = CARTESIAN_POINT('',(2.449293598295E-17,0.2,0.));
#737 = DIRECTION('',(-1.224646799147E-16,-1.,0.));
#738 = DIRECTION('',(0.,0.,1.));
#739 = ADVANCED_FACE('',(#740),#765,.T.);
#740 = FACE_BOUND('',#741,.T.);
#741 = EDGE_LOOP('',(#742,#750,#758,#764));
#742 = ORIENTED_EDGE('',*,*,#743,.T.);
#743 = EDGE_CURVE('',#424,#744,#746,.T.);
#744 = VERTEX_POINT('',#745);
#745 = CARTESIAN_POINT('',(-5.175,-5.2,-2.987787643056));
#746 = LINE('',#747,#748);
#747 = CARTESIAN_POINT('',(-5.175,3.020436551576E-16,-2.987787643056));
#748 = VECTOR('',#749,1.);
#749 = DIRECTION('',(-1.224646799147E-16,-1.,1.110223024625E-16));
#750 = ORIENTED_EDGE('',*,*,#751,.T.);
#751 = EDGE_CURVE('',#744,#752,#754,.T.);
#752 = VERTEX_POINT('',#753);
#753 = CARTESIAN_POINT('',(-1.002714792917E-15,-5.2,-5.975575286113));
#754 = LINE('',#755,#756);
#755 = CARTESIAN_POINT('',(-5.175,-5.2,-2.987787643056));
#756 = VECTOR('',#757,1.);
#757 = DIRECTION('',(0.866025403784,-1.615686751037E-16,-0.5));
#758 = ORIENTED_EDGE('',*,*,#759,.F.);
#759 = EDGE_CURVE('',#426,#752,#760,.T.);
#760 = LINE('',#761,#762);
#761 = CARTESIAN_POINT('',(-3.658984573601E-16,-6.634221268023E-16,
    -5.975575286113));
#762 = VECTOR('',#763,1.);
#763 = DIRECTION('',(-1.224646799147E-16,-1.,1.110223024625E-16));
#764 = ORIENTED_EDGE('',*,*,#423,.F.);
#765 = PLANE('',#766);
#766 = AXIS2_PLACEMENT_3D('',#767,#768,#769);
#767 = CARTESIAN_POINT('',(-5.175,3.020436551576E-16,-2.987787643056));
#768 = DIRECTION('',(0.5,3.491579436181E-17,0.866025403784));
#769 = DIRECTION('',(0.866025403784,-1.615686751037E-16,-0.5));
#770 = ADVANCED_FACE('',(#771),#789,.T.);
#771 = FACE_BOUND('',#772,.T.);
#772 = EDGE_LOOP('',(#773,#774,#782,#788));
#773 = ORIENTED_EDGE('',*,*,#759,.T.);
#774 = ORIENTED_EDGE('',*,*,#775,.T.);
#775 = EDGE_CURVE('',#752,#776,#778,.T.);
#776 = VERTEX_POINT('',#777);
#777 = CARTESIAN_POINT('',(5.175,-5.2,-2.987787643056));
#778 = LINE('',#779,#780);
#779 = CARTESIAN_POINT('',(-1.002714792917E-15,-5.2,-5.975575286113));
#780 = VECTOR('',#781,1.);
#781 = DIRECTION('',(0.866025403784,-5.054637264123E-17,0.5));
#782 = ORIENTED_EDGE('',*,*,#783,.F.);
#783 = EDGE_CURVE('',#458,#776,#784,.T.);
#784 = LINE('',#785,#786);
#785 = CARTESIAN_POINT('',(5.175,-9.654657819599E-16,-2.987787643056));
#786 = VECTOR('',#787,1.);
#787 = DIRECTION('',(-1.224646799147E-16,-1.,1.110223024625E-16));
#788 = ORIENTED_EDGE('',*,*,#465,.F.);
#789 = PLANE('',#790);
#790 = AXIS2_PLACEMENT_3D('',#791,#792,#793);
#791 = CARTESIAN_POINT('',(-3.658984573601E-16,-6.634221268023E-16,
    -5.975575286113));
#792 = DIRECTION('',(-0.5,1.573804742765E-16,0.866025403784));
#793 = DIRECTION('',(0.866025403784,-5.054637264123E-17,0.5));
#794 = ADVANCED_FACE('',(#795),#813,.T.);
#795 = FACE_BOUND('',#796,.T.);
#796 = EDGE_LOOP('',(#797,#798,#806,#812));
#797 = ORIENTED_EDGE('',*,*,#783,.T.);
#798 = ORIENTED_EDGE('',*,*,#799,.T.);
#799 = EDGE_CURVE('',#776,#800,#802,.T.);
#800 = VERTEX_POINT('',#801);
#801 = CARTESIAN_POINT('',(5.175,-5.2,2.987787643056));
#802 = LINE('',#803,#804);
#803 = CARTESIAN_POINT('',(5.175,-5.2,-2.987787643056));
#804 = VECTOR('',#805,1.);
#805 = DIRECTION('',(-1.486347970152E-16,1.110223024625E-16,1.));
#806 = ORIENTED_EDGE('',*,*,#807,.F.);
#807 = EDGE_CURVE('',#450,#800,#808,.T.);
#808 = LINE('',#809,#810);
#809 = CARTESIAN_POINT('',(5.175,-3.020436551576E-16,2.987787643056));
#810 = VECTOR('',#811,1.);
#811 = DIRECTION('',(-1.224646799147E-16,-1.,1.110223024625E-16));
#812 = ORIENTED_EDGE('',*,*,#457,.F.);
#813 = PLANE('',#814);
#814 = AXIS2_PLACEMENT_3D('',#815,#816,#817);
#815 = CARTESIAN_POINT('',(5.175,-9.654657819599E-16,-2.987787643056));
#816 = DIRECTION('',(-1.,1.224646799147E-16,-1.486347970152E-16));
#817 = DIRECTION('',(-1.486347970152E-16,1.110223024625E-16,1.));
#818 = ADVANCED_FACE('',(#819),#837,.T.);
#819 = FACE_BOUND('',#820,.T.);
#820 = EDGE_LOOP('',(#821,#822,#830,#836));
#821 = ORIENTED_EDGE('',*,*,#807,.T.);
#822 = ORIENTED_EDGE('',*,*,#823,.T.);
#823 = EDGE_CURVE('',#800,#824,#826,.T.);
#824 = VERTEX_POINT('',#825);
#825 = CARTESIAN_POINT('',(4.608790365237E-16,-5.2,5.975575286113));
#826 = LINE('',#827,#828);
#827 = CARTESIAN_POINT('',(5.175,-5.2,2.987787643056));
#828 = VECTOR('',#829,1.);
#829 = DIRECTION('',(-0.866025403784,1.615686751037E-16,0.5));
#830 = ORIENTED_EDGE('',*,*,#831,.F.);
#831 = EDGE_CURVE('',#442,#824,#832,.T.);
#832 = LINE('',#833,#834);
#833 = CARTESIAN_POINT('',(1.09769537208E-15,6.634221268023E-16,
    5.975575286113));
#834 = VECTOR('',#835,1.);
#835 = DIRECTION('',(-1.224646799147E-16,-1.,1.110223024625E-16));
#836 = ORIENTED_EDGE('',*,*,#449,.F.);
#837 = PLANE('',#838);
#838 = AXIS2_PLACEMENT_3D('',#839,#840,#841);
#839 = CARTESIAN_POINT('',(5.175,-3.020436551576E-16,2.987787643056));
#840 = DIRECTION('',(-0.5,-3.491579436181E-17,-0.866025403784));
#841 = DIRECTION('',(-0.866025403784,1.615686751037E-16,0.5));
#842 = ADVANCED_FACE('',(#843),#861,.T.);
#843 = FACE_BOUND('',#844,.T.);
#844 = EDGE_LOOP('',(#845,#846,#854,#860));
#845 = ORIENTED_EDGE('',*,*,#831,.T.);
#846 = ORIENTED_EDGE('',*,*,#847,.T.);
#847 = EDGE_CURVE('',#824,#848,#850,.T.);
#848 = VERTEX_POINT('',#849);
#849 = CARTESIAN_POINT('',(-5.175,-5.2,2.987787643056));
#850 = LINE('',#851,#852);
#851 = CARTESIAN_POINT('',(4.608790365237E-16,-5.2,5.975575286113));
#852 = VECTOR('',#853,1.);
#853 = DIRECTION('',(-0.866025403784,5.054637264123E-17,-0.5));
#854 = ORIENTED_EDGE('',*,*,#855,.F.);
#855 = EDGE_CURVE('',#434,#848,#856,.T.);
#856 = LINE('',#857,#858);
#857 = CARTESIAN_POINT('',(-5.175,9.654657819599E-16,2.987787643056));
#858 = VECTOR('',#859,1.);
#859 = DIRECTION('',(-1.224646799147E-16,-1.,1.110223024625E-16));
#860 = ORIENTED_EDGE('',*,*,#441,.F.);
#861 = PLANE('',#862);
#862 = AXIS2_PLACEMENT_3D('',#863,#864,#865);
#863 = CARTESIAN_POINT('',(1.09769537208E-15,6.634221268023E-16,
    5.975575286113));
#864 = DIRECTION('',(0.5,-1.573804742765E-16,-0.866025403784));
#865 = DIRECTION('',(-0.866025403784,5.054637264123E-17,-0.5));
#866 = ADVANCED_FACE('',(#867),#878,.T.);
#867 = FACE_BOUND('',#868,.T.);
#868 = EDGE_LOOP('',(#869,#870,#876,#877));
#869 = ORIENTED_EDGE('',*,*,#855,.T.);
#870 = ORIENTED_EDGE('',*,*,#871,.T.);
#871 = EDGE_CURVE('',#848,#744,#872,.T.);
#872 = LINE('',#873,#874);
#873 = CARTESIAN_POINT('',(-5.175,-5.2,2.987787643056));
#874 = VECTOR('',#875,1.);
#875 = DIRECTION('',(-2.972695940303E-16,-1.110223024625E-16,-1.));
#876 = ORIENTED_EDGE('',*,*,#743,.F.);
#877 = ORIENTED_EDGE('',*,*,#433,.F.);
#878 = PLANE('',#879);
#879 = AXIS2_PLACEMENT_3D('',#880,#881,#882);
#880 = CARTESIAN_POINT('',(-5.175,9.654657819599E-16,2.987787643056));
#881 = DIRECTION('',(1.,-1.224646799147E-16,-2.972695940303E-16));
#882 = DIRECTION('',(-2.972695940303E-16,-1.110223024625E-16,-1.));
#883 = ADVANCED_FACE('',(#884,#892),#895,.F.);
#884 = FACE_BOUND('',#885,.F.);
#885 = EDGE_LOOP('',(#886,#887,#888,#889,#890,#891));
#886 = ORIENTED_EDGE('',*,*,#751,.T.);
#887 = ORIENTED_EDGE('',*,*,#775,.T.);
#888 = ORIENTED_EDGE('',*,*,#799,.T.);
#889 = ORIENTED_EDGE('',*,*,#823,.T.);
#890 = ORIENTED_EDGE('',*,*,#847,.T.);
#891 = ORIENTED_EDGE('',*,*,#871,.T.);
#892 = FACE_BOUND('',#893,.F.);
#893 = EDGE_LOOP('',(#894));
#894 = ORIENTED_EDGE('',*,*,#728,.F.);
#895 = PLANE('',#896);
#896 = AXIS2_PLACEMENT_3D('',#897,#898,#899);
#897 = CARTESIAN_POINT('',(-7.854511325718E-16,-5.2,7.259507698202E-16)
  );
#898 = DIRECTION('',(-1.224646799147E-16,-1.,1.110223024625E-16));
#899 = DIRECTION('',(-1.,1.224646799147E-16,0.));
#900 = ( GEOMETRIC_REPRESENTATION_CONTEXT(3) 
GLOBAL_UNCERTAINTY_ASSIGNED_CONTEXT((#904)) GLOBAL_UNIT_ASSIGNED_CONTEXT
((#901,#902,#903)) REPRESENTATION_CONTEXT('Context #1',
  '3D Context with UNIT and UNCERTAINTY') );
#901 = ( LENGTH_UNIT() NAMED_UNIT(*) SI_UNIT(.MILLI.,.METRE.) );
#902 = ( NAMED_UNIT(*) PLANE_ANGLE_UNIT() SI_UNIT($,.RADIAN.) );
#903 = ( NAMED_UNIT(*) SI_UNIT($,.STERADIAN.) SOLID_ANGLE_UNIT() );
#904 = UNCERTAINTY_MEASURE_WITH_UNIT(LENGTH_MEASURE(1.E-07),#901,
  'distance_accuracy_value','confusion accuracy');
#905 = PRODUCT_RELATED_PRODUCT_CATEGORY('part',$,(#7));
ENDSEC;
END-ISO-10303-21;
