ISO-10303-21;
HEADER;
FILE_DESCRIPTION(('FreeCAD Model'),'2;1');
FILE_NAME('Open CASCADE Shape Model','2026-09-11T15:13:18',('FreeCAD'),(
    'FreeCAD'),'Open CASCADE STEP processor 7.8','FreeCAD','Unknown');
FILE_SCHEMA(('AUTOMOTIVE_DESIGN { 1 0 10303 214 1 1 1 1 }'));
ENDSEC;
DATA;
#1 = APPLICATION_PROTOCOL_DEFINITION('international standard',
  'automotive_design',2000,#2);
#2 = APPLICATION_CONTEXT(
  'core data for automotive mechanical design processes');
#3 = SHAPE_DEFINITION_REPRESENTATION(#4,#10);
#4 = PRODUCT_DEFINITION_SHAPE('','',#5);
#5 = PRODUCT_DEFINITION('design','',#6,#9);
#6 = PRODUCT_DEFINITION_FORMATION('','',#7);
#7 = PRODUCT('Open CASCADE STEP translator 7.8 16',
  'Open CASCADE STEP translator 7.8 16','',(#8));
#8 = PRODUCT_CONTEXT('',#2,'mechanical');
#9 = PRODUCT_DEFINITION_CONTEXT('part definition',#2,'design');
#10 = ADVANCED_BREP_SHAPE_REPRESENTATION('',(#11,#15),#1096);
#11 = AXIS2_PLACEMENT_3D('',#12,#13,#14);
#12 = CARTESIAN_POINT('',(0.,0.,0.));
#13 = DIRECTION('',(0.,0.,1.));
#14 = DIRECTION('',(1.,0.,-0.));
#15 = MANIFOLD_SOLID_BREP('',#16);
#16 = CLOSED_SHELL('',(#17,#59,#339,#364,#536,#553,#575,#592,#609,#626,
    #638,#660,#682,#699,#716,#733,#846,#870,#887,#911,#928,#952,#969,
    #993,#1010,#1021,#1032,#1043,#1054,#1068,#1082));
#17 = ADVANCED_FACE('',(#18),#54,.T.);
#18 = FACE_BOUND('',#19,.T.);
#19 = EDGE_LOOP('',(#20,#31,#39,#48));
#20 = ORIENTED_EDGE('',*,*,#21,.T.);
#21 = EDGE_CURVE('',#22,#24,#26,.T.);
#22 = VERTEX_POINT('',#23);
#23 = CARTESIAN_POINT('',(8.232508613833,-1.008191532288E-15,
    12.538971326355));
#24 = VERTEX_POINT('',#25);
#25 = CARTESIAN_POINT('',(3.045128986952,-3.729207466861E-16,
    14.687654320988));
#26 = CIRCLE('',#27,15.);
#27 = AXIS2_PLACEMENT_3D('',#28,#29,#30);
#28 = CARTESIAN_POINT('',(0.,0.,0.));
#29 = DIRECTION('',(-1.224646799147E-16,-1.,0.));
#30 = DIRECTION('',(0.,0.,1.));
#31 = ORIENTED_EDGE('',*,*,#32,.T.);
#32 = EDGE_CURVE('',#24,#33,#35,.T.);
#33 = VERTEX_POINT('',#34);
#34 = CARTESIAN_POINT('',(3.045128986952,-7.,14.687654320988));
#35 = LINE('',#36,#37);
#36 = CARTESIAN_POINT('',(3.045128986952,-3.729207466861E-16,
    14.687654320988));
#37 = VECTOR('',#38,1.);
#38 = DIRECTION('',(-1.224646799147E-16,-1.,0.));
#39 = ORIENTED_EDGE('',*,*,#40,.F.);
#40 = EDGE_CURVE('',#41,#33,#43,.T.);
#41 = VERTEX_POINT('',#42);
#42 = CARTESIAN_POINT('',(8.232508613833,-7.,12.538971326355));
#43 = CIRCLE('',#44,15.);
#44 = AXIS2_PLACEMENT_3D('',#45,#46,#47);
#45 = CARTESIAN_POINT('',(-8.572527594031E-16,-7.,0.));
#46 = DIRECTION('',(-1.224646799147E-16,-1.,0.));
#47 = DIRECTION('',(0.,0.,1.));
#48 = ORIENTED_EDGE('',*,*,#49,.F.);
#49 = EDGE_CURVE('',#22,#41,#50,.T.);
#50 = LINE('',#51,#52);
#51 = CARTESIAN_POINT('',(8.232508613833,-1.008191532288E-15,
    12.538971326355));
#52 = VECTOR('',#53,1.);
#53 = DIRECTION('',(-1.224646799147E-16,-1.,0.));
#54 = CYLINDRICAL_SURFACE('',#55,15.);
#55 = AXIS2_PLACEMENT_3D('',#56,#57,#58);
#56 = CARTESIAN_POINT('',(0.,0.,0.));
#57 = DIRECTION('',(-1.224646799147E-16,-1.,0.));
#58 = DIRECTION('',(0.,0.,1.));
#59 = ADVANCED_FACE('',(#60,#223),#334,.F.);
#60 = FACE_BOUND('',#61,.F.);
#61 = EDGE_LOOP('',(#62,#73,#82,#91,#100,#109,#118,#127,#136,#145,#154,
    #163,#172,#181,#188,#189,#198,#207,#216));
#62 = ORIENTED_EDGE('',*,*,#63,.F.);
#63 = EDGE_CURVE('',#64,#66,#68,.T.);
#64 = VERTEX_POINT('',#65);
#65 = CARTESIAN_POINT('',(-14.68765432098,1.798718885118E-15,
    -3.045128986952));
#66 = VERTEX_POINT('',#67);
#67 = CARTESIAN_POINT('',(-14.68765432098,1.798718885118E-15,
    3.045128986952));
#68 = CIRCLE('',#69,3.4);
#69 = AXIS2_PLACEMENT_3D('',#70,#71,#72);
#70 = CARTESIAN_POINT('',(-16.2,1.983927814619E-15,0.));
#71 = DIRECTION('',(-1.224646799147E-16,-1.,0.));
#72 = DIRECTION('',(0.,0.,1.));
#73 = ORIENTED_EDGE('',*,*,#74,.T.);
#74 = EDGE_CURVE('',#64,#75,#77,.T.);
#75 = VERTEX_POINT('',#76);
#76 = CARTESIAN_POINT('',(-12.53897132635,1.535581109942E-15,
    -8.232508613833));
#77 = CIRCLE('',#78,15.);
#78 = AXIS2_PLACEMENT_3D('',#79,#80,#81);
#79 = CARTESIAN_POINT('',(0.,0.,0.));
#80 = DIRECTION('',(-1.224646799147E-16,-1.,0.));
#81 = DIRECTION('',(0.,0.,1.));
#82 = ORIENTED_EDGE('',*,*,#83,.F.);
#83 = EDGE_CURVE('',#84,#75,#86,.T.);
#84 = VERTEX_POINT('',#85);
#85 = CARTESIAN_POINT('',(-11.45512985522,1.402848811101E-15,
    -8.055129855222));
#86 = CIRCLE('',#87,3.4);
#87 = AXIS2_PLACEMENT_3D('',#88,#89,#90);
#88 = CARTESIAN_POINT('',(-11.45512985522,1.402848811101E-15,
    -11.45512985522));
#89 = DIRECTION('',(-1.224646799147E-16,-1.,0.));
#90 = DIRECTION('',(0.,0.,1.));
#91 = ORIENTED_EDGE('',*,*,#92,.F.);
#92 = EDGE_CURVE('',#93,#84,#95,.T.);
#93 = VERTEX_POINT('',#94);
#94 = CARTESIAN_POINT('',(-8.232508613833,1.008191532288E-15,
    -12.53897132635));
#95 = CIRCLE('',#96,3.4);
#96 = AXIS2_PLACEMENT_3D('',#97,#98,#99);
#97 = CARTESIAN_POINT('',(-11.45512985522,1.402848811101E-15,
    -11.45512985522));
#98 = DIRECTION('',(-1.224646799147E-16,-1.,0.));
#99 = DIRECTION('',(0.,0.,1.));
#100 = ORIENTED_EDGE('',*,*,#101,.T.);
#101 = EDGE_CURVE('',#93,#102,#104,.T.);
#102 = VERTEX_POINT('',#103);
#103 = CARTESIAN_POINT('',(-3.045128986952,3.729207466861E-16,
    -14.68765432098));
#104 = CIRCLE('',#105,15.);
#105 = AXIS2_PLACEMENT_3D('',#106,#107,#108);
#106 = CARTESIAN_POINT('',(0.,0.,0.));
#107 = DIRECTION('',(-1.224646799147E-16,-1.,0.));
#108 = DIRECTION('',(0.,0.,1.));
#109 = ORIENTED_EDGE('',*,*,#110,.F.);
#110 = EDGE_CURVE('',#111,#102,#113,.T.);
#111 = VERTEX_POINT('',#112);
#112 = CARTESIAN_POINT('',(3.808651545348E-15,-4.664252924078E-31,-12.8)
  );
#113 = CIRCLE('',#114,3.4);
#114 = AXIS2_PLACEMENT_3D('',#115,#116,#117);
#115 = CARTESIAN_POINT('',(2.975891721928E-15,-3.644416271868E-31,-16.2)
  );
#116 = DIRECTION('',(-1.224646799147E-16,-1.,0.));
#117 = DIRECTION('',(0.,0.,1.));
#118 = ORIENTED_EDGE('',*,*,#119,.F.);
#119 = EDGE_CURVE('',#120,#111,#122,.T.);
#120 = VERTEX_POINT('',#121);
#121 = CARTESIAN_POINT('',(3.045128986952,-3.729207466861E-16,
    -14.68765432098));
#122 = CIRCLE('',#123,3.4);
#123 = AXIS2_PLACEMENT_3D('',#124,#125,#126);
#124 = CARTESIAN_POINT('',(2.975891721928E-15,-3.644416271868E-31,-16.2)
  );
#125 = DIRECTION('',(-1.224646799147E-16,-1.,0.));
#126 = DIRECTION('',(0.,0.,1.));
#127 = ORIENTED_EDGE('',*,*,#128,.T.);
#128 = EDGE_CURVE('',#120,#129,#131,.T.);
#129 = VERTEX_POINT('',#130);
#130 = CARTESIAN_POINT('',(8.232508613833,-1.008191532288E-15,
    -12.53897132635));
#131 = CIRCLE('',#132,15.);
#132 = AXIS2_PLACEMENT_3D('',#133,#134,#135);
#133 = CARTESIAN_POINT('',(0.,0.,0.));
#134 = DIRECTION('',(-1.224646799147E-16,-1.,0.));
#135 = DIRECTION('',(0.,0.,1.));
#136 = ORIENTED_EDGE('',*,*,#137,.F.);
#137 = EDGE_CURVE('',#138,#129,#140,.T.);
#138 = VERTEX_POINT('',#139);
#139 = CARTESIAN_POINT('',(11.455129855222,-1.402848811101E-15,
    -8.055129855222));
#140 = CIRCLE('',#141,3.4);
#141 = AXIS2_PLACEMENT_3D('',#142,#143,#144);
#142 = CARTESIAN_POINT('',(11.455129855222,-1.402848811101E-15,
    -11.45512985522));
#143 = DIRECTION('',(-1.224646799147E-16,-1.,0.));
#144 = DIRECTION('',(0.,0.,1.));
#145 = ORIENTED_EDGE('',*,*,#146,.F.);
#146 = EDGE_CURVE('',#147,#138,#149,.T.);
#147 = VERTEX_POINT('',#148);
#148 = CARTESIAN_POINT('',(12.538971326355,-1.535581109942E-15,
    -8.232508613833));
#149 = CIRCLE('',#150,3.4);
#150 = AXIS2_PLACEMENT_3D('',#151,#152,#153);
#151 = CARTESIAN_POINT('',(11.455129855222,-1.402848811101E-15,
    -11.45512985522));
#152 = DIRECTION('',(-1.224646799147E-16,-1.,0.));
#153 = DIRECTION('',(0.,0.,1.));
#154 = ORIENTED_EDGE('',*,*,#155,.T.);
#155 = EDGE_CURVE('',#147,#156,#158,.T.);
#156 = VERTEX_POINT('',#157);
#157 = CARTESIAN_POINT('',(14.687654320988,-1.798718885118E-15,
    -3.045128986952));
#158 = CIRCLE('',#159,15.);
#159 = AXIS2_PLACEMENT_3D('',#160,#161,#162);
#160 = CARTESIAN_POINT('',(0.,0.,0.));
#161 = DIRECTION('',(-1.224646799147E-16,-1.,0.));
#162 = DIRECTION('',(0.,0.,1.));
#163 = ORIENTED_EDGE('',*,*,#164,.F.);
#164 = EDGE_CURVE('',#165,#156,#167,.T.);
#165 = VERTEX_POINT('',#166);
#166 = CARTESIAN_POINT('',(14.687654320988,-1.798718885118E-15,
    3.045128986952));
#167 = CIRCLE('',#168,3.4);
#168 = AXIS2_PLACEMENT_3D('',#169,#170,#171);
#169 = CARTESIAN_POINT('',(16.2,-1.983927814619E-15,1.983927814619E-15)
  );
#170 = DIRECTION('',(-1.224646799147E-16,-1.,0.));
#171 = DIRECTION('',(0.,0.,1.));
#172 = ORIENTED_EDGE('',*,*,#173,.T.);
#173 = EDGE_CURVE('',#165,#174,#176,.T.);
#174 = VERTEX_POINT('',#175);
#175 = CARTESIAN_POINT('',(12.538971326355,-1.535581109942E-15,
    8.232508613833));
#176 = CIRCLE('',#177,15.);
#177 = AXIS2_PLACEMENT_3D('',#178,#179,#180);
#178 = CARTESIAN_POINT('',(0.,0.,0.));
#179 = DIRECTION('',(-1.224646799147E-16,-1.,0.));
#180 = DIRECTION('',(0.,0.,1.));
#181 = ORIENTED_EDGE('',*,*,#182,.F.);
#182 = EDGE_CURVE('',#22,#174,#183,.T.);
#183 = CIRCLE('',#184,3.4);
#184 = AXIS2_PLACEMENT_3D('',#185,#186,#187);
#185 = CARTESIAN_POINT('',(11.455129855222,-1.402848811101E-15,
    11.455129855222));
#186 = DIRECTION('',(-1.224646799147E-16,-1.,0.));
#187 = DIRECTION('',(0.,0.,1.));
#188 = ORIENTED_EDGE('',*,*,#21,.T.);
#189 = ORIENTED_EDGE('',*,*,#190,.F.);
#190 = EDGE_CURVE('',#191,#24,#193,.T.);
#191 = VERTEX_POINT('',#192);
#192 = CARTESIAN_POINT('',(-3.045128986952,3.729207466861E-16,
    14.687654320988));
#193 = CIRCLE('',#194,3.4);
#194 = AXIS2_PLACEMENT_3D('',#195,#196,#197);
#195 = CARTESIAN_POINT('',(-9.919639073094E-16,1.214805423956E-31,16.2)
  );
#196 = DIRECTION('',(-1.224646799147E-16,-1.,0.));
#197 = DIRECTION('',(0.,0.,1.));
#198 = ORIENTED_EDGE('',*,*,#199,.T.);
#199 = EDGE_CURVE('',#191,#200,#202,.T.);
#200 = VERTEX_POINT('',#201);
#201 = CARTESIAN_POINT('',(-8.232508613833,1.008191532288E-15,
    12.538971326355));
#202 = CIRCLE('',#203,15.);
#203 = AXIS2_PLACEMENT_3D('',#204,#205,#206);
#204 = CARTESIAN_POINT('',(0.,0.,0.));
#205 = DIRECTION('',(-1.224646799147E-16,-1.,0.));
#206 = DIRECTION('',(0.,0.,1.));
#207 = ORIENTED_EDGE('',*,*,#208,.F.);
#208 = EDGE_CURVE('',#209,#200,#211,.T.);
#209 = VERTEX_POINT('',#210);
#210 = CARTESIAN_POINT('',(-12.53897132635,1.535581109942E-15,
    8.232508613833));
#211 = CIRCLE('',#212,3.4);
#212 = AXIS2_PLACEMENT_3D('',#213,#214,#215);
#213 = CARTESIAN_POINT('',(-11.45512985522,1.402848811101E-15,
    11.455129855222));
#214 = DIRECTION('',(-1.224646799147E-16,-1.,0.));
#215 = DIRECTION('',(0.,0.,1.));
#216 = ORIENTED_EDGE('',*,*,#217,.T.);
#217 = EDGE_CURVE('',#209,#66,#218,.T.);
#218 = CIRCLE('',#219,15.);
#219 = AXIS2_PLACEMENT_3D('',#220,#221,#222);
#220 = CARTESIAN_POINT('',(0.,0.,0.));
#221 = DIRECTION('',(-1.224646799147E-16,-1.,0.));
#222 = DIRECTION('',(0.,0.,1.));
#223 = FACE_BOUND('',#224,.F.);
#224 = EDGE_LOOP('',(#225,#236,#245,#253,#261,#270,#278,#286,#295,#303,
    #311,#320,#328));
#225 = ORIENTED_EDGE('',*,*,#226,.F.);
#226 = EDGE_CURVE('',#227,#229,#231,.T.);
#227 = VERTEX_POINT('',#228);
#228 = CARTESIAN_POINT('',(1.053196247267E-15,-1.289793413089E-31,4.3));
#229 = VERTEX_POINT('',#230);
#230 = CARTESIAN_POINT('',(-1.12583302492,1.378747810342E-16,4.15));
#231 = CIRCLE('',#232,4.3);
#232 = AXIS2_PLACEMENT_3D('',#233,#234,#235);
#233 = CARTESIAN_POINT('',(0.,0.,0.));
#234 = DIRECTION('',(-1.224646799147E-16,-1.,0.));
#235 = DIRECTION('',(0.,0.,1.));
#236 = ORIENTED_EDGE('',*,*,#237,.F.);
#237 = EDGE_CURVE('',#238,#227,#240,.T.);
#238 = VERTEX_POINT('',#239);
#239 = CARTESIAN_POINT('',(1.12583302492,-1.378747810342E-16,4.15));
#240 = CIRCLE('',#241,4.3);
#241 = AXIS2_PLACEMENT_3D('',#242,#243,#244);
#242 = CARTESIAN_POINT('',(0.,0.,0.));
#243 = DIRECTION('',(-1.224646799147E-16,-1.,0.));
#244 = DIRECTION('',(0.,0.,1.));
#245 = ORIENTED_EDGE('',*,*,#246,.F.);
#246 = EDGE_CURVE('',#247,#238,#249,.T.);
#247 = VERTEX_POINT('',#248);
#248 = CARTESIAN_POINT('',(4.15,-5.082284216462E-16,4.15));
#249 = LINE('',#250,#251);
#250 = CARTESIAN_POINT('',(2.075,-2.541142108231E-16,4.15));
#251 = VECTOR('',#252,1.);
#252 = DIRECTION('',(-1.,1.224646799147E-16,0.));
#253 = ORIENTED_EDGE('',*,*,#254,.T.);
#254 = EDGE_CURVE('',#247,#255,#257,.T.);
#255 = VERTEX_POINT('',#256);
#256 = CARTESIAN_POINT('',(4.15,-5.082284216462E-16,1.12583302492));
#257 = LINE('',#258,#259);
#258 = CARTESIAN_POINT('',(4.15,-5.082284216462E-16,-2.075));
#259 = VECTOR('',#260,1.);
#260 = DIRECTION('',(0.,-0.,-1.));
#261 = ORIENTED_EDGE('',*,*,#262,.F.);
#262 = EDGE_CURVE('',#263,#255,#265,.T.);
#263 = VERTEX_POINT('',#264);
#264 = CARTESIAN_POINT('',(4.15,-5.082284216462E-16,-1.12583302492));
#265 = CIRCLE('',#266,4.3);
#266 = AXIS2_PLACEMENT_3D('',#267,#268,#269);
#267 = CARTESIAN_POINT('',(0.,0.,0.));
#268 = DIRECTION('',(-1.224646799147E-16,-1.,0.));
#269 = DIRECTION('',(0.,0.,1.));
#270 = ORIENTED_EDGE('',*,*,#271,.T.);
#271 = EDGE_CURVE('',#263,#272,#274,.T.);
#272 = VERTEX_POINT('',#273);
#273 = CARTESIAN_POINT('',(4.15,-5.082284216462E-16,-4.15));
#274 = LINE('',#275,#276);
#275 = CARTESIAN_POINT('',(4.15,-5.082284216462E-16,-2.075));
#276 = VECTOR('',#277,1.);
#277 = DIRECTION('',(0.,-0.,-1.));
#278 = ORIENTED_EDGE('',*,*,#279,.T.);
#279 = EDGE_CURVE('',#272,#280,#282,.T.);
#280 = VERTEX_POINT('',#281);
#281 = CARTESIAN_POINT('',(1.12583302492,-1.378747810342E-16,-4.15));
#282 = LINE('',#283,#284);
#283 = CARTESIAN_POINT('',(2.075,-2.541142108231E-16,-4.15));
#284 = VECTOR('',#285,1.);
#285 = DIRECTION('',(-1.,1.224646799147E-16,0.));
#286 = ORIENTED_EDGE('',*,*,#287,.F.);
#287 = EDGE_CURVE('',#288,#280,#290,.T.);
#288 = VERTEX_POINT('',#289);
#289 = CARTESIAN_POINT('',(-1.12583302492,1.378747810342E-16,-4.15));
#290 = CIRCLE('',#291,4.3);
#291 = AXIS2_PLACEMENT_3D('',#292,#293,#294);
#292 = CARTESIAN_POINT('',(0.,0.,0.));
#293 = DIRECTION('',(-1.224646799147E-16,-1.,0.));
#294 = DIRECTION('',(0.,0.,1.));
#295 = ORIENTED_EDGE('',*,*,#296,.T.);
#296 = EDGE_CURVE('',#288,#297,#299,.T.);
#297 = VERTEX_POINT('',#298);
#298 = CARTESIAN_POINT('',(-4.15,5.082284216462E-16,-4.15));
#299 = LINE('',#300,#301);
#300 = CARTESIAN_POINT('',(2.075,-2.541142108231E-16,-4.15));
#301 = VECTOR('',#302,1.);
#302 = DIRECTION('',(-1.,1.224646799147E-16,0.));
#303 = ORIENTED_EDGE('',*,*,#304,.F.);
#304 = EDGE_CURVE('',#305,#297,#307,.T.);
#305 = VERTEX_POINT('',#306);
#306 = CARTESIAN_POINT('',(-4.15,5.082284216462E-16,-1.12583302492));
#307 = LINE('',#308,#309);
#308 = CARTESIAN_POINT('',(-4.15,5.082284216462E-16,-2.075));
#309 = VECTOR('',#310,1.);
#310 = DIRECTION('',(0.,-0.,-1.));
#311 = ORIENTED_EDGE('',*,*,#312,.F.);
#312 = EDGE_CURVE('',#313,#305,#315,.T.);
#313 = VERTEX_POINT('',#314);
#314 = CARTESIAN_POINT('',(-4.15,5.082284216462E-16,1.12583302492));
#315 = CIRCLE('',#316,4.3);
#316 = AXIS2_PLACEMENT_3D('',#317,#318,#319);
#317 = CARTESIAN_POINT('',(0.,0.,0.));
#318 = DIRECTION('',(-1.224646799147E-16,-1.,0.));
#319 = DIRECTION('',(0.,0.,1.));
#320 = ORIENTED_EDGE('',*,*,#321,.F.);
#321 = EDGE_CURVE('',#322,#313,#324,.T.);
#322 = VERTEX_POINT('',#323);
#323 = CARTESIAN_POINT('',(-4.15,5.082284216462E-16,4.15));
#324 = LINE('',#325,#326);
#325 = CARTESIAN_POINT('',(-4.15,5.082284216462E-16,-2.075));
#326 = VECTOR('',#327,1.);
#327 = DIRECTION('',(0.,-0.,-1.));
#328 = ORIENTED_EDGE('',*,*,#329,.F.);
#329 = EDGE_CURVE('',#229,#322,#330,.T.);
#330 = LINE('',#331,#332);
#331 = CARTESIAN_POINT('',(2.075,-2.541142108231E-16,4.15));
#332 = VECTOR('',#333,1.);
#333 = DIRECTION('',(-1.,1.224646799147E-16,0.));
#334 = PLANE('',#335);
#335 = AXIS2_PLACEMENT_3D('',#336,#337,#338);
#336 = CARTESIAN_POINT('',(0.,0.,0.));
#337 = DIRECTION('',(-1.224646799147E-16,-1.,0.));
#338 = DIRECTION('',(0.,0.,1.));
#339 = ADVANCED_FACE('',(#340),#359,.F.);
#340 = FACE_BOUND('',#341,.F.);
#341 = EDGE_LOOP('',(#342,#343,#344,#352));
#342 = ORIENTED_EDGE('',*,*,#49,.F.);
#343 = ORIENTED_EDGE('',*,*,#182,.T.);
#344 = ORIENTED_EDGE('',*,*,#345,.T.);
#345 = EDGE_CURVE('',#174,#346,#348,.T.);
#346 = VERTEX_POINT('',#347);
#347 = CARTESIAN_POINT('',(12.538971326355,-7.,8.232508613833));
#348 = LINE('',#349,#350);
#349 = CARTESIAN_POINT('',(12.538971326355,-1.535581109942E-15,
    8.232508613833));
#350 = VECTOR('',#351,1.);
#351 = DIRECTION('',(-1.224646799147E-16,-1.,0.));
#352 = ORIENTED_EDGE('',*,*,#353,.F.);
#353 = EDGE_CURVE('',#41,#346,#354,.T.);
#354 = CIRCLE('',#355,3.4);
#355 = AXIS2_PLACEMENT_3D('',#356,#357,#358);
#356 = CARTESIAN_POINT('',(11.455129855222,-7.,11.455129855222));
#357 = DIRECTION('',(-1.224646799147E-16,-1.,0.));
#358 = DIRECTION('',(0.,0.,1.));
#359 = CYLINDRICAL_SURFACE('',#360,3.4);
#360 = AXIS2_PLACEMENT_3D('',#361,#362,#363);
#361 = CARTESIAN_POINT('',(11.455129855222,0.2,11.455129855222));
#362 = DIRECTION('',(-1.224646799147E-16,-1.,0.));
#363 = DIRECTION('',(0.,0.,1.));
#364 = ADVANCED_FACE('',(#365,#520),#531,.T.);
#365 = FACE_BOUND('',#366,.T.);
#366 = EDGE_LOOP('',(#367,#378,#387,#396,#405,#414,#423,#432,#441,#450,
    #459,#468,#477,#484,#485,#486,#495,#504,#513));
#367 = ORIENTED_EDGE('',*,*,#368,.F.);
#368 = EDGE_CURVE('',#369,#371,#373,.T.);
#369 = VERTEX_POINT('',#370);
#370 = CARTESIAN_POINT('',(-14.68765432098,-7.,-3.045128986952));
#371 = VERTEX_POINT('',#372);
#372 = CARTESIAN_POINT('',(-14.68765432098,-7.,3.045128986952));
#373 = CIRCLE('',#374,3.4);
#374 = AXIS2_PLACEMENT_3D('',#375,#376,#377);
#375 = CARTESIAN_POINT('',(-16.2,-7.,0.));
#376 = DIRECTION('',(-1.224646799147E-16,-1.,0.));
#377 = DIRECTION('',(0.,0.,1.));
#378 = ORIENTED_EDGE('',*,*,#379,.T.);
#379 = EDGE_CURVE('',#369,#380,#382,.T.);
#380 = VERTEX_POINT('',#381);
#381 = CARTESIAN_POINT('',(-12.53897132635,-7.,-8.232508613833));
#382 = CIRCLE('',#383,15.);
#383 = AXIS2_PLACEMENT_3D('',#384,#385,#386);
#384 = CARTESIAN_POINT('',(-8.572527594031E-16,-7.,0.));
#385 = DIRECTION('',(-1.224646799147E-16,-1.,0.));
#386 = DIRECTION('',(0.,0.,1.));
#387 = ORIENTED_EDGE('',*,*,#388,.F.);
#388 = EDGE_CURVE('',#389,#380,#391,.T.);
#389 = VERTEX_POINT('',#390);
#390 = CARTESIAN_POINT('',(-11.45512985522,-7.,-8.055129855222));
#391 = CIRCLE('',#392,3.4);
#392 = AXIS2_PLACEMENT_3D('',#393,#394,#395);
#393 = CARTESIAN_POINT('',(-11.45512985522,-7.,-11.45512985522));
#394 = DIRECTION('',(-1.224646799147E-16,-1.,0.));
#395 = DIRECTION('',(0.,0.,1.));
#396 = ORIENTED_EDGE('',*,*,#397,.F.);
#397 = EDGE_CURVE('',#398,#389,#400,.T.);
#398 = VERTEX_POINT('',#399);
#399 = CARTESIAN_POINT('',(-8.232508613833,-7.,-12.53897132635));
#400 = CIRCLE('',#401,3.4);
#401 = AXIS2_PLACEMENT_3D('',#402,#403,#404);
#402 = CARTESIAN_POINT('',(-11.45512985522,-7.,-11.45512985522));
#403 = DIRECTION('',(-1.224646799147E-16,-1.,0.));
#404 = DIRECTION('',(0.,0.,1.));
#405 = ORIENTED_EDGE('',*,*,#406,.T.);
#406 = EDGE_CURVE('',#398,#407,#409,.T.);
#407 = VERTEX_POINT('',#408);
#408 = CARTESIAN_POINT('',(-3.045128986952,-7.,-14.68765432098));
#409 = CIRCLE('',#410,15.);
#410 = AXIS2_PLACEMENT_3D('',#411,#412,#413);
#411 = CARTESIAN_POINT('',(-8.572527594031E-16,-7.,0.));
#412 = DIRECTION('',(-1.224646799147E-16,-1.,0.));
#413 = DIRECTION('',(0.,0.,1.));
#414 = ORIENTED_EDGE('',*,*,#415,.F.);
#415 = EDGE_CURVE('',#416,#407,#418,.T.);
#416 = VERTEX_POINT('',#417);
#417 = CARTESIAN_POINT('',(2.951398785945E-15,-7.,-12.8));
#418 = CIRCLE('',#419,3.4);
#419 = AXIS2_PLACEMENT_3D('',#420,#421,#422);
#420 = CARTESIAN_POINT('',(2.118638962525E-15,-7.,-16.2));
#421 = DIRECTION('',(-1.224646799147E-16,-1.,0.));
#422 = DIRECTION('',(0.,0.,1.));
#423 = ORIENTED_EDGE('',*,*,#424,.F.);
#424 = EDGE_CURVE('',#425,#416,#427,.T.);
#425 = VERTEX_POINT('',#426);
#426 = CARTESIAN_POINT('',(3.045128986952,-7.,-14.68765432098));
#427 = CIRCLE('',#428,3.4);
#428 = AXIS2_PLACEMENT_3D('',#429,#430,#431);
#429 = CARTESIAN_POINT('',(2.118638962525E-15,-7.,-16.2));
#430 = DIRECTION('',(-1.224646799147E-16,-1.,0.));
#431 = DIRECTION('',(0.,0.,1.));
#432 = ORIENTED_EDGE('',*,*,#433,.T.);
#433 = EDGE_CURVE('',#425,#434,#436,.T.);
#434 = VERTEX_POINT('',#435);
#435 = CARTESIAN_POINT('',(8.232508613833,-7.,-12.53897132635));
#436 = CIRCLE('',#437,15.);
#437 = AXIS2_PLACEMENT_3D('',#438,#439,#440);
#438 = CARTESIAN_POINT('',(-8.572527594031E-16,-7.,0.));
#439 = DIRECTION('',(-1.224646799147E-16,-1.,0.));
#440 = DIRECTION('',(0.,0.,1.));
#441 = ORIENTED_EDGE('',*,*,#442,.F.);
#442 = EDGE_CURVE('',#443,#434,#445,.T.);
#443 = VERTEX_POINT('',#444);
#444 = CARTESIAN_POINT('',(11.455129855222,-7.,-8.055129855222));
#445 = CIRCLE('',#446,3.4);
#446 = AXIS2_PLACEMENT_3D('',#447,#448,#449);
#447 = CARTESIAN_POINT('',(11.455129855222,-7.,-11.45512985522));
#448 = DIRECTION('',(-1.224646799147E-16,-1.,0.));
#449 = DIRECTION('',(0.,0.,1.));
#450 = ORIENTED_EDGE('',*,*,#451,.F.);
#451 = EDGE_CURVE('',#452,#443,#454,.T.);
#452 = VERTEX_POINT('',#453);
#453 = CARTESIAN_POINT('',(12.538971326355,-7.,-8.232508613833));
#454 = CIRCLE('',#455,3.4);
#455 = AXIS2_PLACEMENT_3D('',#456,#457,#458);
#456 = CARTESIAN_POINT('',(11.455129855222,-7.,-11.45512985522));
#457 = DIRECTION('',(-1.224646799147E-16,-1.,0.));
#458 = DIRECTION('',(0.,0.,1.));
#459 = ORIENTED_EDGE('',*,*,#460,.T.);
#460 = EDGE_CURVE('',#452,#461,#463,.T.);
#461 = VERTEX_POINT('',#462);
#462 = CARTESIAN_POINT('',(14.687654320988,-7.,-3.045128986952));
#463 = CIRCLE('',#464,15.);
#464 = AXIS2_PLACEMENT_3D('',#465,#466,#467);
#465 = CARTESIAN_POINT('',(-8.572527594031E-16,-7.,0.));
#466 = DIRECTION('',(-1.224646799147E-16,-1.,0.));
#467 = DIRECTION('',(0.,0.,1.));
#468 = ORIENTED_EDGE('',*,*,#469,.F.);
#469 = EDGE_CURVE('',#470,#461,#472,.T.);
#470 = VERTEX_POINT('',#471);
#471 = CARTESIAN_POINT('',(14.687654320988,-7.,3.045128986952));
#472 = CIRCLE('',#473,3.4);
#473 = AXIS2_PLACEMENT_3D('',#474,#475,#476);
#474 = CARTESIAN_POINT('',(16.2,-7.,1.983927814619E-15));
#475 = DIRECTION('',(-1.224646799147E-16,-1.,0.));
#476 = DIRECTION('',(0.,0.,1.));
#477 = ORIENTED_EDGE('',*,*,#478,.T.);
#478 = EDGE_CURVE('',#470,#346,#479,.T.);
#479 = CIRCLE('',#480,15.);
#480 = AXIS2_PLACEMENT_3D('',#481,#482,#483);
#481 = CARTESIAN_POINT('',(-8.572527594031E-16,-7.,0.));
#482 = DIRECTION('',(-1.224646799147E-16,-1.,0.));
#483 = DIRECTION('',(0.,0.,1.));
#484 = ORIENTED_EDGE('',*,*,#353,.F.);
#485 = ORIENTED_EDGE('',*,*,#40,.T.);
#486 = ORIENTED_EDGE('',*,*,#487,.F.);
#487 = EDGE_CURVE('',#488,#33,#490,.T.);
#488 = VERTEX_POINT('',#489);
#489 = CARTESIAN_POINT('',(-3.045128986952,-7.,14.687654320988));
#490 = CIRCLE('',#491,3.4);
#491 = AXIS2_PLACEMENT_3D('',#492,#493,#494);
#492 = CARTESIAN_POINT('',(-1.849216666713E-15,-7.,16.2));
#493 = DIRECTION('',(-1.224646799147E-16,-1.,0.));
#494 = DIRECTION('',(0.,0.,1.));
#495 = ORIENTED_EDGE('',*,*,#496,.T.);
#496 = EDGE_CURVE('',#488,#497,#499,.T.);
#497 = VERTEX_POINT('',#498);
#498 = CARTESIAN_POINT('',(-8.232508613833,-7.,12.538971326355));
#499 = CIRCLE('',#500,15.);
#500 = AXIS2_PLACEMENT_3D('',#501,#502,#503);
#501 = CARTESIAN_POINT('',(-8.572527594031E-16,-7.,0.));
#502 = DIRECTION('',(-1.224646799147E-16,-1.,0.));
#503 = DIRECTION('',(0.,0.,1.));
#504 = ORIENTED_EDGE('',*,*,#505,.F.);
#505 = EDGE_CURVE('',#506,#497,#508,.T.);
#506 = VERTEX_POINT('',#507);
#507 = CARTESIAN_POINT('',(-12.53897132635,-7.,8.232508613833));
#508 = CIRCLE('',#509,3.4);
#509 = AXIS2_PLACEMENT_3D('',#510,#511,#512);
#510 = CARTESIAN_POINT('',(-11.45512985522,-7.,11.455129855222));
#511 = DIRECTION('',(-1.224646799147E-16,-1.,0.));
#512 = DIRECTION('',(0.,0.,1.));
#513 = ORIENTED_EDGE('',*,*,#514,.T.);
#514 = EDGE_CURVE('',#506,#371,#515,.T.);
#515 = CIRCLE('',#516,15.);
#516 = AXIS2_PLACEMENT_3D('',#517,#518,#519);
#517 = CARTESIAN_POINT('',(-8.572527594031E-16,-7.,0.));
#518 = DIRECTION('',(-1.224646799147E-16,-1.,0.));
#519 = DIRECTION('',(0.,0.,1.));
#520 = FACE_BOUND('',#521,.T.);
#521 = EDGE_LOOP('',(#522));
#522 = ORIENTED_EDGE('',*,*,#523,.F.);
#523 = EDGE_CURVE('',#524,#524,#526,.T.);
#524 = VERTEX_POINT('',#525);
#525 = CARTESIAN_POINT('',(1.959434878636E-16,-7.,4.3));
#526 = CIRCLE('',#527,4.3);
#527 = AXIS2_PLACEMENT_3D('',#528,#529,#530);
#528 = CARTESIAN_POINT('',(-8.572527594031E-16,-7.,0.));
#529 = DIRECTION('',(-1.224646799147E-16,-1.,0.));
#530 = DIRECTION('',(0.,0.,1.));
#531 = PLANE('',#532);
#532 = AXIS2_PLACEMENT_3D('',#533,#534,#535);
#533 = CARTESIAN_POINT('',(-8.572527594031E-16,-7.,0.));
#534 = DIRECTION('',(-1.224646799147E-16,-1.,0.));
#535 = DIRECTION('',(0.,0.,1.));
#536 = ADVANCED_FACE('',(#537),#548,.F.);
#537 = FACE_BOUND('',#538,.F.);
#538 = EDGE_LOOP('',(#539,#540,#541,#542));
#539 = ORIENTED_EDGE('',*,*,#190,.T.);
#540 = ORIENTED_EDGE('',*,*,#32,.T.);
#541 = ORIENTED_EDGE('',*,*,#487,.F.);
#542 = ORIENTED_EDGE('',*,*,#543,.F.);
#543 = EDGE_CURVE('',#191,#488,#544,.T.);
#544 = LINE('',#545,#546);
#545 = CARTESIAN_POINT('',(-3.045128986952,3.729207466861E-16,
    14.687654320988));
#546 = VECTOR('',#547,1.);
#547 = DIRECTION('',(-1.224646799147E-16,-1.,0.));
#548 = CYLINDRICAL_SURFACE('',#549,3.4);
#549 = AXIS2_PLACEMENT_3D('',#550,#551,#552);
#550 = CARTESIAN_POINT('',(-9.674709713264E-16,0.2,16.2));
#551 = DIRECTION('',(-1.224646799147E-16,-1.,0.));
#552 = DIRECTION('',(0.,0.,1.));
#553 = ADVANCED_FACE('',(#554),#570,.F.);
#554 = FACE_BOUND('',#555,.F.);
#555 = EDGE_LOOP('',(#556,#562,#563,#569));
#556 = ORIENTED_EDGE('',*,*,#557,.F.);
#557 = EDGE_CURVE('',#64,#369,#558,.T.);
#558 = LINE('',#559,#560);
#559 = CARTESIAN_POINT('',(-14.68765432098,1.798718885118E-15,
    -3.045128986952));
#560 = VECTOR('',#561,1.);
#561 = DIRECTION('',(-1.224646799147E-16,-1.,0.));
#562 = ORIENTED_EDGE('',*,*,#63,.T.);
#563 = ORIENTED_EDGE('',*,*,#564,.T.);
#564 = EDGE_CURVE('',#66,#371,#565,.T.);
#565 = LINE('',#566,#567);
#566 = CARTESIAN_POINT('',(-14.68765432098,1.798718885118E-15,
    3.045128986952));
#567 = VECTOR('',#568,1.);
#568 = DIRECTION('',(-1.224646799147E-16,-1.,0.));
#569 = ORIENTED_EDGE('',*,*,#368,.F.);
#570 = CYLINDRICAL_SURFACE('',#571,3.4);
#571 = AXIS2_PLACEMENT_3D('',#572,#573,#574);
#572 = CARTESIAN_POINT('',(-16.2,0.2,0.));
#573 = DIRECTION('',(-1.224646799147E-16,-1.,0.));
#574 = DIRECTION('',(0.,0.,1.));
#575 = ADVANCED_FACE('',(#576),#587,.T.);
#576 = FACE_BOUND('',#577,.T.);
#577 = EDGE_LOOP('',(#578,#579,#580,#586));
#578 = ORIENTED_EDGE('',*,*,#557,.F.);
#579 = ORIENTED_EDGE('',*,*,#74,.T.);
#580 = ORIENTED_EDGE('',*,*,#581,.T.);
#581 = EDGE_CURVE('',#75,#380,#582,.T.);
#582 = LINE('',#583,#584);
#583 = CARTESIAN_POINT('',(-12.53897132635,1.535581109942E-15,
    -8.232508613833));
#584 = VECTOR('',#585,1.);
#585 = DIRECTION('',(-1.224646799147E-16,-1.,0.));
#586 = ORIENTED_EDGE('',*,*,#379,.F.);
#587 = CYLINDRICAL_SURFACE('',#588,15.);
#588 = AXIS2_PLACEMENT_3D('',#589,#590,#591);
#589 = CARTESIAN_POINT('',(0.,0.,0.));
#590 = DIRECTION('',(-1.224646799147E-16,-1.,0.));
#591 = DIRECTION('',(0.,0.,1.));
#592 = ADVANCED_FACE('',(#593),#604,.T.);
#593 = FACE_BOUND('',#594,.T.);
#594 = EDGE_LOOP('',(#595,#596,#602,#603));
#595 = ORIENTED_EDGE('',*,*,#514,.F.);
#596 = ORIENTED_EDGE('',*,*,#597,.F.);
#597 = EDGE_CURVE('',#209,#506,#598,.T.);
#598 = LINE('',#599,#600);
#599 = CARTESIAN_POINT('',(-12.53897132635,1.535581109942E-15,
    8.232508613833));
#600 = VECTOR('',#601,1.);
#601 = DIRECTION('',(-1.224646799147E-16,-1.,0.));
#602 = ORIENTED_EDGE('',*,*,#217,.T.);
#603 = ORIENTED_EDGE('',*,*,#564,.T.);
#604 = CYLINDRICAL_SURFACE('',#605,15.);
#605 = AXIS2_PLACEMENT_3D('',#606,#607,#608);
#606 = CARTESIAN_POINT('',(0.,0.,0.));
#607 = DIRECTION('',(-1.224646799147E-16,-1.,0.));
#608 = DIRECTION('',(0.,0.,1.));
#609 = ADVANCED_FACE('',(#610),#621,.F.);
#610 = FACE_BOUND('',#611,.F.);
#611 = EDGE_LOOP('',(#612,#613,#614,#620));
#612 = ORIENTED_EDGE('',*,*,#597,.F.);
#613 = ORIENTED_EDGE('',*,*,#208,.T.);
#614 = ORIENTED_EDGE('',*,*,#615,.T.);
#615 = EDGE_CURVE('',#200,#497,#616,.T.);
#616 = LINE('',#617,#618);
#617 = CARTESIAN_POINT('',(-8.232508613833,1.008191532288E-15,
    12.538971326355));
#618 = VECTOR('',#619,1.);
#619 = DIRECTION('',(-1.224646799147E-16,-1.,0.));
#620 = ORIENTED_EDGE('',*,*,#505,.F.);
#621 = CYLINDRICAL_SURFACE('',#622,3.4);
#622 = AXIS2_PLACEMENT_3D('',#623,#624,#625);
#623 = CARTESIAN_POINT('',(-11.45512985522,0.2,11.455129855222));
#624 = DIRECTION('',(-1.224646799147E-16,-1.,0.));
#625 = DIRECTION('',(0.,0.,1.));
#626 = ADVANCED_FACE('',(#627),#633,.T.);
#627 = FACE_BOUND('',#628,.T.);
#628 = EDGE_LOOP('',(#629,#630,#631,#632));
#629 = ORIENTED_EDGE('',*,*,#496,.F.);
#630 = ORIENTED_EDGE('',*,*,#543,.F.);
#631 = ORIENTED_EDGE('',*,*,#199,.T.);
#632 = ORIENTED_EDGE('',*,*,#615,.T.);
#633 = CYLINDRICAL_SURFACE('',#634,15.);
#634 = AXIS2_PLACEMENT_3D('',#635,#636,#637);
#635 = CARTESIAN_POINT('',(0.,0.,0.));
#636 = DIRECTION('',(-1.224646799147E-16,-1.,0.));
#637 = DIRECTION('',(0.,0.,1.));
#638 = ADVANCED_FACE('',(#639),#655,.T.);
#639 = FACE_BOUND('',#640,.T.);
#640 = EDGE_LOOP('',(#641,#647,#648,#654));
#641 = ORIENTED_EDGE('',*,*,#642,.F.);
#642 = EDGE_CURVE('',#93,#398,#643,.T.);
#643 = LINE('',#644,#645);
#644 = CARTESIAN_POINT('',(-8.232508613833,1.008191532288E-15,
    -12.53897132635));
#645 = VECTOR('',#646,1.);
#646 = DIRECTION('',(-1.224646799147E-16,-1.,0.));
#647 = ORIENTED_EDGE('',*,*,#101,.T.);
#648 = ORIENTED_EDGE('',*,*,#649,.T.);
#649 = EDGE_CURVE('',#102,#407,#650,.T.);
#650 = LINE('',#651,#652);
#651 = CARTESIAN_POINT('',(-3.045128986952,3.729207466861E-16,
    -14.68765432098));
#652 = VECTOR('',#653,1.);
#653 = DIRECTION('',(-1.224646799147E-16,-1.,0.));
#654 = ORIENTED_EDGE('',*,*,#406,.F.);
#655 = CYLINDRICAL_SURFACE('',#656,15.);
#656 = AXIS2_PLACEMENT_3D('',#657,#658,#659);
#657 = CARTESIAN_POINT('',(0.,0.,0.));
#658 = DIRECTION('',(-1.224646799147E-16,-1.,0.));
#659 = DIRECTION('',(0.,0.,1.));
#660 = ADVANCED_FACE('',(#661),#677,.T.);
#661 = FACE_BOUND('',#662,.T.);
#662 = EDGE_LOOP('',(#663,#669,#670,#676));
#663 = ORIENTED_EDGE('',*,*,#664,.F.);
#664 = EDGE_CURVE('',#120,#425,#665,.T.);
#665 = LINE('',#666,#667);
#666 = CARTESIAN_POINT('',(3.045128986952,-3.729207466861E-16,
    -14.68765432098));
#667 = VECTOR('',#668,1.);
#668 = DIRECTION('',(-1.224646799147E-16,-1.,0.));
#669 = ORIENTED_EDGE('',*,*,#128,.T.);
#670 = ORIENTED_EDGE('',*,*,#671,.T.);
#671 = EDGE_CURVE('',#129,#434,#672,.T.);
#672 = LINE('',#673,#674);
#673 = CARTESIAN_POINT('',(8.232508613833,-1.008191532288E-15,
    -12.53897132635));
#674 = VECTOR('',#675,1.);
#675 = DIRECTION('',(-1.224646799147E-16,-1.,0.));
#676 = ORIENTED_EDGE('',*,*,#433,.F.);
#677 = CYLINDRICAL_SURFACE('',#678,15.);
#678 = AXIS2_PLACEMENT_3D('',#679,#680,#681);
#679 = CARTESIAN_POINT('',(0.,0.,0.));
#680 = DIRECTION('',(-1.224646799147E-16,-1.,0.));
#681 = DIRECTION('',(0.,0.,1.));
#682 = ADVANCED_FACE('',(#683),#694,.T.);
#683 = FACE_BOUND('',#684,.T.);
#684 = EDGE_LOOP('',(#685,#691,#692,#693));
#685 = ORIENTED_EDGE('',*,*,#686,.F.);
#686 = EDGE_CURVE('',#165,#470,#687,.T.);
#687 = LINE('',#688,#689);
#688 = CARTESIAN_POINT('',(14.687654320988,-1.798718885118E-15,
    3.045128986952));
#689 = VECTOR('',#690,1.);
#690 = DIRECTION('',(-1.224646799147E-16,-1.,0.));
#691 = ORIENTED_EDGE('',*,*,#173,.T.);
#692 = ORIENTED_EDGE('',*,*,#345,.T.);
#693 = ORIENTED_EDGE('',*,*,#478,.F.);
#694 = CYLINDRICAL_SURFACE('',#695,15.);
#695 = AXIS2_PLACEMENT_3D('',#696,#697,#698);
#696 = CARTESIAN_POINT('',(0.,0.,0.));
#697 = DIRECTION('',(-1.224646799147E-16,-1.,0.));
#698 = DIRECTION('',(0.,0.,1.));
#699 = ADVANCED_FACE('',(#700),#711,.F.);
#700 = FACE_BOUND('',#701,.F.);
#701 = EDGE_LOOP('',(#702,#703,#704,#710));
#702 = ORIENTED_EDGE('',*,*,#686,.F.);
#703 = ORIENTED_EDGE('',*,*,#164,.T.);
#704 = ORIENTED_EDGE('',*,*,#705,.T.);
#705 = EDGE_CURVE('',#156,#461,#706,.T.);
#706 = LINE('',#707,#708);
#707 = CARTESIAN_POINT('',(14.687654320988,-1.798718885118E-15,
    -3.045128986952));
#708 = VECTOR('',#709,1.);
#709 = DIRECTION('',(-1.224646799147E-16,-1.,0.));
#710 = ORIENTED_EDGE('',*,*,#469,.F.);
#711 = CYLINDRICAL_SURFACE('',#712,3.4);
#712 = AXIS2_PLACEMENT_3D('',#713,#714,#715);
#713 = CARTESIAN_POINT('',(16.2,0.2,1.983927814619E-15));
#714 = DIRECTION('',(-1.224646799147E-16,-1.,0.));
#715 = DIRECTION('',(0.,0.,1.));
#716 = ADVANCED_FACE('',(#717),#728,.T.);
#717 = FACE_BOUND('',#718,.T.);
#718 = EDGE_LOOP('',(#719,#725,#726,#727));
#719 = ORIENTED_EDGE('',*,*,#720,.F.);
#720 = EDGE_CURVE('',#147,#452,#721,.T.);
#721 = LINE('',#722,#723);
#722 = CARTESIAN_POINT('',(12.538971326355,-1.535581109942E-15,
    -8.232508613833));
#723 = VECTOR('',#724,1.);
#724 = DIRECTION('',(-1.224646799147E-16,-1.,0.));
#725 = ORIENTED_EDGE('',*,*,#155,.T.);
#726 = ORIENTED_EDGE('',*,*,#705,.T.);
#727 = ORIENTED_EDGE('',*,*,#460,.F.);
#728 = CYLINDRICAL_SURFACE('',#729,15.);
#729 = AXIS2_PLACEMENT_3D('',#730,#731,#732);
#730 = CARTESIAN_POINT('',(0.,0.,0.));
#731 = DIRECTION('',(-1.224646799147E-16,-1.,0.));
#732 = DIRECTION('',(0.,0.,1.));
#733 = ADVANCED_FACE('',(#734),#841,.F.);
#734 = FACE_BOUND('',#735,.F.);
#735 = EDGE_LOOP('',(#736,#742,#743,#744,#745,#753,#762,#768,#769,#777,
    #786,#792,#793,#801,#810,#816,#817,#825,#834,#840));
#736 = ORIENTED_EDGE('',*,*,#737,.T.);
#737 = EDGE_CURVE('',#227,#524,#738,.T.);
#738 = LINE('',#739,#740);
#739 = CARTESIAN_POINT('',(1.07768918325E-15,0.2,4.3));
#740 = VECTOR('',#741,1.);
#741 = DIRECTION('',(-1.224646799147E-16,-1.,0.));
#742 = ORIENTED_EDGE('',*,*,#523,.F.);
#743 = ORIENTED_EDGE('',*,*,#737,.F.);
#744 = ORIENTED_EDGE('',*,*,#226,.T.);
#745 = ORIENTED_EDGE('',*,*,#746,.T.);
#746 = EDGE_CURVE('',#229,#747,#749,.T.);
#747 = VERTEX_POINT('',#748);
#748 = CARTESIAN_POINT('',(-1.12583302492,-5.,4.15));
#749 = LINE('',#750,#751);
#750 = CARTESIAN_POINT('',(-1.12583302492,0.2,4.15));
#751 = VECTOR('',#752,1.);
#752 = DIRECTION('',(-1.224646799147E-16,-1.,0.));
#753 = ORIENTED_EDGE('',*,*,#754,.T.);
#754 = EDGE_CURVE('',#747,#755,#757,.T.);
#755 = VERTEX_POINT('',#756);
#756 = CARTESIAN_POINT('',(-4.15,-5.,1.12583302492));
#757 = CIRCLE('',#758,4.3);
#758 = AXIS2_PLACEMENT_3D('',#759,#760,#761);
#759 = CARTESIAN_POINT('',(-6.123233995737E-16,-5.,0.));
#760 = DIRECTION('',(-1.224646799147E-16,-1.,0.));
#761 = DIRECTION('',(0.,0.,1.));
#762 = ORIENTED_EDGE('',*,*,#763,.F.);
#763 = EDGE_CURVE('',#313,#755,#764,.T.);
#764 = LINE('',#765,#766);
#765 = CARTESIAN_POINT('',(-4.15,0.2,1.12583302492));
#766 = VECTOR('',#767,1.);
#767 = DIRECTION('',(-1.224646799147E-16,-1.,0.));
#768 = ORIENTED_EDGE('',*,*,#312,.T.);
#769 = ORIENTED_EDGE('',*,*,#770,.T.);
#770 = EDGE_CURVE('',#305,#771,#773,.T.);
#771 = VERTEX_POINT('',#772);
#772 = CARTESIAN_POINT('',(-4.15,-5.,-1.12583302492));
#773 = LINE('',#774,#775);
#774 = CARTESIAN_POINT('',(-4.15,0.2,-1.12583302492));
#775 = VECTOR('',#776,1.);
#776 = DIRECTION('',(-1.224646799147E-16,-1.,0.));
#777 = ORIENTED_EDGE('',*,*,#778,.T.);
#778 = EDGE_CURVE('',#771,#779,#781,.T.);
#779 = VERTEX_POINT('',#780);
#780 = CARTESIAN_POINT('',(-1.12583302492,-5.,-4.15));
#781 = CIRCLE('',#782,4.3);
#782 = AXIS2_PLACEMENT_3D('',#783,#784,#785);
#783 = CARTESIAN_POINT('',(-6.123233995737E-16,-5.,0.));
#784 = DIRECTION('',(-1.224646799147E-16,-1.,0.));
#785 = DIRECTION('',(0.,0.,1.));
#786 = ORIENTED_EDGE('',*,*,#787,.F.);
#787 = EDGE_CURVE('',#288,#779,#788,.T.);
#788 = LINE('',#789,#790);
#789 = CARTESIAN_POINT('',(-1.12583302492,0.2,-4.15));
#790 = VECTOR('',#791,1.);
#791 = DIRECTION('',(-1.224646799147E-16,-1.,0.));
#792 = ORIENTED_EDGE('',*,*,#287,.T.);
#793 = ORIENTED_EDGE('',*,*,#794,.T.);
#794 = EDGE_CURVE('',#280,#795,#797,.T.);
#795 = VERTEX_POINT('',#796);
#796 = CARTESIAN_POINT('',(1.12583302492,-5.,-4.15));
#797 = LINE('',#798,#799);
#798 = CARTESIAN_POINT('',(1.12583302492,0.2,-4.15));
#799 = VECTOR('',#800,1.);
#800 = DIRECTION('',(-1.224646799147E-16,-1.,0.));
#801 = ORIENTED_EDGE('',*,*,#802,.T.);
#802 = EDGE_CURVE('',#795,#803,#805,.T.);
#803 = VERTEX_POINT('',#804);
#804 = CARTESIAN_POINT('',(4.15,-5.,-1.12583302492));
#805 = CIRCLE('',#806,4.3);
#806 = AXIS2_PLACEMENT_3D('',#807,#808,#809);
#807 = CARTESIAN_POINT('',(-6.123233995737E-16,-5.,0.));
#808 = DIRECTION('',(-1.224646799147E-16,-1.,0.));
#809 = DIRECTION('',(0.,0.,1.));
#810 = ORIENTED_EDGE('',*,*,#811,.F.);
#811 = EDGE_CURVE('',#263,#803,#812,.T.);
#812 = LINE('',#813,#814);
#813 = CARTESIAN_POINT('',(4.15,0.2,-1.12583302492));
#814 = VECTOR('',#815,1.);
#815 = DIRECTION('',(-1.224646799147E-16,-1.,0.));
#816 = ORIENTED_EDGE('',*,*,#262,.T.);
#817 = ORIENTED_EDGE('',*,*,#818,.T.);
#818 = EDGE_CURVE('',#255,#819,#821,.T.);
#819 = VERTEX_POINT('',#820);
#820 = CARTESIAN_POINT('',(4.15,-5.,1.12583302492));
#821 = LINE('',#822,#823);
#822 = CARTESIAN_POINT('',(4.15,0.2,1.12583302492));
#823 = VECTOR('',#824,1.);
#824 = DIRECTION('',(-1.224646799147E-16,-1.,0.));
#825 = ORIENTED_EDGE('',*,*,#826,.T.);
#826 = EDGE_CURVE('',#819,#827,#829,.T.);
#827 = VERTEX_POINT('',#828);
#828 = CARTESIAN_POINT('',(1.12583302492,-5.,4.15));
#829 = CIRCLE('',#830,4.3);
#830 = AXIS2_PLACEMENT_3D('',#831,#832,#833);
#831 = CARTESIAN_POINT('',(-6.123233995737E-16,-5.,0.));
#832 = DIRECTION('',(-1.224646799147E-16,-1.,0.));
#833 = DIRECTION('',(0.,0.,1.));
#834 = ORIENTED_EDGE('',*,*,#835,.F.);
#835 = EDGE_CURVE('',#238,#827,#836,.T.);
#836 = LINE('',#837,#838);
#837 = CARTESIAN_POINT('',(1.12583302492,0.2,4.15));
#838 = VECTOR('',#839,1.);
#839 = DIRECTION('',(-1.224646799147E-16,-1.,0.));
#840 = ORIENTED_EDGE('',*,*,#237,.T.);
#841 = CYLINDRICAL_SURFACE('',#842,4.3);
#842 = AXIS2_PLACEMENT_3D('',#843,#844,#845);
#843 = CARTESIAN_POINT('',(2.449293598295E-17,0.2,0.));
#844 = DIRECTION('',(-1.224646799147E-16,-1.,0.));
#845 = DIRECTION('',(0.,0.,1.));
#846 = ADVANCED_FACE('',(#847),#865,.F.);
#847 = FACE_BOUND('',#848,.F.);
#848 = EDGE_LOOP('',(#849,#850,#858,#864));
#849 = ORIENTED_EDGE('',*,*,#329,.T.);
#850 = ORIENTED_EDGE('',*,*,#851,.T.);
#851 = EDGE_CURVE('',#322,#852,#854,.T.);
#852 = VERTEX_POINT('',#853);
#853 = CARTESIAN_POINT('',(-4.15,-5.,4.15));
#854 = LINE('',#855,#856);
#855 = CARTESIAN_POINT('',(-4.15,0.2,4.15));
#856 = VECTOR('',#857,1.);
#857 = DIRECTION('',(-1.224646799147E-16,-1.,0.));
#858 = ORIENTED_EDGE('',*,*,#859,.F.);
#859 = EDGE_CURVE('',#747,#852,#860,.T.);
#860 = LINE('',#861,#862);
#861 = CARTESIAN_POINT('',(4.15,-5.,4.15));
#862 = VECTOR('',#863,1.);
#863 = DIRECTION('',(-1.,1.224646799147E-16,0.));
#864 = ORIENTED_EDGE('',*,*,#746,.F.);
#865 = PLANE('',#866);
#866 = AXIS2_PLACEMENT_3D('',#867,#868,#869);
#867 = CARTESIAN_POINT('',(4.15,0.2,4.15));
#868 = DIRECTION('',(0.,0.,1.));
#869 = DIRECTION('',(-1.,1.224646799147E-16,0.));
#870 = ADVANCED_FACE('',(#871),#882,.F.);
#871 = FACE_BOUND('',#872,.F.);
#872 = EDGE_LOOP('',(#873,#874,#875,#876));
#873 = ORIENTED_EDGE('',*,*,#851,.F.);
#874 = ORIENTED_EDGE('',*,*,#321,.T.);
#875 = ORIENTED_EDGE('',*,*,#763,.T.);
#876 = ORIENTED_EDGE('',*,*,#877,.T.);
#877 = EDGE_CURVE('',#755,#852,#878,.T.);
#878 = LINE('',#879,#880);
#879 = CARTESIAN_POINT('',(-4.15,-5.,-4.15));
#880 = VECTOR('',#881,1.);
#881 = DIRECTION('',(0.,0.,1.));
#882 = PLANE('',#883);
#883 = AXIS2_PLACEMENT_3D('',#884,#885,#886);
#884 = CARTESIAN_POINT('',(-4.15,0.2,-4.15));
#885 = DIRECTION('',(-1.,1.224646799147E-16,0.));
#886 = DIRECTION('',(0.,0.,1.));
#887 = ADVANCED_FACE('',(#888),#906,.F.);
#888 = FACE_BOUND('',#889,.F.);
#889 = EDGE_LOOP('',(#890,#891,#899,#905));
#890 = ORIENTED_EDGE('',*,*,#304,.T.);
#891 = ORIENTED_EDGE('',*,*,#892,.T.);
#892 = EDGE_CURVE('',#297,#893,#895,.T.);
#893 = VERTEX_POINT('',#894);
#894 = CARTESIAN_POINT('',(-4.15,-5.,-4.15));
#895 = LINE('',#896,#897);
#896 = CARTESIAN_POINT('',(-4.15,0.2,-4.15));
#897 = VECTOR('',#898,1.);
#898 = DIRECTION('',(-1.224646799147E-16,-1.,0.));
#899 = ORIENTED_EDGE('',*,*,#900,.T.);
#900 = EDGE_CURVE('',#893,#771,#901,.T.);
#901 = LINE('',#902,#903);
#902 = CARTESIAN_POINT('',(-4.15,-5.,-4.15));
#903 = VECTOR('',#904,1.);
#904 = DIRECTION('',(0.,0.,1.));
#905 = ORIENTED_EDGE('',*,*,#770,.F.);
#906 = PLANE('',#907);
#907 = AXIS2_PLACEMENT_3D('',#908,#909,#910);
#908 = CARTESIAN_POINT('',(-4.15,0.2,-4.15));
#909 = DIRECTION('',(-1.,1.224646799147E-16,0.));
#910 = DIRECTION('',(0.,0.,1.));
#911 = ADVANCED_FACE('',(#912),#923,.T.);
#912 = FACE_BOUND('',#913,.T.);
#913 = EDGE_LOOP('',(#914,#915,#916,#922));
#914 = ORIENTED_EDGE('',*,*,#296,.T.);
#915 = ORIENTED_EDGE('',*,*,#892,.T.);
#916 = ORIENTED_EDGE('',*,*,#917,.F.);
#917 = EDGE_CURVE('',#779,#893,#918,.T.);
#918 = LINE('',#919,#920);
#919 = CARTESIAN_POINT('',(4.15,-5.,-4.15));
#920 = VECTOR('',#921,1.);
#921 = DIRECTION('',(-1.,1.224646799147E-16,0.));
#922 = ORIENTED_EDGE('',*,*,#787,.F.);
#923 = PLANE('',#924);
#924 = AXIS2_PLACEMENT_3D('',#925,#926,#927);
#925 = CARTESIAN_POINT('',(4.15,0.2,-4.15));
#926 = DIRECTION('',(0.,0.,1.));
#927 = DIRECTION('',(-1.,1.224646799147E-16,0.));
#928 = ADVANCED_FACE('',(#929),#947,.T.);
#929 = FACE_BOUND('',#930,.T.);
#930 = EDGE_LOOP('',(#931,#939,#940,#941));
#931 = ORIENTED_EDGE('',*,*,#932,.F.);
#932 = EDGE_CURVE('',#272,#933,#935,.T.);
#933 = VERTEX_POINT('',#934);
#934 = CARTESIAN_POINT('',(4.15,-5.,-4.15));
#935 = LINE('',#936,#937);
#936 = CARTESIAN_POINT('',(4.15,0.2,-4.15));
#937 = VECTOR('',#938,1.);
#938 = DIRECTION('',(-1.224646799147E-16,-1.,0.));
#939 = ORIENTED_EDGE('',*,*,#279,.T.);
#940 = ORIENTED_EDGE('',*,*,#794,.T.);
#941 = ORIENTED_EDGE('',*,*,#942,.F.);
#942 = EDGE_CURVE('',#933,#795,#943,.T.);
#943 = LINE('',#944,#945);
#944 = CARTESIAN_POINT('',(4.15,-5.,-4.15));
#945 = VECTOR('',#946,1.);
#946 = DIRECTION('',(-1.,1.224646799147E-16,0.));
#947 = PLANE('',#948);
#948 = AXIS2_PLACEMENT_3D('',#949,#950,#951);
#949 = CARTESIAN_POINT('',(4.15,0.2,-4.15));
#950 = DIRECTION('',(0.,0.,1.));
#951 = DIRECTION('',(-1.,1.224646799147E-16,0.));
#952 = ADVANCED_FACE('',(#953),#964,.T.);
#953 = FACE_BOUND('',#954,.T.);
#954 = EDGE_LOOP('',(#955,#956,#957,#963));
#955 = ORIENTED_EDGE('',*,*,#271,.T.);
#956 = ORIENTED_EDGE('',*,*,#932,.T.);
#957 = ORIENTED_EDGE('',*,*,#958,.T.);
#958 = EDGE_CURVE('',#933,#803,#959,.T.);
#959 = LINE('',#960,#961);
#960 = CARTESIAN_POINT('',(4.15,-5.,-4.15));
#961 = VECTOR('',#962,1.);
#962 = DIRECTION('',(0.,0.,1.));
#963 = ORIENTED_EDGE('',*,*,#811,.F.);
#964 = PLANE('',#965);
#965 = AXIS2_PLACEMENT_3D('',#966,#967,#968);
#966 = CARTESIAN_POINT('',(4.15,0.2,-4.15));
#967 = DIRECTION('',(-1.,1.224646799147E-16,0.));
#968 = DIRECTION('',(0.,0.,1.));
#969 = ADVANCED_FACE('',(#970),#988,.T.);
#970 = FACE_BOUND('',#971,.T.);
#971 = EDGE_LOOP('',(#972,#980,#981,#982));
#972 = ORIENTED_EDGE('',*,*,#973,.F.);
#973 = EDGE_CURVE('',#247,#974,#976,.T.);
#974 = VERTEX_POINT('',#975);
#975 = CARTESIAN_POINT('',(4.15,-5.,4.15));
#976 = LINE('',#977,#978);
#977 = CARTESIAN_POINT('',(4.15,0.2,4.15));
#978 = VECTOR('',#979,1.);
#979 = DIRECTION('',(-1.224646799147E-16,-1.,0.));
#980 = ORIENTED_EDGE('',*,*,#254,.T.);
#981 = ORIENTED_EDGE('',*,*,#818,.T.);
#982 = ORIENTED_EDGE('',*,*,#983,.T.);
#983 = EDGE_CURVE('',#819,#974,#984,.T.);
#984 = LINE('',#985,#986);
#985 = CARTESIAN_POINT('',(4.15,-5.,-4.15));
#986 = VECTOR('',#987,1.);
#987 = DIRECTION('',(0.,0.,1.));
#988 = PLANE('',#989);
#989 = AXIS2_PLACEMENT_3D('',#990,#991,#992);
#990 = CARTESIAN_POINT('',(4.15,0.2,-4.15));
#991 = DIRECTION('',(-1.,1.224646799147E-16,0.));
#992 = DIRECTION('',(0.,0.,1.));
#993 = ADVANCED_FACE('',(#994),#1005,.F.);
#994 = FACE_BOUND('',#995,.F.);
#995 = EDGE_LOOP('',(#996,#997,#998,#999));
#996 = ORIENTED_EDGE('',*,*,#973,.F.);
#997 = ORIENTED_EDGE('',*,*,#246,.T.);
#998 = ORIENTED_EDGE('',*,*,#835,.T.);
#999 = ORIENTED_EDGE('',*,*,#1000,.F.);
#1000 = EDGE_CURVE('',#974,#827,#1001,.T.);
#1001 = LINE('',#1002,#1003);
#1002 = CARTESIAN_POINT('',(4.15,-5.,4.15));
#1003 = VECTOR('',#1004,1.);
#1004 = DIRECTION('',(-1.,1.224646799147E-16,0.));
#1005 = PLANE('',#1006);
#1006 = AXIS2_PLACEMENT_3D('',#1007,#1008,#1009);
#1007 = CARTESIAN_POINT('',(4.15,0.2,4.15));
#1008 = DIRECTION('',(0.,0.,1.));
#1009 = DIRECTION('',(-1.,1.224646799147E-16,0.));
#1010 = ADVANCED_FACE('',(#1011),#1016,.F.);
#1011 = FACE_BOUND('',#1012,.F.);
#1012 = EDGE_LOOP('',(#1013,#1014,#1015));
#1013 = ORIENTED_EDGE('',*,*,#826,.F.);
#1014 = ORIENTED_EDGE('',*,*,#983,.T.);
#1015 = ORIENTED_EDGE('',*,*,#1000,.T.);
#1016 = PLANE('',#1017);
#1017 = AXIS2_PLACEMENT_3D('',#1018,#1019,#1020);
#1018 = CARTESIAN_POINT('',(4.15,-5.,-4.15));
#1019 = DIRECTION('',(-1.224646799147E-16,-1.,0.));
#1020 = DIRECTION('',(0.,0.,1.));
#1021 = ADVANCED_FACE('',(#1022),#1027,.F.);
#1022 = FACE_BOUND('',#1023,.F.);
#1023 = EDGE_LOOP('',(#1024,#1025,#1026));
#1024 = ORIENTED_EDGE('',*,*,#942,.F.);
#1025 = ORIENTED_EDGE('',*,*,#958,.T.);
#1026 = ORIENTED_EDGE('',*,*,#802,.F.);
#1027 = PLANE('',#1028);
#1028 = AXIS2_PLACEMENT_3D('',#1029,#1030,#1031);
#1029 = CARTESIAN_POINT('',(4.15,-5.,-4.15));
#1030 = DIRECTION('',(-1.224646799147E-16,-1.,0.));
#1031 = DIRECTION('',(0.,0.,1.));
#1032 = ADVANCED_FACE('',(#1033),#1038,.F.);
#1033 = FACE_BOUND('',#1034,.F.);
#1034 = EDGE_LOOP('',(#1035,#1036,#1037));
#1035 = ORIENTED_EDGE('',*,*,#917,.F.);
#1036 = ORIENTED_EDGE('',*,*,#778,.F.);
#1037 = ORIENTED_EDGE('',*,*,#900,.F.);
#1038 = PLANE('',#1039);
#1039 = AXIS2_PLACEMENT_3D('',#1040,#1041,#1042);
#1040 = CARTESIAN_POINT('',(4.15,-5.,-4.15));
#1041 = DIRECTION('',(-1.224646799147E-16,-1.,0.));
#1042 = DIRECTION('',(0.,0.,1.));
#1043 = ADVANCED_FACE('',(#1044),#1049,.F.);
#1044 = FACE_BOUND('',#1045,.F.);
#1045 = EDGE_LOOP('',(#1046,#1047,#1048));
#1046 = ORIENTED_EDGE('',*,*,#877,.F.);
#1047 = ORIENTED_EDGE('',*,*,#754,.F.);
#1048 = ORIENTED_EDGE('',*,*,#859,.T.);
#1049 = PLANE('',#1050);
#1050 = AXIS2_PLACEMENT_3D('',#1051,#1052,#1053);
#1051 = CARTESIAN_POINT('',(4.15,-5.,-4.15));
#1052 = DIRECTION('',(-1.224646799147E-16,-1.,0.));
#1053 = DIRECTION('',(0.,0.,1.));
#1054 = ADVANCED_FACE('',(#1055),#1063,.F.);
#1055 = FACE_BOUND('',#1056,.F.);
#1056 = EDGE_LOOP('',(#1057,#1058,#1059,#1060,#1061,#1062));
#1057 = ORIENTED_EDGE('',*,*,#642,.F.);
#1058 = ORIENTED_EDGE('',*,*,#92,.T.);
#1059 = ORIENTED_EDGE('',*,*,#83,.T.);
#1060 = ORIENTED_EDGE('',*,*,#581,.T.);
#1061 = ORIENTED_EDGE('',*,*,#388,.F.);
#1062 = ORIENTED_EDGE('',*,*,#397,.F.);
#1063 = CYLINDRICAL_SURFACE('',#1064,3.4);
#1064 = AXIS2_PLACEMENT_3D('',#1065,#1066,#1067);
#1065 = CARTESIAN_POINT('',(-11.45512985522,0.2,-11.45512985522));
#1066 = DIRECTION('',(-1.224646799147E-16,-1.,0.));
#1067 = DIRECTION('',(0.,0.,1.));
#1068 = ADVANCED_FACE('',(#1069),#1077,.F.);
#1069 = FACE_BOUND('',#1070,.F.);
#1070 = EDGE_LOOP('',(#1071,#1072,#1073,#1074,#1075,#1076));
#1071 = ORIENTED_EDGE('',*,*,#664,.F.);
#1072 = ORIENTED_EDGE('',*,*,#119,.T.);
#1073 = ORIENTED_EDGE('',*,*,#110,.T.);
#1074 = ORIENTED_EDGE('',*,*,#649,.T.);
#1075 = ORIENTED_EDGE('',*,*,#415,.F.);
#1076 = ORIENTED_EDGE('',*,*,#424,.F.);
#1077 = CYLINDRICAL_SURFACE('',#1078,3.4);
#1078 = AXIS2_PLACEMENT_3D('',#1079,#1080,#1081);
#1079 = CARTESIAN_POINT('',(3.000384657911E-15,0.2,-16.2));
#1080 = DIRECTION('',(-1.224646799147E-16,-1.,0.));
#1081 = DIRECTION('',(0.,0.,1.));
#1082 = ADVANCED_FACE('',(#1083),#1091,.F.);
#1083 = FACE_BOUND('',#1084,.F.);
#1084 = EDGE_LOOP('',(#1085,#1086,#1087,#1088,#1089,#1090));
#1085 = ORIENTED_EDGE('',*,*,#720,.F.);
#1086 = ORIENTED_EDGE('',*,*,#146,.T.);
#1087 = ORIENTED_EDGE('',*,*,#137,.T.);
#1088 = ORIENTED_EDGE('',*,*,#671,.T.);
#1089 = ORIENTED_EDGE('',*,*,#442,.F.);
#1090 = ORIENTED_EDGE('',*,*,#451,.F.);
#1091 = CYLINDRICAL_SURFACE('',#1092,3.4);
#1092 = AXIS2_PLACEMENT_3D('',#1093,#1094,#1095);
#1093 = CARTESIAN_POINT('',(11.455129855222,0.2,-11.45512985522));
#1094 = DIRECTION('',(-1.224646799147E-16,-1.,0.));
#1095 = DIRECTION('',(0.,0.,1.));
#1096 = ( GEOMETRIC_REPRESENTATION_CONTEXT(3) 
GLOBAL_UNCERTAINTY_ASSIGNED_CONTEXT((#1100)) 
GLOBAL_UNIT_ASSIGNED_CONTEXT((#1097,#1098,#1099)) REPRESENTATION_CONTEXT
('Context #1','3D Context with UNIT and UNCERTAINTY') );
#1097 = ( LENGTH_UNIT() NAMED_UNIT(*) SI_UNIT(.MILLI.,.METRE.) );
#1098 = ( NAMED_UNIT(*) PLANE_ANGLE_UNIT() SI_UNIT($,.RADIAN.) );
#1099 = ( NAMED_UNIT(*) SI_UNIT($,.STERADIAN.) SOLID_ANGLE_UNIT() );
#1100 = UNCERTAINTY_MEASURE_WITH_UNIT(LENGTH_MEASURE(1.E-07),#1097,
  'distance_accuracy_value','confusion accuracy');
#1101 = PRODUCT_RELATED_PRODUCT_CATEGORY('part',$,(#7));
ENDSEC;
END-ISO-10303-21;
